<svg width="774" height="758" viewBox="0 0 774 758" fill="none" xmlns="http://www.w3.org/2000/svg">
<mask id="mask0" mask-type="alpha" maskUnits="userSpaceOnUse" x="0" y="0" width="774" height="759">
<path d="M290.535 431.267C290.535 435.872 288.286 441.221 282.182 447.101C276.05 453.008 266.65 458.788 254.214 463.855C229.394 473.966 194.416 480.45 155.268 480.45C116.119 480.45 81.141 473.966 56.3209 463.855C43.8857 458.788 34.4857 453.008 28.3532 447.101C22.2488 441.221 20 435.872 20 431.267C20 426.662 22.2488 421.312 28.3532 415.432C34.4857 409.525 43.8857 403.745 56.3209 398.679C81.141 388.567 116.119 382.084 155.268 382.084C194.416 382.084 229.394 388.567 254.214 398.679C266.65 403.745 276.05 409.525 282.182 415.432C288.286 421.312 290.535 426.662 290.535 431.267Z" stroke="black" stroke-width="20"/>
<path d="M10 495.83C10 528.516 75.0385 555.013 155.268 555.013C235.497 555.013 300.535 528.516 300.535 495.83C300.535 463.144 235.497 436.647 155.268 436.647C108.255 436.647 66.4588 445.745 39.908 459.856" stroke="black" stroke-width="20"/>
<path d="M290.535 366.703C290.535 371.308 288.286 376.658 282.182 382.538C276.05 388.445 266.65 394.225 254.214 399.291C229.394 409.403 194.416 415.886 155.268 415.886C116.119 415.886 81.141 409.403 56.3209 399.291C43.8857 394.225 34.4857 388.445 28.3532 382.538C22.2488 376.658 20 371.308 20 366.703C20 362.099 22.2488 356.749 28.3532 350.869C34.4857 344.962 43.8857 339.182 56.3209 334.116C81.141 324.004 116.119 317.52 155.268 317.52C194.416 317.52 229.394 324.004 254.214 334.116C266.65 339.182 276.05 344.962 282.182 350.869C288.286 356.749 290.535 362.099 290.535 366.703Z" stroke="black" stroke-width="20"/>
<path d="M296.611 342.776C295.201 347.159 291.423 351.564 283.812 355.293C276.166 359.04 265.448 361.665 252.059 362.682C225.335 364.712 190.051 360.178 152.781 348.196C115.512 336.213 84.1968 319.335 63.6629 302.112C53.3752 293.483 46.1955 285.103 42.1653 277.602C38.1536 270.136 37.6501 264.355 39.0596 259.971C40.469 255.587 44.2473 251.182 51.8584 247.453C59.5045 243.707 70.2226 241.081 83.6116 240.064C110.336 238.034 145.619 242.568 182.889 254.551C220.159 266.533 251.474 283.411 272.008 300.635C282.295 309.264 289.475 317.644 293.505 325.144C297.517 332.61 298.02 338.392 296.611 342.776Z" stroke="black" stroke-width="20"/>
<path d="M313.971 317.775C311.203 321.455 306.19 324.378 297.777 325.407C289.325 326.441 278.339 325.409 265.356 321.982C239.442 315.141 207.593 299.295 176.308 275.76C145.024 252.225 120.97 226.017 107.214 203.015C100.322 191.491 96.2856 181.221 94.936 172.814C93.5926 164.445 95.0116 158.818 97.7799 155.138C100.548 151.459 105.561 148.535 113.974 147.506C122.426 146.473 133.413 147.504 146.395 150.932C172.309 157.772 204.158 173.618 235.443 197.153C266.727 220.688 290.782 246.897 304.537 269.898C311.429 281.422 315.466 291.692 316.815 300.099C318.159 308.468 316.74 314.095 313.971 317.775Z" stroke="black" stroke-width="20"/>
<path d="M323.099 303.138C318.99 305.218 313.202 305.628 305.199 302.837C297.159 300.034 287.756 294.258 277.62 285.452C257.388 267.875 235.805 239.596 218.123 204.668C200.442 169.74 190.428 135.604 188.239 108.893C187.143 95.5103 188.054 84.5129 190.555 76.3737C193.044 68.2717 196.801 63.8491 200.909 61.7693C205.018 59.6895 210.806 59.2796 218.809 62.0702C226.849 64.8736 236.252 70.6495 246.388 79.4558C266.62 97.033 288.203 125.312 305.885 160.24C323.567 195.168 333.58 229.303 335.769 256.015C336.865 269.397 335.954 280.395 333.453 288.534C330.964 296.636 327.207 301.059 323.099 303.138Z" stroke="black" stroke-width="20"/>
<path d="M358.08 288.814C353.632 290.006 347.882 289.218 340.623 284.844C333.33 280.449 325.314 272.865 317.202 262.165C301.01 240.808 285.695 208.7 275.562 170.885C265.43 133.071 262.64 97.6064 265.983 71.0149C267.658 57.6922 270.809 47.1164 274.927 39.6641C279.027 32.2458 283.612 28.6891 288.06 27.4972C292.508 26.3054 298.257 27.093 305.517 31.4676C312.81 35.8622 320.826 43.4459 328.938 54.1461C345.129 75.5034 360.445 107.612 370.577 145.426C380.709 183.241 383.5 218.705 380.156 245.297C378.481 258.619 375.331 269.195 371.212 276.647C367.113 284.066 362.527 287.622 358.08 288.814Z" stroke="black" stroke-width="20"/>
<path d="M487.746 342.776C489.156 347.159 492.934 351.564 500.545 355.293C508.191 359.04 518.909 361.665 532.298 362.682C559.022 364.712 594.306 360.178 631.576 348.196C668.845 336.213 700.16 319.335 720.694 302.112C730.982 293.483 738.162 285.103 742.192 277.602C746.204 270.136 746.707 264.355 745.298 259.971C743.888 255.587 740.11 251.182 732.499 247.453C724.853 243.707 714.135 241.081 700.746 240.064C674.022 238.034 638.738 242.568 601.468 254.551C564.198 266.533 532.884 283.411 512.35 300.635C502.062 309.264 494.882 317.644 490.852 325.144C486.84 332.61 486.337 338.392 487.746 342.776Z" stroke="black" stroke-width="20"/>
<path d="M470.387 317.775C473.156 321.455 478.169 324.378 486.582 325.407C495.033 326.441 506.02 325.409 519.003 321.982C544.916 315.141 576.766 299.295 608.05 275.76C639.335 252.225 663.389 226.017 677.145 203.015C684.036 191.491 688.073 181.221 689.423 172.814C690.766 164.445 689.347 158.818 686.579 155.138C683.811 151.459 678.797 148.535 670.384 147.506C661.933 146.473 650.946 147.504 637.963 150.932C612.05 157.772 580.201 173.618 548.916 197.153C517.631 220.688 493.577 246.897 479.822 269.898C472.93 281.422 468.893 291.692 467.544 300.099C466.2 308.468 467.619 314.095 470.387 317.775Z" stroke="black" stroke-width="20"/>
<path d="M461.26 303.138C465.368 305.218 471.157 305.628 479.16 302.837C487.2 300.034 496.603 294.258 506.739 285.452C526.971 267.875 548.554 239.596 566.235 204.668C583.917 169.74 593.931 135.604 596.119 108.893C597.216 95.5103 596.304 84.5129 593.804 76.3737C591.315 68.2717 587.558 63.8491 583.449 61.7693C579.341 59.6895 573.552 59.2796 565.549 62.0702C557.509 64.8736 548.107 70.6495 537.97 79.4558C517.738 97.033 496.156 125.312 478.474 160.24C460.792 195.168 450.778 229.303 448.59 256.015C447.493 269.397 448.405 280.395 450.905 288.534C453.394 296.636 457.151 301.059 461.26 303.138Z" stroke="black" stroke-width="20"/>
<path d="M426.279 288.814C430.727 290.006 436.476 289.218 443.736 284.844C451.029 280.449 459.045 272.865 467.157 262.165C483.348 240.808 498.663 208.7 508.796 170.885C518.928 133.071 521.719 97.6064 518.375 71.0149C516.7 57.6922 513.55 47.1164 509.431 39.6641C505.332 32.2458 500.746 28.6891 496.299 27.4972C491.851 26.3054 486.101 27.093 478.842 31.4676C471.549 35.8622 463.533 43.4459 455.421 54.1461C439.229 75.5034 423.914 107.612 413.781 145.426C403.649 183.241 400.859 218.705 404.202 245.297C405.877 258.619 409.027 269.195 413.146 276.647C417.246 284.066 421.831 287.622 426.279 288.814Z" stroke="black" stroke-width="20"/>
<path d="M389.327 281.379C393.932 281.379 399.281 279.131 405.161 273.026C411.068 266.894 416.849 257.494 421.915 245.059C432.027 220.238 438.51 185.26 438.51 146.112C438.51 106.963 432.027 71.9853 421.915 47.1651C416.849 34.7299 411.068 25.3299 405.161 19.1975C399.281 13.093 393.932 10.8442 389.327 10.8442C384.722 10.8442 379.372 13.093 373.492 19.1975C367.586 25.3299 361.805 34.7299 356.739 47.1651C346.627 71.9853 340.144 106.963 340.144 146.112C340.144 185.26 346.627 220.238 356.739 245.059C361.805 257.494 367.586 266.894 373.492 273.026C379.372 279.131 384.722 281.379 389.327 281.379Z" stroke="black" stroke-width="20"/>
<path d="M764 495.83C764 500.435 761.751 505.785 755.647 511.665C749.514 517.572 740.114 523.352 727.679 528.418C702.859 538.53 667.881 545.013 628.732 545.013C589.584 545.013 554.606 538.53 529.786 528.418C517.351 523.352 507.951 517.572 501.818 511.665C495.714 505.785 493.465 500.435 493.465 495.83C493.465 491.225 495.714 485.876 501.818 479.996C507.951 474.089 517.351 468.309 529.786 463.242C554.606 453.13 589.584 446.647 628.732 446.647C667.881 446.647 702.859 453.13 727.679 463.242C740.114 468.309 749.514 474.089 755.647 479.996C761.751 485.876 764 491.225 764 495.83Z" stroke="black" stroke-width="20"/>
<path d="M764 624.957C764 629.562 761.751 634.912 755.647 640.791C749.514 646.698 740.114 652.479 727.679 657.545C702.859 667.657 667.881 674.14 628.732 674.14C589.584 674.14 554.606 667.657 529.786 657.545C517.351 652.479 507.951 646.698 501.818 640.791C495.714 634.912 493.465 629.562 493.465 624.957C493.465 620.352 495.714 615.002 501.818 609.123C507.951 603.216 517.351 597.435 529.786 592.369C554.606 582.257 589.584 575.774 628.732 575.774C667.881 575.774 702.859 582.257 727.679 592.369C740.114 597.435 749.514 603.216 755.647 609.123C761.751 615.002 764 620.352 764 624.957Z" stroke="black" stroke-width="20"/>
<path d="M740.66 737.386C713.929 744.504 681.008 748.703 645.403 748.703C555.967 748.703 483.465 722.206 483.465 689.52C483.465 656.834 555.967 630.337 645.403 630.337C686.453 630.337 723.937 635.92 752.479 645.121" stroke="black" stroke-width="20"/>
<path d="M764 560.394C764 564.998 761.751 570.348 755.647 576.228C749.514 582.135 740.114 587.915 727.679 592.981C702.859 603.093 667.881 609.577 628.732 609.577C589.584 609.577 554.606 603.093 529.786 592.981C517.351 587.915 507.951 582.135 501.818 576.228C495.714 570.348 493.465 564.998 493.465 560.394C493.465 555.789 495.714 550.439 501.818 544.559C507.951 538.652 517.351 532.872 529.786 527.806C554.606 517.694 589.584 511.21 628.732 511.21C667.881 511.21 702.859 517.694 727.679 527.806C740.114 532.872 749.514 538.652 755.647 544.559C761.751 550.439 764 555.789 764 560.394Z" stroke="black" stroke-width="20"/>
<path d="M764 431.267C764 435.872 761.751 441.221 755.647 447.101C749.514 453.008 740.114 458.788 727.679 463.855C702.859 473.966 667.881 480.45 628.732 480.45C589.584 480.45 554.606 473.966 529.786 463.855C517.351 458.788 507.951 453.008 501.818 447.101C495.714 441.221 493.465 435.872 493.465 431.267C493.465 426.662 495.714 421.312 501.818 415.432C507.951 409.525 517.351 403.745 529.786 398.679C554.606 388.567 589.584 382.084 628.732 382.084C667.881 382.084 702.859 388.567 727.679 398.679C740.114 403.745 749.514 409.525 755.647 415.432C761.751 421.312 764 426.662 764 431.267Z" stroke="black" stroke-width="20"/>
<path d="M764 366.703C764 371.308 761.751 376.658 755.647 382.538C749.514 388.445 740.114 394.225 727.679 399.291C702.859 409.403 667.881 415.886 628.732 415.886C589.584 415.886 554.606 409.403 529.786 399.291C517.351 394.225 507.951 388.445 501.818 382.538C495.714 376.658 493.465 371.308 493.465 366.703C493.465 362.099 495.714 356.749 501.818 350.869C507.951 344.962 517.351 339.182 529.786 334.116C554.606 324.004 589.584 317.52 628.732 317.52C667.881 317.52 702.859 324.004 727.679 334.116C740.114 339.182 749.514 344.962 755.647 350.869C761.751 356.749 764 362.099 764 366.703Z" stroke="black" stroke-width="20"/>
</mask>
<g mask="url(#mask0)">
<rect x="-121" y="-23" width="1019" height="781" fill="url(#paint0_linear)"/>
</g>
<defs>
<linearGradient id="paint0_linear" x1="127.5" y1="219.5" x2="779" y2="711" gradientUnits="userSpaceOnUse">
<stop stop-color="#FFB800"/>
<stop offset="0.354167" stop-color="#F54747"/>
<stop offset="0.65625" stop-color="#CF329E"/>
<stop offset="1" stop-color="#8D19E9"/>
</linearGradient>
</defs>
</svg>
