<svg width="43" height="44" viewBox="0 0 43 44" fill="none" xmlns="http://www.w3.org/2000/svg">
<g clip-path="url(#clip0_409:3)">
<path d="M21.959 8.29663C17.173 8.29663 13.2812 12.1903 13.2812 16.9763V27.0235C13.2812 31.8095 17.173 35.7032 21.959 35.7032C26.745 35.7032 30.6368 31.8095 30.6368 27.0235V16.9763C30.6368 12.1903 26.745 8.29663 21.959 8.29663ZM29.7405 27.0236C29.7405 31.3171 26.2526 34.8102 21.959 34.8102C17.6655 34.8102 14.1775 31.3171 14.1775 27.0236V21.7148H29.7405V27.0236ZM29.7405 20.8185H22.3664V9.20108C26.4813 9.41932 29.7405 12.8233 29.7405 16.9764V20.8185Z" fill="#848484"/>
</g>
<defs>
<clipPath id="clip0_409:3">
<rect width="44" height="44" fill="white"/>
</clipPath>
</defs>
</svg>
