<svg width="40" height="40" viewBox="0 0 40 40" fill="none" xmlns="http://www.w3.org/2000/svg">
<g clip-path="url(#clip0_705_5)">
<g clip-path="url(#clip1_705_5)">
<path d="M32.6674 37.2641H23.9954C23.5532 37.2641 23.1954 36.9063 23.1954 36.4641V3.53608C23.1954 3.09388 23.5532 2.73608 23.9954 2.73608H32.6674C33.1096 2.73608 33.4674 3.0939 33.4674 3.53608V36.4625C33.4674 36.9062 33.108 37.2641 32.6674 37.2641ZM16.005 37.2641H7.33296C6.89076 37.2641 6.53296 36.9063 6.53296 36.4641V3.53608C6.53296 3.09388 6.89077 2.73608 7.33296 2.73608H16.005C16.4472 2.73608 16.805 3.0939 16.805 3.53608V36.4625C16.805 36.9062 16.4456 37.2641 16.005 37.2641Z" fill="black"/>
</g>
</g>
<defs>
<clipPath id="clip0_705_5">
<rect width="40" height="40" fill="white"/>
</clipPath>
<clipPath id="clip1_705_5">
<rect width="40" height="40" fill="white"/>
</clipPath>
</defs>
</svg>
