<svg width="42" height="42" viewBox="0 0 42 42" fill="none" xmlns="http://www.w3.org/2000/svg">
<g clip-path="url(#clip0_409:6)">
<path d="M12.6777 16.2047V25.7952C12.6777 30.3637 16.3926 34.0804 20.9611 34.0804C25.5295 34.0804 29.2444 30.3637 29.2444 25.7952V16.2047C29.2444 11.6362 25.5295 7.91956 20.9611 7.91956C16.3926 7.91956 12.6777 11.6363 12.6777 16.2047ZM13.5333 20.7278H28.3888V25.7953C28.3888 29.8937 25.0594 33.2279 20.9611 33.2279C16.8627 33.2279 13.5333 29.8937 13.5333 25.7953V20.7278ZM13.5333 16.2047C13.5333 12.2404 16.6444 8.99122 20.5722 8.78285V19.8722H13.5333V16.2047Z" fill="#848484"/>
</g>
<defs>
<clipPath id="clip0_409:6">
<rect width="42" height="42" fill="white"/>
</clipPath>
</defs>
</svg>
