<?xml version="1.0" encoding="UTF-8"?>
<svg width="100pt" height="100pt" version="1.1" viewBox="0 0 100 100" xmlns="http://www.w3.org/2000/svg">
 <g>
  <path d="m74 32.789-21-12c-1.8555-1.0703-4.1445-1.0703-6 0l-21 12c-1.8594 1.0742-3.0039 3.0625-3 5.2109v24c-0.003906 2.1484 1.1406 4.1367 3 5.2109l21 12c1.8555 1.0703 4.1445 1.0703 6 0l21-12c1.8594-1.0742 3.0039-3.0625 3-5.2109v-24c0.003906-2.1484-1.1406-4.1367-3-5.2109zm-3 29.211-21 12-21-12v-24l21-12 21 12z"/>
  <path d="m53 61c0 4-6 4-6 0s6-4 6 0"/>
  <path d="m47 36h6v15h-6z"/>
 </g>
</svg>
