<svg width="1791" height="423" viewBox="0 0 1791 423" fill="none" xmlns="http://www.w3.org/2000/svg">
<g clip-path="url(#clip0)">
<mask id="mask0" mask-type="alpha" maskUnits="userSpaceOnUse" x="119" y="74" width="289" height="256">
<rect x="119" y="249.375" width="101.163" height="35.5436" fill="black"/>
<rect x="306.355" y="294.456" width="101.291" height="35.5436" fill="black"/>
<rect x="119" y="227.26" width="101.291" height="12.5786" fill="black"/>
<rect width="101.372" height="12.6715" transform="matrix(0.990268 -0.139173 -0.139173 -0.990268 306.945 217.573)" fill="black"/>
<rect width="101.372" height="12.6715" transform="matrix(0.816138 -0.577858 -0.577858 -0.816138 302.576 197.889)" fill="black"/>
<rect width="101.372" height="12.6715" transform="matrix(0.4602 -0.887815 -0.887815 -0.4602 288.55 181.916)" fill="black"/>
<rect x="219.46" y="217.573" width="101.372" height="12.6715" transform="rotate(-172 219.46 217.573)" fill="black"/>
<rect x="223.829" y="197.889" width="101.372" height="12.6715" transform="rotate(-144.7 223.829 197.889)" fill="black"/>
<rect x="237.855" y="181.916" width="101.372" height="12.6715" transform="rotate(-117.4 237.855 181.916)" fill="black"/>
<rect x="268.95" y="74" width="101.291" height="12.5786" transform="rotate(90 268.95 74)" fill="black"/>
<rect width="101.291" height="12.5786" transform="matrix(-1 0 0 1 407.314 227.26)" fill="black"/>
<rect width="101.291" height="12.9096" transform="matrix(-1 0 0 1 407.314 249.438)" fill="black"/>
<rect width="101.291" height="12.9096" transform="matrix(-1 0 0 1 407.314 271.947)" fill="black"/>
</mask>
<g mask="url(#mask0)">
<rect x="63.1458" y="53.2987" width="398.011" height="305.05" fill="white"/>
</g>
<path d="M550.06 215.7C550.06 209.833 548.373 205.14 545 201.62C541.773 197.953 537.373 196.12 531.8 196.12C527.253 196.12 522.34 197.44 517.06 200.08V285H493.08V174.78H514.42L517.28 176.1C523.44 174.047 529.82 173.02 536.42 173.02C543.753 173.02 550.133 174.34 555.56 176.98C561.427 179.62 565.973 183.58 569.2 188.86C572.573 194.14 574.26 200.813 574.26 208.88V285H550.06V215.7ZM619.36 154.76C615.84 154.76 612.76 153.44 610.12 150.8C607.48 148.16 606.16 145.08 606.16 141.56C606.16 138.187 607.48 135.253 610.12 132.76C612.76 130.12 615.84 128.8 619.36 128.8C622.733 128.8 625.667 130.12 628.16 132.76C630.8 135.253 632.12 138.187 632.12 141.56C632.12 145.08 630.8 148.16 628.16 150.8C625.667 153.44 622.733 154.76 619.36 154.76ZM606.6 174.78H630.8V285H606.6V174.78ZM780.041 218.12C780.041 210.2 778.941 204.48 776.741 200.96C774.687 197.44 771.314 195.68 766.621 195.68C763.247 195.68 758.701 196.707 752.981 198.76L749.241 200.3C749.534 201.18 749.754 202.207 749.901 203.38C750.047 204.553 750.121 205.653 750.121 206.68V285H725.921V218.78C725.921 211.447 724.234 205.8 720.861 201.84C717.487 197.88 712.941 195.9 707.221 195.9C702.087 195.9 696.734 197.513 691.161 200.74V285H666.961V174.78H688.301L691.161 176.32C696.001 174.12 701.501 173.02 707.661 173.02C712.647 173.02 717.487 173.9 722.181 175.66C726.874 177.273 730.981 179.913 734.501 183.58C736.554 182.407 739.634 180.793 743.741 178.74C752.394 174.78 760.754 172.8 768.821 172.8C779.234 172.8 787.741 176.027 794.341 182.48C800.941 188.787 804.241 197.587 804.241 208.88V285H780.041V218.12ZM908.844 250.46C908.844 257.94 907.304 264.247 904.224 269.38C901.144 274.513 896.964 278.4 891.684 281.04C886.991 283.387 882.224 285.073 877.384 286.1C872.691 287.127 867.631 287.64 862.204 287.64C856.777 287.64 849.297 287.127 839.764 286.1L827.664 285V131H851.864V175C858.317 173.533 864.184 172.8 869.464 172.8C876.944 172.8 883.837 174.267 890.144 177.2C902.611 182.92 908.844 193.48 908.844 208.88V250.46ZM884.864 215.7C884.864 209.1 883.031 204.407 879.364 201.62C875.697 198.687 871.224 197.22 865.944 197.22C863.011 197.22 860.224 197.587 857.584 198.32C854.944 199.053 853.037 199.933 851.864 200.96V263.88C854.357 264.613 857.364 264.98 860.884 264.98C867.044 264.98 872.544 263.88 877.384 261.68C882.371 259.333 884.864 255.74 884.864 250.9V215.7ZM932.508 131H956.708V285H932.508V131ZM1006.33 252.22C1006.33 256.327 1007.43 259.553 1009.63 261.9C1011.98 264.1 1015.35 265.2 1019.75 265.2C1026.5 265.2 1035.52 262.267 1046.81 256.4L1055.61 277.3C1050.33 280.673 1044.32 283.24 1037.57 285C1030.83 286.76 1024.08 287.64 1017.33 287.64C1006.48 287.64 997.828 285 991.375 279.72C985.068 274.293 981.915 266.227 981.915 255.52V210.42C981.915 198.54 985.582 189.3 992.915 182.7C1000.39 176.1 1010.22 172.8 1022.39 172.8C1034.57 172.8 1044.03 176.1 1050.77 182.7C1057.67 189.153 1061.11 198.173 1061.11 209.76V243.2L1006.33 246.06V252.22ZM1036.69 210.2C1036.69 205.8 1035.3 202.427 1032.51 200.08C1029.73 197.733 1026.28 196.56 1022.17 196.56C1016.6 196.56 1012.57 198.027 1010.07 200.96C1007.58 203.893 1006.33 207.12 1006.33 210.64V223.84L1036.69 221.86V210.2ZM1086.77 174.78H1099.09L1097.99 186C1101.95 181.747 1106.57 178.52 1111.85 176.32C1117.27 174.12 1122.63 173.02 1127.91 173.02C1141.55 173.02 1151.89 176.98 1158.93 184.9C1166.11 192.82 1169.71 203.087 1169.71 215.7V246.28C1169.71 259.627 1165.97 269.893 1158.49 277.08C1151.01 284.12 1141.11 287.64 1128.79 287.64C1122.48 287.64 1116.91 286.76 1112.07 285C1107.23 283.24 1102.9 280.16 1099.09 275.76V326.36L1086.77 331.2V174.78ZM1157.39 214.82C1157.39 204.113 1154.53 196.34 1148.81 191.5C1143.23 186.66 1136.56 184.24 1128.79 184.24C1120.87 184.24 1114.05 186.66 1108.33 191.5C1102.61 196.193 1099.53 203.6 1099.09 213.72V248.48C1099.09 258.013 1101.8 265.053 1107.23 269.6C1112.65 274.147 1119.84 276.42 1128.79 276.42C1136.85 276.42 1143.6 274.073 1149.03 269.38C1154.6 264.54 1157.39 257.573 1157.39 248.48V214.82ZM1260.19 209.54C1260.19 200.593 1257.55 194.14 1252.27 190.18C1247.13 186.073 1240.46 184.02 1232.25 184.02C1227.26 184.02 1222.2 184.753 1217.07 186.22C1211.93 187.54 1207.39 189.3 1203.43 191.5V285H1191.11V131H1203.43V180.72C1207.09 178.227 1211.49 176.32 1216.63 175C1221.76 173.533 1227.11 172.8 1232.69 172.8C1240.31 172.8 1247.28 174.193 1253.59 176.98C1259.45 179.62 1264 183.58 1267.23 188.86C1270.6 194.14 1272.29 200.813 1272.29 208.88V285H1260.19V209.54ZM1337.52 321.74C1347.34 318.073 1352.26 310.447 1352.26 298.86V274.22C1349.47 278.913 1345.29 282.36 1339.72 284.56C1334.14 286.613 1328.13 287.64 1321.68 287.64C1308.77 287.64 1298.8 284.193 1291.76 277.3C1284.86 270.26 1281.42 259.92 1281.42 246.28V174.78H1293.3V248.48C1293.3 257.867 1295.86 264.907 1301 269.6C1306.13 274.147 1313.02 276.42 1321.68 276.42C1330.77 276.42 1338.1 274.147 1343.68 269.6C1349.25 265.053 1352.04 258.013 1352.04 248.48V205.14C1352.04 198.1 1352.26 192.893 1352.7 189.52C1353.14 186 1354.46 182.773 1356.66 179.84C1359 176.76 1362.82 174.413 1368.1 172.8L1371.4 181.16C1366.41 183.36 1363.92 188.493 1363.92 196.56V298.42C1363.92 307.367 1362.16 314.407 1358.64 319.54C1355.12 324.673 1349.18 328.56 1340.82 331.2L1337.52 321.74ZM1398.56 257.06C1399.44 263.66 1402.74 268.647 1408.46 272.02C1414.18 275.247 1420.56 276.86 1427.6 276.86C1434.2 276.86 1440.21 275.393 1445.64 272.46C1451.07 269.38 1453.78 264.467 1453.78 257.72C1453.78 253.32 1452.46 249.727 1449.82 246.94C1447.33 244.007 1444.17 241.66 1440.36 239.9C1436.55 238.14 1431.41 236.233 1424.96 234.18C1417.77 231.833 1411.91 229.633 1407.36 227.58C1402.81 225.527 1398.85 222.667 1395.48 219C1392.11 215.187 1390.13 210.42 1389.54 204.7L1389.32 202.06C1389.32 197.22 1390.64 192.527 1393.28 187.98C1396.07 183.287 1400.25 179.473 1405.82 176.54C1411.54 173.607 1418.65 172.14 1427.16 172.14C1431.85 172.14 1435.96 172.653 1439.48 173.68C1443.15 174.56 1446.01 175.513 1448.06 176.54C1450.11 177.567 1451.36 178.227 1451.8 178.52L1447.62 188.64C1447.18 188.347 1446.08 187.76 1444.32 186.88C1442.71 186 1440.36 185.12 1437.28 184.24C1434.2 183.36 1430.83 182.92 1427.16 182.92C1420.12 182.92 1414.11 184.607 1409.12 187.98C1404.13 191.207 1401.64 195.753 1401.64 201.62C1401.64 207.193 1403.91 211.447 1408.46 214.38C1413.01 217.313 1419.97 220.247 1429.36 223.18C1437.28 225.82 1443.66 228.313 1448.5 230.66C1453.34 233.007 1457.45 236.38 1460.82 240.78C1464.34 245.033 1466.1 250.607 1466.1 257.5C1466.1 266.3 1462.8 273.633 1456.2 279.5C1449.75 285.367 1440.21 288.3 1427.6 288.3C1419.24 288.3 1411.98 286.907 1405.82 284.12C1399.81 281.187 1395.19 277.373 1391.96 272.68C1388.88 267.987 1387.19 262.78 1386.9 257.06H1398.56ZM1498.37 143.54C1496.46 143.54 1494.7 142.807 1493.09 141.34C1491.62 139.727 1490.89 137.967 1490.89 136.06C1490.89 134.153 1491.62 132.467 1493.09 131C1494.55 129.533 1496.31 128.8 1498.37 128.8C1500.42 128.8 1502.11 129.533 1503.43 131C1504.89 132.32 1505.63 134.007 1505.63 136.06C1505.63 138.113 1504.89 139.873 1503.43 141.34C1501.96 142.807 1500.27 143.54 1498.37 143.54ZM1491.99 174.78H1504.31V285H1491.99V174.78ZM1601.9 283.68C1592.81 286.027 1584.01 287.2 1575.5 287.2C1567.58 287.2 1560.98 286.32 1555.7 284.56C1547.05 281.627 1540.74 277.153 1536.78 271.14C1532.97 264.98 1531.06 256.4 1531.06 245.4V217.24C1531.06 202.72 1534.87 191.72 1542.5 184.24C1550.13 176.613 1559.95 172.8 1571.98 172.8C1581.51 172.8 1591.34 175.147 1601.46 179.84L1597.94 188.86C1589.58 185.487 1581.51 183.8 1573.74 183.8C1564.65 183.8 1557.31 186.44 1551.74 191.72C1546.17 196.853 1543.38 204.92 1543.38 215.92V247.82C1543.38 257.94 1546.39 265.273 1552.4 269.82C1558.56 274.367 1566.7 276.64 1576.82 276.64C1583.42 276.64 1590.9 275.687 1599.26 273.78L1601.9 283.68ZM1626.94 257.06C1627.82 263.66 1631.12 268.647 1636.84 272.02C1642.56 275.247 1648.94 276.86 1655.98 276.86C1662.58 276.86 1668.59 275.393 1674.02 272.46C1679.45 269.38 1682.16 264.467 1682.16 257.72C1682.16 253.32 1680.84 249.727 1678.2 246.94C1675.71 244.007 1672.55 241.66 1668.74 239.9C1664.93 238.14 1659.79 236.233 1653.34 234.18C1646.15 231.833 1640.29 229.633 1635.74 227.58C1631.19 225.527 1627.23 222.667 1623.86 219C1620.49 215.187 1618.51 210.42 1617.92 204.7L1617.7 202.06C1617.7 197.22 1619.02 192.527 1621.66 187.98C1624.45 183.287 1628.63 179.473 1634.2 176.54C1639.92 173.607 1647.03 172.14 1655.54 172.14C1660.23 172.14 1664.34 172.653 1667.86 173.68C1671.53 174.56 1674.39 175.513 1676.44 176.54C1678.49 177.567 1679.74 178.227 1680.18 178.52L1676 188.64C1675.56 188.347 1674.46 187.76 1672.7 186.88C1671.09 186 1668.74 185.12 1665.66 184.24C1662.58 183.36 1659.21 182.92 1655.54 182.92C1648.5 182.92 1642.49 184.607 1637.5 187.98C1632.51 191.207 1630.02 195.753 1630.02 201.62C1630.02 207.193 1632.29 211.447 1636.84 214.38C1641.39 217.313 1648.35 220.247 1657.74 223.18C1665.66 225.82 1672.04 228.313 1676.88 230.66C1681.72 233.007 1685.83 236.38 1689.2 240.78C1692.72 245.033 1694.48 250.607 1694.48 257.5C1694.48 266.3 1691.18 273.633 1684.58 279.5C1678.13 285.367 1668.59 288.3 1655.98 288.3C1647.62 288.3 1640.36 286.907 1634.2 284.12C1628.19 281.187 1623.57 277.373 1620.34 272.68C1617.26 267.987 1615.57 262.78 1615.28 257.06H1626.94Z" fill="white"/>
</g>
<defs>
<clipPath id="clip0">
<rect width="1791" height="423" fill="white"/>
</clipPath>
</defs>
</svg>
