<svg width="522" height="421" viewBox="0 0 522 421" fill="none" xmlns="http://www.w3.org/2000/svg">
<g filter="url(#filter0_d)">
<rect x="50" y="257" width="130" height="119" rx="4" fill="white"/>
<rect x="50.5" y="257.5" width="129" height="118" rx="3.5" stroke="#BBBBBB"/>
</g>
<g filter="url(#filter1_d)">
<rect x="50" y="110" width="130" height="43" rx="4" fill="white"/>
<rect x="50.5" y="110.5" width="129" height="42" rx="3.5" stroke="#BBBBBB"/>
</g>
<path d="M87.0607 276.939C86.4749 276.354 85.5251 276.354 84.9393 276.939L75.3934 286.485C74.8076 287.071 74.8076 288.021 75.3934 288.607C75.9792 289.192 76.9289 289.192 77.5147 288.607L86 280.121L94.4853 288.607C95.0711 289.192 96.0208 289.192 96.6066 288.607C97.1924 288.021 97.1924 287.071 96.6066 286.485L87.0607 276.939ZM87.5 329V278H84.5V329H87.5Z" fill="black"/>
<path d="M143.061 330.061C143.646 329.475 143.646 328.525 143.061 327.939L133.515 318.393C132.929 317.808 131.979 317.808 131.393 318.393C130.808 318.979 130.808 319.929 131.393 320.515L139.879 329L131.393 337.485C130.808 338.071 130.808 339.021 131.393 339.607C131.979 340.192 132.929 340.192 133.515 339.607L143.061 330.061ZM86 330.5H142V327.5H86V330.5Z" fill="black"/>
<path d="M67.5663 362.441C67.81 363.233 68.6493 363.677 69.4411 363.434L82.3441 359.464C83.1359 359.22 83.5803 358.381 83.3367 357.589C83.0931 356.797 82.2537 356.353 81.4619 356.596L69.9925 360.125L66.4635 348.656C66.2199 347.864 65.3805 347.42 64.5887 347.663C63.7969 347.907 63.3525 348.746 63.5962 349.538L67.5663 362.441ZM85.6743 327.298L67.6743 361.298L70.3257 362.702L88.3257 328.702L85.6743 327.298Z" fill="black"/>
<path d="M96.873 305.517V305.61C96.873 306.494 96.9411 307.326 97.0771 308.105C97.2194 308.885 97.408 309.605 97.6431 310.267C97.8719 310.935 98.1379 311.541 98.4409 312.085C98.7502 312.636 99.0749 313.125 99.415 313.551C99.749 313.984 100.086 314.349 100.426 314.646C100.773 314.949 101.1 315.187 101.41 315.36L101.771 314.312C101.518 314.108 101.264 313.861 101.011 313.57C100.763 313.285 100.522 312.958 100.287 312.586C100.058 312.197 99.8387 311.755 99.6284 311.26C99.4181 310.771 99.2326 310.239 99.0718 309.664C98.9233 309.095 98.8058 308.473 98.7192 307.799C98.6326 307.125 98.5894 306.402 98.5894 305.628V305.499C98.5894 304.694 98.6357 303.943 98.7285 303.244C98.8213 302.545 98.9512 301.905 99.1182 301.324C99.2913 300.681 99.5078 300.09 99.7676 299.552C100.027 299.007 100.299 298.534 100.584 298.132C100.776 297.873 100.971 297.638 101.168 297.427C101.373 297.217 101.574 297.038 101.771 296.889L101.41 295.757C101.1 295.931 100.776 296.169 100.436 296.472C100.095 296.775 99.7583 297.14 99.4243 297.566C99.0841 297.993 98.7594 298.482 98.4502 299.032C98.1471 299.583 97.8781 300.189 97.6431 300.851C97.408 301.519 97.2194 302.242 97.0771 303.021C96.9411 303.801 96.873 304.633 96.873 305.517ZM115.066 305.833V302.669C115.066 301.809 114.967 301.049 114.769 300.387C114.571 299.719 114.287 299.156 113.916 298.698C113.538 298.241 113.077 297.894 112.533 297.659C111.995 297.418 111.38 297.297 110.687 297.297C110 297.297 109.385 297.418 108.841 297.659C108.303 297.894 107.848 298.241 107.477 298.698C107.1 299.156 106.812 299.719 106.614 300.387C106.416 301.049 106.317 301.809 106.317 302.669V305.833C106.317 306.692 106.416 307.456 106.614 308.124C106.812 308.786 107.1 309.342 107.477 309.794C107.854 310.258 108.315 310.607 108.859 310.842C109.404 311.071 110.019 311.186 110.706 311.186C111.398 311.186 112.014 311.068 112.552 310.833C113.09 310.598 113.544 310.252 113.916 309.794C114.287 309.342 114.571 308.786 114.769 308.124C114.967 307.456 115.066 306.692 115.066 305.833ZM108.043 305.489C108.043 305.328 108.043 305.171 108.043 305.016C108.043 304.861 108.043 304.707 108.043 304.552V302.289C108.043 301.658 108.105 301.104 108.229 300.628C108.358 300.146 108.553 299.753 108.813 299.45C109.029 299.208 109.292 299.026 109.602 298.902C109.917 298.772 110.279 298.708 110.687 298.708C111.089 298.708 111.442 298.766 111.745 298.884C112.054 299.001 112.314 299.178 112.524 299.413C112.74 299.641 112.91 299.929 113.034 300.275C113.164 300.616 113.254 301.008 113.303 301.454L108.043 305.489ZM113.34 306.194C113.34 306.856 113.272 307.431 113.136 307.92C113.006 308.409 112.799 308.804 112.515 309.107C112.304 309.33 112.048 309.5 111.745 309.618C111.442 309.735 111.095 309.794 110.706 309.794C110.334 309.794 110 309.741 109.704 309.636C109.407 309.525 109.153 309.364 108.943 309.154C108.714 308.931 108.528 308.65 108.386 308.31C108.244 307.963 108.145 307.564 108.089 307.113L113.34 303.096C113.34 303.269 113.34 303.488 113.34 303.754C113.34 304.014 113.34 304.19 113.34 304.283V306.194ZM122.349 310.601V308.968H120.484V310.629C120.484 311.155 120.422 311.662 120.298 312.15C120.175 312.639 119.964 313.1 119.667 313.533L120.734 314.117C121.229 313.678 121.622 313.137 121.913 312.494C122.203 311.85 122.349 311.22 122.349 310.601ZM137.888 305.833V302.669C137.888 301.809 137.789 301.049 137.591 300.387C137.393 299.719 137.109 299.156 136.738 298.698C136.361 298.241 135.9 297.894 135.355 297.659C134.817 297.418 134.202 297.297 133.509 297.297C132.823 297.297 132.207 297.418 131.663 297.659C131.125 297.894 130.67 298.241 130.299 298.698C129.922 299.156 129.634 299.719 129.437 300.387C129.239 301.049 129.14 301.809 129.14 302.669V305.833C129.14 306.692 129.239 307.456 129.437 308.124C129.634 308.786 129.922 309.342 130.299 309.794C130.677 310.258 131.137 310.607 131.682 310.842C132.226 311.071 132.841 311.186 133.528 311.186C134.221 311.186 134.836 311.068 135.374 310.833C135.912 310.598 136.367 310.252 136.738 309.794C137.109 309.342 137.393 308.786 137.591 308.124C137.789 307.456 137.888 306.692 137.888 305.833ZM130.865 305.489C130.865 305.328 130.865 305.171 130.865 305.016C130.865 304.861 130.865 304.707 130.865 304.552V302.289C130.865 301.658 130.927 301.104 131.051 300.628C131.181 300.146 131.375 299.753 131.635 299.45C131.852 299.208 132.115 299.026 132.424 298.902C132.739 298.772 133.101 298.708 133.509 298.708C133.911 298.708 134.264 298.766 134.567 298.884C134.876 299.001 135.136 299.178 135.346 299.413C135.563 299.641 135.733 299.929 135.856 300.275C135.986 300.616 136.076 301.008 136.125 301.454L130.865 305.489ZM136.163 306.194C136.163 306.856 136.095 307.431 135.958 307.92C135.829 308.409 135.621 308.804 135.337 309.107C135.127 309.33 134.87 309.5 134.567 309.618C134.264 309.735 133.917 309.794 133.528 309.794C133.157 309.794 132.823 309.741 132.526 309.636C132.229 309.525 131.975 309.364 131.765 309.154C131.536 308.931 131.351 308.65 131.208 308.31C131.066 307.963 130.967 307.564 130.912 307.113L136.163 303.096C136.163 303.269 136.163 303.488 136.163 303.754C136.163 304.014 136.163 304.19 136.163 304.283V306.194ZM145.171 310.601V308.968H143.306V310.629C143.306 311.155 143.244 311.662 143.121 312.15C142.997 312.639 142.787 313.1 142.49 313.533L143.557 314.117C144.051 313.678 144.444 313.137 144.735 312.494C145.026 311.85 145.171 311.22 145.171 310.601ZM160.71 305.833V302.669C160.71 301.809 160.611 301.049 160.414 300.387C160.216 299.719 159.931 299.156 159.56 298.698C159.183 298.241 158.722 297.894 158.178 297.659C157.64 297.418 157.024 297.297 156.332 297.297C155.645 297.297 155.03 297.418 154.485 297.659C153.947 297.894 153.493 298.241 153.122 298.698C152.744 299.156 152.457 299.719 152.259 300.387C152.061 301.049 151.962 301.809 151.962 302.669V305.833C151.962 306.692 152.061 307.456 152.259 308.124C152.457 308.786 152.744 309.342 153.122 309.794C153.499 310.258 153.96 310.607 154.504 310.842C155.048 311.071 155.664 311.186 156.35 311.186C157.043 311.186 157.658 311.068 158.196 310.833C158.734 310.598 159.189 310.252 159.56 309.794C159.931 309.342 160.216 308.786 160.414 308.124C160.611 307.456 160.71 306.692 160.71 305.833ZM153.688 305.489C153.688 305.328 153.688 305.171 153.688 305.016C153.688 304.861 153.688 304.707 153.688 304.552V302.289C153.688 301.658 153.749 301.104 153.873 300.628C154.003 300.146 154.198 299.753 154.458 299.45C154.674 299.208 154.937 299.026 155.246 298.902C155.562 298.772 155.923 298.708 156.332 298.708C156.734 298.708 157.086 298.766 157.389 298.884C157.698 299.001 157.958 299.178 158.168 299.413C158.385 299.641 158.555 299.929 158.679 300.275C158.809 300.616 158.898 301.008 158.948 301.454L153.688 305.489ZM158.985 306.194C158.985 306.856 158.917 307.431 158.781 307.92C158.651 308.409 158.444 308.804 158.159 309.107C157.949 309.33 157.692 309.5 157.389 309.618C157.086 309.735 156.74 309.794 156.35 309.794C155.979 309.794 155.645 309.741 155.348 309.636C155.051 309.525 154.798 309.364 154.587 309.154C154.359 308.931 154.173 308.65 154.031 308.31C153.889 307.963 153.79 307.564 153.734 307.113L158.985 303.096C158.985 303.269 158.985 303.488 158.985 303.754C158.985 304.014 158.985 304.19 158.985 304.283V306.194ZM169.904 305.61V305.517C169.904 304.571 169.83 303.72 169.682 302.966C169.539 302.205 169.357 301.5 169.134 300.851C168.905 300.176 168.639 299.57 168.336 299.032C168.033 298.494 167.709 298.006 167.362 297.566C167.028 297.14 166.688 296.775 166.342 296.472C165.995 296.169 165.668 295.931 165.358 295.757L164.997 296.806C165.201 296.973 165.411 297.177 165.627 297.418C165.844 297.653 166.054 297.928 166.258 298.244C166.524 298.646 166.784 299.119 167.038 299.663C167.291 300.201 167.508 300.81 167.687 301.491C167.811 301.967 167.922 302.545 168.021 303.226C168.126 303.906 168.179 304.664 168.179 305.499V305.628C168.179 306.364 168.139 307.057 168.058 307.707C167.984 308.35 167.876 308.95 167.733 309.506C167.597 310.106 167.421 310.657 167.205 311.158C166.994 311.665 166.775 312.119 166.546 312.521C166.305 312.917 166.051 313.267 165.785 313.57C165.519 313.873 165.256 314.12 164.997 314.312L165.358 315.36C165.668 315.187 165.992 314.949 166.333 314.646C166.679 314.349 167.022 313.984 167.362 313.551C167.696 313.125 168.015 312.636 168.318 312.085C168.627 311.541 168.899 310.935 169.134 310.267C169.369 309.605 169.555 308.885 169.691 308.105C169.833 307.326 169.904 306.494 169.904 305.61Z" fill="black"/>
<path d="M48.7656 214.232V213.312H45.2148V210.395H49.3574V209.469H44.1191V218H45.2148V214.232H48.7656ZM55.3809 211.543C54.9199 211.543 54.5078 211.645 54.1445 211.848C53.7852 212.047 53.4766 212.32 53.2188 212.668L53.2129 212.51L53.166 211.66H52.1348V218H53.2246V213.934C53.2949 213.738 53.3828 213.562 53.4883 213.406C53.5977 213.246 53.7246 213.111 53.8691 213.002C54.0293 212.877 54.2168 212.783 54.4316 212.721C54.6465 212.654 54.8867 212.621 55.1523 212.621C55.3594 212.621 55.5566 212.633 55.7441 212.656C55.9355 212.676 56.1367 212.709 56.3477 212.756L56.4941 211.695C56.3848 211.648 56.2207 211.611 56.002 211.584C55.7871 211.557 55.5801 211.543 55.3809 211.543ZM61.2344 218.117C61.8516 218.117 62.3691 217.994 62.7871 217.748C63.209 217.498 63.5254 217.213 63.7363 216.893L63.0742 216.377C62.875 216.635 62.625 216.842 62.3242 216.998C62.0234 217.154 61.6797 217.232 61.293 217.232C61 217.232 60.7324 217.178 60.4902 217.068C60.248 216.959 60.041 216.809 59.8691 216.617C59.7012 216.438 59.5684 216.23 59.4707 215.996C59.377 215.762 59.3164 215.49 59.2891 215.182V215.141H63.8184V214.654C63.8184 214.213 63.7617 213.803 63.6484 213.424C63.5391 213.045 63.3711 212.715 63.1445 212.434C62.918 212.156 62.6328 211.939 62.2891 211.783C61.9492 211.623 61.5508 211.543 61.0938 211.543C60.7305 211.543 60.375 211.617 60.0273 211.766C59.6836 211.914 59.377 212.127 59.1074 212.404C58.834 212.686 58.6152 213.029 58.4512 213.436C58.2871 213.838 58.2051 214.295 58.2051 214.807V215.053C58.2051 215.494 58.2793 215.902 58.4277 216.277C58.5762 216.652 58.7832 216.977 59.0488 217.25C59.3145 217.523 59.6328 217.736 60.0039 217.889C60.3789 218.041 60.7891 218.117 61.2344 218.117ZM61.0938 212.434C61.3711 212.434 61.6094 212.484 61.8086 212.586C62.0117 212.688 62.1797 212.82 62.3125 212.984C62.4453 213.148 62.5488 213.344 62.623 213.57C62.6973 213.793 62.7344 214.002 62.7344 214.197V214.25H59.3242C59.3672 213.957 59.4414 213.699 59.5469 213.477C59.6562 213.25 59.7891 213.059 59.9453 212.902C60.1016 212.75 60.2773 212.635 60.4727 212.557C60.668 212.475 60.875 212.434 61.0938 212.434ZM68.4414 218.117C69.0586 218.117 69.5762 217.994 69.9941 217.748C70.416 217.498 70.7324 217.213 70.9434 216.893L70.2812 216.377C70.082 216.635 69.832 216.842 69.5312 216.998C69.2305 217.154 68.8867 217.232 68.5 217.232C68.207 217.232 67.9395 217.178 67.6973 217.068C67.4551 216.959 67.248 216.809 67.0762 216.617C66.9082 216.438 66.7754 216.23 66.6777 215.996C66.584 215.762 66.5234 215.49 66.4961 215.182V215.141H71.0254V214.654C71.0254 214.213 70.9688 213.803 70.8555 213.424C70.7461 213.045 70.5781 212.715 70.3516 212.434C70.125 212.156 69.8398 211.939 69.4961 211.783C69.1562 211.623 68.7578 211.543 68.3008 211.543C67.9375 211.543 67.582 211.617 67.2344 211.766C66.8906 211.914 66.584 212.127 66.3145 212.404C66.041 212.686 65.8223 213.029 65.6582 213.436C65.4941 213.838 65.4121 214.295 65.4121 214.807V215.053C65.4121 215.494 65.4863 215.902 65.6348 216.277C65.7832 216.652 65.9902 216.977 66.2559 217.25C66.5215 217.523 66.8398 217.736 67.2109 217.889C67.5859 218.041 67.9961 218.117 68.4414 218.117ZM68.3008 212.434C68.5781 212.434 68.8164 212.484 69.0156 212.586C69.2188 212.688 69.3867 212.82 69.5195 212.984C69.6523 213.148 69.7559 213.344 69.8301 213.57C69.9043 213.793 69.9414 214.002 69.9414 214.197V214.25H66.5312C66.5742 213.957 66.6484 213.699 66.7539 213.477C66.8633 213.25 66.9961 213.059 67.1523 212.902C67.3086 212.75 67.4844 212.635 67.6797 212.557C67.875 212.475 68.082 212.434 68.3008 212.434ZM76.8496 209.469V215.404C76.8418 215.646 76.7988 215.877 76.7207 216.096C76.6465 216.311 76.5391 216.5 76.3984 216.664C76.2539 216.828 76.0801 216.959 75.877 217.057C75.6738 217.15 75.4434 217.197 75.1855 217.197C74.9355 217.197 74.709 217.156 74.5059 217.074C74.3066 216.992 74.1348 216.875 73.9902 216.723C73.8457 216.574 73.7305 216.398 73.6445 216.195C73.5625 215.992 73.5156 215.771 73.5039 215.533H72.4023C72.4375 215.928 72.5273 216.285 72.6719 216.605C72.8164 216.922 73.0098 217.191 73.252 217.414C73.4902 217.641 73.7715 217.814 74.0957 217.936C74.4238 218.057 74.7871 218.117 75.1855 218.117C75.5801 218.117 75.9434 218.051 76.2754 217.918C76.6113 217.781 76.9023 217.592 77.1484 217.35C77.3945 217.111 77.5879 216.826 77.7285 216.494C77.873 216.162 77.9492 215.799 77.957 215.404V209.469H76.8496ZM79.75 214.771V214.9C79.75 215.357 79.8164 215.781 79.9492 216.172C80.082 216.562 80.2734 216.902 80.5234 217.191C80.7695 217.48 81.0703 217.707 81.4258 217.871C81.7852 218.035 82.1895 218.117 82.6387 218.117C83.084 218.117 83.4844 218.035 83.8398 217.871C84.1953 217.707 84.498 217.48 84.748 217.191C84.9941 216.902 85.1836 216.562 85.3164 216.172C85.4492 215.781 85.5156 215.357 85.5156 214.9V214.771C85.5156 214.314 85.4492 213.891 85.3164 213.5C85.1836 213.105 84.9941 212.764 84.748 212.475C84.498 212.186 84.1934 211.959 83.834 211.795C83.4785 211.627 83.0762 211.543 82.627 211.543C82.1816 211.543 81.7812 211.627 81.4258 211.795C81.0703 211.959 80.7695 212.186 80.5234 212.475C80.2734 212.764 80.082 213.105 79.9492 213.5C79.8164 213.891 79.75 214.314 79.75 214.771ZM80.834 214.9V214.771C80.834 214.463 80.8711 214.168 80.9453 213.887C81.0195 213.602 81.1328 213.352 81.2852 213.137C81.4336 212.922 81.6191 212.752 81.8418 212.627C82.0645 212.498 82.3262 212.434 82.627 212.434C82.9277 212.434 83.1895 212.498 83.4121 212.627C83.6387 212.752 83.8281 212.922 83.9805 213.137C84.1289 213.352 84.2402 213.602 84.3145 213.887C84.3926 214.168 84.4316 214.463 84.4316 214.771V214.9C84.4316 215.213 84.3945 215.512 84.3203 215.797C84.2461 216.078 84.1348 216.326 83.9863 216.541C83.834 216.756 83.6445 216.926 83.418 217.051C83.1953 217.176 82.9355 217.238 82.6387 217.238C82.3379 217.238 82.0742 217.176 81.8477 217.051C81.6211 216.926 81.4336 216.756 81.2852 216.541C81.1328 216.326 81.0195 216.078 80.9453 215.797C80.8711 215.512 80.834 215.213 80.834 214.9ZM87.4316 211.66V212.604H89.5879V217.062H87.4316V218H92.7402V217.062H90.6719V211.66H87.4316ZM89.4473 209.996C89.4473 210.172 89.5 210.318 89.6055 210.436C89.7148 210.553 89.8789 210.611 90.0977 210.611C90.3125 210.611 90.4746 210.553 90.584 210.436C90.6934 210.318 90.748 210.172 90.748 209.996C90.748 209.898 90.7324 209.809 90.7012 209.727C90.6699 209.645 90.623 209.576 90.5605 209.521C90.5098 209.471 90.4453 209.432 90.3672 209.404C90.2891 209.373 90.1992 209.357 90.0977 209.357C89.9961 209.357 89.9043 209.373 89.8223 209.404C89.7441 209.432 89.6797 209.471 89.6289 209.521C89.5664 209.58 89.5195 209.65 89.4883 209.732C89.4609 209.814 89.4473 209.902 89.4473 209.996ZM94.4688 218H95.5527V213.453C95.627 213.316 95.7129 213.191 95.8105 213.078C95.9121 212.965 96.0215 212.865 96.1387 212.779C96.2832 212.682 96.4414 212.605 96.6133 212.551C96.7852 212.492 96.9707 212.463 97.1699 212.463C97.4004 212.463 97.6035 212.49 97.7793 212.545C97.959 212.6 98.1113 212.688 98.2363 212.809C98.3574 212.93 98.4492 213.088 98.5117 213.283C98.5742 213.479 98.6055 213.717 98.6055 213.998V218H99.6895V213.975C99.6895 213.553 99.6367 213.189 99.5312 212.885C99.4297 212.576 99.2832 212.322 99.0918 212.123C98.9004 211.924 98.668 211.777 98.3945 211.684C98.125 211.59 97.8242 211.543 97.4922 211.543C97.2461 211.547 97.0117 211.584 96.7891 211.654C96.5703 211.721 96.3672 211.816 96.1797 211.941C96.0547 212.023 95.9355 212.121 95.8223 212.234C95.7129 212.344 95.6113 212.465 95.5176 212.598L95.4414 211.66H94.4688V218ZM104.242 210.125H103.152V211.66H101.488V212.498H103.152V215.943C103.152 216.334 103.203 216.668 103.305 216.945C103.41 217.219 103.553 217.441 103.732 217.613C103.912 217.789 104.123 217.918 104.365 218C104.611 218.078 104.875 218.117 105.156 218.117C105.324 218.117 105.492 218.109 105.66 218.094C105.832 218.078 105.994 218.055 106.146 218.023C106.299 217.996 106.439 217.963 106.568 217.924C106.697 217.881 106.807 217.832 106.896 217.777L106.744 217.01C106.678 217.025 106.592 217.045 106.486 217.068C106.385 217.088 106.275 217.107 106.158 217.127C106.037 217.146 105.914 217.164 105.789 217.18C105.664 217.191 105.543 217.197 105.426 217.197C105.266 217.197 105.113 217.178 104.969 217.139C104.828 217.1 104.703 217.031 104.594 216.934C104.484 216.84 104.398 216.713 104.336 216.553C104.273 216.393 104.242 216.189 104.242 215.943V212.498H106.656V211.66H104.242V210.125Z" fill="black"/>
<path d="M66.0078 135H68.7383C69.1016 134.996 69.4531 134.939 69.793 134.83C70.1367 134.721 70.4395 134.562 70.7012 134.355C70.9629 134.152 71.1719 133.898 71.3281 133.594C71.4844 133.289 71.5605 132.938 71.5566 132.539C71.5566 132.285 71.5176 132.049 71.4395 131.83C71.3652 131.611 71.2598 131.414 71.123 131.238C70.9941 131.078 70.8301 130.932 70.6309 130.799C70.4316 130.666 70.2246 130.574 70.0098 130.523V130.506C70.2168 130.416 70.3926 130.32 70.5371 130.219C70.6855 130.117 70.8203 129.992 70.9414 129.844C71.0586 129.699 71.1504 129.535 71.2168 129.352C71.2871 129.168 71.3242 128.965 71.3281 128.742C71.332 128.344 71.2559 128.002 71.0996 127.717C70.9434 127.432 70.7344 127.197 70.4727 127.014C70.2109 126.83 69.9121 126.695 69.5762 126.609C69.2402 126.52 68.8965 126.473 68.5449 126.469H66.0078V135ZM67.0977 131.01H68.8262C69.0566 131.018 69.2715 131.057 69.4707 131.127C69.6699 131.197 69.8438 131.297 69.9922 131.426C70.1406 131.559 70.2559 131.719 70.3379 131.906C70.4238 132.094 70.4648 132.309 70.4609 132.551C70.4609 132.789 70.4141 133.002 70.3203 133.189C70.2305 133.377 70.1074 133.535 69.9512 133.664C69.7949 133.793 69.6152 133.895 69.4121 133.969C69.209 134.039 68.9941 134.076 68.7676 134.08H67.0977V131.01ZM67.0977 130.107V127.395H68.5801C68.791 127.398 68.9961 127.426 69.1953 127.477C69.3984 127.527 69.5781 127.605 69.7344 127.711C69.8867 127.82 70.0078 127.959 70.0977 128.127C70.1914 128.295 70.2383 128.498 70.2383 128.736C70.2383 128.959 70.1914 129.154 70.0977 129.322C70.0039 129.49 69.8809 129.631 69.7285 129.744C69.5762 129.861 69.4023 129.951 69.207 130.014C69.0117 130.072 68.8125 130.104 68.6094 130.107H67.0977ZM72.9219 131.771V131.9C72.9219 132.357 72.9883 132.781 73.1211 133.172C73.2539 133.562 73.4453 133.902 73.6953 134.191C73.9414 134.48 74.2422 134.707 74.5977 134.871C74.957 135.035 75.3613 135.117 75.8105 135.117C76.2559 135.117 76.6562 135.035 77.0117 134.871C77.3672 134.707 77.6699 134.48 77.9199 134.191C78.166 133.902 78.3555 133.562 78.4883 133.172C78.6211 132.781 78.6875 132.357 78.6875 131.9V131.771C78.6875 131.314 78.6211 130.891 78.4883 130.5C78.3555 130.105 78.166 129.764 77.9199 129.475C77.6699 129.186 77.3652 128.959 77.0059 128.795C76.6504 128.627 76.248 128.543 75.7988 128.543C75.3535 128.543 74.9531 128.627 74.5977 128.795C74.2422 128.959 73.9414 129.186 73.6953 129.475C73.4453 129.764 73.2539 130.105 73.1211 130.5C72.9883 130.891 72.9219 131.314 72.9219 131.771ZM74.0059 131.9V131.771C74.0059 131.463 74.043 131.168 74.1172 130.887C74.1914 130.602 74.3047 130.352 74.457 130.137C74.6055 129.922 74.791 129.752 75.0137 129.627C75.2363 129.498 75.498 129.434 75.7988 129.434C76.0996 129.434 76.3613 129.498 76.584 129.627C76.8105 129.752 77 129.922 77.1523 130.137C77.3008 130.352 77.4121 130.602 77.4863 130.887C77.5645 131.168 77.6035 131.463 77.6035 131.771V131.9C77.6035 132.213 77.5664 132.512 77.4922 132.797C77.418 133.078 77.3066 133.326 77.1582 133.541C77.0059 133.756 76.8164 133.926 76.5898 134.051C76.3672 134.176 76.1074 134.238 75.8105 134.238C75.5098 134.238 75.2461 134.176 75.0195 134.051C74.793 133.926 74.6055 133.756 74.457 133.541C74.3047 133.326 74.1914 133.078 74.1172 132.797C74.043 132.512 74.0059 132.213 74.0059 131.9ZM80.2285 131.777V131.9C80.2285 132.354 80.2891 132.777 80.4102 133.172C80.5312 133.562 80.7012 133.902 80.9199 134.191C81.1387 134.48 81.4023 134.707 81.7109 134.871C82.0234 135.035 82.3711 135.117 82.7539 135.117C83.1445 135.117 83.4863 135.051 83.7793 134.918C84.0723 134.785 84.3242 134.59 84.5352 134.332L84.582 135H85.5781V126H84.4941V129.287C84.2871 129.045 84.041 128.861 83.7559 128.736C83.4746 128.607 83.1445 128.543 82.7656 128.543C82.3789 128.543 82.0293 128.623 81.7168 128.783C81.4043 128.943 81.1387 129.166 80.9199 129.451C80.6973 129.736 80.5254 130.078 80.4043 130.477C80.2871 130.871 80.2285 131.305 80.2285 131.777ZM81.3125 131.9V131.777C81.3125 131.469 81.3457 131.176 81.4121 130.898C81.4785 130.617 81.582 130.369 81.7227 130.154C81.8594 129.943 82.0352 129.775 82.25 129.65C82.4688 129.525 82.7305 129.463 83.0352 129.463C83.3906 129.463 83.6875 129.547 83.9258 129.715C84.1641 129.879 84.3535 130.09 84.4941 130.348V133.289C84.3535 133.566 84.1641 133.787 83.9258 133.951C83.6875 134.115 83.3867 134.197 83.0234 134.197C82.7227 134.197 82.4648 134.137 82.25 134.016C82.0352 133.891 81.8594 133.723 81.7227 133.512C81.582 133.301 81.4785 133.057 81.4121 132.779C81.3457 132.502 81.3125 132.209 81.3125 131.9ZM88.1504 137.561C88.4355 137.561 88.6875 137.508 88.9062 137.402C89.125 137.297 89.3164 137.166 89.4805 137.01C89.6445 136.854 89.7832 136.684 89.8965 136.5C90.0137 136.316 90.1094 136.143 90.1836 135.979L93.4004 128.66H92.1875L90.5527 132.773L90.2539 133.518L89.9727 132.75L88.2324 128.66H87.0195L89.75 134.701L89.3164 135.545C89.2773 135.623 89.2227 135.723 89.1523 135.844C89.0859 135.965 89.0059 136.082 88.9121 136.195C88.8145 136.309 88.7031 136.406 88.5781 136.488C88.457 136.57 88.3223 136.611 88.1738 136.611C88.1191 136.611 88.043 136.607 87.9453 136.6C87.8516 136.596 87.7559 136.59 87.6582 136.582L87.4824 137.467C87.5527 137.482 87.6562 137.502 87.793 137.525C87.9297 137.549 88.0488 137.561 88.1504 137.561Z" fill="black"/>
<rect x="378.169" y="104.485" width="105.571" height="110.18" rx="9" transform="rotate(27.6497 378.169 104.485)" stroke="black" stroke-width="2"/>
<circle cx="400.268" cy="179.06" r="7.5" transform="rotate(14.8488 400.268 179.06)" fill="#FF0000"/>
<path d="M384.401 179.299C384.566 179.078 384.52 178.765 384.299 178.599L380.695 175.906C380.473 175.741 380.16 175.786 379.995 176.007C379.829 176.228 379.875 176.542 380.096 176.707L383.3 179.101L380.906 182.305C380.741 182.527 380.786 182.84 381.007 183.005C381.228 183.171 381.542 183.125 381.707 182.904L384.401 179.299ZM225.072 202.495L226.544 202.282L226.401 201.292L224.928 201.505L225.072 202.495ZM229.488 201.856L232.433 201.43L232.29 200.44L229.345 200.866L229.488 201.856ZM235.377 201.004L238.322 200.578L238.178 199.588L235.234 200.014L235.377 201.004ZM241.266 200.152L244.21 199.726L244.067 198.737L241.123 199.163L241.266 200.152ZM247.155 199.3L250.099 198.874L249.956 197.885L247.012 198.311L247.155 199.3ZM253.044 198.449L255.988 198.023L255.845 197.033L252.901 197.459L253.044 198.449ZM258.933 197.597L261.877 197.171L261.734 196.181L258.79 196.607L258.933 197.597ZM264.822 196.745L267.766 196.319L267.623 195.329L264.678 195.755L264.822 196.745ZM270.71 195.893L273.655 195.467L273.512 194.477L270.567 194.903L270.71 195.893ZM276.599 195.041L279.544 194.615L279.401 193.626L276.456 194.051L276.599 195.041ZM282.488 194.189L285.433 193.763L285.29 192.774L282.345 193.2L282.488 194.189ZM288.377 193.337L291.322 192.912L291.178 191.922L288.234 192.348L288.377 193.337ZM294.266 192.486L297.21 192.06L297.067 191.07L294.123 191.496L294.266 192.486ZM300.155 191.634L303.099 191.208L302.956 190.218L300.012 190.644L300.155 191.634ZM306.044 190.782L308.988 190.356L308.845 189.366L305.901 189.792L306.044 190.782ZM311.933 189.93L314.877 189.504L314.734 188.514L311.79 188.94L311.933 189.93ZM317.822 189.078L320.766 188.652L320.623 187.663L317.678 188.088L317.822 189.078ZM323.71 188.226L326.655 187.8L326.512 186.811L323.567 187.237L323.71 188.226ZM329.599 187.374L332.544 186.949L332.401 185.959L329.456 186.385L329.599 187.374ZM335.488 186.523L338.433 186.097L338.289 185.107L335.345 185.533L335.488 186.523ZM341.377 185.671L344.322 185.245L344.178 184.255L341.234 184.681L341.377 185.671ZM347.266 184.819L350.21 184.393L350.067 183.403L347.123 183.829L347.266 184.819ZM353.155 183.967L356.099 183.541L355.956 182.551L353.012 182.977L353.155 183.967ZM359.044 183.115L361.988 182.689L361.845 181.7L358.901 182.126L359.044 183.115ZM364.933 182.263L367.877 181.837L367.734 180.848L364.79 181.274L364.933 182.263ZM370.822 181.412L373.766 180.986L373.623 179.996L370.678 180.422L370.822 181.412ZM376.71 180.56L379.655 180.134L379.512 179.144L376.567 179.57L376.71 180.56ZM382.599 179.708L384.072 179.495L383.928 178.505L382.456 178.718L382.599 179.708ZM384.801 179.599C385.132 179.156 385.041 178.53 384.599 178.199L377.389 172.812C376.947 172.481 376.32 172.572 375.989 173.014C375.659 173.457 375.749 174.083 376.192 174.414L382.6 179.202L377.812 185.611C377.481 186.053 377.572 186.68 378.014 187.011C378.456 187.341 379.083 187.25 379.414 186.808L384.801 179.599ZM225.143 202.99L226.615 202.777L226.329 200.797L224.857 201.01L225.143 202.99ZM229.56 202.351L232.504 201.925L232.218 199.945L229.274 200.371L229.56 202.351ZM235.449 201.499L238.393 201.073L238.107 199.094L235.162 199.52L235.449 201.499ZM241.338 200.647L244.282 200.221L243.996 198.242L241.051 198.668L241.338 200.647ZM247.226 199.795L250.171 199.369L249.885 197.39L246.94 197.816L247.226 199.795ZM253.115 198.943L256.06 198.517L255.773 196.538L252.829 196.964L253.115 198.943ZM259.004 198.092L261.949 197.666L261.662 195.686L258.718 196.112L259.004 198.092ZM264.893 197.24L267.838 196.814L267.551 194.834L264.607 195.26L264.893 197.24ZM270.782 196.388L273.726 195.962L273.44 193.983L270.496 194.408L270.782 196.388ZM276.671 195.536L279.615 195.11L279.329 193.131L276.385 193.557L276.671 195.536ZM282.56 194.684L285.504 194.258L285.218 192.279L282.273 192.705L282.56 194.684ZM288.449 193.832L291.393 193.406L291.107 191.427L288.162 191.853L288.449 193.832ZM294.338 192.98L297.282 192.555L296.996 190.575L294.051 191.001L294.338 192.98ZM300.226 192.129L303.171 191.703L302.885 189.723L299.94 190.149L300.226 192.129ZM306.115 191.277L309.06 190.851L308.773 188.871L305.829 189.297L306.115 191.277ZM312.004 190.425L314.949 189.999L314.662 188.02L311.718 188.445L312.004 190.425ZM317.893 189.573L320.838 189.147L320.551 187.168L317.607 187.594L317.893 189.573ZM323.782 188.721L326.726 188.295L326.44 186.316L323.496 186.742L323.782 188.721ZM329.671 187.869L332.615 187.443L332.329 185.464L329.385 185.89L329.671 187.869ZM335.56 187.017L338.504 186.592L338.218 184.612L335.273 185.038L335.56 187.017ZM341.449 186.166L344.393 185.74L344.107 183.76L341.162 184.186L341.449 186.166ZM347.338 185.314L350.282 184.888L349.996 182.908L347.051 183.334L347.338 185.314ZM353.226 184.462L356.171 184.036L355.885 182.057L352.94 182.483L353.226 184.462ZM359.115 183.61L362.06 183.184L361.773 181.205L358.829 181.631L359.115 183.61ZM365.004 182.758L367.949 182.332L367.662 180.353L364.718 180.779L365.004 182.758ZM370.893 181.906L373.838 181.48L373.551 179.501L370.607 179.927L370.893 181.906ZM376.782 181.055L379.727 180.629L379.44 178.649L376.496 179.075L376.782 181.055ZM382.671 180.203L384.143 179.99L383.857 178.01L382.385 178.223L382.671 180.203Z" fill="#FF0000"/>
<path d="M335.304 153.397C335.524 153.228 335.565 152.915 335.397 152.696L332.656 149.126C332.488 148.907 332.174 148.866 331.955 149.034C331.736 149.202 331.695 149.516 331.863 149.735L334.299 152.908L331.126 155.344C330.907 155.512 330.866 155.826 331.034 156.045C331.202 156.264 331.516 156.305 331.735 156.137L335.304 153.397ZM197.935 135.496L199.424 135.691L199.554 134.7L198.065 134.504L197.935 135.496ZM202.402 136.083L205.381 136.474L205.511 135.483L202.533 135.091L202.402 136.083ZM208.359 136.865L211.337 137.257L211.467 136.265L208.489 135.874L208.359 136.865ZM214.315 137.648L217.294 138.039L217.424 137.048L214.446 136.656L214.315 137.648ZM220.272 138.431L223.25 138.822L223.38 137.83L220.402 137.439L220.272 138.431ZM226.228 139.213L229.207 139.604L229.337 138.613L226.359 138.222L226.228 139.213ZM232.185 139.996L235.163 140.387L235.293 139.396L232.315 139.004L232.185 139.996ZM238.141 140.778L241.12 141.17L241.25 140.178L238.272 139.787L238.141 140.778ZM244.098 141.561L247.076 141.952L247.206 140.961L244.228 140.569L244.098 141.561ZM250.054 142.344L253.033 142.735L253.163 141.743L250.185 141.352L250.054 142.344ZM256.011 143.126L258.989 143.517L259.119 142.526L256.141 142.135L256.011 143.126ZM261.967 143.909L264.946 144.3L265.076 143.309L262.098 142.917L261.967 143.909ZM267.924 144.691L270.902 145.083L271.033 144.091L268.054 143.7L267.924 144.691ZM273.881 145.474L276.859 145.865L276.989 144.874L274.011 144.483L273.881 145.474ZM279.837 146.257L282.815 146.648L282.946 145.656L279.967 145.265L279.837 146.257ZM285.794 147.039L288.772 147.431L288.902 146.439L285.924 146.048L285.794 147.039ZM291.75 147.822L294.728 148.213L294.859 147.222L291.88 146.83L291.75 147.822ZM297.707 148.604L300.685 148.996L300.815 148.004L297.837 147.613L297.707 148.604ZM303.663 149.387L306.641 149.778L306.772 148.787L303.793 148.396L303.663 149.387ZM309.62 150.17L312.598 150.561L312.728 149.569L309.75 149.178L309.62 150.17ZM315.576 150.952L318.554 151.344L318.685 150.352L315.706 149.961L315.576 150.952ZM321.533 151.735L324.511 152.126L324.641 151.135L321.663 150.743L321.533 151.735ZM327.489 152.517L330.468 152.909L330.598 151.917L327.62 151.526L327.489 152.517ZM333.446 153.3L334.935 153.496L335.065 152.504L333.576 152.309L333.446 153.3ZM335.609 153.793C336.047 153.457 336.13 152.829 335.793 152.391L330.312 145.252C329.976 144.814 329.348 144.732 328.91 145.068C328.472 145.404 328.39 146.032 328.726 146.47L333.598 152.816L327.252 157.688C326.814 158.024 326.732 158.652 327.068 159.09C327.404 159.528 328.032 159.61 328.47 159.274L335.609 153.793ZM197.87 135.991L199.359 136.187L199.619 134.204L198.13 134.009L197.87 135.991ZM202.337 136.578L205.315 136.97L205.576 134.987L202.598 134.595L202.337 136.578ZM208.294 137.361L211.272 137.752L211.532 135.769L208.554 135.378L208.294 137.361ZM214.25 138.144L217.228 138.535L217.489 136.552L214.511 136.161L214.25 138.144ZM220.207 138.926L223.185 139.318L223.445 137.335L220.467 136.943L220.207 138.926ZM226.163 139.709L229.141 140.1L229.402 138.117L226.424 137.726L226.163 139.709ZM232.12 140.491L235.098 140.883L235.359 138.9L232.38 138.509L232.12 140.491ZM238.076 141.274L241.055 141.665L241.315 139.682L238.337 139.291L238.076 141.274ZM244.033 142.057L247.011 142.448L247.272 140.465L244.293 140.074L244.033 142.057ZM249.989 142.839L252.968 143.231L253.228 141.248L250.25 140.856L249.989 142.839ZM255.946 143.622L258.924 144.013L259.185 142.03L256.206 141.639L255.946 143.622ZM261.902 144.405L264.881 144.796L265.141 142.813L262.163 142.422L261.902 144.405ZM267.859 145.187L270.837 145.578L271.098 143.595L268.119 143.204L267.859 145.187ZM273.815 145.97L276.794 146.361L277.054 144.378L274.076 143.987L273.815 145.97ZM279.772 146.752L282.75 147.144L283.011 145.161L280.032 144.769L279.772 146.752ZM285.728 147.535L288.707 147.926L288.967 145.943L285.989 145.552L285.728 147.535ZM291.685 148.318L294.663 148.709L294.924 146.726L291.946 146.335L291.685 148.318ZM297.642 149.1L300.62 149.491L300.88 147.509L297.902 147.117L297.642 149.1ZM303.598 149.883L306.576 150.274L306.837 148.291L303.859 147.9L303.598 149.883ZM309.555 150.665L312.533 151.057L312.793 149.074L309.815 148.682L309.555 150.665ZM315.511 151.448L318.489 151.839L318.75 149.856L315.772 149.465L315.511 151.448ZM321.468 152.231L324.446 152.622L324.706 150.639L321.728 150.248L321.468 152.231ZM327.424 153.013L330.402 153.405L330.663 151.422L327.685 151.03L327.424 153.013ZM333.381 153.796L334.87 153.991L335.13 152.009L333.641 151.813L333.381 153.796Z" fill="black"/>
<path d="M82.0391 33.5859C82.0391 33.957 81.9587 34.2786 81.7979 34.5508C81.637 34.8167 81.4299 35.0363 81.1763 35.2095C80.9227 35.3888 80.632 35.5218 80.3042 35.6084C79.9826 35.6888 79.6548 35.729 79.3208 35.729C78.9002 35.729 78.5106 35.6733 78.1519 35.562C77.7993 35.4445 77.487 35.2713 77.2148 35.0425C76.9427 34.8198 76.7201 34.5477 76.5469 34.2261C76.3737 33.8983 76.2593 33.5241 76.2036 33.1035H74.4502C74.4688 33.6849 74.5955 34.2137 74.8306 34.6899C75.0718 35.16 75.3965 35.5713 75.8047 35.9238C76.2624 36.332 76.8005 36.6444 77.4189 36.8608C78.0436 37.0773 78.6776 37.1855 79.3208 37.1855C79.8589 37.1855 80.397 37.1113 80.9351 36.9629C81.4731 36.8083 81.9556 36.5794 82.3823 36.2764C82.8091 35.9795 83.1554 35.6053 83.4214 35.1538C83.6935 34.7023 83.8296 34.1735 83.8296 33.5674C83.8296 32.9674 83.7028 32.4386 83.4492 31.981C83.2018 31.5233 82.874 31.1367 82.4658 30.8213C82.0514 30.4811 81.5938 30.2028 81.0928 29.9863C80.5918 29.7637 80.0908 29.575 79.5898 29.4204C79.2868 29.3276 78.9621 29.2194 78.6157 29.0957C78.2756 28.972 77.9601 28.8174 77.6694 28.6318C77.3726 28.4463 77.1283 28.2205 76.9365 27.9546C76.7448 27.6825 76.6458 27.3516 76.6396 26.9619C76.6396 26.6032 76.7108 26.2878 76.853 26.0156C77.0015 25.7435 77.1994 25.5146 77.4468 25.3291C77.688 25.1436 77.9632 25.0044 78.2725 24.9116C78.5879 24.8188 78.9095 24.7725 79.2373 24.7725C79.6455 24.7725 80.0104 24.8374 80.332 24.9673C80.6598 25.091 80.9412 25.2673 81.1763 25.4961C81.4113 25.7249 81.5999 26.0002 81.7422 26.3218C81.8844 26.6372 81.9803 26.9897 82.0298 27.3794H83.7925C83.7801 26.7609 83.6471 26.2012 83.3936 25.7002C83.14 25.1992 82.8029 24.7725 82.3823 24.4199C81.9618 24.0674 81.4793 23.7952 80.9351 23.6035C80.3908 23.4056 79.8249 23.3066 79.2373 23.3066C78.7054 23.3066 78.1766 23.3901 77.6509 23.5571C77.1252 23.7179 76.6551 23.9561 76.2407 24.2715C75.8263 24.5869 75.4893 24.9735 75.2295 25.4312C74.9759 25.8888 74.8491 26.4084 74.8491 26.9897C74.8491 27.5711 74.9759 28.0783 75.2295 28.5112C75.4893 28.938 75.8232 29.3091 76.2314 29.6245C76.6335 29.9338 77.0788 30.1997 77.5674 30.4224C78.0622 30.6388 78.5477 30.8244 79.0239 30.979C79.3517 31.0841 79.6919 31.2017 80.0444 31.3315C80.4032 31.4614 80.731 31.6222 81.0278 31.814C81.3247 32.0119 81.5659 32.2531 81.7515 32.5376C81.9432 32.8221 82.0391 33.1715 82.0391 33.5859ZM89.3867 32.3149L93.0698 37H95.25L90.5649 31.146L94.6284 26.9619H92.541L89.2476 30.2646L88.125 31.4707V22.75H86.3994V37H88.125V33.5303L89.3867 32.3149ZM102.227 37.1855C103.204 37.1855 104.023 36.9907 104.685 36.6011C105.353 36.2052 105.854 35.7537 106.188 35.2466L105.14 34.4302C104.824 34.8384 104.428 35.1662 103.952 35.4136C103.476 35.661 102.932 35.7847 102.319 35.7847C101.855 35.7847 101.432 35.6981 101.048 35.5249C100.665 35.3517 100.337 35.1136 100.065 34.8105C99.799 34.526 99.5887 34.1982 99.4341 33.8271C99.2856 33.4561 99.1898 33.0262 99.1465 32.5376V32.4727H106.318V31.7026C106.318 31.0037 106.228 30.3543 106.049 29.7544C105.876 29.1545 105.61 28.6318 105.251 28.1865C104.892 27.7474 104.441 27.4041 103.896 27.1567C103.358 26.9032 102.728 26.7764 102.004 26.7764C101.429 26.7764 100.866 26.8939 100.315 27.1289C99.7712 27.3639 99.2856 27.701 98.8589 28.1401C98.4259 28.5854 98.0796 29.1297 97.8198 29.7729C97.5601 30.41 97.4302 31.1336 97.4302 31.9438V32.3335C97.4302 33.0324 97.5477 33.6787 97.7827 34.2725C98.0177 34.8662 98.3455 35.3796 98.7661 35.8125C99.1867 36.2454 99.6908 36.5825 100.278 36.8237C100.872 37.0649 101.521 37.1855 102.227 37.1855ZM102.004 28.1865C102.443 28.1865 102.82 28.2669 103.136 28.4277C103.457 28.5885 103.723 28.7988 103.934 29.0586C104.144 29.3184 104.308 29.6276 104.425 29.9863C104.543 30.3389 104.602 30.6698 104.602 30.979V31.0625H99.2021C99.2702 30.5986 99.3877 30.1904 99.5547 29.8379C99.7279 29.4792 99.9382 29.1761 100.186 28.9287C100.433 28.6875 100.711 28.505 101.021 28.3813C101.33 28.2515 101.658 28.1865 102.004 28.1865ZM109.472 22.75V24.2437H112.886V35.5156H109.472V37H117.877V35.5156H114.603V22.75H109.472ZM125.049 37.1855C126.026 37.1855 126.846 36.9907 127.507 36.6011C128.175 36.2052 128.676 35.7537 129.01 35.2466L127.962 34.4302C127.646 34.8384 127.251 35.1662 126.774 35.4136C126.298 35.661 125.754 35.7847 125.142 35.7847C124.678 35.7847 124.254 35.6981 123.871 35.5249C123.487 35.3517 123.159 35.1136 122.887 34.8105C122.621 34.526 122.411 34.1982 122.256 33.8271C122.108 33.4561 122.012 33.0262 121.969 32.5376V32.4727H129.14V31.7026C129.14 31.0037 129.05 30.3543 128.871 29.7544C128.698 29.1545 128.432 28.6318 128.073 28.1865C127.715 27.7474 127.263 27.4041 126.719 27.1567C126.181 26.9032 125.55 26.7764 124.826 26.7764C124.251 26.7764 123.688 26.8939 123.138 27.1289C122.593 27.3639 122.108 27.701 121.681 28.1401C121.248 28.5854 120.902 29.1297 120.642 29.7729C120.382 30.41 120.252 31.1336 120.252 31.9438V32.3335C120.252 33.0324 120.37 33.6787 120.605 34.2725C120.84 34.8662 121.168 35.3796 121.588 35.8125C122.009 36.2454 122.513 36.5825 123.101 36.8237C123.694 37.0649 124.344 37.1855 125.049 37.1855ZM124.826 28.1865C125.265 28.1865 125.643 28.2669 125.958 28.4277C126.28 28.5885 126.546 28.7988 126.756 29.0586C126.966 29.3184 127.13 29.6276 127.248 29.9863C127.365 30.3389 127.424 30.6698 127.424 30.979V31.0625H122.024C122.092 30.5986 122.21 30.1904 122.377 29.8379C122.55 29.4792 122.76 29.1761 123.008 28.9287C123.255 28.6875 123.534 28.505 123.843 28.3813C124.152 28.2515 124.48 28.1865 124.826 28.1865ZM136.089 24.5312H134.363V26.9619H131.729V28.2886H134.363V33.7437C134.363 34.3621 134.444 34.891 134.604 35.3301C134.771 35.763 134.997 36.1156 135.282 36.3877C135.566 36.666 135.9 36.8701 136.284 37C136.673 37.1237 137.091 37.1855 137.536 37.1855C137.802 37.1855 138.068 37.1732 138.334 37.1484C138.606 37.1237 138.863 37.0866 139.104 37.0371C139.345 36.9938 139.568 36.9412 139.772 36.8794C139.976 36.8114 140.149 36.734 140.292 36.6475L140.05 35.4321C139.945 35.4569 139.809 35.4878 139.642 35.5249C139.481 35.5558 139.308 35.5868 139.123 35.6177C138.931 35.6486 138.736 35.6764 138.538 35.7012C138.34 35.7197 138.148 35.729 137.963 35.729C137.709 35.729 137.468 35.6981 137.239 35.6362C137.017 35.5744 136.819 35.4661 136.646 35.3115C136.472 35.1631 136.336 34.9621 136.237 34.7085C136.138 34.4549 136.089 34.1333 136.089 33.7437V28.2886H139.911V26.9619H136.089V24.5312ZM142.954 31.8882V32.0923C142.954 32.8159 143.059 33.487 143.27 34.1055C143.48 34.724 143.783 35.262 144.179 35.7197C144.568 36.1774 145.045 36.5361 145.607 36.7959C146.176 37.0557 146.817 37.1855 147.528 37.1855C148.233 37.1855 148.867 37.0557 149.43 36.7959C149.993 36.5361 150.472 36.1774 150.868 35.7197C151.257 35.262 151.557 34.724 151.768 34.1055C151.978 33.487 152.083 32.8159 152.083 32.0923V31.8882C152.083 31.1646 151.978 30.4935 151.768 29.875C151.557 29.2503 151.257 28.7091 150.868 28.2515C150.472 27.7938 149.989 27.4351 149.42 27.1753C148.858 26.9093 148.221 26.7764 147.509 26.7764C146.804 26.7764 146.17 26.9093 145.607 27.1753C145.045 27.4351 144.568 27.7938 144.179 28.2515C143.783 28.7091 143.48 29.2503 143.27 29.875C143.059 30.4935 142.954 31.1646 142.954 31.8882ZM144.67 32.0923V31.8882C144.67 31.3996 144.729 30.9326 144.847 30.4873C144.964 30.0358 145.144 29.64 145.385 29.2998C145.62 28.9596 145.914 28.6906 146.266 28.4927C146.619 28.2886 147.033 28.1865 147.509 28.1865C147.986 28.1865 148.4 28.2886 148.752 28.4927C149.111 28.6906 149.411 28.9596 149.652 29.2998C149.887 29.64 150.064 30.0358 150.181 30.4873C150.305 30.9326 150.367 31.3996 150.367 31.8882V32.0923C150.367 32.5871 150.308 33.0602 150.19 33.5117C150.073 33.957 149.897 34.3498 149.662 34.6899C149.42 35.0301 149.12 35.2992 148.762 35.4971C148.409 35.695 147.998 35.7939 147.528 35.7939C147.052 35.7939 146.634 35.695 146.275 35.4971C145.917 35.2992 145.62 35.0301 145.385 34.6899C145.144 34.3498 144.964 33.957 144.847 33.5117C144.729 33.0602 144.67 32.5871 144.67 32.0923ZM154.848 37H156.564V29.8008C156.681 29.5843 156.818 29.3864 156.972 29.207C157.133 29.0277 157.306 28.87 157.492 28.7339C157.721 28.5793 157.971 28.4587 158.243 28.3721C158.515 28.2793 158.809 28.2329 159.125 28.2329C159.489 28.2329 159.811 28.2762 160.089 28.3628C160.374 28.4494 160.615 28.5885 160.813 28.7803C161.005 28.972 161.15 29.2225 161.249 29.5317C161.348 29.841 161.397 30.2183 161.397 30.6636V37H163.114V30.6265C163.114 29.9585 163.03 29.3833 162.863 28.9009C162.702 28.4123 162.471 28.0103 162.167 27.6948C161.864 27.3794 161.496 27.1475 161.063 26.999C160.637 26.8506 160.16 26.7764 159.635 26.7764C159.245 26.7826 158.874 26.8413 158.521 26.9526C158.175 27.0578 157.854 27.2093 157.557 27.4072C157.359 27.5371 157.17 27.6917 156.991 27.8711C156.818 28.0443 156.657 28.236 156.508 28.4463L156.388 26.9619H154.848V37ZM77.7344 62V48.4922H76.1108V54.2998H70.5723V48.4922H68.958V62H70.5723V55.7563H76.1108V62H77.7344ZM80.9443 51.9619V53.4556H84.3584V60.5156H80.9443V62H89.3496V60.5156H86.0747V51.9619H80.9443ZM84.1357 49.3271C84.1357 49.6055 84.2192 49.8374 84.3862 50.0229C84.5594 50.2085 84.8192 50.3013 85.1655 50.3013C85.5057 50.3013 85.7624 50.2085 85.9355 50.0229C86.1087 49.8374 86.1953 49.6055 86.1953 49.3271C86.1953 49.1725 86.1706 49.0303 86.1211 48.9004C86.0716 48.7705 85.9974 48.6623 85.8984 48.5757C85.818 48.4953 85.716 48.4334 85.5923 48.3901C85.4686 48.3407 85.3263 48.3159 85.1655 48.3159C85.0047 48.3159 84.8594 48.3407 84.7295 48.3901C84.6058 48.4334 84.5037 48.4953 84.4233 48.5757C84.3244 48.6685 84.2502 48.7798 84.2007 48.9097C84.1574 49.0396 84.1357 49.1787 84.1357 49.3271ZM96.521 62.1855C97.4982 62.1855 98.3177 61.9907 98.9795 61.6011C99.6475 61.2052 100.148 60.7537 100.482 60.2466L99.4341 59.4302C99.1187 59.8384 98.7228 60.1662 98.2466 60.4136C97.7703 60.661 97.2261 60.7847 96.6138 60.7847C96.1499 60.7847 95.7262 60.6981 95.3428 60.5249C94.9593 60.3517 94.6315 60.1136 94.3594 59.8105C94.0934 59.526 93.8831 59.1982 93.7285 58.8271C93.5801 58.4561 93.4842 58.0262 93.4409 57.5376V57.4727H100.612V56.7026C100.612 56.0037 100.523 55.3543 100.343 54.7544C100.17 54.1545 99.9041 53.6318 99.5454 53.1865C99.1867 52.7474 98.7352 52.4041 98.1909 52.1567C97.6528 51.9032 97.022 51.7764 96.2983 51.7764C95.7231 51.7764 95.1603 51.8939 94.6099 52.1289C94.0656 52.3639 93.5801 52.701 93.1533 53.1401C92.7204 53.5854 92.374 54.1297 92.1143 54.7729C91.8545 55.41 91.7246 56.1336 91.7246 56.9438V57.3335C91.7246 58.0324 91.8421 58.6787 92.0771 59.2725C92.3122 59.8662 92.64 60.3796 93.0605 60.8125C93.4811 61.2454 93.9852 61.5825 94.5728 61.8237C95.1665 62.0649 95.8159 62.1855 96.521 62.1855ZM96.2983 53.1865C96.7375 53.1865 97.1147 53.2669 97.4302 53.4277C97.7518 53.5885 98.0177 53.7988 98.228 54.0586C98.4383 54.3184 98.6022 54.6276 98.7197 54.9863C98.8372 55.3389 98.896 55.6698 98.896 55.979V56.0625H93.4966C93.5646 55.5986 93.6821 55.1904 93.8491 54.8379C94.0223 54.4792 94.2326 54.1761 94.48 53.9287C94.7274 53.6875 95.0057 53.505 95.3149 53.3813C95.6242 53.2515 95.952 53.1865 96.2983 53.1865ZM110.075 51.7764C109.345 51.7764 108.693 51.9372 108.118 52.2588C107.549 52.5742 107.06 53.0072 106.652 53.5576L106.643 53.3071L106.568 51.9619H104.936V62H106.661V55.5615C106.772 55.2523 106.912 54.974 107.079 54.7266C107.252 54.473 107.453 54.2596 107.682 54.0864C107.935 53.8885 108.232 53.7401 108.572 53.6411C108.912 53.536 109.293 53.4834 109.713 53.4834C110.041 53.4834 110.354 53.502 110.65 53.5391C110.953 53.57 111.272 53.6226 111.606 53.6968L111.838 52.0176C111.665 51.9434 111.405 51.8846 111.059 51.8413C110.718 51.798 110.391 51.7764 110.075 51.7764ZM121.505 62H123.295V61.8516C123.184 61.5732 123.097 61.2485 123.036 60.8774C122.974 60.5002 122.943 60.1445 122.943 59.8105V55.144C122.943 54.5812 122.841 54.0895 122.637 53.6689C122.433 53.2484 122.154 52.8958 121.802 52.6113C121.443 52.333 121.019 52.1258 120.531 51.9897C120.042 51.8475 119.513 51.7764 118.944 51.7764C118.32 51.7764 117.76 51.863 117.265 52.0361C116.777 52.2093 116.362 52.4351 116.022 52.7134C115.676 52.9979 115.41 53.3164 115.224 53.6689C115.045 54.0215 114.952 54.3802 114.946 54.7451H116.671C116.671 54.5348 116.721 54.3338 116.82 54.1421C116.925 53.9442 117.07 53.7741 117.256 53.6318C117.441 53.4896 117.667 53.3752 117.933 53.2886C118.205 53.202 118.511 53.1587 118.852 53.1587C119.216 53.1587 119.544 53.2051 119.835 53.2979C120.132 53.3906 120.382 53.5205 120.586 53.6875C120.791 53.8607 120.948 54.0679 121.06 54.3091C121.171 54.5503 121.227 54.8224 121.227 55.1255V55.9141H119.353C118.654 55.9141 118.02 55.9821 117.451 56.1182C116.888 56.2542 116.405 56.4583 116.003 56.7305C115.601 57.0088 115.289 57.3551 115.066 57.7695C114.85 58.1839 114.742 58.6663 114.742 59.2168C114.742 59.6374 114.822 60.0301 114.983 60.395C115.15 60.7537 115.385 61.063 115.688 61.3228C115.985 61.5887 116.347 61.799 116.773 61.9536C117.206 62.1082 117.689 62.1855 118.221 62.1855C118.549 62.1855 118.858 62.1515 119.148 62.0835C119.439 62.0155 119.714 61.9227 119.974 61.8052C120.228 61.6877 120.46 61.5516 120.67 61.397C120.886 61.2424 121.081 61.0785 121.254 60.9053C121.273 61.1156 121.301 61.3197 121.338 61.5176C121.381 61.7093 121.437 61.8701 121.505 62ZM118.471 60.6919C118.137 60.6919 117.843 60.6486 117.59 60.562C117.336 60.4754 117.126 60.3548 116.959 60.2002C116.792 60.0518 116.665 59.8724 116.579 59.6621C116.498 59.4518 116.458 59.223 116.458 58.9756C116.458 58.7158 116.504 58.4839 116.597 58.2798C116.696 58.0757 116.838 57.8994 117.024 57.751C117.284 57.5407 117.633 57.3861 118.072 57.2871C118.518 57.182 119.037 57.1294 119.631 57.1294H121.227V59.1611C121.128 59.359 120.992 59.5508 120.818 59.7363C120.645 59.9157 120.441 60.0765 120.206 60.2188C119.965 60.361 119.699 60.4754 119.408 60.562C119.118 60.6486 118.805 60.6919 118.471 60.6919ZM132.897 51.7764C132.168 51.7764 131.515 51.9372 130.94 52.2588C130.371 52.5742 129.882 53.0072 129.474 53.5576L129.465 53.3071L129.391 51.9619H127.758V62H129.483V55.5615C129.595 55.2523 129.734 54.974 129.901 54.7266C130.074 54.473 130.275 54.2596 130.504 54.0864C130.757 53.8885 131.054 53.7401 131.395 53.6411C131.735 53.536 132.115 53.4834 132.536 53.4834C132.863 53.4834 133.176 53.502 133.473 53.5391C133.776 53.57 134.094 53.6226 134.428 53.6968L134.66 52.0176C134.487 51.9434 134.227 51.8846 133.881 51.8413C133.541 51.798 133.213 51.7764 132.897 51.7764ZM142.008 60.7939C141.47 60.7939 141.018 60.6888 140.653 60.4785C140.295 60.262 140.007 59.9806 139.791 59.6343C139.568 59.2941 139.407 58.9106 139.308 58.4839C139.215 58.0509 139.169 57.6149 139.169 57.1758V56.7861C139.169 56.3532 139.215 55.9233 139.308 55.4966C139.407 55.0698 139.568 54.6833 139.791 54.3369C140.013 53.9967 140.304 53.7215 140.663 53.5112C141.028 53.2948 141.476 53.1865 142.008 53.1865C142.354 53.1865 142.676 53.2453 142.973 53.3628C143.276 53.4803 143.535 53.6411 143.752 53.8452C143.968 54.0493 144.139 54.2874 144.262 54.5596C144.392 54.8255 144.46 55.11 144.466 55.4131H146.09C146.09 54.9059 145.988 54.4297 145.784 53.9844C145.58 53.5391 145.298 53.1525 144.939 52.8247C144.575 52.5031 144.142 52.2495 143.641 52.064C143.146 51.8722 142.602 51.7764 142.008 51.7764C141.247 51.7764 140.582 51.9124 140.013 52.1846C139.444 52.4567 138.971 52.8216 138.594 53.2793C138.21 53.7432 137.923 54.2782 137.731 54.8843C137.539 55.4904 137.443 56.1243 137.443 56.7861V57.1758C137.443 57.8438 137.539 58.4808 137.731 59.0869C137.923 59.6868 138.21 60.2157 138.594 60.6733C138.971 61.1372 139.444 61.5052 140.013 61.7773C140.582 62.0495 141.247 62.1855 142.008 62.1855C142.54 62.1855 143.05 62.0959 143.539 61.9165C144.027 61.731 144.46 61.4836 144.837 61.1743C145.215 60.8713 145.515 60.5187 145.737 60.1167C145.966 59.7085 146.084 59.2817 146.09 58.8364H144.466C144.46 59.1147 144.386 59.3745 144.244 59.6157C144.108 59.8507 143.925 60.0549 143.696 60.228C143.467 60.4074 143.205 60.5465 142.908 60.6455C142.617 60.7445 142.317 60.7939 142.008 60.7939ZM150.858 53.4556V47.75H149.142V62H150.858V54.708C150.982 54.5101 151.121 54.3307 151.276 54.1699C151.437 54.0029 151.61 53.8576 151.795 53.7339C152.03 53.5731 152.287 53.4494 152.565 53.3628C152.844 53.2762 153.138 53.2329 153.447 53.2329C153.824 53.2267 154.158 53.2793 154.449 53.3906C154.739 53.4958 154.981 53.6566 155.172 53.873C155.352 54.071 155.488 54.3215 155.581 54.6245C155.673 54.9214 155.72 55.2677 155.72 55.6636V62H157.436V55.6821C157.436 55.008 157.353 54.4266 157.186 53.938C157.025 53.4432 156.793 53.035 156.49 52.7134C156.187 52.3918 155.819 52.1567 155.386 52.0083C154.959 51.8537 154.483 51.7764 153.957 51.7764C153.555 51.7826 153.175 51.8413 152.816 51.9526C152.463 52.064 152.139 52.2279 151.842 52.4443C151.656 52.5742 151.48 52.7257 151.313 52.8989C151.146 53.0659 150.994 53.2515 150.858 53.4556ZM161.36 66.0542C161.812 66.0542 162.211 65.9707 162.557 65.8037C162.903 65.6367 163.207 65.4295 163.466 65.1821C163.726 64.9347 163.946 64.6657 164.125 64.375C164.311 64.0843 164.462 63.8091 164.58 63.5493L169.673 51.9619H167.752L165.164 58.4746L164.691 59.6528L164.246 58.4375L161.49 51.9619H159.57L163.893 61.5269L163.207 62.8628C163.145 62.9865 163.058 63.1442 162.947 63.3359C162.842 63.5277 162.715 63.7132 162.566 63.8926C162.412 64.0719 162.236 64.2266 162.038 64.3564C161.846 64.4863 161.632 64.5513 161.397 64.5513C161.311 64.5513 161.19 64.5451 161.036 64.5327C160.887 64.5265 160.736 64.5173 160.581 64.5049L160.303 65.9058C160.414 65.9305 160.578 65.9614 160.794 65.9985C161.011 66.0356 161.2 66.0542 161.36 66.0542Z" fill="black"/>
<path d="M357.829 33.5024L358.896 37H360.603L356.316 23.4922H354.878L350.518 37H352.234L353.32 33.5024H357.829ZM353.784 32.0088L355.593 26.1455L357.374 32.0088H353.784ZM367.069 35.7939C366.531 35.7939 366.079 35.6888 365.714 35.4785C365.356 35.262 365.068 34.9806 364.852 34.6343C364.629 34.2941 364.468 33.9106 364.369 33.4839C364.276 33.0509 364.23 32.6149 364.23 32.1758V31.7861C364.23 31.3532 364.276 30.9233 364.369 30.4966C364.468 30.0698 364.629 29.6833 364.852 29.3369C365.074 28.9967 365.365 28.7215 365.724 28.5112C366.089 28.2948 366.537 28.1865 367.069 28.1865C367.415 28.1865 367.737 28.2453 368.034 28.3628C368.337 28.4803 368.597 28.6411 368.813 28.8452C369.029 29.0493 369.2 29.2874 369.323 29.5596C369.453 29.8255 369.521 30.11 369.527 30.4131H371.151C371.151 29.9059 371.049 29.4297 370.845 28.9844C370.641 28.5391 370.359 28.1525 370 27.8247C369.636 27.5031 369.203 27.2495 368.702 27.064C368.207 26.8722 367.663 26.7764 367.069 26.7764C366.308 26.7764 365.643 26.9124 365.074 27.1846C364.505 27.4567 364.032 27.8216 363.655 28.2793C363.271 28.7432 362.984 29.2782 362.792 29.8843C362.6 30.4904 362.504 31.1243 362.504 31.7861V32.1758C362.504 32.8438 362.6 33.4808 362.792 34.0869C362.984 34.6868 363.271 35.2157 363.655 35.6733C364.032 36.1372 364.505 36.5052 365.074 36.7773C365.643 37.0495 366.308 37.1855 367.069 37.1855C367.601 37.1855 368.111 37.0959 368.6 36.9165C369.088 36.731 369.521 36.4836 369.898 36.1743C370.276 35.8713 370.576 35.5187 370.798 35.1167C371.027 34.7085 371.145 34.2817 371.151 33.8364H369.527C369.521 34.1147 369.447 34.3745 369.305 34.6157C369.169 34.8507 368.986 35.0549 368.757 35.228C368.528 35.4074 368.266 35.5465 367.969 35.6455C367.678 35.7445 367.378 35.7939 367.069 35.7939ZM378.267 24.5312H376.541V26.9619H373.906V28.2886H376.541V33.7437C376.541 34.3621 376.621 34.891 376.782 35.3301C376.949 35.763 377.175 36.1156 377.459 36.3877C377.744 36.666 378.078 36.8701 378.461 37C378.851 37.1237 379.269 37.1855 379.714 37.1855C379.98 37.1855 380.246 37.1732 380.512 37.1484C380.784 37.1237 381.041 37.0866 381.282 37.0371C381.523 36.9938 381.746 36.9412 381.95 36.8794C382.154 36.8114 382.327 36.734 382.469 36.6475L382.228 35.4321C382.123 35.4569 381.987 35.4878 381.82 35.5249C381.659 35.5558 381.486 35.5868 381.3 35.6177C381.109 35.6486 380.914 35.6764 380.716 35.7012C380.518 35.7197 380.326 35.729 380.141 35.729C379.887 35.729 379.646 35.6981 379.417 35.6362C379.194 35.5744 378.996 35.4661 378.823 35.3115C378.65 35.1631 378.514 34.9621 378.415 34.7085C378.316 34.4549 378.267 34.1333 378.267 33.7437V28.2886H382.089V26.9619H378.267V24.5312ZM392.229 37H393.788V26.9619H392.062V34.1611C391.969 34.3776 391.852 34.5786 391.709 34.7642C391.573 34.9435 391.413 35.0981 391.227 35.228C391.004 35.3888 390.742 35.5156 390.438 35.6084C390.135 35.695 389.792 35.7383 389.409 35.7383C389.081 35.7383 388.79 35.695 388.537 35.6084C388.289 35.5218 388.079 35.3703 387.906 35.1538C387.733 34.9435 387.603 34.659 387.516 34.3003C387.43 33.9416 387.386 33.4901 387.386 32.9458V26.9619H385.67V32.9272C385.67 33.6756 385.75 34.3188 385.911 34.8569C386.078 35.3888 386.313 35.828 386.616 36.1743C386.919 36.5207 387.284 36.7773 387.711 36.9443C388.138 37.1051 388.614 37.1855 389.14 37.1855C389.795 37.1855 390.374 37.0495 390.875 36.7773C391.375 36.499 391.793 36.1125 392.127 35.6177L392.229 37ZM403.622 37H405.412V36.8516C405.301 36.5732 405.214 36.2485 405.152 35.8774C405.09 35.5002 405.06 35.1445 405.06 34.8105V30.144C405.06 29.5812 404.958 29.0895 404.753 28.6689C404.549 28.2484 404.271 27.8958 403.918 27.6113C403.56 27.333 403.136 27.1258 402.647 26.9897C402.159 26.8475 401.63 26.7764 401.061 26.7764C400.436 26.7764 399.877 26.863 399.382 27.0361C398.893 27.2093 398.479 27.4351 398.139 27.7134C397.792 27.9979 397.526 28.3164 397.341 28.6689C397.161 29.0215 397.069 29.3802 397.062 29.7451H398.788C398.788 29.5348 398.838 29.3338 398.937 29.1421C399.042 28.9442 399.187 28.7741 399.373 28.6318C399.558 28.4896 399.784 28.3752 400.05 28.2886C400.322 28.202 400.628 28.1587 400.968 28.1587C401.333 28.1587 401.661 28.2051 401.952 28.2979C402.249 28.3906 402.499 28.5205 402.703 28.6875C402.907 28.8607 403.065 29.0679 403.176 29.3091C403.288 29.5503 403.343 29.8224 403.343 30.1255V30.9141H401.469C400.77 30.9141 400.136 30.9821 399.567 31.1182C399.005 31.2542 398.522 31.4583 398.12 31.7305C397.718 32.0088 397.406 32.3551 397.183 32.7695C396.967 33.1839 396.858 33.6663 396.858 34.2168C396.858 34.6374 396.939 35.0301 397.1 35.395C397.267 35.7537 397.502 36.063 397.805 36.3228C398.102 36.5887 398.463 36.799 398.89 36.9536C399.323 37.1082 399.806 37.1855 400.337 37.1855C400.665 37.1855 400.974 37.1515 401.265 37.0835C401.556 37.0155 401.831 36.9227 402.091 36.8052C402.344 36.6877 402.576 36.5516 402.787 36.397C403.003 36.2424 403.198 36.0785 403.371 35.9053C403.39 36.1156 403.417 36.3197 403.455 36.5176C403.498 36.7093 403.554 36.8701 403.622 37ZM400.588 35.6919C400.254 35.6919 399.96 35.6486 399.707 35.562C399.453 35.4754 399.243 35.3548 399.076 35.2002C398.909 35.0518 398.782 34.8724 398.695 34.6621C398.615 34.4518 398.575 34.223 398.575 33.9756C398.575 33.7158 398.621 33.4839 398.714 33.2798C398.813 33.0757 398.955 32.8994 399.141 32.751C399.4 32.5407 399.75 32.3861 400.189 32.2871C400.634 32.182 401.154 32.1294 401.748 32.1294H403.343V34.1611C403.244 34.359 403.108 34.5508 402.935 34.7363C402.762 34.9157 402.558 35.0765 402.323 35.2188C402.082 35.361 401.816 35.4754 401.525 35.562C401.234 35.6486 400.922 35.6919 400.588 35.6919ZM408.706 22.75V24.2437H412.12V35.5156H408.706V37H417.111V35.5156H413.836V22.75H408.706ZM361.558 56.4893L364.211 62H366.021L366.03 61.8887L363.163 56.1182C363.534 55.9574 363.874 55.7625 364.184 55.5337C364.493 55.3049 364.759 55.042 364.981 54.7451C365.204 54.4482 365.377 54.1174 365.501 53.7524C365.631 53.3875 365.696 52.9855 365.696 52.5464C365.696 51.866 365.575 51.2754 365.334 50.7744C365.099 50.2673 364.774 49.8467 364.36 49.5127C363.939 49.1787 363.451 48.9282 362.894 48.7612C362.337 48.5942 361.744 48.5046 361.113 48.4922H357.151V62H358.858V56.4893H361.558ZM358.858 55.0791V49.9023H361.113C361.527 49.9085 361.908 49.9673 362.254 50.0786C362.606 50.1899 362.91 50.3538 363.163 50.5703C363.417 50.793 363.615 51.0682 363.757 51.396C363.899 51.7176 363.97 52.0949 363.97 52.5278C363.97 52.936 363.896 53.2979 363.748 53.6133C363.599 53.9225 363.398 54.1854 363.145 54.4019C362.885 54.6183 362.585 54.7853 362.245 54.9028C361.904 55.0142 361.543 55.0729 361.159 55.0791H358.858ZM368.015 56.8882V57.0923C368.015 57.8159 368.12 58.487 368.331 59.1055C368.541 59.724 368.844 60.262 369.24 60.7197C369.629 61.1774 370.106 61.5361 370.668 61.7959C371.237 62.0557 371.878 62.1855 372.589 62.1855C373.294 62.1855 373.928 62.0557 374.491 61.7959C375.054 61.5361 375.533 61.1774 375.929 60.7197C376.318 60.262 376.618 59.724 376.829 59.1055C377.039 58.487 377.144 57.8159 377.144 57.0923V56.8882C377.144 56.1646 377.039 55.4935 376.829 54.875C376.618 54.2503 376.318 53.7091 375.929 53.2515C375.533 52.7938 375.05 52.4351 374.481 52.1753C373.919 51.9093 373.282 51.7764 372.57 51.7764C371.865 51.7764 371.231 51.9093 370.668 52.1753C370.106 52.4351 369.629 52.7938 369.24 53.2515C368.844 53.7091 368.541 54.2503 368.331 54.875C368.12 55.4935 368.015 56.1646 368.015 56.8882ZM369.731 57.0923V56.8882C369.731 56.3996 369.79 55.9326 369.908 55.4873C370.025 55.0358 370.205 54.64 370.446 54.2998C370.681 53.9596 370.975 53.6906 371.327 53.4927C371.68 53.2886 372.094 53.1865 372.57 53.1865C373.047 53.1865 373.461 53.2886 373.813 53.4927C374.172 53.6906 374.472 53.9596 374.713 54.2998C374.948 54.64 375.125 55.0358 375.242 55.4873C375.366 55.9326 375.428 56.3996 375.428 56.8882V57.0923C375.428 57.5871 375.369 58.0602 375.251 58.5117C375.134 58.957 374.958 59.3498 374.723 59.6899C374.481 60.0301 374.181 60.2992 373.823 60.4971C373.47 60.695 373.059 60.7939 372.589 60.7939C372.113 60.7939 371.695 60.695 371.336 60.4971C370.978 60.2992 370.681 60.0301 370.446 59.6899C370.205 59.3498 370.025 58.957 369.908 58.5117C369.79 58.0602 369.731 57.5871 369.731 57.0923ZM388.416 57.0923V56.8975C388.416 56.3717 388.373 55.8739 388.286 55.4038C388.2 54.9276 388.073 54.4946 387.906 54.105C387.745 53.7586 387.559 53.4463 387.349 53.168C387.139 52.8835 386.901 52.6423 386.635 52.4443C386.338 52.234 386.007 52.0701 385.642 51.9526C385.277 51.8351 384.878 51.7764 384.445 51.7764C384.099 51.7764 383.777 51.8104 383.48 51.8784C383.184 51.9465 382.911 52.0454 382.664 52.1753C382.466 52.2804 382.281 52.4072 382.107 52.5557C381.934 52.6979 381.777 52.8587 381.634 53.0381V47.75H379.918V62H381.495L381.579 60.8589C381.69 61.0011 381.807 61.131 381.931 61.2485C382.055 61.366 382.185 61.4743 382.321 61.5732C382.605 61.7712 382.924 61.9227 383.276 62.0278C383.635 62.133 384.031 62.1855 384.464 62.1855C384.841 62.1855 385.191 62.1392 385.512 62.0464C385.84 61.9536 386.14 61.8237 386.412 61.6567C386.789 61.4155 387.111 61.1125 387.377 60.7476C387.649 60.3765 387.869 59.959 388.036 59.4951C388.159 59.1426 388.252 58.7653 388.314 58.3633C388.382 57.9551 388.416 57.5314 388.416 57.0923ZM386.7 56.8975V57.0923C386.7 57.3892 386.681 57.6799 386.644 57.9644C386.607 58.2489 386.548 58.5148 386.468 58.7622C386.369 59.09 386.236 59.3869 386.069 59.6528C385.902 59.9188 385.695 60.1383 385.447 60.3115C385.262 60.4476 385.051 60.5527 384.816 60.627C384.581 60.695 384.322 60.729 384.037 60.729C383.74 60.729 383.468 60.6919 383.221 60.6177C382.973 60.5373 382.751 60.4259 382.553 60.2837C382.355 60.1414 382.179 59.9775 382.024 59.792C381.875 59.6003 381.746 59.3931 381.634 59.1704V54.7822C381.739 54.5596 381.866 54.3555 382.015 54.1699C382.169 53.9782 382.346 53.8112 382.543 53.6689C382.735 53.5329 382.955 53.4277 383.202 53.3535C383.45 53.2731 383.722 53.2329 384.019 53.2329C384.291 53.2329 384.538 53.2638 384.761 53.3257C384.983 53.3875 385.184 53.4741 385.364 53.5854C385.624 53.7401 385.843 53.9535 386.022 54.2256C386.202 54.4977 386.347 54.7977 386.458 55.1255C386.539 55.3914 386.598 55.6759 386.635 55.979C386.678 56.2759 386.7 56.582 386.7 56.8975ZM390.837 56.8882V57.0923C390.837 57.8159 390.943 58.487 391.153 59.1055C391.363 59.724 391.666 60.262 392.062 60.7197C392.452 61.1774 392.928 61.5361 393.491 61.7959C394.06 62.0557 394.7 62.1855 395.411 62.1855C396.116 62.1855 396.75 62.0557 397.313 61.7959C397.876 61.5361 398.355 61.1774 398.751 60.7197C399.141 60.262 399.441 59.724 399.651 59.1055C399.861 58.487 399.966 57.8159 399.966 57.0923V56.8882C399.966 56.1646 399.861 55.4935 399.651 54.875C399.441 54.2503 399.141 53.7091 398.751 53.2515C398.355 52.7938 397.873 52.4351 397.304 52.1753C396.741 51.9093 396.104 51.7764 395.393 51.7764C394.688 51.7764 394.054 51.9093 393.491 52.1753C392.928 52.4351 392.452 52.7938 392.062 53.2515C391.666 53.7091 391.363 54.2503 391.153 54.875C390.943 55.4935 390.837 56.1646 390.837 56.8882ZM392.554 57.0923V56.8882C392.554 56.3996 392.612 55.9326 392.73 55.4873C392.847 55.0358 393.027 54.64 393.268 54.2998C393.503 53.9596 393.797 53.6906 394.149 53.4927C394.502 53.2886 394.916 53.1865 395.393 53.1865C395.869 53.1865 396.283 53.2886 396.636 53.4927C396.994 53.6906 397.294 53.9596 397.536 54.2998C397.771 54.64 397.947 55.0358 398.064 55.4873C398.188 55.9326 398.25 56.3996 398.25 56.8882V57.0923C398.25 57.5871 398.191 58.0602 398.074 58.5117C397.956 58.957 397.78 59.3498 397.545 59.6899C397.304 60.0301 397.004 60.2992 396.645 60.4971C396.292 60.695 395.881 60.7939 395.411 60.7939C394.935 60.7939 394.517 60.695 394.159 60.4971C393.8 60.2992 393.503 60.0301 393.268 59.6899C393.027 59.3498 392.847 58.957 392.73 58.5117C392.612 58.0602 392.554 57.5871 392.554 57.0923ZM406.794 49.5312H405.069V51.9619H402.434V53.2886H405.069V58.7437C405.069 59.3621 405.149 59.891 405.31 60.3301C405.477 60.763 405.703 61.1156 405.987 61.3877C406.272 61.666 406.606 61.8701 406.989 62C407.379 62.1237 407.796 62.1855 408.242 62.1855C408.508 62.1855 408.774 62.1732 409.04 62.1484C409.312 62.1237 409.568 62.0866 409.81 62.0371C410.051 61.9938 410.273 61.9412 410.478 61.8794C410.682 61.8114 410.855 61.734 410.997 61.6475L410.756 60.4321C410.651 60.4569 410.515 60.4878 410.348 60.5249C410.187 60.5558 410.014 60.5868 409.828 60.6177C409.636 60.6486 409.442 60.6764 409.244 60.7012C409.046 60.7197 408.854 60.729 408.668 60.729C408.415 60.729 408.174 60.6981 407.945 60.6362C407.722 60.5744 407.524 60.4661 407.351 60.3115C407.178 60.1631 407.042 59.9621 406.943 59.7085C406.844 59.4549 406.794 59.1333 406.794 58.7437V53.2886H410.617V51.9619H406.794V49.5312Z" fill="black"/>
<path d="M183.53 187.47C183.237 187.177 182.763 187.177 182.47 187.47L177.697 192.243C177.404 192.536 177.404 193.01 177.697 193.303C177.99 193.596 178.464 193.596 178.757 193.303L183 189.061L187.243 193.303C187.536 193.596 188.01 193.596 188.303 193.303C188.596 193.01 188.596 192.536 188.303 192.243L183.53 187.47ZM183.75 214V188H182.25V214H183.75Z" fill="#05DA27"/>
<path d="M212.53 214.53C212.823 214.237 212.823 213.763 212.53 213.47L207.757 208.697C207.464 208.404 206.99 208.404 206.697 208.697C206.404 208.99 206.404 209.464 206.697 209.757L210.939 214L206.697 218.243C206.404 218.536 206.404 219.01 206.697 219.303C206.99 219.596 207.464 219.596 207.757 219.303L212.53 214.53ZM183 214.75H212V213.25H183V214.75Z" fill="#F54747"/>
<circle cx="138" cy="212" r="18.625" fill="white" stroke="black" stroke-width="0.75" stroke-dasharray="5 5"/>
<path d="M150.594 209.13C152.635 209.559 154.284 210.089 155.398 210.689L155.22 211.019C155.714 211.284 156.074 211.552 156.306 211.811C156.536 212.068 156.625 212.297 156.625 212.5C156.625 212.703 156.536 212.932 156.306 213.189C156.074 213.448 155.714 213.716 155.22 213.981L155.398 214.311C154.284 214.911 152.635 215.441 150.594 215.87L150.517 215.503C149.051 215.81 147.377 216.065 145.548 216.254L145.587 216.627C144.003 216.79 142.307 216.904 140.534 216.96L140.522 216.586C139.697 216.612 138.855 216.625 138 216.625C137.145 216.625 136.303 216.612 135.478 216.586L135.466 216.96C133.693 216.904 131.997 216.79 130.413 216.627L130.452 216.254C128.623 216.065 126.949 215.81 125.483 215.503L125.406 215.87C123.365 215.441 121.716 214.911 120.602 214.311L120.78 213.981C120.286 213.716 119.926 213.448 119.694 213.189C119.464 212.932 119.375 212.703 119.375 212.5C119.375 212.297 119.464 212.068 119.694 211.811C119.926 211.552 120.286 211.284 120.78 211.019L120.602 210.689C121.716 210.089 123.365 209.559 125.406 209.13L125.483 209.497C126.949 209.19 128.623 208.935 130.452 208.746L130.413 208.373C131.997 208.21 133.693 208.096 135.466 208.04L135.478 208.414C136.303 208.388 137.145 208.375 138 208.375C138.855 208.375 139.697 208.388 140.522 208.414L140.534 208.04C142.307 208.096 144.003 208.21 145.587 208.373L145.548 208.746C147.377 208.935 149.051 209.19 150.517 209.497L150.594 209.13Z" fill="white" stroke="black" stroke-width="0.75" stroke-dasharray="5 5"/>
<path d="M134.983 199.525C135.355 197.495 135.817 195.845 136.338 194.712L136.679 194.869C136.923 194.338 137.17 193.952 137.408 193.703C137.645 193.455 137.843 193.375 138 193.375C138.157 193.375 138.355 193.455 138.592 193.703C138.83 193.952 139.077 194.338 139.321 194.869L139.662 194.712C140.183 195.845 140.645 197.495 141.017 199.525L140.648 199.592C140.916 201.053 141.138 202.715 141.302 204.526L141.676 204.492C141.818 206.061 141.917 207.74 141.965 209.493L141.591 209.504C141.613 210.32 141.625 211.154 141.625 212C141.625 212.846 141.613 213.68 141.591 214.496L141.965 214.507C141.917 216.26 141.818 217.939 141.676 219.508L141.302 219.474C141.138 221.285 140.916 222.947 140.648 224.408L141.017 224.475C140.645 226.505 140.183 228.155 139.662 229.288L139.321 229.131C139.077 229.662 138.83 230.048 138.592 230.297C138.355 230.545 138.157 230.625 138 230.625C137.843 230.625 137.645 230.545 137.408 230.297C137.17 230.048 136.923 229.662 136.679 229.131L136.338 229.288C135.817 228.155 135.355 226.505 134.983 224.475L135.352 224.408C135.084 222.947 134.862 221.285 134.698 219.474L134.324 219.508C134.182 217.939 134.083 216.26 134.035 214.507L134.409 214.496C134.387 213.68 134.375 212.846 134.375 212C134.375 211.154 134.387 210.32 134.409 209.504L134.035 209.493C134.083 207.74 134.182 206.061 134.324 204.492L134.698 204.526C134.862 202.715 135.084 201.053 135.352 199.592L134.983 199.525Z" stroke="black" stroke-width="0.75" stroke-dasharray="5 5"/>
<path d="M153.658 223.459C153.62 223.047 153.255 222.743 152.843 222.782L146.121 223.403C145.709 223.441 145.405 223.807 145.443 224.219C145.482 224.632 145.847 224.935 146.259 224.897L152.234 224.344L152.786 230.319C152.825 230.731 153.19 231.035 153.602 230.997C154.015 230.958 154.318 230.593 154.28 230.181L153.658 223.459ZM122.536 224.705C130.848 234.626 146.045 232.968 153.489 224.008L152.335 223.049C145.391 231.408 131.302 232.832 123.685 223.742L122.536 224.705Z" fill="#2496ED"/>
<path d="M148.411 215.11C148.202 215.468 148.322 215.927 148.679 216.136L154.506 219.544C154.863 219.753 155.323 219.633 155.532 219.276C155.741 218.918 155.621 218.459 155.263 218.25L150.084 215.22L153.113 210.041C153.323 209.684 153.202 209.224 152.845 209.015C152.487 208.806 152.028 208.926 151.819 209.284L148.411 215.11ZM148.197 210.068C150.817 210.387 152.807 210.751 154.156 211.15C154.833 211.351 155.311 211.55 155.617 211.735C155.946 211.935 155.947 212.038 155.936 211.988C155.914 211.888 155.999 211.909 155.803 212.104C155.609 212.298 155.243 212.548 154.643 212.839C153.455 213.417 151.553 214.06 148.868 214.763L149.248 216.214C151.958 215.505 153.974 214.832 155.299 214.189C155.955 213.87 156.495 213.533 156.863 213.166C157.23 212.799 157.536 212.282 157.402 211.668C157.278 211.105 156.833 210.718 156.393 210.452C155.93 210.171 155.313 209.929 154.582 209.712C153.113 209.277 151.025 208.901 148.378 208.579L148.197 210.068Z" fill="#05DA27"/>
<path d="M140.366 201.823C140.704 202.062 141.172 201.983 141.412 201.645L145.319 196.141C145.559 195.803 145.479 195.335 145.142 195.095C144.804 194.855 144.336 194.935 144.096 195.273L140.623 200.165L135.73 196.692C135.392 196.453 134.924 196.532 134.685 196.87C134.445 197.208 134.524 197.676 134.862 197.916L140.366 201.823ZM135.324 201.593C135.873 199.011 136.41 197.06 136.927 195.752C137.186 195.095 137.427 194.636 137.638 194.348C137.865 194.037 137.968 194.045 137.918 194.052C137.816 194.065 137.844 193.982 138.022 194.194C138.198 194.405 138.415 194.792 138.652 195.415C139.123 196.649 139.597 198.6 140.061 201.337L141.54 201.086C141.071 198.324 140.578 196.256 140.054 194.88C139.794 194.198 139.506 193.631 139.172 193.232C138.839 192.834 138.352 192.484 137.728 192.564C137.156 192.637 136.732 193.046 136.428 193.461C136.108 193.899 135.812 194.491 135.532 195.201C134.969 196.626 134.411 198.673 133.857 201.281L135.324 201.593Z" fill="#F54747"/>
<path d="M173.775 231.381C173.897 231.777 174.316 231.999 174.712 231.877L181.164 229.892C181.56 229.77 181.782 229.35 181.66 228.955C181.538 228.559 181.119 228.336 180.723 228.458L174.988 230.223L173.223 224.488C173.102 224.092 172.682 223.87 172.286 223.992C171.89 224.114 171.668 224.533 171.79 224.929L173.775 231.381ZM183.078 213.34L173.829 230.809L175.155 231.511L184.403 214.042L183.078 213.34Z" fill="#2496ED"/>
<path d="M168.557 213.424V210.934H167.473V213.424H165.094V214.502H167.473V217.145H168.557V214.502H170.941V213.424H168.557Z" fill="black"/>
<defs>
<filter id="filter0_d" x="35" y="242" width="160" height="149" filterUnits="userSpaceOnUse" color-interpolation-filters="sRGB">
<feFlood flood-opacity="0" result="BackgroundImageFix"/>
<feColorMatrix in="SourceAlpha" type="matrix" values="0 0 0 0 0 0 0 0 0 0 0 0 0 0 0 0 0 0 127 0"/>
<feOffset/>
<feGaussianBlur stdDeviation="7.5"/>
<feColorMatrix type="matrix" values="0 0 0 0 0 0 0 0 0 0 0 0 0 0 0 0 0 0 0.05 0"/>
<feBlend mode="normal" in2="BackgroundImageFix" result="effect1_dropShadow"/>
<feBlend mode="normal" in="SourceGraphic" in2="effect1_dropShadow" result="shape"/>
</filter>
<filter id="filter1_d" x="35" y="95" width="160" height="73" filterUnits="userSpaceOnUse" color-interpolation-filters="sRGB">
<feFlood flood-opacity="0" result="BackgroundImageFix"/>
<feColorMatrix in="SourceAlpha" type="matrix" values="0 0 0 0 0 0 0 0 0 0 0 0 0 0 0 0 0 0 127 0"/>
<feOffset/>
<feGaussianBlur stdDeviation="7.5"/>
<feColorMatrix type="matrix" values="0 0 0 0 0 0 0 0 0 0 0 0 0 0 0 0 0 0 0.05 0"/>
<feBlend mode="normal" in2="BackgroundImageFix" result="effect1_dropShadow"/>
<feBlend mode="normal" in="SourceGraphic" in2="effect1_dropShadow" result="shape"/>
</filter>
</defs>
</svg>
