<svg width="522" height="421" viewBox="0 0 522 421" fill="none" xmlns="http://www.w3.org/2000/svg">
<g filter="url(#filter0_d_21_61)">
<rect x="50" y="257" width="130" height="119" rx="4" fill="white"/>
<rect x="50.5" y="257.5" width="129" height="118" rx="3.5" stroke="#BBBBBB"/>
</g>
<g filter="url(#filter1_d_21_61)">
<rect x="50" y="110" width="130" height="43" rx="4" fill="white"/>
<rect x="50.5" y="110.5" width="129" height="42" rx="3.5" stroke="#BBBBBB"/>
</g>
<path d="M87.0607 276.939C86.4749 276.354 85.5251 276.354 84.9393 276.939L75.3934 286.485C74.8076 287.071 74.8076 288.021 75.3934 288.607C75.9792 289.192 76.9289 289.192 77.5147 288.607L86 280.121L94.4853 288.607C95.0711 289.192 96.0208 289.192 96.6066 288.607C97.1924 288.021 97.1924 287.071 96.6066 286.485L87.0607 276.939ZM87.5 329V278H84.5V329H87.5Z" fill="black"/>
<path d="M143.061 330.061C143.646 329.475 143.646 328.525 143.061 327.939L133.515 318.393C132.929 317.808 131.979 317.808 131.393 318.393C130.808 318.979 130.808 319.929 131.393 320.515L139.879 329L131.393 337.485C130.808 338.071 130.808 339.021 131.393 339.607C131.979 340.192 132.929 340.192 133.515 339.607L143.061 330.061ZM86 330.5H142V327.5H86V330.5Z" fill="black"/>
<path d="M67.5663 362.441C67.81 363.233 68.6493 363.677 69.4411 363.434L82.3441 359.464C83.1359 359.22 83.5803 358.381 83.3367 357.589C83.0931 356.797 82.2537 356.353 81.4619 356.596L69.9925 360.125L66.4635 348.656C66.2199 347.864 65.3805 347.42 64.5887 347.663C63.7969 347.907 63.3525 348.746 63.5962 349.538L67.5663 362.441ZM85.6743 327.298L67.6743 361.298L70.3257 362.702L88.3257 328.702L85.6743 327.298Z" fill="black"/>
<path d="M96.873 305.517V305.61C96.873 306.494 96.9411 307.326 97.0771 308.105C97.2194 308.885 97.408 309.605 97.6431 310.267C97.8719 310.935 98.1379 311.541 98.4409 312.085C98.7502 312.636 99.0749 313.125 99.415 313.551C99.749 313.984 100.086 314.349 100.426 314.646C100.773 314.949 101.1 315.187 101.41 315.36L101.771 314.312C101.518 314.108 101.264 313.861 101.011 313.57C100.763 313.285 100.522 312.958 100.287 312.586C100.058 312.197 99.8387 311.755 99.6284 311.26C99.4181 310.771 99.2326 310.239 99.0718 309.664C98.9233 309.095 98.8058 308.473 98.7192 307.799C98.6326 307.125 98.5894 306.402 98.5894 305.628V305.499C98.5894 304.694 98.6357 303.943 98.7285 303.244C98.8213 302.545 98.9512 301.905 99.1182 301.324C99.2913 300.681 99.5078 300.09 99.7676 299.552C100.027 299.007 100.299 298.534 100.584 298.132C100.776 297.873 100.971 297.638 101.168 297.427C101.373 297.217 101.574 297.038 101.771 296.889L101.41 295.757C101.1 295.931 100.776 296.169 100.436 296.472C100.095 296.775 99.7583 297.14 99.4243 297.566C99.0841 297.993 98.7594 298.482 98.4502 299.032C98.1471 299.583 97.8781 300.189 97.6431 300.851C97.408 301.519 97.2194 302.242 97.0771 303.021C96.9411 303.801 96.873 304.633 96.873 305.517ZM115.066 305.833V302.669C115.066 301.809 114.967 301.049 114.769 300.387C114.571 299.719 114.287 299.156 113.916 298.698C113.538 298.241 113.077 297.894 112.533 297.659C111.995 297.418 111.38 297.297 110.687 297.297C110 297.297 109.385 297.418 108.841 297.659C108.303 297.894 107.848 298.241 107.477 298.698C107.1 299.156 106.812 299.719 106.614 300.387C106.416 301.049 106.317 301.809 106.317 302.669V305.833C106.317 306.692 106.416 307.456 106.614 308.124C106.812 308.786 107.1 309.342 107.477 309.794C107.854 310.258 108.315 310.607 108.859 310.842C109.404 311.071 110.019 311.186 110.706 311.186C111.398 311.186 112.014 311.068 112.552 310.833C113.09 310.598 113.544 310.252 113.916 309.794C114.287 309.342 114.571 308.786 114.769 308.124C114.967 307.456 115.066 306.692 115.066 305.833ZM108.043 305.489C108.043 305.328 108.043 305.171 108.043 305.016C108.043 304.861 108.043 304.707 108.043 304.552V302.289C108.043 301.658 108.105 301.104 108.229 300.628C108.358 300.146 108.553 299.753 108.813 299.45C109.029 299.208 109.292 299.026 109.602 298.902C109.917 298.772 110.279 298.708 110.687 298.708C111.089 298.708 111.442 298.766 111.745 298.884C112.054 299.001 112.314 299.178 112.524 299.413C112.74 299.641 112.91 299.929 113.034 300.275C113.164 300.616 113.254 301.008 113.303 301.454L108.043 305.489ZM113.34 306.194C113.34 306.856 113.272 307.431 113.136 307.92C113.006 308.409 112.799 308.804 112.515 309.107C112.304 309.33 112.048 309.5 111.745 309.618C111.442 309.735 111.095 309.794 110.706 309.794C110.334 309.794 110 309.741 109.704 309.636C109.407 309.525 109.153 309.364 108.943 309.154C108.714 308.931 108.528 308.65 108.386 308.31C108.244 307.963 108.145 307.564 108.089 307.113L113.34 303.096C113.34 303.269 113.34 303.488 113.34 303.754C113.34 304.014 113.34 304.19 113.34 304.283V306.194ZM122.349 310.601V308.968H120.484V310.629C120.484 311.155 120.422 311.662 120.298 312.15C120.175 312.639 119.964 313.1 119.667 313.533L120.734 314.117C121.229 313.678 121.622 313.137 121.913 312.494C122.203 311.85 122.349 311.22 122.349 310.601ZM137.888 305.833V302.669C137.888 301.809 137.789 301.049 137.591 300.387C137.393 299.719 137.109 299.156 136.738 298.698C136.361 298.241 135.9 297.894 135.355 297.659C134.817 297.418 134.202 297.297 133.509 297.297C132.823 297.297 132.207 297.418 131.663 297.659C131.125 297.894 130.67 298.241 130.299 298.698C129.922 299.156 129.634 299.719 129.437 300.387C129.239 301.049 129.14 301.809 129.14 302.669V305.833C129.14 306.692 129.239 307.456 129.437 308.124C129.634 308.786 129.922 309.342 130.299 309.794C130.677 310.258 131.137 310.607 131.682 310.842C132.226 311.071 132.841 311.186 133.528 311.186C134.221 311.186 134.836 311.068 135.374 310.833C135.912 310.598 136.367 310.252 136.738 309.794C137.109 309.342 137.393 308.786 137.591 308.124C137.789 307.456 137.888 306.692 137.888 305.833ZM130.865 305.489C130.865 305.328 130.865 305.171 130.865 305.016C130.865 304.861 130.865 304.707 130.865 304.552V302.289C130.865 301.658 130.927 301.104 131.051 300.628C131.181 300.146 131.375 299.753 131.635 299.45C131.852 299.208 132.115 299.026 132.424 298.902C132.739 298.772 133.101 298.708 133.509 298.708C133.911 298.708 134.264 298.766 134.567 298.884C134.876 299.001 135.136 299.178 135.346 299.413C135.563 299.641 135.733 299.929 135.856 300.275C135.986 300.616 136.076 301.008 136.125 301.454L130.865 305.489ZM136.163 306.194C136.163 306.856 136.095 307.431 135.958 307.92C135.829 308.409 135.621 308.804 135.337 309.107C135.127 309.33 134.87 309.5 134.567 309.618C134.264 309.735 133.917 309.794 133.528 309.794C133.157 309.794 132.823 309.741 132.526 309.636C132.229 309.525 131.975 309.364 131.765 309.154C131.536 308.931 131.351 308.65 131.208 308.31C131.066 307.963 130.967 307.564 130.912 307.113L136.163 303.096C136.163 303.269 136.163 303.488 136.163 303.754C136.163 304.014 136.163 304.19 136.163 304.283V306.194ZM145.171 310.601V308.968H143.306V310.629C143.306 311.155 143.244 311.662 143.121 312.15C142.997 312.639 142.787 313.1 142.49 313.533L143.557 314.117C144.051 313.678 144.444 313.137 144.735 312.494C145.026 311.85 145.171 311.22 145.171 310.601ZM160.71 305.833V302.669C160.71 301.809 160.611 301.049 160.414 300.387C160.216 299.719 159.931 299.156 159.56 298.698C159.183 298.241 158.722 297.894 158.178 297.659C157.64 297.418 157.024 297.297 156.332 297.297C155.645 297.297 155.03 297.418 154.485 297.659C153.947 297.894 153.493 298.241 153.122 298.698C152.744 299.156 152.457 299.719 152.259 300.387C152.061 301.049 151.962 301.809 151.962 302.669V305.833C151.962 306.692 152.061 307.456 152.259 308.124C152.457 308.786 152.744 309.342 153.122 309.794C153.499 310.258 153.96 310.607 154.504 310.842C155.048 311.071 155.664 311.186 156.35 311.186C157.043 311.186 157.658 311.068 158.196 310.833C158.734 310.598 159.189 310.252 159.56 309.794C159.931 309.342 160.216 308.786 160.414 308.124C160.611 307.456 160.71 306.692 160.71 305.833ZM153.688 305.489C153.688 305.328 153.688 305.171 153.688 305.016C153.688 304.861 153.688 304.707 153.688 304.552V302.289C153.688 301.658 153.749 301.104 153.873 300.628C154.003 300.146 154.198 299.753 154.458 299.45C154.674 299.208 154.937 299.026 155.246 298.902C155.562 298.772 155.923 298.708 156.332 298.708C156.734 298.708 157.086 298.766 157.389 298.884C157.698 299.001 157.958 299.178 158.168 299.413C158.385 299.641 158.555 299.929 158.679 300.275C158.809 300.616 158.898 301.008 158.948 301.454L153.688 305.489ZM158.985 306.194C158.985 306.856 158.917 307.431 158.781 307.92C158.651 308.409 158.444 308.804 158.159 309.107C157.949 309.33 157.692 309.5 157.389 309.618C157.086 309.735 156.74 309.794 156.35 309.794C155.979 309.794 155.645 309.741 155.348 309.636C155.051 309.525 154.798 309.364 154.587 309.154C154.359 308.931 154.173 308.65 154.031 308.31C153.889 307.963 153.79 307.564 153.734 307.113L158.985 303.096C158.985 303.269 158.985 303.488 158.985 303.754C158.985 304.014 158.985 304.19 158.985 304.283V306.194ZM169.904 305.61V305.517C169.904 304.571 169.83 303.72 169.682 302.966C169.539 302.205 169.357 301.5 169.134 300.851C168.905 300.176 168.639 299.57 168.336 299.032C168.033 298.494 167.709 298.006 167.362 297.566C167.028 297.14 166.688 296.775 166.342 296.472C165.995 296.169 165.668 295.931 165.358 295.757L164.997 296.806C165.201 296.973 165.411 297.177 165.627 297.418C165.844 297.653 166.054 297.928 166.258 298.244C166.524 298.646 166.784 299.119 167.038 299.663C167.291 300.201 167.508 300.81 167.687 301.491C167.811 301.967 167.922 302.545 168.021 303.226C168.126 303.906 168.179 304.664 168.179 305.499V305.628C168.179 306.364 168.139 307.057 168.058 307.707C167.984 308.35 167.876 308.95 167.733 309.506C167.597 310.106 167.421 310.657 167.205 311.158C166.994 311.665 166.775 312.119 166.546 312.521C166.305 312.917 166.051 313.267 165.785 313.57C165.519 313.873 165.256 314.12 164.997 314.312L165.358 315.36C165.668 315.187 165.992 314.949 166.333 314.646C166.679 314.349 167.022 313.984 167.362 313.551C167.696 313.125 168.015 312.636 168.318 312.085C168.627 311.541 168.899 310.935 169.134 310.267C169.369 309.605 169.555 308.885 169.691 308.105C169.833 307.326 169.904 306.494 169.904 305.61Z" fill="black"/>
<path d="M39.7129 211.057H36.1504V214.08H40.3047V215H35.0664V206.469H40.252V207.395H36.1504V210.137H39.7129V211.057ZM46.4043 215L46.3398 214.127C46.1289 214.439 45.8652 214.684 45.5488 214.859C45.2324 215.031 44.8672 215.117 44.4531 215.117C44.1211 215.117 43.8203 215.066 43.5508 214.965C43.2812 214.859 43.0508 214.697 42.8594 214.479C42.668 214.26 42.5195 213.982 42.4141 213.646C42.3125 213.307 42.2617 212.9 42.2617 212.428V208.66H43.3457V212.439C43.3457 212.783 43.373 213.068 43.4277 213.295C43.4824 213.521 43.5645 213.701 43.6738 213.834C43.7832 213.971 43.916 214.066 44.0723 214.121C44.2324 214.176 44.416 214.203 44.623 214.203C44.8652 214.203 45.082 214.176 45.2734 214.121C45.4648 214.062 45.6309 213.982 45.7715 213.881C45.8887 213.799 45.9902 213.701 46.0762 213.588C46.166 213.471 46.2402 213.344 46.2988 213.207V208.66H47.3887V215H46.4043ZM49.6035 206H52.8438V214.062H54.9121V215H49.6035V214.062H51.7598V206.943H49.6035V206ZM59.4414 215.117C58.9961 215.117 58.5859 215.041 58.2109 214.889C57.8398 214.736 57.5215 214.523 57.2559 214.25C56.9902 213.977 56.7832 213.652 56.6348 213.277C56.4863 212.902 56.4121 212.494 56.4121 212.053V211.807C56.4121 211.295 56.4941 210.838 56.6582 210.436C56.8223 210.029 57.041 209.686 57.3145 209.404C57.584 209.127 57.8906 208.914 58.2344 208.766C58.582 208.617 58.9375 208.543 59.3008 208.543C59.7578 208.543 60.1562 208.623 60.4961 208.783C60.8398 208.939 61.125 209.156 61.3516 209.434C61.5781 209.715 61.7461 210.045 61.8555 210.424C61.9688 210.803 62.0254 211.213 62.0254 211.654V212.141H57.4961V212.182C57.5234 212.49 57.584 212.762 57.6777 212.996C57.7754 213.23 57.9082 213.438 58.0762 213.617C58.248 213.809 58.4551 213.959 58.6973 214.068C58.9395 214.178 59.207 214.232 59.5 214.232C59.8867 214.232 60.2305 214.154 60.5312 213.998C60.832 213.842 61.082 213.635 61.2812 213.377L61.9434 213.893C61.7324 214.213 61.416 214.498 60.9941 214.748C60.5762 214.994 60.0586 215.117 59.4414 215.117ZM59.3008 209.434C59.082 209.434 58.875 209.475 58.6797 209.557C58.4844 209.635 58.3086 209.75 58.1523 209.902C57.9961 210.059 57.8633 210.25 57.7539 210.477C57.6484 210.699 57.5742 210.957 57.5312 211.25H60.9414V211.197C60.9414 211.002 60.9043 210.793 60.8301 210.57C60.7559 210.344 60.6523 210.148 60.5195 209.984C60.3867 209.82 60.2188 209.688 60.0156 209.586C59.8164 209.484 59.5781 209.434 59.3008 209.434ZM68.002 208.543C68.2012 208.543 68.4082 208.557 68.623 208.584C68.8418 208.611 69.0059 208.648 69.1152 208.695L68.9688 209.756C68.7578 209.709 68.5566 209.676 68.3652 209.656C68.1777 209.633 67.9805 209.621 67.7734 209.621C67.5078 209.621 67.2676 209.654 67.0527 209.721C66.8379 209.783 66.6504 209.877 66.4902 210.002C66.3457 210.111 66.2188 210.246 66.1094 210.406C66.0039 210.562 65.916 210.738 65.8457 210.934V215H64.7559V208.66H65.7871L65.834 209.51L65.8398 209.668C66.0977 209.32 66.4062 209.047 66.7656 208.848C67.1289 208.645 67.541 208.543 68.002 208.543ZM75.8008 211.232H72.25V215H71.1543V206.469H76.3926V207.395H72.25V210.312H75.8008V211.232ZM82.416 208.543C82.6152 208.543 82.8223 208.557 83.0371 208.584C83.2559 208.611 83.4199 208.648 83.5293 208.695L83.3828 209.756C83.1719 209.709 82.9707 209.676 82.7793 209.656C82.5918 209.633 82.3945 209.621 82.1875 209.621C81.9219 209.621 81.6816 209.654 81.4668 209.721C81.252 209.783 81.0645 209.877 80.9043 210.002C80.7598 210.111 80.6328 210.246 80.5234 210.406C80.418 210.562 80.3301 210.738 80.2598 210.934V215H79.1699V208.66H80.2012L80.248 209.51L80.2539 209.668C80.5117 209.32 80.8203 209.047 81.1797 208.848C81.543 208.645 81.9551 208.543 82.416 208.543ZM88.2695 215.117C87.8242 215.117 87.4141 215.041 87.0391 214.889C86.668 214.736 86.3496 214.523 86.084 214.25C85.8184 213.977 85.6113 213.652 85.4629 213.277C85.3145 212.902 85.2402 212.494 85.2402 212.053V211.807C85.2402 211.295 85.3223 210.838 85.4863 210.436C85.6504 210.029 85.8691 209.686 86.1426 209.404C86.4121 209.127 86.7188 208.914 87.0625 208.766C87.4102 208.617 87.7656 208.543 88.1289 208.543C88.5859 208.543 88.9844 208.623 89.3242 208.783C89.668 208.939 89.9531 209.156 90.1797 209.434C90.4062 209.715 90.5742 210.045 90.6836 210.424C90.7969 210.803 90.8535 211.213 90.8535 211.654V212.141H86.3242V212.182C86.3516 212.49 86.4121 212.762 86.5059 212.996C86.6035 213.23 86.7363 213.438 86.9043 213.617C87.0762 213.809 87.2832 213.959 87.5254 214.068C87.7676 214.178 88.0352 214.232 88.3281 214.232C88.7148 214.232 89.0586 214.154 89.3594 213.998C89.6602 213.842 89.9102 213.635 90.1094 213.377L90.7715 213.893C90.5605 214.213 90.2441 214.498 89.8223 214.748C89.4043 214.994 88.8867 215.117 88.2695 215.117ZM88.1289 209.434C87.9102 209.434 87.7031 209.475 87.5078 209.557C87.3125 209.635 87.1367 209.75 86.9805 209.902C86.8242 210.059 86.6914 210.25 86.582 210.477C86.4766 210.699 86.4023 210.957 86.3594 211.25H89.7695V211.197C89.7695 211.002 89.7324 210.793 89.6582 210.57C89.584 210.344 89.4805 210.148 89.3477 209.984C89.2148 209.82 89.0469 209.688 88.8438 209.586C88.6445 209.484 88.4062 209.434 88.1289 209.434ZM95.4766 215.117C95.0312 215.117 94.6211 215.041 94.2461 214.889C93.875 214.736 93.5566 214.523 93.291 214.25C93.0254 213.977 92.8184 213.652 92.6699 213.277C92.5215 212.902 92.4473 212.494 92.4473 212.053V211.807C92.4473 211.295 92.5293 210.838 92.6934 210.436C92.8574 210.029 93.0762 209.686 93.3496 209.404C93.6191 209.127 93.9258 208.914 94.2695 208.766C94.6172 208.617 94.9727 208.543 95.3359 208.543C95.793 208.543 96.1914 208.623 96.5312 208.783C96.875 208.939 97.1602 209.156 97.3867 209.434C97.6133 209.715 97.7812 210.045 97.8906 210.424C98.0039 210.803 98.0605 211.213 98.0605 211.654V212.141H93.5312V212.182C93.5586 212.49 93.6191 212.762 93.7129 212.996C93.8105 213.23 93.9434 213.438 94.1113 213.617C94.2832 213.809 94.4902 213.959 94.7324 214.068C94.9746 214.178 95.2422 214.232 95.5352 214.232C95.9219 214.232 96.2656 214.154 96.5664 213.998C96.8672 213.842 97.1172 213.635 97.3164 213.377L97.9785 213.893C97.7676 214.213 97.4512 214.498 97.0293 214.748C96.6113 214.994 96.0938 215.117 95.4766 215.117ZM95.3359 209.434C95.1172 209.434 94.9102 209.475 94.7148 209.557C94.5195 209.635 94.3438 209.75 94.1875 209.902C94.0312 210.059 93.8984 210.25 93.7891 210.477C93.6836 210.699 93.6094 210.957 93.5664 211.25H96.9766V211.197C96.9766 211.002 96.9395 210.793 96.8652 210.57C96.791 210.344 96.6875 210.148 96.5547 209.984C96.4219 209.82 96.2539 209.688 96.0508 209.586C95.8516 209.484 95.6133 209.434 95.3359 209.434ZM103.885 206.469H104.992V212.404C104.984 212.799 104.908 213.162 104.764 213.494C104.623 213.826 104.43 214.111 104.184 214.35C103.938 214.592 103.646 214.781 103.311 214.918C102.979 215.051 102.615 215.117 102.221 215.117C101.822 215.117 101.459 215.057 101.131 214.936C100.807 214.814 100.525 214.641 100.287 214.414C100.045 214.191 99.8516 213.922 99.707 213.605C99.5625 213.285 99.4727 212.928 99.4375 212.533H100.539C100.551 212.771 100.598 212.992 100.68 213.195C100.766 213.398 100.881 213.574 101.025 213.723C101.17 213.875 101.342 213.992 101.541 214.074C101.744 214.156 101.971 214.197 102.221 214.197C102.479 214.197 102.709 214.15 102.912 214.057C103.115 213.959 103.289 213.828 103.434 213.664C103.574 213.5 103.682 213.311 103.756 213.096C103.834 212.877 103.877 212.646 103.885 212.404V206.469ZM106.785 211.771C106.785 211.314 106.852 210.891 106.984 210.5C107.117 210.105 107.309 209.764 107.559 209.475C107.805 209.186 108.105 208.959 108.461 208.795C108.816 208.627 109.217 208.543 109.662 208.543C110.111 208.543 110.514 208.627 110.869 208.795C111.229 208.959 111.533 209.186 111.783 209.475C112.029 209.764 112.219 210.105 112.352 210.5C112.484 210.891 112.551 211.314 112.551 211.771V211.9C112.551 212.357 112.484 212.781 112.352 213.172C112.219 213.562 112.029 213.902 111.783 214.191C111.533 214.48 111.23 214.707 110.875 214.871C110.52 215.035 110.119 215.117 109.674 215.117C109.225 215.117 108.82 215.035 108.461 214.871C108.105 214.707 107.805 214.48 107.559 214.191C107.309 213.902 107.117 213.562 106.984 213.172C106.852 212.781 106.785 212.357 106.785 211.9V211.771ZM107.869 211.9C107.869 212.213 107.906 212.512 107.98 212.797C108.055 213.078 108.168 213.326 108.32 213.541C108.469 213.756 108.656 213.926 108.883 214.051C109.109 214.176 109.373 214.238 109.674 214.238C109.971 214.238 110.23 214.176 110.453 214.051C110.68 213.926 110.869 213.756 111.021 213.541C111.17 213.326 111.281 213.078 111.355 212.797C111.43 212.512 111.467 212.213 111.467 211.9V211.771C111.467 211.463 111.428 211.168 111.35 210.887C111.275 210.602 111.164 210.352 111.016 210.137C110.863 209.922 110.674 209.752 110.447 209.627C110.225 209.498 109.963 209.434 109.662 209.434C109.361 209.434 109.1 209.498 108.877 209.627C108.654 209.752 108.469 209.922 108.32 210.137C108.168 210.352 108.055 210.602 107.98 210.887C107.906 211.168 107.869 211.463 107.869 211.771V211.9ZM114.467 208.66H117.707V214.062H119.775V215H114.467V214.062H116.623V209.604H114.467V208.66ZM116.482 206.996C116.482 206.902 116.496 206.814 116.523 206.732C116.555 206.65 116.602 206.58 116.664 206.521C116.715 206.471 116.779 206.432 116.857 206.404C116.939 206.373 117.031 206.357 117.133 206.357C117.234 206.357 117.324 206.373 117.402 206.404C117.48 206.432 117.545 206.471 117.596 206.521C117.658 206.576 117.705 206.645 117.736 206.727C117.768 206.809 117.783 206.898 117.783 206.996C117.783 207.172 117.729 207.318 117.619 207.436C117.51 207.553 117.348 207.611 117.133 207.611C116.914 207.611 116.75 207.553 116.641 207.436C116.535 207.318 116.482 207.172 116.482 206.996ZM121.504 215V208.66H122.477L122.553 209.598C122.646 209.465 122.748 209.344 122.857 209.234C122.971 209.121 123.09 209.023 123.215 208.941C123.402 208.816 123.605 208.721 123.824 208.654C124.047 208.584 124.281 208.547 124.527 208.543C124.859 208.543 125.16 208.59 125.43 208.684C125.703 208.777 125.936 208.924 126.127 209.123C126.318 209.322 126.465 209.576 126.566 209.885C126.672 210.189 126.725 210.553 126.725 210.975V215H125.641V210.998C125.641 210.717 125.609 210.479 125.547 210.283C125.484 210.088 125.393 209.93 125.271 209.809C125.146 209.688 124.994 209.6 124.814 209.545C124.639 209.49 124.436 209.463 124.205 209.463C124.006 209.463 123.82 209.492 123.648 209.551C123.477 209.605 123.318 209.682 123.174 209.779C123.057 209.865 122.947 209.965 122.846 210.078C122.748 210.191 122.662 210.316 122.588 210.453V215H121.504ZM131.277 207.125V208.66H133.691V209.498H131.277V212.943C131.277 213.189 131.309 213.393 131.371 213.553C131.434 213.713 131.52 213.84 131.629 213.934C131.738 214.031 131.863 214.1 132.004 214.139C132.148 214.178 132.301 214.197 132.461 214.197C132.578 214.197 132.699 214.191 132.824 214.18C132.949 214.164 133.072 214.146 133.193 214.127C133.311 214.107 133.42 214.088 133.521 214.068C133.627 214.045 133.713 214.025 133.779 214.01L133.932 214.777C133.842 214.832 133.732 214.881 133.604 214.924C133.475 214.963 133.334 214.996 133.182 215.023C133.029 215.055 132.867 215.078 132.695 215.094C132.527 215.109 132.359 215.117 132.191 215.117C131.91 215.117 131.646 215.078 131.4 215C131.158 214.918 130.947 214.789 130.768 214.613C130.588 214.441 130.445 214.219 130.34 213.945C130.238 213.668 130.188 213.334 130.188 212.943V209.498H128.523V208.66H130.188V207.125H131.277Z" fill="black"/>
<path d="M66.0078 135H68.7383C69.1016 134.996 69.4531 134.939 69.793 134.83C70.1367 134.721 70.4395 134.562 70.7012 134.355C70.9629 134.152 71.1719 133.898 71.3281 133.594C71.4844 133.289 71.5605 132.938 71.5566 132.539C71.5566 132.285 71.5176 132.049 71.4395 131.83C71.3652 131.611 71.2598 131.414 71.123 131.238C70.9941 131.078 70.8301 130.932 70.6309 130.799C70.4316 130.666 70.2246 130.574 70.0098 130.523V130.506C70.2168 130.416 70.3926 130.32 70.5371 130.219C70.6855 130.117 70.8203 129.992 70.9414 129.844C71.0586 129.699 71.1504 129.535 71.2168 129.352C71.2871 129.168 71.3242 128.965 71.3281 128.742C71.332 128.344 71.2559 128.002 71.0996 127.717C70.9434 127.432 70.7344 127.197 70.4727 127.014C70.2109 126.83 69.9121 126.695 69.5762 126.609C69.2402 126.52 68.8965 126.473 68.5449 126.469H66.0078V135ZM67.0977 131.01H68.8262C69.0566 131.018 69.2715 131.057 69.4707 131.127C69.6699 131.197 69.8438 131.297 69.9922 131.426C70.1406 131.559 70.2559 131.719 70.3379 131.906C70.4238 132.094 70.4648 132.309 70.4609 132.551C70.4609 132.789 70.4141 133.002 70.3203 133.189C70.2305 133.377 70.1074 133.535 69.9512 133.664C69.7949 133.793 69.6152 133.895 69.4121 133.969C69.209 134.039 68.9941 134.076 68.7676 134.08H67.0977V131.01ZM67.0977 130.107V127.395H68.5801C68.791 127.398 68.9961 127.426 69.1953 127.477C69.3984 127.527 69.5781 127.605 69.7344 127.711C69.8867 127.82 70.0078 127.959 70.0977 128.127C70.1914 128.295 70.2383 128.498 70.2383 128.736C70.2383 128.959 70.1914 129.154 70.0977 129.322C70.0039 129.49 69.8809 129.631 69.7285 129.744C69.5762 129.861 69.4023 129.951 69.207 130.014C69.0117 130.072 68.8125 130.104 68.6094 130.107H67.0977ZM72.9219 131.771V131.9C72.9219 132.357 72.9883 132.781 73.1211 133.172C73.2539 133.562 73.4453 133.902 73.6953 134.191C73.9414 134.48 74.2422 134.707 74.5977 134.871C74.957 135.035 75.3613 135.117 75.8105 135.117C76.2559 135.117 76.6562 135.035 77.0117 134.871C77.3672 134.707 77.6699 134.48 77.9199 134.191C78.166 133.902 78.3555 133.562 78.4883 133.172C78.6211 132.781 78.6875 132.357 78.6875 131.9V131.771C78.6875 131.314 78.6211 130.891 78.4883 130.5C78.3555 130.105 78.166 129.764 77.9199 129.475C77.6699 129.186 77.3652 128.959 77.0059 128.795C76.6504 128.627 76.248 128.543 75.7988 128.543C75.3535 128.543 74.9531 128.627 74.5977 128.795C74.2422 128.959 73.9414 129.186 73.6953 129.475C73.4453 129.764 73.2539 130.105 73.1211 130.5C72.9883 130.891 72.9219 131.314 72.9219 131.771ZM74.0059 131.9V131.771C74.0059 131.463 74.043 131.168 74.1172 130.887C74.1914 130.602 74.3047 130.352 74.457 130.137C74.6055 129.922 74.791 129.752 75.0137 129.627C75.2363 129.498 75.498 129.434 75.7988 129.434C76.0996 129.434 76.3613 129.498 76.584 129.627C76.8105 129.752 77 129.922 77.1523 130.137C77.3008 130.352 77.4121 130.602 77.4863 130.887C77.5645 131.168 77.6035 131.463 77.6035 131.771V131.9C77.6035 132.213 77.5664 132.512 77.4922 132.797C77.418 133.078 77.3066 133.326 77.1582 133.541C77.0059 133.756 76.8164 133.926 76.5898 134.051C76.3672 134.176 76.1074 134.238 75.8105 134.238C75.5098 134.238 75.2461 134.176 75.0195 134.051C74.793 133.926 74.6055 133.756 74.457 133.541C74.3047 133.326 74.1914 133.078 74.1172 132.797C74.043 132.512 74.0059 132.213 74.0059 131.9ZM80.2285 131.777V131.9C80.2285 132.354 80.2891 132.777 80.4102 133.172C80.5312 133.562 80.7012 133.902 80.9199 134.191C81.1387 134.48 81.4023 134.707 81.7109 134.871C82.0234 135.035 82.3711 135.117 82.7539 135.117C83.1445 135.117 83.4863 135.051 83.7793 134.918C84.0723 134.785 84.3242 134.59 84.5352 134.332L84.582 135H85.5781V126H84.4941V129.287C84.2871 129.045 84.041 128.861 83.7559 128.736C83.4746 128.607 83.1445 128.543 82.7656 128.543C82.3789 128.543 82.0293 128.623 81.7168 128.783C81.4043 128.943 81.1387 129.166 80.9199 129.451C80.6973 129.736 80.5254 130.078 80.4043 130.477C80.2871 130.871 80.2285 131.305 80.2285 131.777ZM81.3125 131.9V131.777C81.3125 131.469 81.3457 131.176 81.4121 130.898C81.4785 130.617 81.582 130.369 81.7227 130.154C81.8594 129.943 82.0352 129.775 82.25 129.65C82.4688 129.525 82.7305 129.463 83.0352 129.463C83.3906 129.463 83.6875 129.547 83.9258 129.715C84.1641 129.879 84.3535 130.09 84.4941 130.348V133.289C84.3535 133.566 84.1641 133.787 83.9258 133.951C83.6875 134.115 83.3867 134.197 83.0234 134.197C82.7227 134.197 82.4648 134.137 82.25 134.016C82.0352 133.891 81.8594 133.723 81.7227 133.512C81.582 133.301 81.4785 133.057 81.4121 132.779C81.3457 132.502 81.3125 132.209 81.3125 131.9ZM88.1504 137.561C88.4355 137.561 88.6875 137.508 88.9062 137.402C89.125 137.297 89.3164 137.166 89.4805 137.01C89.6445 136.854 89.7832 136.684 89.8965 136.5C90.0137 136.316 90.1094 136.143 90.1836 135.979L93.4004 128.66H92.1875L90.5527 132.773L90.2539 133.518L89.9727 132.75L88.2324 128.66H87.0195L89.75 134.701L89.3164 135.545C89.2773 135.623 89.2227 135.723 89.1523 135.844C89.0859 135.965 89.0059 136.082 88.9121 136.195C88.8145 136.309 88.7031 136.406 88.5781 136.488C88.457 136.57 88.3223 136.611 88.1738 136.611C88.1191 136.611 88.043 136.607 87.9453 136.6C87.8516 136.596 87.7559 136.59 87.6582 136.582L87.4824 137.467C87.5527 137.482 87.6562 137.502 87.793 137.525C87.9297 137.549 88.0488 137.561 88.1504 137.561Z" fill="black"/>
<rect x="378.169" y="104.485" width="105.571" height="110.18" rx="9" transform="rotate(27.6497 378.169 104.485)" stroke="black" stroke-width="2"/>
<circle cx="400.268" cy="179.06" r="7.5" transform="rotate(14.8488 400.268 179.06)" fill="#FF0000"/>
<path d="M384.417 179.276C384.569 179.045 384.506 178.735 384.276 178.583L380.521 176.102C380.29 175.95 379.98 176.014 379.828 176.244C379.676 176.474 379.739 176.785 379.97 176.937L383.307 179.142L381.102 182.479C380.95 182.71 381.014 183.02 381.244 183.172C381.474 183.324 381.785 183.261 381.937 183.03L384.417 179.276ZM247.1 207.49L248.589 207.186L248.389 206.206L246.9 206.51L247.1 207.49ZM251.568 206.577L254.546 205.968L254.346 204.988L251.367 205.597L251.568 206.577ZM257.524 205.359L260.502 204.751L260.302 203.771L257.324 204.38L257.524 205.359ZM263.481 204.142L266.459 203.533L266.259 202.554L263.28 203.162L263.481 204.142ZM269.437 202.925L272.415 202.316L272.215 201.336L269.237 201.945L269.437 202.925ZM275.394 201.707L278.372 201.099L278.172 200.119L275.193 200.728L275.394 201.707ZM281.35 200.49L284.328 199.881L284.128 198.901L281.15 199.51L281.35 200.49ZM287.307 199.272L290.285 198.664L290.085 197.684L287.106 198.293L287.307 199.272ZM293.263 198.055L296.241 197.446L296.041 196.467L293.063 197.075L293.263 198.055ZM299.22 196.838L302.198 196.229L301.998 195.249L299.019 195.858L299.22 196.838ZM305.176 195.62L308.154 195.012L307.954 194.032L304.976 194.641L305.176 195.62ZM311.133 194.403L314.111 193.794L313.911 192.814L310.932 193.423L311.133 194.403ZM317.089 193.186L320.067 192.577L319.867 191.597L316.889 192.206L317.089 193.186ZM323.046 191.968L326.024 191.359L325.824 190.38L322.846 190.988L323.046 191.968ZM329.002 190.751L331.981 190.142L331.78 189.162L328.802 189.771L329.002 190.751ZM334.959 189.533L337.937 188.925L337.737 187.945L334.759 188.554L334.959 189.533ZM340.915 188.316L343.894 187.707L343.693 186.728L340.715 187.336L340.915 188.316ZM346.872 187.099L349.85 186.49L349.65 185.51L346.672 186.119L346.872 187.099ZM352.828 185.881L355.807 185.272L355.606 184.293L352.628 184.901L352.828 185.881ZM358.785 184.664L361.763 184.055L361.563 183.075L358.585 183.684L358.785 184.664ZM364.741 183.446L367.72 182.838L367.519 181.858L364.541 182.467L364.741 183.446ZM370.698 182.229L373.676 181.62L373.476 180.641L370.498 181.249L370.698 182.229ZM376.654 181.012L379.633 180.403L379.432 179.423L376.454 180.032L376.654 181.012ZM382.611 179.794L384.1 179.49L383.9 178.51L382.411 178.814L382.611 179.794ZM384.834 179.551C385.139 179.09 385.012 178.47 384.551 178.166L377.042 173.205C376.581 172.9 375.961 173.027 375.656 173.488C375.352 173.949 375.479 174.569 375.939 174.874L382.614 179.283L378.205 185.958C377.9 186.419 378.027 187.039 378.488 187.344C378.949 187.648 379.569 187.521 379.874 187.061L384.834 179.551ZM247.2 207.98L248.689 207.675L248.289 205.716L246.8 206.02L247.2 207.98ZM251.668 207.067L254.646 206.458L254.245 204.499L251.267 205.107L251.668 207.067ZM257.624 205.849L260.602 205.241L260.202 203.281L257.224 203.89L257.624 205.849ZM263.581 204.632L266.559 204.023L266.158 202.064L263.18 202.672L263.581 204.632ZM269.537 203.415L272.515 202.806L272.115 200.846L269.137 201.455L269.537 203.415ZM275.494 202.197L278.472 201.588L278.071 199.629L275.093 200.238L275.494 202.197ZM281.45 200.98L284.428 200.371L284.028 198.412L281.05 199.02L281.45 200.98ZM287.407 199.762L290.385 199.154L289.985 197.194L287.006 197.803L287.407 199.762ZM293.363 198.545L296.342 197.936L295.941 195.977L292.963 196.585L293.363 198.545ZM299.32 197.328L302.298 196.719L301.898 194.759L298.919 195.368L299.32 197.328ZM305.276 196.11L308.255 195.501L307.854 193.542L304.876 194.151L305.276 196.11ZM311.233 194.893L314.211 194.284L313.811 192.325L310.832 192.933L311.233 194.893ZM317.189 193.675L320.168 193.067L319.767 191.107L316.789 191.716L317.189 193.675ZM323.146 192.458L326.124 191.849L325.724 189.89L322.745 190.499L323.146 192.458ZM329.102 191.241L332.081 190.632L331.68 188.672L328.702 189.281L329.102 191.241ZM335.059 190.023L338.037 189.415L337.637 187.455L334.658 188.064L335.059 190.023ZM341.015 188.806L343.994 188.197L343.593 186.238L340.615 186.846L341.015 188.806ZM346.972 187.588L349.95 186.98L349.55 185.02L346.571 185.629L346.972 187.588ZM352.928 186.371L355.907 185.762L355.506 183.803L352.528 184.412L352.928 186.371ZM358.885 185.154L361.863 184.545L361.463 182.585L358.485 183.194L358.885 185.154ZM364.841 183.936L367.82 183.328L367.419 181.368L364.441 181.977L364.841 183.936ZM370.798 182.719L373.776 182.11L373.376 180.151L370.398 180.759L370.798 182.719ZM376.755 181.501L379.733 180.893L379.332 178.933L376.354 179.542L376.755 181.501ZM382.711 180.284L384.2 179.98L383.8 178.02L382.311 178.325L382.711 180.284Z" fill="#FF0000"/>
<path d="M335.304 153.397C335.524 153.228 335.565 152.915 335.397 152.696L332.656 149.126C332.488 148.907 332.174 148.866 331.955 149.034C331.736 149.202 331.695 149.516 331.863 149.735L334.299 152.908L331.126 155.344C330.907 155.512 330.866 155.826 331.034 156.045C331.202 156.264 331.516 156.305 331.735 156.137L335.304 153.397ZM197.935 135.496L199.424 135.691L199.554 134.7L198.065 134.504L197.935 135.496ZM202.402 136.083L205.381 136.474L205.511 135.483L202.533 135.091L202.402 136.083ZM208.359 136.865L211.337 137.257L211.467 136.265L208.489 135.874L208.359 136.865ZM214.315 137.648L217.294 138.039L217.424 137.048L214.446 136.656L214.315 137.648ZM220.272 138.431L223.25 138.822L223.38 137.83L220.402 137.439L220.272 138.431ZM226.228 139.213L229.207 139.604L229.337 138.613L226.359 138.222L226.228 139.213ZM232.185 139.996L235.163 140.387L235.293 139.396L232.315 139.004L232.185 139.996ZM238.141 140.778L241.12 141.17L241.25 140.178L238.272 139.787L238.141 140.778ZM244.098 141.561L247.076 141.952L247.206 140.961L244.228 140.569L244.098 141.561ZM250.054 142.344L253.033 142.735L253.163 141.743L250.185 141.352L250.054 142.344ZM256.011 143.126L258.989 143.517L259.119 142.526L256.141 142.135L256.011 143.126ZM261.967 143.909L264.946 144.3L265.076 143.309L262.098 142.917L261.967 143.909ZM267.924 144.691L270.902 145.083L271.033 144.091L268.054 143.7L267.924 144.691ZM273.881 145.474L276.859 145.865L276.989 144.874L274.011 144.483L273.881 145.474ZM279.837 146.257L282.815 146.648L282.946 145.656L279.967 145.265L279.837 146.257ZM285.794 147.039L288.772 147.431L288.902 146.439L285.924 146.048L285.794 147.039ZM291.75 147.822L294.728 148.213L294.859 147.222L291.88 146.83L291.75 147.822ZM297.707 148.604L300.685 148.996L300.815 148.004L297.837 147.613L297.707 148.604ZM303.663 149.387L306.641 149.778L306.772 148.787L303.793 148.396L303.663 149.387ZM309.62 150.17L312.598 150.561L312.728 149.569L309.75 149.178L309.62 150.17ZM315.576 150.952L318.554 151.344L318.685 150.352L315.706 149.961L315.576 150.952ZM321.533 151.735L324.511 152.126L324.641 151.135L321.663 150.743L321.533 151.735ZM327.489 152.517L330.468 152.909L330.598 151.917L327.62 151.526L327.489 152.517ZM333.446 153.3L334.935 153.496L335.065 152.504L333.576 152.309L333.446 153.3ZM335.609 153.793C336.047 153.457 336.13 152.829 335.793 152.391L330.312 145.252C329.976 144.814 329.348 144.732 328.91 145.068C328.472 145.404 328.39 146.032 328.726 146.47L333.598 152.816L327.252 157.688C326.814 158.024 326.732 158.652 327.068 159.09C327.404 159.528 328.032 159.61 328.47 159.274L335.609 153.793ZM197.87 135.991L199.359 136.187L199.619 134.204L198.13 134.009L197.87 135.991ZM202.337 136.578L205.315 136.97L205.576 134.987L202.598 134.595L202.337 136.578ZM208.294 137.361L211.272 137.752L211.532 135.769L208.554 135.378L208.294 137.361ZM214.25 138.144L217.228 138.535L217.489 136.552L214.511 136.161L214.25 138.144ZM220.207 138.926L223.185 139.318L223.445 137.335L220.467 136.943L220.207 138.926ZM226.163 139.709L229.141 140.1L229.402 138.117L226.424 137.726L226.163 139.709ZM232.12 140.491L235.098 140.883L235.359 138.9L232.38 138.509L232.12 140.491ZM238.076 141.274L241.055 141.665L241.315 139.682L238.337 139.291L238.076 141.274ZM244.033 142.057L247.011 142.448L247.272 140.465L244.293 140.074L244.033 142.057ZM249.989 142.839L252.968 143.231L253.228 141.248L250.25 140.856L249.989 142.839ZM255.946 143.622L258.924 144.013L259.185 142.03L256.206 141.639L255.946 143.622ZM261.902 144.405L264.881 144.796L265.141 142.813L262.163 142.422L261.902 144.405ZM267.859 145.187L270.837 145.578L271.098 143.595L268.119 143.204L267.859 145.187ZM273.815 145.97L276.794 146.361L277.054 144.378L274.076 143.987L273.815 145.97ZM279.772 146.752L282.75 147.144L283.011 145.161L280.032 144.769L279.772 146.752ZM285.728 147.535L288.707 147.926L288.967 145.943L285.989 145.552L285.728 147.535ZM291.685 148.318L294.663 148.709L294.924 146.726L291.946 146.335L291.685 148.318ZM297.642 149.1L300.62 149.491L300.88 147.509L297.902 147.117L297.642 149.1ZM303.598 149.883L306.576 150.274L306.837 148.291L303.859 147.9L303.598 149.883ZM309.555 150.665L312.533 151.057L312.793 149.074L309.815 148.682L309.555 150.665ZM315.511 151.448L318.489 151.839L318.75 149.856L315.772 149.465L315.511 151.448ZM321.468 152.231L324.446 152.622L324.706 150.639L321.728 150.248L321.468 152.231ZM327.424 153.013L330.402 153.405L330.663 151.422L327.685 151.03L327.424 153.013ZM333.381 153.796L334.87 153.991L335.13 152.009L333.641 151.813L333.381 153.796Z" fill="black"/>
<path d="M82.0391 33.5859C82.0391 33.957 81.9587 34.2786 81.7979 34.5508C81.637 34.8167 81.4299 35.0363 81.1763 35.2095C80.9227 35.3888 80.632 35.5218 80.3042 35.6084C79.9826 35.6888 79.6548 35.729 79.3208 35.729C78.9002 35.729 78.5106 35.6733 78.1519 35.562C77.7993 35.4445 77.487 35.2713 77.2148 35.0425C76.9427 34.8198 76.7201 34.5477 76.5469 34.2261C76.3737 33.8983 76.2593 33.5241 76.2036 33.1035H74.4502C74.4688 33.6849 74.5955 34.2137 74.8306 34.6899C75.0718 35.16 75.3965 35.5713 75.8047 35.9238C76.2624 36.332 76.8005 36.6444 77.4189 36.8608C78.0436 37.0773 78.6776 37.1855 79.3208 37.1855C79.8589 37.1855 80.397 37.1113 80.9351 36.9629C81.4731 36.8083 81.9556 36.5794 82.3823 36.2764C82.8091 35.9795 83.1554 35.6053 83.4214 35.1538C83.6935 34.7023 83.8296 34.1735 83.8296 33.5674C83.8296 32.9674 83.7028 32.4386 83.4492 31.981C83.2018 31.5233 82.874 31.1367 82.4658 30.8213C82.0514 30.4811 81.5938 30.2028 81.0928 29.9863C80.5918 29.7637 80.0908 29.575 79.5898 29.4204C79.2868 29.3276 78.9621 29.2194 78.6157 29.0957C78.2756 28.972 77.9601 28.8174 77.6694 28.6318C77.3726 28.4463 77.1283 28.2205 76.9365 27.9546C76.7448 27.6825 76.6458 27.3516 76.6396 26.9619C76.6396 26.6032 76.7108 26.2878 76.853 26.0156C77.0015 25.7435 77.1994 25.5146 77.4468 25.3291C77.688 25.1436 77.9632 25.0044 78.2725 24.9116C78.5879 24.8188 78.9095 24.7725 79.2373 24.7725C79.6455 24.7725 80.0104 24.8374 80.332 24.9673C80.6598 25.091 80.9412 25.2673 81.1763 25.4961C81.4113 25.7249 81.5999 26.0002 81.7422 26.3218C81.8844 26.6372 81.9803 26.9897 82.0298 27.3794H83.7925C83.7801 26.7609 83.6471 26.2012 83.3936 25.7002C83.14 25.1992 82.8029 24.7725 82.3823 24.4199C81.9618 24.0674 81.4793 23.7952 80.9351 23.6035C80.3908 23.4056 79.8249 23.3066 79.2373 23.3066C78.7054 23.3066 78.1766 23.3901 77.6509 23.5571C77.1252 23.7179 76.6551 23.9561 76.2407 24.2715C75.8263 24.5869 75.4893 24.9735 75.2295 25.4312C74.9759 25.8888 74.8491 26.4084 74.8491 26.9897C74.8491 27.5711 74.9759 28.0783 75.2295 28.5112C75.4893 28.938 75.8232 29.3091 76.2314 29.6245C76.6335 29.9338 77.0788 30.1997 77.5674 30.4224C78.0622 30.6388 78.5477 30.8244 79.0239 30.979C79.3517 31.0841 79.6919 31.2017 80.0444 31.3315C80.4032 31.4614 80.731 31.6222 81.0278 31.814C81.3247 32.0119 81.5659 32.2531 81.7515 32.5376C81.9432 32.8221 82.0391 33.1715 82.0391 33.5859ZM89.3867 32.3149L93.0698 37H95.25L90.5649 31.146L94.6284 26.9619H92.541L89.2476 30.2646L88.125 31.4707V22.75H86.3994V37H88.125V33.5303L89.3867 32.3149ZM102.227 37.1855C103.204 37.1855 104.023 36.9907 104.685 36.6011C105.353 36.2052 105.854 35.7537 106.188 35.2466L105.14 34.4302C104.824 34.8384 104.428 35.1662 103.952 35.4136C103.476 35.661 102.932 35.7847 102.319 35.7847C101.855 35.7847 101.432 35.6981 101.048 35.5249C100.665 35.3517 100.337 35.1136 100.065 34.8105C99.799 34.526 99.5887 34.1982 99.4341 33.8271C99.2856 33.4561 99.1898 33.0262 99.1465 32.5376V32.4727H106.318V31.7026C106.318 31.0037 106.228 30.3543 106.049 29.7544C105.876 29.1545 105.61 28.6318 105.251 28.1865C104.892 27.7474 104.441 27.4041 103.896 27.1567C103.358 26.9032 102.728 26.7764 102.004 26.7764C101.429 26.7764 100.866 26.8939 100.315 27.1289C99.7712 27.3639 99.2856 27.701 98.8589 28.1401C98.4259 28.5854 98.0796 29.1297 97.8198 29.7729C97.5601 30.41 97.4302 31.1336 97.4302 31.9438V32.3335C97.4302 33.0324 97.5477 33.6787 97.7827 34.2725C98.0177 34.8662 98.3455 35.3796 98.7661 35.8125C99.1867 36.2454 99.6908 36.5825 100.278 36.8237C100.872 37.0649 101.521 37.1855 102.227 37.1855ZM102.004 28.1865C102.443 28.1865 102.82 28.2669 103.136 28.4277C103.457 28.5885 103.723 28.7988 103.934 29.0586C104.144 29.3184 104.308 29.6276 104.425 29.9863C104.543 30.3389 104.602 30.6698 104.602 30.979V31.0625H99.2021C99.2702 30.5986 99.3877 30.1904 99.5547 29.8379C99.7279 29.4792 99.9382 29.1761 100.186 28.9287C100.433 28.6875 100.711 28.505 101.021 28.3813C101.33 28.2515 101.658 28.1865 102.004 28.1865ZM109.472 22.75V24.2437H112.886V35.5156H109.472V37H117.877V35.5156H114.603V22.75H109.472ZM125.049 37.1855C126.026 37.1855 126.846 36.9907 127.507 36.6011C128.175 36.2052 128.676 35.7537 129.01 35.2466L127.962 34.4302C127.646 34.8384 127.251 35.1662 126.774 35.4136C126.298 35.661 125.754 35.7847 125.142 35.7847C124.678 35.7847 124.254 35.6981 123.871 35.5249C123.487 35.3517 123.159 35.1136 122.887 34.8105C122.621 34.526 122.411 34.1982 122.256 33.8271C122.108 33.4561 122.012 33.0262 121.969 32.5376V32.4727H129.14V31.7026C129.14 31.0037 129.05 30.3543 128.871 29.7544C128.698 29.1545 128.432 28.6318 128.073 28.1865C127.715 27.7474 127.263 27.4041 126.719 27.1567C126.181 26.9032 125.55 26.7764 124.826 26.7764C124.251 26.7764 123.688 26.8939 123.138 27.1289C122.593 27.3639 122.108 27.701 121.681 28.1401C121.248 28.5854 120.902 29.1297 120.642 29.7729C120.382 30.41 120.252 31.1336 120.252 31.9438V32.3335C120.252 33.0324 120.37 33.6787 120.605 34.2725C120.84 34.8662 121.168 35.3796 121.588 35.8125C122.009 36.2454 122.513 36.5825 123.101 36.8237C123.694 37.0649 124.344 37.1855 125.049 37.1855ZM124.826 28.1865C125.265 28.1865 125.643 28.2669 125.958 28.4277C126.28 28.5885 126.546 28.7988 126.756 29.0586C126.966 29.3184 127.13 29.6276 127.248 29.9863C127.365 30.3389 127.424 30.6698 127.424 30.979V31.0625H122.024C122.092 30.5986 122.21 30.1904 122.377 29.8379C122.55 29.4792 122.76 29.1761 123.008 28.9287C123.255 28.6875 123.534 28.505 123.843 28.3813C124.152 28.2515 124.48 28.1865 124.826 28.1865ZM136.089 24.5312H134.363V26.9619H131.729V28.2886H134.363V33.7437C134.363 34.3621 134.444 34.891 134.604 35.3301C134.771 35.763 134.997 36.1156 135.282 36.3877C135.566 36.666 135.9 36.8701 136.284 37C136.673 37.1237 137.091 37.1855 137.536 37.1855C137.802 37.1855 138.068 37.1732 138.334 37.1484C138.606 37.1237 138.863 37.0866 139.104 37.0371C139.345 36.9938 139.568 36.9412 139.772 36.8794C139.976 36.8114 140.149 36.734 140.292 36.6475L140.05 35.4321C139.945 35.4569 139.809 35.4878 139.642 35.5249C139.481 35.5558 139.308 35.5868 139.123 35.6177C138.931 35.6486 138.736 35.6764 138.538 35.7012C138.34 35.7197 138.148 35.729 137.963 35.729C137.709 35.729 137.468 35.6981 137.239 35.6362C137.017 35.5744 136.819 35.4661 136.646 35.3115C136.472 35.1631 136.336 34.9621 136.237 34.7085C136.138 34.4549 136.089 34.1333 136.089 33.7437V28.2886H139.911V26.9619H136.089V24.5312ZM142.954 31.8882V32.0923C142.954 32.8159 143.059 33.487 143.27 34.1055C143.48 34.724 143.783 35.262 144.179 35.7197C144.568 36.1774 145.045 36.5361 145.607 36.7959C146.176 37.0557 146.817 37.1855 147.528 37.1855C148.233 37.1855 148.867 37.0557 149.43 36.7959C149.993 36.5361 150.472 36.1774 150.868 35.7197C151.257 35.262 151.557 34.724 151.768 34.1055C151.978 33.487 152.083 32.8159 152.083 32.0923V31.8882C152.083 31.1646 151.978 30.4935 151.768 29.875C151.557 29.2503 151.257 28.7091 150.868 28.2515C150.472 27.7938 149.989 27.4351 149.42 27.1753C148.858 26.9093 148.221 26.7764 147.509 26.7764C146.804 26.7764 146.17 26.9093 145.607 27.1753C145.045 27.4351 144.568 27.7938 144.179 28.2515C143.783 28.7091 143.48 29.2503 143.27 29.875C143.059 30.4935 142.954 31.1646 142.954 31.8882ZM144.67 32.0923V31.8882C144.67 31.3996 144.729 30.9326 144.847 30.4873C144.964 30.0358 145.144 29.64 145.385 29.2998C145.62 28.9596 145.914 28.6906 146.266 28.4927C146.619 28.2886 147.033 28.1865 147.509 28.1865C147.986 28.1865 148.4 28.2886 148.752 28.4927C149.111 28.6906 149.411 28.9596 149.652 29.2998C149.887 29.64 150.064 30.0358 150.181 30.4873C150.305 30.9326 150.367 31.3996 150.367 31.8882V32.0923C150.367 32.5871 150.308 33.0602 150.19 33.5117C150.073 33.957 149.897 34.3498 149.662 34.6899C149.42 35.0301 149.12 35.2992 148.762 35.4971C148.409 35.695 147.998 35.7939 147.528 35.7939C147.052 35.7939 146.634 35.695 146.275 35.4971C145.917 35.2992 145.62 35.0301 145.385 34.6899C145.144 34.3498 144.964 33.957 144.847 33.5117C144.729 33.0602 144.67 32.5871 144.67 32.0923ZM154.848 37H156.564V29.8008C156.681 29.5843 156.818 29.3864 156.972 29.207C157.133 29.0277 157.306 28.87 157.492 28.7339C157.721 28.5793 157.971 28.4587 158.243 28.3721C158.515 28.2793 158.809 28.2329 159.125 28.2329C159.489 28.2329 159.811 28.2762 160.089 28.3628C160.374 28.4494 160.615 28.5885 160.813 28.7803C161.005 28.972 161.15 29.2225 161.249 29.5317C161.348 29.841 161.397 30.2183 161.397 30.6636V37H163.114V30.6265C163.114 29.9585 163.03 29.3833 162.863 28.9009C162.702 28.4123 162.471 28.0103 162.167 27.6948C161.864 27.3794 161.496 27.1475 161.063 26.999C160.637 26.8506 160.16 26.7764 159.635 26.7764C159.245 26.7826 158.874 26.8413 158.521 26.9526C158.175 27.0578 157.854 27.2093 157.557 27.4072C157.359 27.5371 157.17 27.6917 156.991 27.8711C156.818 28.0443 156.657 28.236 156.508 28.4463L156.388 26.9619H154.848V37ZM77.7344 62V48.4922H76.1108V54.2998H70.5723V48.4922H68.958V62H70.5723V55.7563H76.1108V62H77.7344ZM80.9443 51.9619V53.4556H84.3584V60.5156H80.9443V62H89.3496V60.5156H86.0747V51.9619H80.9443ZM84.1357 49.3271C84.1357 49.6055 84.2192 49.8374 84.3862 50.0229C84.5594 50.2085 84.8192 50.3013 85.1655 50.3013C85.5057 50.3013 85.7624 50.2085 85.9355 50.0229C86.1087 49.8374 86.1953 49.6055 86.1953 49.3271C86.1953 49.1725 86.1706 49.0303 86.1211 48.9004C86.0716 48.7705 85.9974 48.6623 85.8984 48.5757C85.818 48.4953 85.716 48.4334 85.5923 48.3901C85.4686 48.3407 85.3263 48.3159 85.1655 48.3159C85.0047 48.3159 84.8594 48.3407 84.7295 48.3901C84.6058 48.4334 84.5037 48.4953 84.4233 48.5757C84.3244 48.6685 84.2502 48.7798 84.2007 48.9097C84.1574 49.0396 84.1357 49.1787 84.1357 49.3271ZM96.521 62.1855C97.4982 62.1855 98.3177 61.9907 98.9795 61.6011C99.6475 61.2052 100.148 60.7537 100.482 60.2466L99.4341 59.4302C99.1187 59.8384 98.7228 60.1662 98.2466 60.4136C97.7703 60.661 97.2261 60.7847 96.6138 60.7847C96.1499 60.7847 95.7262 60.6981 95.3428 60.5249C94.9593 60.3517 94.6315 60.1136 94.3594 59.8105C94.0934 59.526 93.8831 59.1982 93.7285 58.8271C93.5801 58.4561 93.4842 58.0262 93.4409 57.5376V57.4727H100.612V56.7026C100.612 56.0037 100.523 55.3543 100.343 54.7544C100.17 54.1545 99.9041 53.6318 99.5454 53.1865C99.1867 52.7474 98.7352 52.4041 98.1909 52.1567C97.6528 51.9032 97.022 51.7764 96.2983 51.7764C95.7231 51.7764 95.1603 51.8939 94.6099 52.1289C94.0656 52.3639 93.5801 52.701 93.1533 53.1401C92.7204 53.5854 92.374 54.1297 92.1143 54.7729C91.8545 55.41 91.7246 56.1336 91.7246 56.9438V57.3335C91.7246 58.0324 91.8421 58.6787 92.0771 59.2725C92.3122 59.8662 92.64 60.3796 93.0605 60.8125C93.4811 61.2454 93.9852 61.5825 94.5728 61.8237C95.1665 62.0649 95.8159 62.1855 96.521 62.1855ZM96.2983 53.1865C96.7375 53.1865 97.1147 53.2669 97.4302 53.4277C97.7518 53.5885 98.0177 53.7988 98.228 54.0586C98.4383 54.3184 98.6022 54.6276 98.7197 54.9863C98.8372 55.3389 98.896 55.6698 98.896 55.979V56.0625H93.4966C93.5646 55.5986 93.6821 55.1904 93.8491 54.8379C94.0223 54.4792 94.2326 54.1761 94.48 53.9287C94.7274 53.6875 95.0057 53.505 95.3149 53.3813C95.6242 53.2515 95.952 53.1865 96.2983 53.1865ZM110.075 51.7764C109.345 51.7764 108.693 51.9372 108.118 52.2588C107.549 52.5742 107.06 53.0072 106.652 53.5576L106.643 53.3071L106.568 51.9619H104.936V62H106.661V55.5615C106.772 55.2523 106.912 54.974 107.079 54.7266C107.252 54.473 107.453 54.2596 107.682 54.0864C107.935 53.8885 108.232 53.7401 108.572 53.6411C108.912 53.536 109.293 53.4834 109.713 53.4834C110.041 53.4834 110.354 53.502 110.65 53.5391C110.953 53.57 111.272 53.6226 111.606 53.6968L111.838 52.0176C111.665 51.9434 111.405 51.8846 111.059 51.8413C110.718 51.798 110.391 51.7764 110.075 51.7764ZM121.505 62H123.295V61.8516C123.184 61.5732 123.097 61.2485 123.036 60.8774C122.974 60.5002 122.943 60.1445 122.943 59.8105V55.144C122.943 54.5812 122.841 54.0895 122.637 53.6689C122.433 53.2484 122.154 52.8958 121.802 52.6113C121.443 52.333 121.019 52.1258 120.531 51.9897C120.042 51.8475 119.513 51.7764 118.944 51.7764C118.32 51.7764 117.76 51.863 117.265 52.0361C116.777 52.2093 116.362 52.4351 116.022 52.7134C115.676 52.9979 115.41 53.3164 115.224 53.6689C115.045 54.0215 114.952 54.3802 114.946 54.7451H116.671C116.671 54.5348 116.721 54.3338 116.82 54.1421C116.925 53.9442 117.07 53.7741 117.256 53.6318C117.441 53.4896 117.667 53.3752 117.933 53.2886C118.205 53.202 118.511 53.1587 118.852 53.1587C119.216 53.1587 119.544 53.2051 119.835 53.2979C120.132 53.3906 120.382 53.5205 120.586 53.6875C120.791 53.8607 120.948 54.0679 121.06 54.3091C121.171 54.5503 121.227 54.8224 121.227 55.1255V55.9141H119.353C118.654 55.9141 118.02 55.9821 117.451 56.1182C116.888 56.2542 116.405 56.4583 116.003 56.7305C115.601 57.0088 115.289 57.3551 115.066 57.7695C114.85 58.1839 114.742 58.6663 114.742 59.2168C114.742 59.6374 114.822 60.0301 114.983 60.395C115.15 60.7537 115.385 61.063 115.688 61.3228C115.985 61.5887 116.347 61.799 116.773 61.9536C117.206 62.1082 117.689 62.1855 118.221 62.1855C118.549 62.1855 118.858 62.1515 119.148 62.0835C119.439 62.0155 119.714 61.9227 119.974 61.8052C120.228 61.6877 120.46 61.5516 120.67 61.397C120.886 61.2424 121.081 61.0785 121.254 60.9053C121.273 61.1156 121.301 61.3197 121.338 61.5176C121.381 61.7093 121.437 61.8701 121.505 62ZM118.471 60.6919C118.137 60.6919 117.843 60.6486 117.59 60.562C117.336 60.4754 117.126 60.3548 116.959 60.2002C116.792 60.0518 116.665 59.8724 116.579 59.6621C116.498 59.4518 116.458 59.223 116.458 58.9756C116.458 58.7158 116.504 58.4839 116.597 58.2798C116.696 58.0757 116.838 57.8994 117.024 57.751C117.284 57.5407 117.633 57.3861 118.072 57.2871C118.518 57.182 119.037 57.1294 119.631 57.1294H121.227V59.1611C121.128 59.359 120.992 59.5508 120.818 59.7363C120.645 59.9157 120.441 60.0765 120.206 60.2188C119.965 60.361 119.699 60.4754 119.408 60.562C119.118 60.6486 118.805 60.6919 118.471 60.6919ZM132.897 51.7764C132.168 51.7764 131.515 51.9372 130.94 52.2588C130.371 52.5742 129.882 53.0072 129.474 53.5576L129.465 53.3071L129.391 51.9619H127.758V62H129.483V55.5615C129.595 55.2523 129.734 54.974 129.901 54.7266C130.074 54.473 130.275 54.2596 130.504 54.0864C130.757 53.8885 131.054 53.7401 131.395 53.6411C131.735 53.536 132.115 53.4834 132.536 53.4834C132.863 53.4834 133.176 53.502 133.473 53.5391C133.776 53.57 134.094 53.6226 134.428 53.6968L134.66 52.0176C134.487 51.9434 134.227 51.8846 133.881 51.8413C133.541 51.798 133.213 51.7764 132.897 51.7764ZM142.008 60.7939C141.47 60.7939 141.018 60.6888 140.653 60.4785C140.295 60.262 140.007 59.9806 139.791 59.6343C139.568 59.2941 139.407 58.9106 139.308 58.4839C139.215 58.0509 139.169 57.6149 139.169 57.1758V56.7861C139.169 56.3532 139.215 55.9233 139.308 55.4966C139.407 55.0698 139.568 54.6833 139.791 54.3369C140.013 53.9967 140.304 53.7215 140.663 53.5112C141.028 53.2948 141.476 53.1865 142.008 53.1865C142.354 53.1865 142.676 53.2453 142.973 53.3628C143.276 53.4803 143.535 53.6411 143.752 53.8452C143.968 54.0493 144.139 54.2874 144.262 54.5596C144.392 54.8255 144.46 55.11 144.466 55.4131H146.09C146.09 54.9059 145.988 54.4297 145.784 53.9844C145.58 53.5391 145.298 53.1525 144.939 52.8247C144.575 52.5031 144.142 52.2495 143.641 52.064C143.146 51.8722 142.602 51.7764 142.008 51.7764C141.247 51.7764 140.582 51.9124 140.013 52.1846C139.444 52.4567 138.971 52.8216 138.594 53.2793C138.21 53.7432 137.923 54.2782 137.731 54.8843C137.539 55.4904 137.443 56.1243 137.443 56.7861V57.1758C137.443 57.8438 137.539 58.4808 137.731 59.0869C137.923 59.6868 138.21 60.2157 138.594 60.6733C138.971 61.1372 139.444 61.5052 140.013 61.7773C140.582 62.0495 141.247 62.1855 142.008 62.1855C142.54 62.1855 143.05 62.0959 143.539 61.9165C144.027 61.731 144.46 61.4836 144.837 61.1743C145.215 60.8713 145.515 60.5187 145.737 60.1167C145.966 59.7085 146.084 59.2817 146.09 58.8364H144.466C144.46 59.1147 144.386 59.3745 144.244 59.6157C144.108 59.8507 143.925 60.0549 143.696 60.228C143.467 60.4074 143.205 60.5465 142.908 60.6455C142.617 60.7445 142.317 60.7939 142.008 60.7939ZM150.858 53.4556V47.75H149.142V62H150.858V54.708C150.982 54.5101 151.121 54.3307 151.276 54.1699C151.437 54.0029 151.61 53.8576 151.795 53.7339C152.03 53.5731 152.287 53.4494 152.565 53.3628C152.844 53.2762 153.138 53.2329 153.447 53.2329C153.824 53.2267 154.158 53.2793 154.449 53.3906C154.739 53.4958 154.981 53.6566 155.172 53.873C155.352 54.071 155.488 54.3215 155.581 54.6245C155.673 54.9214 155.72 55.2677 155.72 55.6636V62H157.436V55.6821C157.436 55.008 157.353 54.4266 157.186 53.938C157.025 53.4432 156.793 53.035 156.49 52.7134C156.187 52.3918 155.819 52.1567 155.386 52.0083C154.959 51.8537 154.483 51.7764 153.957 51.7764C153.555 51.7826 153.175 51.8413 152.816 51.9526C152.463 52.064 152.139 52.2279 151.842 52.4443C151.656 52.5742 151.48 52.7257 151.313 52.8989C151.146 53.0659 150.994 53.2515 150.858 53.4556ZM161.36 66.0542C161.812 66.0542 162.211 65.9707 162.557 65.8037C162.903 65.6367 163.207 65.4295 163.466 65.1821C163.726 64.9347 163.946 64.6657 164.125 64.375C164.311 64.0843 164.462 63.8091 164.58 63.5493L169.673 51.9619H167.752L165.164 58.4746L164.691 59.6528L164.246 58.4375L161.49 51.9619H159.57L163.893 61.5269L163.207 62.8628C163.145 62.9865 163.058 63.1442 162.947 63.3359C162.842 63.5277 162.715 63.7132 162.566 63.8926C162.412 64.0719 162.236 64.2266 162.038 64.3564C161.846 64.4863 161.632 64.5513 161.397 64.5513C161.311 64.5513 161.19 64.5451 161.036 64.5327C160.887 64.5265 160.736 64.5173 160.581 64.5049L160.303 65.9058C160.414 65.9305 160.578 65.9614 160.794 65.9985C161.011 66.0356 161.2 66.0542 161.36 66.0542Z" fill="black"/>
<path d="M357.829 33.5024H353.32L352.234 37H350.518L354.878 23.4922H356.316L360.603 37H358.896L357.829 33.5024ZM353.784 32.0088H357.374L355.593 26.1455L353.784 32.0088ZM367.069 35.7939C367.378 35.7939 367.678 35.7445 367.969 35.6455C368.266 35.5465 368.528 35.4074 368.757 35.228C368.986 35.0549 369.169 34.8507 369.305 34.6157C369.447 34.3745 369.521 34.1147 369.527 33.8364H371.151C371.145 34.2817 371.027 34.7085 370.798 35.1167C370.576 35.5187 370.276 35.8713 369.898 36.1743C369.521 36.4836 369.088 36.731 368.6 36.9165C368.111 37.0959 367.601 37.1855 367.069 37.1855C366.308 37.1855 365.643 37.0495 365.074 36.7773C364.505 36.5052 364.032 36.1372 363.655 35.6733C363.271 35.2157 362.984 34.6868 362.792 34.0869C362.6 33.4808 362.504 32.8438 362.504 32.1758V31.7861C362.504 31.1243 362.6 30.4904 362.792 29.8843C362.984 29.2782 363.271 28.7432 363.655 28.2793C364.032 27.8216 364.505 27.4567 365.074 27.1846C365.643 26.9124 366.308 26.7764 367.069 26.7764C367.663 26.7764 368.207 26.8722 368.702 27.064C369.203 27.2495 369.636 27.5031 370 27.8247C370.359 28.1525 370.641 28.5391 370.845 28.9844C371.049 29.4297 371.151 29.9059 371.151 30.4131H369.527C369.521 30.11 369.453 29.8255 369.323 29.5596C369.2 29.2874 369.029 29.0493 368.813 28.8452C368.597 28.6411 368.337 28.4803 368.034 28.3628C367.737 28.2453 367.415 28.1865 367.069 28.1865C366.537 28.1865 366.089 28.2948 365.724 28.5112C365.365 28.7215 365.074 28.9967 364.852 29.3369C364.629 29.6833 364.468 30.0698 364.369 30.4966C364.276 30.9233 364.23 31.3532 364.23 31.7861V32.1758C364.23 32.6149 364.276 33.0509 364.369 33.4839C364.468 33.9106 364.629 34.2941 364.852 34.6343C365.068 34.9806 365.356 35.262 365.714 35.4785C366.079 35.6888 366.531 35.7939 367.069 35.7939ZM378.267 24.5312V26.9619H382.089V28.2886H378.267V33.7437C378.267 34.1333 378.316 34.4549 378.415 34.7085C378.514 34.9621 378.65 35.1631 378.823 35.3115C378.996 35.4661 379.194 35.5744 379.417 35.6362C379.646 35.6981 379.887 35.729 380.141 35.729C380.326 35.729 380.518 35.7197 380.716 35.7012C380.914 35.6764 381.109 35.6486 381.3 35.6177C381.486 35.5868 381.659 35.5558 381.82 35.5249C381.987 35.4878 382.123 35.4569 382.228 35.4321L382.469 36.6475C382.327 36.734 382.154 36.8114 381.95 36.8794C381.746 36.9412 381.523 36.9938 381.282 37.0371C381.041 37.0866 380.784 37.1237 380.512 37.1484C380.246 37.1732 379.98 37.1855 379.714 37.1855C379.269 37.1855 378.851 37.1237 378.461 37C378.078 36.8701 377.744 36.666 377.459 36.3877C377.175 36.1156 376.949 35.763 376.782 35.3301C376.621 34.891 376.541 34.3621 376.541 33.7437V28.2886H373.906V26.9619H376.541V24.5312H378.267ZM392.229 37L392.127 35.6177C391.793 36.1125 391.375 36.499 390.875 36.7773C390.374 37.0495 389.795 37.1855 389.14 37.1855C388.614 37.1855 388.138 37.1051 387.711 36.9443C387.284 36.7773 386.919 36.5207 386.616 36.1743C386.313 35.828 386.078 35.3888 385.911 34.8569C385.75 34.3188 385.67 33.6756 385.67 32.9272V26.9619H387.386V32.9458C387.386 33.4901 387.43 33.9416 387.516 34.3003C387.603 34.659 387.733 34.9435 387.906 35.1538C388.079 35.3703 388.289 35.5218 388.537 35.6084C388.79 35.695 389.081 35.7383 389.409 35.7383C389.792 35.7383 390.135 35.695 390.438 35.6084C390.742 35.5156 391.004 35.3888 391.227 35.228C391.413 35.0981 391.573 34.9435 391.709 34.7642C391.852 34.5786 391.969 34.3776 392.062 34.1611V26.9619H393.788V37H392.229ZM403.622 37C403.554 36.8701 403.498 36.7093 403.455 36.5176C403.417 36.3197 403.39 36.1156 403.371 35.9053C403.198 36.0785 403.003 36.2424 402.787 36.397C402.576 36.5516 402.344 36.6877 402.091 36.8052C401.831 36.9227 401.556 37.0155 401.265 37.0835C400.974 37.1515 400.665 37.1855 400.337 37.1855C399.806 37.1855 399.323 37.1082 398.89 36.9536C398.463 36.799 398.102 36.5887 397.805 36.3228C397.502 36.063 397.267 35.7537 397.1 35.395C396.939 35.0301 396.858 34.6374 396.858 34.2168C396.858 33.6663 396.967 33.1839 397.183 32.7695C397.406 32.3551 397.718 32.0088 398.12 31.7305C398.522 31.4583 399.005 31.2542 399.567 31.1182C400.136 30.9821 400.77 30.9141 401.469 30.9141H403.343V30.1255C403.343 29.8224 403.288 29.5503 403.176 29.3091C403.065 29.0679 402.907 28.8607 402.703 28.6875C402.499 28.5205 402.249 28.3906 401.952 28.2979C401.661 28.2051 401.333 28.1587 400.968 28.1587C400.628 28.1587 400.322 28.202 400.05 28.2886C399.784 28.3752 399.558 28.4896 399.373 28.6318C399.187 28.7741 399.042 28.9442 398.937 29.1421C398.838 29.3338 398.788 29.5348 398.788 29.7451H397.062C397.069 29.3802 397.161 29.0215 397.341 28.6689C397.526 28.3164 397.792 27.9979 398.139 27.7134C398.479 27.4351 398.893 27.2093 399.382 27.0361C399.877 26.863 400.436 26.7764 401.061 26.7764C401.63 26.7764 402.159 26.8475 402.647 26.9897C403.136 27.1258 403.56 27.333 403.918 27.6113C404.271 27.8958 404.549 28.2484 404.753 28.6689C404.958 29.0895 405.06 29.5812 405.06 30.144V34.8105C405.06 35.1445 405.09 35.5002 405.152 35.8774C405.214 36.2485 405.301 36.5732 405.412 36.8516V37H403.622ZM400.588 35.6919C400.922 35.6919 401.234 35.6486 401.525 35.562C401.816 35.4754 402.082 35.361 402.323 35.2188C402.558 35.0765 402.762 34.9157 402.935 34.7363C403.108 34.5508 403.244 34.359 403.343 34.1611V32.1294H401.748C401.154 32.1294 400.634 32.182 400.189 32.2871C399.75 32.3861 399.4 32.5407 399.141 32.751C398.955 32.8994 398.813 33.0757 398.714 33.2798C398.621 33.4839 398.575 33.7158 398.575 33.9756C398.575 34.223 398.615 34.4518 398.695 34.6621C398.782 34.8724 398.909 35.0518 399.076 35.2002C399.243 35.3548 399.453 35.4754 399.707 35.562C399.96 35.6486 400.254 35.6919 400.588 35.6919ZM408.706 22.75H413.836V35.5156H417.111V37H408.706V35.5156H412.12V24.2437H408.706V22.75ZM347.039 58.5859C347.039 58.1715 346.943 57.8221 346.751 57.5376C346.566 57.2531 346.325 57.0119 346.028 56.814C345.731 56.6222 345.403 56.4614 345.044 56.3315C344.692 56.2017 344.352 56.0841 344.024 55.979C343.548 55.8244 343.062 55.6388 342.567 55.4224C342.079 55.1997 341.633 54.9338 341.231 54.6245C340.823 54.3091 340.489 53.938 340.229 53.5112C339.976 53.0783 339.849 52.5711 339.849 51.9897C339.849 51.4084 339.976 50.8888 340.229 50.4312C340.489 49.9735 340.826 49.5869 341.241 49.2715C341.655 48.9561 342.125 48.7179 342.651 48.5571C343.177 48.3901 343.705 48.3066 344.237 48.3066C344.825 48.3066 345.391 48.4056 345.935 48.6035C346.479 48.7952 346.962 49.0674 347.382 49.4199C347.803 49.7725 348.14 50.1992 348.394 50.7002C348.647 51.2012 348.78 51.7609 348.792 52.3794H347.03C346.98 51.9897 346.884 51.6372 346.742 51.3218C346.6 51.0002 346.411 50.7249 346.176 50.4961C345.941 50.2673 345.66 50.091 345.332 49.9673C345.01 49.8374 344.646 49.7725 344.237 49.7725C343.91 49.7725 343.588 49.8188 343.272 49.9116C342.963 50.0044 342.688 50.1436 342.447 50.3291C342.199 50.5146 342.001 50.7435 341.853 51.0156C341.711 51.2878 341.64 51.6032 341.64 51.9619C341.646 52.3516 341.745 52.6825 341.937 52.9546C342.128 53.2205 342.373 53.4463 342.669 53.6318C342.96 53.8174 343.276 53.972 343.616 54.0957C343.962 54.2194 344.287 54.3276 344.59 54.4204C345.091 54.575 345.592 54.7637 346.093 54.9863C346.594 55.2028 347.051 55.4811 347.466 55.8213C347.874 56.1367 348.202 56.5233 348.449 56.981C348.703 57.4386 348.83 57.9674 348.83 58.5674C348.83 59.1735 348.694 59.7023 348.421 60.1538C348.155 60.6053 347.809 60.9795 347.382 61.2764C346.956 61.5794 346.473 61.8083 345.935 61.9629C345.397 62.1113 344.859 62.1855 344.321 62.1855C343.678 62.1855 343.044 62.0773 342.419 61.8608C341.8 61.6444 341.262 61.332 340.805 60.9238C340.396 60.5713 340.072 60.16 339.831 59.6899C339.596 59.2137 339.469 58.6849 339.45 58.1035H341.204C341.259 58.5241 341.374 58.8983 341.547 59.2261C341.72 59.5477 341.943 59.8198 342.215 60.0425C342.487 60.2713 342.799 60.4445 343.152 60.562C343.511 60.6733 343.9 60.729 344.321 60.729C344.655 60.729 344.983 60.6888 345.304 60.6084C345.632 60.5218 345.923 60.3888 346.176 60.2095C346.43 60.0363 346.637 59.8167 346.798 59.5508C346.959 59.2786 347.039 58.957 347.039 58.5859ZM354.387 57.3149L353.125 58.5303V62H351.399V47.75H353.125V56.4707L354.248 55.2646L357.541 51.9619H359.628L355.565 56.146L360.25 62H358.07L354.387 57.3149ZM367.227 62.1855C366.521 62.1855 365.872 62.0649 365.278 61.8237C364.691 61.5825 364.187 61.2454 363.766 60.8125C363.346 60.3796 363.018 59.8662 362.783 59.2725C362.548 58.6787 362.43 58.0324 362.43 57.3335V56.9438C362.43 56.1336 362.56 55.41 362.82 54.7729C363.08 54.1297 363.426 53.5854 363.859 53.1401C364.286 52.701 364.771 52.3639 365.315 52.1289C365.866 51.8939 366.429 51.7764 367.004 51.7764C367.728 51.7764 368.358 51.9032 368.896 52.1567C369.441 52.4041 369.892 52.7474 370.251 53.1865C370.61 53.6318 370.876 54.1545 371.049 54.7544C371.228 55.3543 371.318 56.0037 371.318 56.7026V57.4727H364.146V57.5376C364.19 58.0262 364.286 58.4561 364.434 58.8271C364.589 59.1982 364.799 59.526 365.065 59.8105C365.337 60.1136 365.665 60.3517 366.048 60.5249C366.432 60.6981 366.855 60.7847 367.319 60.7847C367.932 60.7847 368.476 60.661 368.952 60.4136C369.428 60.1662 369.824 59.8384 370.14 59.4302L371.188 60.2466C370.854 60.7537 370.353 61.2052 369.685 61.6011C369.023 61.9907 368.204 62.1855 367.227 62.1855ZM367.004 53.1865C366.658 53.1865 366.33 53.2515 366.021 53.3813C365.711 53.505 365.433 53.6875 365.186 53.9287C364.938 54.1761 364.728 54.4792 364.555 54.8379C364.388 55.1904 364.27 55.5986 364.202 56.0625H369.602V55.979C369.602 55.6698 369.543 55.3389 369.425 54.9863C369.308 54.6276 369.144 54.3184 368.934 54.0586C368.723 53.7988 368.457 53.5885 368.136 53.4277C367.82 53.2669 367.443 53.1865 367.004 53.1865ZM374.472 47.75H379.603V60.5156H382.877V62H374.472V60.5156H377.886V49.2437H374.472V47.75ZM390.049 62.1855C389.344 62.1855 388.694 62.0649 388.101 61.8237C387.513 61.5825 387.009 61.2454 386.588 60.8125C386.168 60.3796 385.84 59.8662 385.605 59.2725C385.37 58.6787 385.252 58.0324 385.252 57.3335V56.9438C385.252 56.1336 385.382 55.41 385.642 54.7729C385.902 54.1297 386.248 53.5854 386.681 53.1401C387.108 52.701 387.593 52.3639 388.138 52.1289C388.688 51.8939 389.251 51.7764 389.826 51.7764C390.55 51.7764 391.181 51.9032 391.719 52.1567C392.263 52.4041 392.715 52.7474 393.073 53.1865C393.432 53.6318 393.698 54.1545 393.871 54.7544C394.05 55.3543 394.14 56.0037 394.14 56.7026V57.4727H386.969V57.5376C387.012 58.0262 387.108 58.4561 387.256 58.8271C387.411 59.1982 387.621 59.526 387.887 59.8105C388.159 60.1136 388.487 60.3517 388.871 60.5249C389.254 60.6981 389.678 60.7847 390.142 60.7847C390.754 60.7847 391.298 60.661 391.774 60.4136C392.251 60.1662 392.646 59.8384 392.962 59.4302L394.01 60.2466C393.676 60.7537 393.175 61.2052 392.507 61.6011C391.846 61.9907 391.026 62.1855 390.049 62.1855ZM389.826 53.1865C389.48 53.1865 389.152 53.2515 388.843 53.3813C388.534 53.505 388.255 53.6875 388.008 53.9287C387.76 54.1761 387.55 54.4792 387.377 54.8379C387.21 55.1904 387.092 55.5986 387.024 56.0625H392.424V55.979C392.424 55.6698 392.365 55.3389 392.248 54.9863C392.13 54.6276 391.966 54.3184 391.756 54.0586C391.546 53.7988 391.28 53.5885 390.958 53.4277C390.643 53.2669 390.265 53.1865 389.826 53.1865ZM401.089 49.5312V51.9619H404.911V53.2886H401.089V58.7437C401.089 59.1333 401.138 59.4549 401.237 59.7085C401.336 59.9621 401.472 60.1631 401.646 60.3115C401.819 60.4661 402.017 60.5744 402.239 60.6362C402.468 60.6981 402.709 60.729 402.963 60.729C403.148 60.729 403.34 60.7197 403.538 60.7012C403.736 60.6764 403.931 60.6486 404.123 60.6177C404.308 60.5868 404.481 60.5558 404.642 60.5249C404.809 60.4878 404.945 60.4569 405.05 60.4321L405.292 61.6475C405.149 61.734 404.976 61.8114 404.772 61.8794C404.568 61.9412 404.345 61.9938 404.104 62.0371C403.863 62.0866 403.606 62.1237 403.334 62.1484C403.068 62.1732 402.802 62.1855 402.536 62.1855C402.091 62.1855 401.673 62.1237 401.284 62C400.9 61.8701 400.566 61.666 400.282 61.3877C399.997 61.1156 399.771 60.763 399.604 60.3301C399.444 59.891 399.363 59.3621 399.363 58.7437V53.2886H396.729V51.9619H399.363V49.5312H401.089ZM407.954 56.8882C407.954 56.1646 408.059 55.4935 408.27 54.875C408.48 54.2503 408.783 53.7091 409.179 53.2515C409.568 52.7938 410.045 52.4351 410.607 52.1753C411.17 51.9093 411.804 51.7764 412.509 51.7764C413.221 51.7764 413.858 51.9093 414.42 52.1753C414.989 52.4351 415.472 52.7938 415.868 53.2515C416.257 53.7091 416.557 54.2503 416.768 54.875C416.978 55.4935 417.083 56.1646 417.083 56.8882V57.0923C417.083 57.8159 416.978 58.487 416.768 59.1055C416.557 59.724 416.257 60.262 415.868 60.7197C415.472 61.1774 414.993 61.5361 414.43 61.7959C413.867 62.0557 413.233 62.1855 412.528 62.1855C411.817 62.1855 411.176 62.0557 410.607 61.7959C410.045 61.5361 409.568 61.1774 409.179 60.7197C408.783 60.262 408.48 59.724 408.27 59.1055C408.059 58.487 407.954 57.8159 407.954 57.0923V56.8882ZM409.67 57.0923C409.67 57.5871 409.729 58.0602 409.847 58.5117C409.964 58.957 410.144 59.3498 410.385 59.6899C410.62 60.0301 410.917 60.2992 411.275 60.4971C411.634 60.695 412.052 60.7939 412.528 60.7939C412.998 60.7939 413.409 60.695 413.762 60.4971C414.12 60.2992 414.42 60.0301 414.662 59.6899C414.897 59.3498 415.073 58.957 415.19 58.5117C415.308 58.0602 415.367 57.5871 415.367 57.0923V56.8882C415.367 56.3996 415.305 55.9326 415.181 55.4873C415.064 55.0358 414.887 54.64 414.652 54.2998C414.411 53.9596 414.111 53.6906 413.752 53.4927C413.4 53.2886 412.986 53.1865 412.509 53.1865C412.033 53.1865 411.619 53.2886 411.266 53.4927C410.914 53.6906 410.62 53.9596 410.385 54.2998C410.144 54.64 409.964 55.0358 409.847 55.4873C409.729 55.9326 409.67 56.3996 409.67 56.8882V57.0923ZM419.848 62V51.9619H421.388L421.508 53.4463C421.657 53.236 421.818 53.0443 421.991 52.8711C422.17 52.6917 422.359 52.5371 422.557 52.4072C422.854 52.2093 423.175 52.0578 423.521 51.9526C423.874 51.8413 424.245 51.7826 424.635 51.7764C425.16 51.7764 425.637 51.8506 426.063 51.999C426.496 52.1475 426.864 52.3794 427.167 52.6948C427.471 53.0103 427.702 53.4123 427.863 53.9009C428.03 54.3833 428.114 54.9585 428.114 55.6265V62H426.397V55.6636C426.397 55.2183 426.348 54.841 426.249 54.5317C426.15 54.2225 426.005 53.972 425.813 53.7803C425.615 53.5885 425.374 53.4494 425.089 53.3628C424.811 53.2762 424.489 53.2329 424.125 53.2329C423.809 53.2329 423.515 53.2793 423.243 53.3721C422.971 53.4587 422.721 53.5793 422.492 53.7339C422.306 53.87 422.133 54.0277 421.972 54.207C421.818 54.3864 421.681 54.5843 421.564 54.8008V62H419.848Z" fill="black"/>
<path d="M205.53 186.47C205.237 186.177 204.763 186.177 204.47 186.47L199.697 191.243C199.404 191.536 199.404 192.01 199.697 192.303C199.99 192.596 200.464 192.596 200.757 192.303L205 188.061L209.243 192.303C209.536 192.596 210.01 192.596 210.303 192.303C210.596 192.01 210.596 191.536 210.303 191.243L205.53 186.47ZM205.75 213V187H204.25V213H205.75Z" fill="#05DA27"/>
<path d="M234.53 213.53C234.823 213.237 234.823 212.763 234.53 212.47L229.757 207.697C229.464 207.404 228.99 207.404 228.697 207.697C228.404 207.99 228.404 208.464 228.697 208.757L232.939 213L228.697 217.243C228.404 217.536 228.404 218.01 228.697 218.303C228.99 218.596 229.464 218.596 229.757 218.303L234.53 213.53ZM205 213.75H234V212.25H205V213.75Z" fill="#F54747"/>
<circle cx="160" cy="211" r="18.625" fill="white" stroke="black" stroke-width="0.75" stroke-dasharray="5 5"/>
<path d="M172.594 208.13C174.635 208.559 176.284 209.089 177.398 209.689L177.22 210.019C177.714 210.284 178.074 210.552 178.306 210.811C178.536 211.068 178.625 211.297 178.625 211.5C178.625 211.703 178.536 211.932 178.306 212.189C178.074 212.448 177.714 212.716 177.22 212.981L177.398 213.311C176.284 213.911 174.635 214.441 172.594 214.87L172.517 214.503C171.051 214.81 169.377 215.065 167.548 215.254L167.587 215.627C166.003 215.79 164.307 215.904 162.534 215.96L162.522 215.586C161.697 215.612 160.855 215.625 160 215.625C159.145 215.625 158.303 215.612 157.478 215.586L157.466 215.96C155.693 215.904 153.997 215.79 152.413 215.627L152.452 215.254C150.623 215.065 148.949 214.81 147.483 214.503L147.406 214.87C145.365 214.441 143.716 213.911 142.602 213.311L142.78 212.981C142.286 212.716 141.926 212.448 141.694 212.189C141.464 211.932 141.375 211.703 141.375 211.5C141.375 211.297 141.464 211.068 141.694 210.811C141.926 210.552 142.286 210.284 142.78 210.019L142.602 209.689C143.716 209.089 145.365 208.559 147.406 208.13L147.483 208.497C148.949 208.19 150.623 207.935 152.452 207.746L152.413 207.373C153.997 207.21 155.693 207.096 157.466 207.04L157.478 207.414C158.303 207.388 159.145 207.375 160 207.375C160.855 207.375 161.697 207.388 162.522 207.414L162.534 207.04C164.307 207.096 166.003 207.21 167.587 207.373L167.548 207.746C169.377 207.935 171.051 208.19 172.517 208.497L172.594 208.13Z" fill="white" stroke="black" stroke-width="0.75" stroke-dasharray="5 5"/>
<path d="M156.983 198.525C157.355 196.495 157.817 194.845 158.338 193.712L158.679 193.869C158.923 193.338 159.17 192.952 159.408 192.703C159.645 192.455 159.843 192.375 160 192.375C160.157 192.375 160.355 192.455 160.592 192.703C160.83 192.952 161.077 193.338 161.321 193.869L161.662 193.712C162.183 194.845 162.645 196.495 163.017 198.525L162.648 198.592C162.916 200.053 163.138 201.715 163.302 203.526L163.676 203.492C163.818 205.061 163.917 206.74 163.965 208.493L163.591 208.504C163.613 209.32 163.625 210.154 163.625 211C163.625 211.846 163.613 212.68 163.591 213.496L163.965 213.507C163.917 215.26 163.818 216.939 163.676 218.508L163.302 218.474C163.138 220.285 162.916 221.947 162.648 223.408L163.017 223.475C162.645 225.505 162.183 227.155 161.662 228.288L161.321 228.131C161.077 228.662 160.83 229.048 160.592 229.297C160.355 229.545 160.157 229.625 160 229.625C159.843 229.625 159.645 229.545 159.408 229.297C159.17 229.048 158.923 228.662 158.679 228.131L158.338 228.288C157.817 227.155 157.355 225.505 156.983 223.475L157.352 223.408C157.084 221.947 156.862 220.285 156.698 218.474L156.324 218.508C156.182 216.939 156.083 215.26 156.035 213.507L156.409 213.496C156.387 212.68 156.375 211.846 156.375 211C156.375 210.154 156.387 209.32 156.409 208.504L156.035 208.493C156.083 206.74 156.182 205.061 156.324 203.492L156.698 203.526C156.862 201.715 157.084 200.053 157.352 198.592L156.983 198.525Z" stroke="black" stroke-width="0.75" stroke-dasharray="5 5"/>
<path d="M175.658 222.459C175.62 222.047 175.255 221.743 174.843 221.782L168.121 222.403C167.709 222.441 167.405 222.807 167.443 223.219C167.482 223.632 167.847 223.935 168.259 223.897L174.234 223.344L174.786 229.319C174.825 229.731 175.19 230.035 175.602 229.997C176.015 229.958 176.318 229.593 176.28 229.181L175.658 222.459ZM144.536 223.705C152.848 233.626 168.045 231.968 175.489 223.008L174.335 222.049C167.391 230.408 153.302 231.832 145.685 222.742L144.536 223.705Z" fill="#2496ED"/>
<path d="M170.411 214.11C170.202 214.468 170.322 214.927 170.679 215.136L176.506 218.544C176.863 218.753 177.323 218.633 177.532 218.276C177.741 217.918 177.621 217.459 177.263 217.25L172.084 214.22L175.113 209.041C175.323 208.684 175.202 208.224 174.845 208.015C174.487 207.806 174.028 207.926 173.819 208.284L170.411 214.11ZM170.197 209.068C172.817 209.387 174.807 209.751 176.156 210.15C176.833 210.351 177.311 210.55 177.617 210.735C177.946 210.935 177.947 211.038 177.936 210.988C177.914 210.888 177.999 210.909 177.803 211.104C177.609 211.298 177.243 211.548 176.643 211.839C175.455 212.417 173.553 213.06 170.868 213.763L171.248 215.214C173.958 214.505 175.974 213.832 177.299 213.189C177.955 212.87 178.495 212.533 178.863 212.166C179.23 211.799 179.536 211.282 179.402 210.668C179.278 210.105 178.833 209.718 178.393 209.452C177.93 209.171 177.313 208.929 176.582 208.712C175.113 208.277 173.025 207.901 170.378 207.579L170.197 209.068Z" fill="#05DA27"/>
<path d="M162.366 200.823C162.704 201.062 163.172 200.983 163.412 200.645L167.319 195.141C167.559 194.803 167.479 194.335 167.142 194.095C166.804 193.855 166.336 193.935 166.096 194.273L162.623 199.165L157.73 195.692C157.392 195.453 156.924 195.532 156.685 195.87C156.445 196.208 156.524 196.676 156.862 196.916L162.366 200.823ZM157.324 200.593C157.873 198.011 158.41 196.06 158.927 194.752C159.186 194.095 159.427 193.636 159.638 193.348C159.865 193.037 159.968 193.045 159.918 193.052C159.816 193.065 159.844 192.982 160.022 193.194C160.198 193.405 160.415 193.792 160.652 194.415C161.123 195.649 161.597 197.6 162.061 200.337L163.54 200.086C163.071 197.324 162.578 195.256 162.054 193.88C161.794 193.198 161.506 192.631 161.172 192.232C160.839 191.834 160.352 191.484 159.728 191.564C159.156 191.637 158.732 192.046 158.428 192.461C158.108 192.899 157.812 193.491 157.532 194.201C156.969 195.626 156.411 197.673 155.857 200.281L157.324 200.593Z" fill="#F54747"/>
<path d="M195.775 230.381C195.897 230.777 196.316 230.999 196.712 230.877L203.164 228.892C203.56 228.77 203.782 228.35 203.66 227.955C203.538 227.559 203.119 227.336 202.723 227.458L196.988 229.223L195.223 223.488C195.102 223.092 194.682 222.87 194.286 222.992C193.89 223.114 193.668 223.533 193.79 223.929L195.775 230.381ZM205.078 212.34L195.829 229.809L197.155 230.511L206.403 213.042L205.078 212.34Z" fill="#2496ED"/>
<path d="M190.557 212.424V209.934H189.473V212.424H187.094V213.502H189.473V216.145H190.557V213.502H192.941V212.424H190.557Z" fill="black"/>
<defs>
<filter id="filter0_d_21_61" x="35" y="242" width="160" height="149" filterUnits="userSpaceOnUse" color-interpolation-filters="sRGB">
<feFlood flood-opacity="0" result="BackgroundImageFix"/>
<feColorMatrix in="SourceAlpha" type="matrix" values="0 0 0 0 0 0 0 0 0 0 0 0 0 0 0 0 0 0 127 0" result="hardAlpha"/>
<feOffset/>
<feGaussianBlur stdDeviation="7.5"/>
<feColorMatrix type="matrix" values="0 0 0 0 0 0 0 0 0 0 0 0 0 0 0 0 0 0 0.05 0"/>
<feBlend mode="normal" in2="BackgroundImageFix" result="effect1_dropShadow_21_61"/>
<feBlend mode="normal" in="SourceGraphic" in2="effect1_dropShadow_21_61" result="shape"/>
</filter>
<filter id="filter1_d_21_61" x="35" y="95" width="160" height="73" filterUnits="userSpaceOnUse" color-interpolation-filters="sRGB">
<feFlood flood-opacity="0" result="BackgroundImageFix"/>
<feColorMatrix in="SourceAlpha" type="matrix" values="0 0 0 0 0 0 0 0 0 0 0 0 0 0 0 0 0 0 127 0" result="hardAlpha"/>
<feOffset/>
<feGaussianBlur stdDeviation="7.5"/>
<feColorMatrix type="matrix" values="0 0 0 0 0 0 0 0 0 0 0 0 0 0 0 0 0 0 0.05 0"/>
<feBlend mode="normal" in2="BackgroundImageFix" result="effect1_dropShadow_21_61"/>
<feBlend mode="normal" in="SourceGraphic" in2="effect1_dropShadow_21_61" result="shape"/>
</filter>
</defs>
</svg>
