ply
format ascii 1.0
comment Created by Blender 3.2.1 - www.blender.org
element vertex 958
property float x
property float y
property float z
element face 1023
property list uchar uint vertex_indices
end_header
0.076918 -0.003002 0.015495
0.073777 -0.005337 0.014637
0.075429 -0.001057 0.014580
0.073107 -0.003002 0.010836
0.065321 -0.003002 0.008147
0.066554 -0.000677 0.011366
0.074192 -0.001559 0.012278
0.067935 -0.000279 0.015432
0.042584 -0.007318 0.017066
0.044341 -0.004467 0.013965
0.045759 -0.001364 0.016464
0.073334 -0.004565 0.012122
0.065478 -0.006128 0.009502
0.075831 -0.001057 0.016863
0.075967 -0.001679 0.019051
0.075927 -0.003002 0.020239
0.075214 -0.004444 0.019492
0.034291 -0.003002 -0.039677
0.033977 -0.002566 -0.038504
0.033728 -0.003478 -0.038359
0.033413 -0.003773 -0.039057
0.074260 -0.005337 0.017376
0.049754 -0.002526 -0.027123
0.050162 -0.002360 -0.026364
0.049617 -0.003773 -0.026345
0.049471 -0.003518 -0.027175
0.068498 -0.000279 0.018627
0.064845 -0.003002 0.012039
0.062511 -0.001198 0.013414
0.060495 -0.000019 0.016587
0.065430 -0.004766 0.013003
0.061112 -0.000019 0.020086
0.066216 -0.008320 0.014165
0.066310 -0.005856 0.015639
0.070689 -0.001039 0.021624
0.072656 -0.003002 0.023354
0.070314 -0.005767 0.023745
0.067316 -0.008320 0.020405
0.063738 -0.001639 0.021311
0.059415 -0.003002 0.010458
0.057195 0.000084 0.011065
0.055688 0.002834 0.015709
0.059894 -0.005447 0.012232
0.056895 0.002834 0.022555
0.060738 -0.006763 0.016073
0.059370 -0.000757 0.024339
0.066900 -0.005856 0.018986
0.061516 -0.006763 0.020486
0.065955 -0.003002 0.020220
0.066620 -0.004325 0.020699
0.060958 -0.003002 0.021101
0.053303 -0.003002 0.005950
0.052375 0.000604 0.010580
0.051780 0.001666 0.017103
0.054055 -0.007370 0.008333
0.052746 0.001666 0.022581
0.055553 -0.010135 0.014947
0.055149 -0.000276 0.026316
0.057029 -0.010135 0.023316
0.057036 -0.003002 0.027124
0.061506 -0.004605 0.022320
0.057497 -0.006488 0.027853
0.050849 -0.003002 0.009936
0.051152 0.000084 0.012131
0.051927 0.001796 0.016998
0.051135 -0.006128 0.012031
0.052920 0.001796 0.022628
0.051914 -0.007930 0.016922
0.053432 -0.000517 0.026003
0.052934 -0.007930 0.022705
0.053349 -0.003002 0.025997
0.053450 -0.005527 0.026102
0.052747 -0.003002 0.019757
0.042677 -0.003002 -0.024655
0.042151 -0.001984 -0.027172
0.042145 -0.004033 -0.027205
0.042402 -0.004628 -0.025591
0.011616 -0.003002 -0.049642
0.011815 -0.003002 -0.047582
0.011843 -0.002182 -0.047580
0.011674 -0.001419 -0.048694
0.042875 -0.003002 -0.022597
0.042739 -0.004628 -0.023682
0.042909 -0.003835 -0.022562
0.071325 -0.003002 -0.013206
0.070288 -0.003773 -0.013489
0.070833 -0.002360 -0.013507
0.070067 -0.003002 -0.014744
0.067498 -0.003002 -0.015631
0.067905 -0.002235 -0.014569
0.070425 -0.002526 -0.014268
0.068361 -0.002103 -0.013227
0.070142 -0.003518 -0.014320
0.067550 -0.004033 -0.015184
0.070966 -0.002360 -0.012755
0.071011 -0.002566 -0.012033
0.070998 -0.003002 -0.011642
0.070763 -0.003478 -0.011887
0.009330 -0.004107 -0.051376
0.009374 -0.003002 -0.051997
0.009643 -0.001945 -0.051344
0.070448 -0.003773 -0.012585
0.068546 -0.002103 -0.012173
0.067341 -0.003002 -0.014347
0.066571 -0.002406 -0.013893
0.065905 -0.002017 -0.012847
0.067534 -0.003584 -0.014029
0.066109 -0.002017 -0.011691
0.067793 -0.004757 -0.013646
0.067824 -0.003944 -0.013159
0.069269 -0.002354 -0.011183
0.069918 -0.003002 -0.010613
0.069146 -0.003915 -0.010483
0.068156 -0.004757 -0.011586
0.066975 -0.002552 -0.011288
0.065549 -0.003002 -0.014868
0.064816 -0.001984 -0.014668
0.064319 -0.001077 -0.013135
0.065707 -0.003808 -0.014283
0.064717 -0.001077 -0.010876
0.065985 -0.004243 -0.013016
0.065534 -0.002262 -0.010288
0.068019 -0.003944 -0.012055
0.066242 -0.004243 -0.011559
0.067707 -0.003002 -0.011647
0.067927 -0.003439 -0.011489
0.066058 -0.003002 -0.011356
0.063532 -0.003002 -0.016356
0.063226 -0.001812 -0.014827
0.063029 -0.001461 -0.012676
0.063780 -0.004443 -0.015570
0.063348 -0.001461 -0.010867
0.064275 -0.005356 -0.013388
0.064141 -0.002103 -0.009635
0.064762 -0.005356 -0.010625
0.064764 -0.003002 -0.009369
0.066239 -0.003531 -0.010954
0.064916 -0.004153 -0.009127
0.062722 -0.003002 -0.015041
0.062822 -0.001984 -0.014317
0.063078 -0.001419 -0.012710
0.062817 -0.004033 -0.014349
0.063406 -0.001419 -0.010852
0.063074 -0.004628 -0.012735
0.063575 -0.002182 -0.009739
0.063410 -0.004628 -0.010827
0.063547 -0.003002 -0.009740
0.063580 -0.003835 -0.009706
0.063348 -0.003002 -0.011800
0.026314 -0.003002 -0.038271
0.025788 -0.001984 -0.040788
0.025782 -0.004033 -0.040820
0.026039 -0.004628 -0.039206
-0.022996 0.002159 -0.029019
-0.021945 0.003897 -0.026539
-0.021451 0.005608 -0.028033
-0.021881 0.005608 -0.030473
0.050654 -0.003002 -0.026062
0.049396 -0.003002 -0.027600
0.046827 -0.003002 -0.028487
0.047233 -0.002235 -0.027425
0.047689 -0.002103 -0.026083
0.033108 -0.003518 -0.040791
0.033033 -0.003002 -0.041215
0.033391 -0.002526 -0.040738
0.046878 -0.004033 -0.028039
0.050295 -0.002360 -0.025611
0.050340 -0.002566 -0.024889
0.050327 -0.003002 -0.024496
0.050091 -0.003478 -0.024743
0.049776 -0.003773 -0.025441
0.033799 -0.002360 -0.039979
0.033254 -0.003773 -0.039961
0.047875 -0.002103 -0.025029
0.046669 -0.003002 -0.027202
0.045899 -0.002406 -0.026749
0.045234 -0.002017 -0.025702
0.046862 -0.003584 -0.026884
0.045438 -0.002017 -0.024547
0.047122 -0.004757 -0.026500
0.047153 -0.003944 -0.026014
0.048598 -0.002354 -0.024039
0.049247 -0.003002 -0.023468
0.048474 -0.003915 -0.023340
0.047485 -0.004757 -0.024442
0.046304 -0.002552 -0.024142
0.044877 -0.003002 -0.027724
0.044145 -0.001984 -0.027524
0.043647 -0.001077 -0.025992
0.045036 -0.003808 -0.027139
0.044046 -0.001077 -0.023732
0.045314 -0.004243 -0.025872
0.044863 -0.002262 -0.023143
0.047348 -0.003944 -0.024910
0.045571 -0.004243 -0.024415
0.047036 -0.003002 -0.024503
0.047255 -0.003439 -0.024345
0.045387 -0.003002 -0.024212
0.042860 -0.003002 -0.029212
0.042554 -0.001812 -0.027684
0.042358 -0.001461 -0.025531
0.043109 -0.004443 -0.028426
0.042677 -0.001461 -0.023723
0.043603 -0.005356 -0.026242
0.043470 -0.002103 -0.022491
0.044090 -0.005356 -0.023481
0.044093 -0.003002 -0.022224
0.045568 -0.003531 -0.023810
0.044245 -0.004153 -0.021984
0.042051 -0.003002 -0.027896
0.042407 -0.001419 -0.025566
0.042734 -0.001419 -0.023708
0.042903 -0.002182 -0.022594
-0.008516 -0.000390 -0.012484
-0.008658 0.001347 -0.015047
-0.009311 -0.002085 -0.016129
-0.008902 -0.002085 -0.013805
0.030464 -0.003002 -0.042102
0.030870 -0.002235 -0.041040
0.031326 -0.002103 -0.039698
0.018410 -0.003518 -0.052161
0.018335 -0.003002 -0.052586
0.018693 -0.002526 -0.052110
0.030515 -0.004033 -0.041655
0.033932 -0.002360 -0.039226
0.033964 -0.003002 -0.038112
0.047797 -0.004823 0.021963
0.047020 -0.000443 0.020285
0.021696 -0.004087 -0.020399
0.020127 -0.005790 -0.022867
0.020799 -0.004037 -0.023828
0.021766 -0.002363 -0.023039
0.031512 -0.002103 -0.038644
0.030306 -0.003002 -0.040818
0.029536 -0.002406 -0.040364
0.028871 -0.002017 -0.039318
0.030499 -0.003584 -0.040500
0.029075 -0.002017 -0.038163
0.030759 -0.004757 -0.040116
0.030790 -0.003944 -0.039631
0.032235 -0.002354 -0.037655
0.032884 -0.003002 -0.037084
0.032111 -0.003915 -0.036956
0.031122 -0.004757 -0.038058
0.029941 -0.002552 -0.037759
0.028515 -0.003002 -0.041340
0.027782 -0.001984 -0.041139
0.027285 -0.001077 -0.039607
0.028673 -0.003808 -0.040754
0.027683 -0.001077 -0.037348
0.028951 -0.004243 -0.039487
0.028500 -0.002262 -0.036759
0.030985 -0.003944 -0.038526
0.029208 -0.004243 -0.038031
0.030673 -0.003002 -0.038118
0.030893 -0.003439 -0.037960
0.029024 -0.003002 -0.037828
0.026498 -0.003002 -0.042827
0.026191 -0.001812 -0.041300
0.025995 -0.001461 -0.039148
0.026746 -0.004443 -0.042041
0.026314 -0.001461 -0.037340
0.027241 -0.005356 -0.039858
0.027107 -0.002103 -0.036107
0.027727 -0.005356 -0.037096
0.027730 -0.003002 -0.035840
0.029205 -0.003531 -0.037426
0.027882 -0.004153 -0.035598
0.025688 -0.003002 -0.041511
0.026044 -0.001419 -0.039182
0.026371 -0.001419 -0.037323
0.026540 -0.002182 -0.036210
0.026376 -0.004628 -0.037298
0.026513 -0.003002 -0.036212
0.026546 -0.003835 -0.036177
0.009906 -0.003002 -0.049476
0.010007 -0.001471 -0.050150
0.011678 -0.004628 -0.048669
0.011848 -0.003835 -0.047548
0.019593 -0.003002 -0.051049
0.018556 -0.003773 -0.051331
0.019101 -0.002360 -0.051349
0.015766 -0.003002 -0.053473
0.016173 -0.002235 -0.052411
0.016628 -0.002103 -0.051069
0.015817 -0.004033 -0.053025
0.019234 -0.002360 -0.050597
0.019279 -0.002566 -0.049875
0.019266 -0.003002 -0.049482
0.019031 -0.003478 -0.049729
0.018716 -0.003773 -0.050428
0.016814 -0.002103 -0.050015
0.015609 -0.003002 -0.052188
0.014839 -0.002406 -0.051735
0.014173 -0.002017 -0.050688
0.015802 -0.003584 -0.051871
0.014377 -0.002017 -0.049533
0.016061 -0.004757 -0.051487
0.016092 -0.003944 -0.051000
0.017537 -0.002354 -0.049025
0.018186 -0.003002 -0.048455
0.017414 -0.003915 -0.048326
0.016424 -0.004757 -0.049428
0.015243 -0.002552 -0.049128
0.013817 -0.003002 -0.052710
0.013084 -0.001984 -0.052510
0.012587 -0.001077 -0.050977
0.013975 -0.003808 -0.052125
0.012985 -0.001077 -0.048718
0.014253 -0.004243 -0.050858
0.013802 -0.002262 -0.048130
0.016287 -0.003944 -0.049895
0.014510 -0.004243 -0.049401
0.015975 -0.003002 -0.049488
0.016195 -0.003439 -0.049331
0.014327 -0.003002 -0.049197
0.011800 -0.003002 -0.054198
0.011494 -0.001812 -0.052669
0.011297 -0.001461 -0.050517
0.012048 -0.004443 -0.053412
0.011616 -0.001461 -0.048710
0.012543 -0.005356 -0.051228
0.012409 -0.002103 -0.047477
0.013030 -0.005356 -0.048467
0.013032 -0.003002 -0.047210
0.014507 -0.003531 -0.048795
0.013184 -0.004153 -0.046969
0.010990 -0.003002 -0.052883
0.011090 -0.001984 -0.052158
0.011346 -0.001419 -0.050551
0.011084 -0.004033 -0.052191
0.011341 -0.004628 -0.050578
0.040929 -0.003002 -0.024314
0.040192 -0.004365 -0.026406
0.040302 -0.003002 -0.027108
0.040662 -0.001697 -0.026395
0.061408 -0.003002 -0.010900
0.061080 -0.001391 -0.013469
0.061655 -0.000668 -0.011843
0.060635 -0.003002 -0.014350
0.059030 -0.003002 -0.015036
0.059584 -0.000910 -0.013990
0.060323 0.000111 -0.011907
0.060499 -0.004686 -0.013484
0.058884 -0.005310 -0.014219
0.061963 -0.000668 -0.010099
0.062137 -0.001679 -0.008872
0.062142 -0.003002 -0.008607
0.061597 -0.004396 -0.008660
0.060857 -0.005570 -0.009816
0.060519 -0.005570 -0.011732
0.060732 0.000111 -0.009584
0.055801 -0.003002 -0.013692
0.055983 -0.000910 -0.013355
0.056442 0.000733 -0.011462
0.055711 -0.004781 -0.012798
0.056934 0.000733 -0.008674
0.058997 -0.006814 -0.011943
0.055788 -0.005726 -0.010958
0.060864 -0.001222 -0.007904
0.060772 -0.003002 -0.007493
0.060284 -0.004998 -0.007448
0.059499 -0.006814 -0.009096
0.057669 -0.001776 -0.008241
0.051657 -0.003002 -0.012865
0.052029 -0.000934 -0.012619
0.052681 0.000733 -0.010799
0.051730 -0.004710 -0.011978
0.053173 0.000733 -0.008011
0.051957 -0.005570 -0.010223
0.053069 -0.001776 -0.007430
0.056146 -0.005726 -0.008924
0.052295 -0.005570 -0.008306
0.058017 -0.003002 -0.010012
0.057222 -0.003916 -0.008672
0.052577 -0.003002 -0.009052
0.047636 -0.003002 -0.012737
0.047922 -0.000693 -0.012286
0.048500 0.001044 -0.010183
0.047749 -0.005070 -0.011864
0.049032 0.001044 -0.007160
0.048070 -0.006270 -0.009806
0.049128 -0.001271 -0.005913
0.048501 -0.006270 -0.007366
0.048857 -0.003002 -0.006749
0.052569 -0.003868 -0.007930
0.048821 -0.004493 -0.006251
0.044876 -0.003002 -0.013414
0.045648 -0.000429 -0.012317
0.046664 0.000966 -0.009828
0.045061 -0.005671 -0.012370
0.047187 0.000966 -0.006865
0.045523 -0.007282 -0.009747
0.047162 -0.000862 -0.004899
0.046086 -0.007282 -0.006551
0.046835 -0.003002 -0.004648
0.046628 -0.005238 -0.004649
0.043541 -0.003002 -0.011628
0.043895 -0.001031 -0.011028
0.044470 0.000266 -0.009171
0.043749 -0.004926 -0.010924
0.044900 0.000266 -0.006731
0.044160 -0.006115 -0.009057
0.044901 -0.001367 -0.005324
0.044570 -0.006115 -0.006734
0.044635 -0.003002 -0.005423
0.044728 -0.004589 -0.005372
0.044285 -0.003002 -0.007881
0.041128 -0.001111 -0.025077
0.039001 -0.003002 -0.027664
0.039452 -0.001307 -0.026816
0.040050 -0.000481 -0.025129
0.038884 -0.004872 -0.027002
0.041377 -0.001111 -0.023666
0.041519 -0.001931 -0.022671
0.041523 -0.003002 -0.022456
0.041081 -0.004132 -0.022499
0.040483 -0.005082 -0.023435
0.040209 -0.005082 -0.024987
0.040382 -0.000481 -0.023246
0.036386 -0.003002 -0.026574
0.036535 -0.001307 -0.026302
0.036905 0.000023 -0.024769
0.036314 -0.004443 -0.025850
0.037304 0.000023 -0.022511
0.038975 -0.006091 -0.025158
0.036375 -0.005208 -0.024361
0.040487 -0.001561 -0.021886
0.040413 -0.003002 -0.021553
0.040018 -0.004619 -0.021517
0.039382 -0.006091 -0.022853
0.037900 -0.002009 -0.022160
0.033030 -0.003002 -0.025904
0.033333 -0.001327 -0.025706
0.033860 0.000023 -0.024232
0.033089 -0.004385 -0.025187
0.034258 0.000023 -0.021974
0.033274 -0.005082 -0.023764
0.034173 -0.002009 -0.021503
0.036666 -0.005208 -0.022713
0.033547 -0.005082 -0.022212
0.038182 -0.003002 -0.023594
0.037538 -0.003742 -0.022509
0.033774 -0.003002 -0.022816
0.029773 -0.003002 -0.025801
0.030005 -0.001132 -0.025437
0.030473 0.000276 -0.023732
0.029864 -0.004677 -0.025094
0.030904 0.000276 -0.021285
0.030125 -0.005649 -0.023428
0.030982 -0.001599 -0.020273
0.030474 -0.005649 -0.021452
0.030762 -0.003002 -0.020950
0.033768 -0.003703 -0.021908
0.030733 -0.004210 -0.020547
0.027539 -0.003002 -0.026349
0.028162 -0.000918 -0.025461
0.028986 0.000213 -0.023445
0.027688 -0.005164 -0.025504
0.029409 0.000213 -0.021046
0.028062 -0.006469 -0.023379
0.029389 -0.001268 -0.019453
0.028519 -0.006469 -0.020791
0.029124 -0.003002 -0.019249
0.028957 -0.004813 -0.019250
0.026457 -0.003002 -0.024902
0.026743 -0.001405 -0.024417
0.027208 -0.000354 -0.022914
0.026624 -0.004560 -0.024332
0.027557 -0.000354 -0.020937
0.026958 -0.005523 -0.022821
0.027558 -0.001677 -0.019797
0.027290 -0.005523 -0.020938
0.027343 -0.003002 -0.019877
0.027417 -0.004287 -0.019835
0.027059 -0.003002 -0.021868
0.024118 -0.003002 -0.038020
0.023870 -0.001828 -0.039891
0.024269 -0.001301 -0.038702
0.023566 -0.003002 -0.040537
0.022500 -0.003002 -0.041056
0.022879 -0.001477 -0.040289
0.023392 -0.000733 -0.038765
0.023487 -0.004229 -0.039910
0.022415 -0.004684 -0.040463
0.024493 -0.001301 -0.037431
0.024623 -0.002038 -0.036538
0.024630 -0.003002 -0.036344
0.024270 -0.004018 -0.036389
0.023769 -0.004874 -0.037238
0.023522 -0.004874 -0.038636
0.023690 -0.000733 -0.037071
0.020392 -0.003002 -0.040120
0.020517 -0.001477 -0.039872
0.020842 -0.000279 -0.038491
0.020344 -0.004299 -0.039469
0.021200 -0.000279 -0.036457
0.022517 -0.005782 -0.038808
0.020418 -0.004988 -0.038132
0.023796 -0.001705 -0.035849
0.023741 -0.003002 -0.035551
0.023422 -0.004457 -0.035525
0.022883 -0.005782 -0.036732
0.021690 -0.002108 -0.036134
0.017674 -0.003002 -0.039569
0.017923 -0.001495 -0.039386
0.018374 -0.000279 -0.038056
0.017734 -0.004247 -0.038923
0.018732 -0.000279 -0.036022
0.017905 -0.004874 -0.037645
0.018671 -0.002108 -0.035602
0.020679 -0.004988 -0.036649
0.018151 -0.004874 -0.036248
0.021896 -0.003002 -0.037416
0.021390 -0.003668 -0.036452
0.018327 -0.003002 -0.036786
0.015030 -0.003002 -0.039526
0.015223 -0.001319 -0.039195
0.015629 -0.000052 -0.037659
0.015114 -0.004510 -0.038890
0.016017 -0.000052 -0.035456
0.015351 -0.005385 -0.037392
0.016096 -0.001740 -0.034548
0.015665 -0.005385 -0.035612
0.015907 -0.003002 -0.035159
0.018335 -0.003633 -0.035972
0.015890 -0.004088 -0.034797
0.013205 -0.003002 -0.040052
0.013725 -0.001126 -0.039246
0.014425 -0.000109 -0.037425
0.013339 -0.004947 -0.039292
0.014806 -0.000109 -0.035265
0.013676 -0.006122 -0.037380
0.014814 -0.001442 -0.033836
0.014086 -0.006122 -0.035051
0.014602 -0.003002 -0.033657
0.014467 -0.004633 -0.033660
0.012348 -0.003002 -0.038771
0.012588 -0.001565 -0.038330
0.012990 -0.000620 -0.036975
0.012493 -0.004404 -0.038257
0.013303 -0.000620 -0.035196
0.012786 -0.005271 -0.036895
0.013321 -0.001810 -0.034172
0.013085 -0.005271 -0.035201
0.013146 -0.003002 -0.034248
0.013206 -0.004158 -0.034210
0.012884 -0.003002 -0.036039
0.008488 -0.003002 -0.052547
0.008822 -0.001629 -0.051771
0.009289 -0.000960 -0.050241
0.008437 -0.004517 -0.051962
0.010231 -0.001471 -0.048878
0.010367 -0.002134 -0.047986
0.010379 -0.003002 -0.047792
0.010083 -0.003917 -0.047850
0.009647 -0.004687 -0.048710
0.009401 -0.004687 -0.050108
0.009588 -0.000960 -0.048546
0.006798 -0.003002 -0.051685
0.006908 -0.001629 -0.051434
0.007219 -0.000551 -0.050050
0.006780 -0.004169 -0.051040
0.007577 -0.000551 -0.048018
0.008575 -0.005503 -0.050311
0.006884 -0.004789 -0.049708
0.009715 -0.001834 -0.047327
0.009679 -0.003002 -0.047034
0.009418 -0.004311 -0.047018
0.008941 -0.005503 -0.048235
0.007987 -0.002197 -0.047680
0.004599 -0.003002 -0.051225
0.004808 -0.001645 -0.051035
0.005219 -0.000551 -0.049697
0.004669 -0.004122 -0.050581
0.005578 -0.000551 -0.047666
0.004850 -0.004687 -0.049305
0.005541 -0.002197 -0.047249
0.007145 -0.004789 -0.048224
0.005096 -0.004687 -0.047908
0.008113 -0.003002 -0.048948
0.007732 -0.003602 -0.048006
0.005222 -0.003002 -0.048438
0.002443 -0.003002 -0.051269
0.002612 -0.001488 -0.050934
0.002993 -0.000348 -0.049393
0.002533 -0.004359 -0.050634
0.003382 -0.000348 -0.047190
0.002775 -0.005146 -0.049135
0.003476 -0.001867 -0.046284
0.003088 -0.005146 -0.047357
0.003302 -0.003002 -0.046899
0.005255 -0.003569 -0.047627
0.003300 -0.003981 -0.046539
0.000937 -0.003002 -0.051852
0.001389 -0.001314 -0.051034
0.002019 -0.000398 -0.049199
0.001071 -0.004753 -0.051091
0.002400 -0.000398 -0.047038
0.001409 -0.005810 -0.049179
0.002453 -0.001598 -0.045618
0.001819 -0.005810 -0.046850
0.002286 -0.003002 -0.045447
0.002175 -0.004470 -0.045454
0.000281 -0.003002 -0.050606
0.000490 -0.001708 -0.050159
0.000861 -0.000857 -0.048798
0.000415 -0.004264 -0.050090
0.001175 -0.000857 -0.047019
0.000699 -0.005044 -0.048727
0.001223 -0.001930 -0.046001
0.000998 -0.005044 -0.047032
0.001078 -0.003002 -0.046082
0.001129 -0.004044 -0.046043
0.000806 -0.003002 -0.047871
0.007610 -0.001080 0.023191
0.011097 0.001748 0.028434
0.007671 0.007919 0.026659
0.007716 0.005815 0.022477
0.037773 -0.003313 0.014414
0.039792 -0.000188 0.017312
0.041550 0.000390 0.021312
0.037434 -0.006710 0.017442
0.047640 -0.000443 0.023804
0.046590 -0.001444 0.027541
0.043495 -0.006866 0.028045
0.042034 -0.007959 0.024762
0.041424 -0.007959 0.021302
0.042149 0.000390 0.024710
0.031891 -0.002248 0.015857
0.031268 0.001296 0.018897
0.030455 0.002523 0.023206
0.033720 -0.005152 0.019612
0.031076 0.002523 0.026725
0.037747 -0.007750 0.021764
0.036054 -0.004971 0.023094
0.041146 -0.000445 0.028541
0.039591 -0.003118 0.031105
0.044995 -0.004094 0.029848
0.039010 -0.006257 0.029205
0.038421 -0.007750 0.025586
0.033187 0.000376 0.028920
0.024947 -0.001004 0.017081
0.023915 0.003391 0.018719
0.023173 0.006459 0.023363
0.025514 -0.003513 0.021345
0.024179 0.006459 0.029068
0.026558 -0.002746 0.024988
0.023113 0.003267 0.032541
0.036375 -0.004971 0.024915
0.026804 -0.002746 0.026384
0.034858 -0.002355 0.029206
0.035548 -0.004339 0.027358
0.021424 0.000078 0.032485
0.013196 0.000913 0.013078
0.015292 0.005908 0.018396
0.016818 0.006500 0.024954
0.014273 -0.004108 0.018904
0.017663 0.006500 0.029748
0.016278 -0.004507 0.025298
0.017936 0.004483 0.033945
0.017038 -0.004507 0.029608
0.017528 0.000860 0.035907
0.023949 -0.002305 0.029485
0.017292 -0.002736 0.033731
0.008349 0.001836 0.015754
0.009626 0.006664 0.019886
0.010611 0.008050 0.025859
0.010070 -0.003549 0.019317
0.011521 0.008050 0.031018
0.012740 -0.005825 0.025108
0.012545 0.005810 0.035510
0.013779 -0.005825 0.030995
0.012824 0.001731 0.037647
0.013434 -0.002803 0.035845
0.007857 0.002068 0.020499
0.008484 0.007919 0.031273
0.007963 -0.002118 0.027140
0.009356 0.005247 0.034146
0.008594 -0.002118 0.030721
0.009686 0.002174 0.034352
0.009228 -0.000405 0.033473
0.038761 -0.005388 -0.006907
0.037833 -0.005332 -0.010330
0.038855 -0.003667 -0.009550
0.039840 -0.002975 -0.007997
0.034831 -0.004823 -0.010769
0.036133 -0.002661 -0.009855
0.037414 -0.001671 -0.007867
0.037106 -0.007075 -0.009360
0.033976 -0.007251 -0.009827
0.040147 -0.002975 -0.006252
0.040090 -0.004068 -0.004984
0.039807 -0.005501 -0.004668
0.038491 -0.006843 -0.004586
-0.006324 -0.005371 -0.044933
-0.006662 -0.005371 -0.046850
-0.004728 -0.002790 -0.046203
-0.004958 -0.004251 -0.043888
0.036687 -0.007944 -0.007530
0.037824 -0.001671 -0.005544
0.028345 -0.003638 -0.008850
0.029041 -0.001391 -0.008605
0.029927 0.000364 -0.006787
0.027683 -0.005501 -0.007856
0.030419 0.000364 -0.003999
0.033531 -0.008798 -0.007453
0.027348 -0.006449 -0.005943
0.037547 -0.003074 -0.003793
0.036961 -0.004965 -0.003294
0.035629 -0.006980 -0.003101
0.034033 -0.008798 -0.004606
0.037025 -0.007944 -0.005614
0.031300 -0.002607 -0.003592
0.020166 -0.002171 -0.007312
0.021242 -0.000021 -0.007190
0.022520 0.001691 -0.005481
0.019837 -0.004011 -0.006354
0.023012 0.001691 -0.002693
0.019823 -0.004924 -0.004556
0.022238 -0.000985 -0.001994
0.027707 -0.006449 -0.003910
0.020161 -0.004924 -0.002640
0.032035 -0.004175 -0.005430
0.030097 -0.004822 -0.003889
0.021318 -0.002256 -0.003541
0.012344 -0.000788 -0.006515
0.013262 0.001666 -0.006175
0.014363 0.003498 -0.004163
0.012024 -0.003037 -0.005565
0.014896 0.003498 -0.001141
0.012080 -0.004336 -0.003460
0.014436 0.001007 0.000204
0.012510 -0.004336 -0.001020
0.013719 -0.000845 -0.000553
0.020951 -0.003132 -0.002355
0.013284 -0.002434 0.000015
0.007102 0.000114 -0.006753
0.008904 0.002732 -0.005838
0.010729 0.004062 -0.003492
0.006779 -0.002806 -0.005620
0.011251 0.004062 -0.000529
0.006935 -0.004568 -0.002943
0.010531 0.002188 0.001560
0.007499 -0.004568 0.000253
0.009448 -0.000027 0.001945
0.008622 -0.002403 0.002053
0.004215 0.000679 -0.004693
0.005175 0.002752 -0.004200
0.006229 0.004086 -0.002429
0.004134 -0.001454 -0.003939
0.006659 0.004086 0.000012
0.004396 -0.002783 -0.002046
0.006117 0.002383 0.001515
0.004806 -0.002783 0.000278
0.005309 0.000679 0.001511
0.005177 -0.001086 0.001602
0.005036 0.000650 -0.000960
0.007358 -0.003276 -0.034371
0.005789 -0.004978 -0.036839
0.006460 -0.003225 -0.037799
0.007427 -0.001551 -0.037010
0.022696 -0.001660 -0.021473
0.018081 -0.003580 -0.024317
0.019313 -0.001405 -0.023390
0.020523 -0.000403 -0.021390
0.017281 -0.006016 -0.023384
0.023003 -0.001660 -0.019731
0.022955 -0.002754 -0.018465
0.022678 -0.004189 -0.018149
0.021466 -0.005550 -0.018084
0.005762 -0.005857 -0.033103
0.005424 -0.005857 -0.035019
0.007128 -0.004738 -0.032057
0.019763 -0.006670 -0.021047
0.020933 -0.000403 -0.019066
0.012257 -0.002513 -0.022514
0.012929 -0.000263 -0.022264
0.013792 0.001498 -0.020442
0.011643 -0.004384 -0.021528
0.014283 0.001498 -0.017655
0.016892 -0.007574 -0.021020
0.011355 -0.005341 -0.019624
0.020687 -0.001810 -0.017319
0.020133 -0.003707 -0.016828
0.018896 -0.005738 -0.016651
0.017394 -0.007574 -0.018172
0.020102 -0.006670 -0.019129
0.015037 -0.001451 -0.017225
0.004897 -0.001193 -0.021120
0.005910 0.000968 -0.020987
0.007125 0.002692 -0.019267
0.004585 -0.003036 -0.020166
0.007617 0.002692 -0.016479
0.004586 -0.003952 -0.018370
0.006882 0.000010 -0.015787
0.011713 -0.005341 -0.017590
0.004924 -0.003952 -0.016453
0.015647 -0.002995 -0.019041
0.013906 -0.003679 -0.017535
0.006002 -0.001268 -0.017341
-0.002152 0.000052 -0.020459
-0.001274 0.002514 -0.020112
-0.000212 0.004352 -0.018093
-0.002463 -0.002198 -0.019511
0.000320 0.004352 -0.015073
-0.002402 -0.003499 -0.017408
-0.000115 0.001857 -0.013730
-0.001971 -0.003499 -0.014968
-0.000808 0.000001 -0.014492
0.005675 -0.002153 -0.016163
-0.001220 -0.001592 -0.013928
-0.006890 0.000865 -0.020786
-0.005197 0.003502 -0.019852
-0.003484 0.004852 -0.017487
-0.007214 -0.002056 -0.019654
-0.002961 0.004852 -0.014523
-0.007057 -0.003819 -0.016976
-0.003611 0.002965 -0.012447
-0.006494 -0.003819 -0.013781
-0.004623 0.000738 -0.012075
-0.005409 -0.001646 -0.011974
-0.009462 0.001372 -0.018782
-0.008549 0.003454 -0.018281
-0.007542 0.004796 -0.016502
-0.009559 -0.000758 -0.018024
-0.007112 0.004796 -0.014062
-0.007607 0.003086 -0.012566
-0.008368 0.001372 -0.012578
-0.022854 0.000423 -0.026456
-0.023651 -0.001272 -0.030102
-0.023241 -0.001272 -0.027778
-0.006297 -0.004491 -0.048671
-0.005625 -0.002738 -0.049631
-0.004659 -0.001064 -0.048841
0.008358 -0.000848 -0.035447
0.003742 -0.002768 -0.038289
0.004974 -0.000593 -0.037362
0.006184 0.000409 -0.035363
0.002943 -0.005205 -0.037357
0.008665 -0.000848 -0.033704
0.008616 -0.001942 -0.032437
0.008340 -0.003378 -0.032121
0.006594 0.000409 -0.033039
-0.002083 -0.001701 -0.036487
-0.001409 0.000549 -0.036237
-0.000547 0.002309 -0.034415
-0.002696 -0.003572 -0.035500
-0.000056 0.002309 -0.031626
0.002552 -0.006763 -0.034992
-0.002984 -0.004529 -0.033595
0.006349 -0.000999 -0.031292
0.005794 -0.002894 -0.030800
0.004556 -0.004927 -0.030623
0.003054 -0.006763 -0.032145
0.000699 -0.000639 -0.031197
-0.009441 -0.000381 -0.035093
-0.008428 0.001781 -0.034960
-0.007213 0.003504 -0.033240
-0.009754 -0.002224 -0.034138
-0.006721 0.003504 -0.030451
-0.009753 -0.003140 -0.032343
-0.007457 0.000821 -0.029759
-0.002626 -0.004529 -0.031563
-0.009415 -0.003140 -0.030426
0.001308 -0.002184 -0.033014
-0.000433 -0.002866 -0.031508
-0.008336 -0.000457 -0.031313
-0.016491 0.000864 -0.034430
-0.015612 0.003327 -0.034085
-0.014550 0.005165 -0.032066
-0.016803 -0.001387 -0.033483
-0.014018 0.005165 -0.029044
-0.016740 -0.002686 -0.031380
-0.014454 0.002670 -0.027702
-0.016310 -0.002686 -0.028939
-0.015147 0.000813 -0.028465
-0.008665 -0.001341 -0.030135
-0.015558 -0.000780 -0.027899
-0.021228 0.001677 -0.034759
-0.019536 0.004314 -0.033824
-0.017823 0.005663 -0.031458
-0.021553 -0.001244 -0.033625
-0.017300 0.005663 -0.028496
-0.021395 -0.003007 -0.030949
-0.017950 0.003777 -0.026419
-0.020832 -0.003007 -0.027753
-0.018962 0.001549 -0.026047
-0.019748 -0.000834 -0.025946
-0.023800 0.002184 -0.032755
-0.022888 0.004266 -0.032254
-0.023898 0.000054 -0.031996
-0.022706 0.002184 -0.026550
-0.035082 0.002646 -0.040851
-0.034032 0.004384 -0.038369
-0.033536 0.006095 -0.039864
-0.033966 0.006095 -0.042305
-0.034941 0.000909 -0.038287
-0.035737 -0.000786 -0.041933
-0.035327 -0.000786 -0.039609
-0.003728 -0.000361 -0.047277
-0.008344 -0.002281 -0.050121
-0.007112 -0.000106 -0.049192
-0.005902 0.000896 -0.047193
-0.009144 -0.004719 -0.049189
-0.003421 -0.000361 -0.045534
-0.003470 -0.001457 -0.044268
-0.003746 -0.002891 -0.043953
-0.005492 0.000896 -0.044870
-0.014169 -0.001214 -0.048319
-0.013496 0.001036 -0.048067
-0.012634 0.002796 -0.046246
-0.014783 -0.003086 -0.047331
-0.012142 0.002796 -0.043457
-0.009534 -0.006276 -0.046823
-0.015070 -0.004043 -0.045427
-0.005737 -0.000512 -0.043123
-0.006293 -0.002409 -0.042631
-0.007529 -0.004440 -0.042454
-0.009032 -0.006276 -0.043976
-0.011387 -0.000152 -0.043028
-0.021528 0.000106 -0.046923
-0.020514 0.002267 -0.046791
-0.019299 0.003990 -0.045071
-0.021840 -0.001737 -0.045969
-0.018807 0.003990 -0.042282
-0.021839 -0.002653 -0.044174
-0.019543 0.001308 -0.041590
-0.014712 -0.004043 -0.043394
-0.021501 -0.002653 -0.042256
-0.010778 -0.001697 -0.044845
-0.012519 -0.002380 -0.043340
-0.020423 0.000030 -0.043144
-0.028578 0.001351 -0.046262
-0.027698 0.003812 -0.045917
-0.026637 0.005651 -0.043898
-0.028889 -0.000900 -0.045314
-0.026104 0.005651 -0.040876
-0.028826 -0.002201 -0.043211
-0.026540 0.003156 -0.039533
-0.028395 -0.002201 -0.040771
-0.027232 0.001299 -0.040295
-0.020750 -0.000854 -0.041965
-0.027645 -0.000294 -0.039730
-0.033315 0.002163 -0.046590
-0.031623 0.004800 -0.045655
-0.029908 0.006150 -0.043290
-0.033639 -0.000757 -0.045456
-0.029385 0.006150 -0.040327
-0.033481 -0.002520 -0.042780
-0.030036 0.004264 -0.038251
-0.032918 -0.002520 -0.039584
-0.031047 0.002036 -0.037878
-0.031834 -0.000348 -0.037777
-0.035886 0.002671 -0.044585
-0.034973 0.004752 -0.044084
-0.035984 0.000541 -0.043828
-0.034793 0.002671 -0.038381
3 0 1 2
4 3 4 5 6
4 6 5 7 2
3 8 9 10
4 11 12 4 3
3 0 2 13
3 0 13 14
3 15 16 14
4 17 18 19 20
3 0 21 1
4 22 23 24 25
4 2 7 26 13
4 4 27 28 5
4 5 28 29 7
4 12 30 27 4
4 7 29 31 26
4 1 32 12 11
4 32 33 30 12
4 13 26 34 14
4 14 34 35 15
4 15 35 36 16
4 16 36 37 21
4 21 37 32 1
4 26 31 38 34
4 27 39 40 28
4 28 40 41 29
4 30 42 39 27
4 29 41 43 31
4 33 44 42 30
4 31 43 45 38
4 37 46 33 32
4 46 47 44 33
4 34 38 48 35
4 35 48 49 36
4 36 49 46 37
4 38 45 50 48
4 39 51 52 40
4 40 52 53 41
4 42 54 51 39
4 41 53 55 43
4 44 56 54 42
4 43 55 57 45
4 47 58 56 44
4 45 57 59 50
4 49 60 47 46
4 60 61 58 47
4 48 50 60 49
4 50 59 61 60
4 51 62 63 52
4 52 63 64 53
4 54 65 62 51
4 53 64 66 55
4 56 67 65 54
4 55 66 68 57
4 58 69 67 56
4 57 68 70 59
4 61 71 69 58
4 59 70 71 61
3 62 65 63
3 63 72 64
3 11 3 6
3 64 72 66
4 73 74 75 76
4 77 78 79 80
3 69 72 67
4 81 73 82 83
3 84 85 86
4 87 88 89 90
4 90 89 91 86
4 92 93 88 87
3 84 86 94
3 84 94 95
3 96 97 95
3 98 99 100
4 0 14 16 21
3 84 101 85
4 6 2 1 11
4 86 91 102 94
4 88 103 104 89
4 89 104 105 91
4 93 106 103 88
4 91 105 107 102
4 85 108 93 92
4 108 109 106 93
4 94 102 110 95
4 95 110 111 96
4 96 111 112 97
4 97 112 113 101
4 101 113 108 85
4 102 107 114 110
4 103 115 116 104
4 104 116 117 105
4 106 118 115 103
4 105 117 119 107
4 109 120 118 106
4 107 119 121 114
4 113 122 109 108
4 122 123 120 109
4 110 114 124 111
4 111 124 125 112
4 112 125 122 113
4 114 121 126 124
4 115 127 128 116
4 116 128 129 117
4 118 130 127 115
4 117 129 131 119
4 120 132 130 118
4 119 131 133 121
4 123 134 132 120
4 121 133 135 126
4 125 136 123 122
4 136 137 134 123
4 124 126 136 125
4 126 135 137 136
4 127 138 139 128
4 128 139 140 129
4 130 141 138 127
4 129 140 142 131
4 132 143 141 130
4 131 142 144 133
4 134 145 143 132
4 133 144 146 135
4 137 147 145 134
4 135 146 147 137
3 138 141 139
3 139 148 140
3 140 148 142
4 149 150 151 152
4 153 154 155 156
3 145 148 143
4 70 72 69 71
3 157 24 23
4 158 159 160 22
4 22 160 161 23
3 162 163 164
4 25 165 159 158
3 157 23 166
3 157 166 167
3 168 169 167
4 84 95 97 101
3 157 170 24
4 164 171 172 162
4 23 161 173 166
4 159 174 175 160
4 160 175 176 161
4 165 177 174 159
4 161 176 178 173
4 24 179 165 25
4 179 180 177 165
4 166 173 181 167
4 167 181 182 168
4 168 182 183 169
4 169 183 184 170
4 170 184 179 24
4 173 178 185 181
4 174 186 187 175
4 175 187 188 176
4 177 189 186 174
4 176 188 190 178
4 180 191 189 177
4 178 190 192 185
4 184 193 180 179
4 193 194 191 180
4 181 185 195 182
4 182 195 196 183
4 183 196 193 184
4 185 192 197 195
4 186 198 199 187
4 187 199 200 188
4 189 201 198 186
4 188 200 202 190
4 191 203 201 189
4 190 202 204 192
4 194 205 203 191
4 192 204 206 197
4 196 207 194 193
4 207 208 205 194
4 195 197 207 196
4 197 206 208 207
4 198 209 74 199
4 199 74 210 200
4 201 75 209 198
4 200 210 211 202
4 203 76 75 201
4 202 211 212 204
4 205 82 76 203
4 204 212 81 206
4 208 83 82 205
4 206 81 83 208
3 209 75 74
3 74 73 210
3 210 73 211
4 148 139 141 143
4 148 146 144 142
3 82 73 76
4 213 214 215 216
3 17 172 171
4 163 217 218 164
4 164 218 219 171
3 220 221 222
4 162 223 217 163
3 17 171 224
3 17 224 18
3 225 19 18
4 226 8 10 227
3 17 20 172
4 228 229 230 231
4 171 219 232 224
4 217 233 234 218
4 218 234 235 219
4 223 236 233 217
4 219 235 237 232
4 172 238 223 162
4 238 239 236 223
4 224 232 240 18
4 18 240 241 225
4 225 241 242 19
4 19 242 243 20
4 20 243 238 172
4 232 237 244 240
4 233 245 246 234
4 234 246 247 235
4 236 248 245 233
4 235 247 249 237
4 239 250 248 236
4 237 249 251 244
4 243 252 239 238
4 252 253 250 239
4 240 244 254 241
4 241 254 255 242
4 242 255 252 243
4 244 251 256 254
4 245 257 258 246
4 246 258 259 247
4 248 260 257 245
4 247 259 261 249
4 250 262 260 248
4 249 261 263 251
4 253 264 262 250
4 251 263 265 256
4 255 266 253 252
4 266 267 264 253
4 254 256 266 255
4 256 265 267 266
4 257 268 150 258
4 258 150 269 259
4 260 151 268 257
4 259 269 270 261
4 262 152 151 260
4 261 270 271 263
4 264 272 152 262
4 263 271 273 265
4 267 274 272 264
4 265 273 274 267
3 268 151 150
3 150 149 269
3 25 158 22
3 269 149 270
4 275 98 100 276
4 72 70 68 66
3 272 149 152
4 78 77 277 278
3 279 280 281
4 221 282 283 222
4 222 283 284 281
3 92 87 90
4 220 285 282 221
3 279 281 286
3 279 286 287
3 288 289 287
4 157 167 169 170
3 279 290 280
4 90 86 85 92
4 281 284 291 286
4 282 292 293 283
4 283 293 294 284
4 285 295 292 282
4 284 294 296 291
4 280 297 285 220
4 297 298 295 285
4 286 291 299 287
4 287 299 300 288
4 288 300 301 289
4 289 301 302 290
4 290 302 297 280
4 291 296 303 299
4 292 304 305 293
4 293 305 306 294
4 295 307 304 292
4 294 306 308 296
4 298 309 307 295
4 296 308 310 303
4 302 311 298 297
4 311 312 309 298
4 299 303 313 300
4 300 313 314 301
4 301 314 311 302
4 303 310 315 313
4 304 316 317 305
4 305 317 318 306
4 307 319 316 304
4 306 318 320 308
4 309 321 319 307
4 308 320 322 310
4 312 323 321 309
4 310 322 324 315
4 314 325 312 311
4 325 326 323 312
4 313 315 325 314
4 315 324 326 325
4 316 327 328 317
4 317 328 329 318
4 319 330 327 316
4 318 329 80 320
4 321 331 330 319
4 320 80 79 322
4 323 277 331 321
4 322 79 78 324
4 326 278 277 323
4 324 78 278 326
3 327 330 328
3 328 77 329
3 329 77 80
4 72 63 65 67
4 73 81 212 211
3 277 77 331
4 146 148 145 147
4 332 333 334 335
3 336 337 338
4 339 340 341 337
4 337 341 342 338
4 343 344 340 339
3 336 338 345
3 336 345 346
3 336 346 347
3 336 347 348
3 336 348 349
3 336 349 350
3 336 350 343
4 338 342 351 345
4 340 352 353 341
4 341 353 354 342
4 344 355 352 340
4 342 354 356 351
4 350 357 344 343
4 357 358 355 344
4 345 351 359 346
4 346 359 360 347
4 347 360 361 348
4 348 361 362 349
4 349 362 357 350
4 351 356 363 359
4 352 364 365 353
4 353 365 366 354
4 355 367 364 352
4 354 366 368 356
4 358 369 367 355
4 356 368 370 363
4 362 371 358 357
4 371 372 369 358
4 359 363 373 360
4 360 373 374 361
4 361 374 371 362
4 363 370 375 373
4 364 376 377 365
4 365 377 378 366
4 367 379 376 364
4 366 378 380 368
4 369 381 379 367
4 368 380 382 370
4 372 383 381 369
4 370 382 384 375
4 374 385 372 371
4 385 386 383 372
4 373 375 385 374
4 375 384 386 385
4 376 387 388 377
4 377 388 389 378
4 379 390 387 376
4 378 389 391 380
4 381 392 390 379
4 380 391 393 382
4 383 394 392 381
4 382 393 395 384
4 386 396 394 383
4 384 395 396 386
4 387 397 398 388
4 388 398 399 389
4 390 400 397 387
4 389 399 401 391
4 392 402 400 390
4 391 401 403 393
4 394 404 402 392
4 393 403 405 395
4 396 406 404 394
4 395 405 406 396
3 397 407 398
3 398 407 399
3 400 407 397
3 399 407 401
3 402 407 400
3 401 407 403
3 404 407 402
3 403 407 405
3 406 407 404
3 405 407 406
4 149 273 271 270
3 332 335 408
4 334 409 410 335
4 335 410 411 408
4 333 412 409 334
3 332 408 413
3 332 413 414
3 332 414 415
3 332 415 416
3 332 416 417
3 332 417 418
3 332 418 333
4 408 411 419 413
4 409 420 421 410
4 410 421 422 411
4 412 423 420 409
4 411 422 424 419
4 418 425 412 333
4 425 426 423 412
4 413 419 427 414
4 414 427 428 415
4 415 428 429 416
4 416 429 430 417
4 417 430 425 418
4 419 424 431 427
4 420 432 433 421
4 421 433 434 422
4 423 435 432 420
4 422 434 436 424
4 426 437 435 423
4 424 436 438 431
4 430 439 426 425
4 439 440 437 426
4 427 431 441 428
4 428 441 442 429
4 429 442 439 430
4 431 438 443 441
4 432 444 445 433
4 433 445 446 434
4 435 447 444 432
4 434 446 448 436
4 437 449 447 435
4 436 448 450 438
4 440 451 449 437
4 438 450 452 443
4 442 453 440 439
4 453 454 451 440
4 441 443 453 442
4 443 452 454 453
4 444 455 456 445
4 445 456 457 446
4 447 458 455 444
4 446 457 459 448
4 449 460 458 447
4 448 459 461 450
4 451 462 460 449
4 450 461 463 452
4 454 464 462 451
4 452 463 464 454
4 455 465 466 456
4 456 466 467 457
4 458 468 465 455
4 457 467 469 459
4 460 470 468 458
4 459 469 471 461
4 462 472 470 460
4 461 471 473 463
4 464 474 472 462
4 463 473 474 464
3 465 475 466
3 466 475 467
3 468 475 465
3 467 475 469
3 470 475 468
3 469 475 471
3 472 475 470
3 471 475 473
3 474 475 472
3 473 475 474
4 336 343 339 337
3 476 477 478
4 479 480 481 477
4 477 481 482 478
4 483 484 480 479
3 476 478 485
3 476 485 486
3 476 486 487
3 476 487 488
3 476 488 489
3 476 489 490
3 476 490 483
4 478 482 491 485
4 480 492 493 481
4 481 493 494 482
4 484 495 492 480
4 482 494 496 491
4 490 497 484 483
4 497 498 495 484
4 485 491 499 486
4 486 499 500 487
4 487 500 501 488
4 488 501 502 489
4 489 502 497 490
4 491 496 503 499
4 492 504 505 493
4 493 505 506 494
4 495 507 504 492
4 494 506 508 496
4 498 509 507 495
4 496 508 510 503
4 502 511 498 497
4 511 512 509 498
4 499 503 513 500
4 500 513 514 501
4 501 514 511 502
4 503 510 515 513
4 504 516 517 505
4 505 517 518 506
4 507 519 516 504
4 506 518 520 508
4 509 521 519 507
4 508 520 522 510
4 512 523 521 509
4 510 522 524 515
4 514 525 512 511
4 525 526 523 512
4 513 515 525 514
4 515 524 526 525
4 516 527 528 517
4 517 528 529 518
4 519 530 527 516
4 518 529 531 520
4 521 532 530 519
4 520 531 533 522
4 523 534 532 521
4 522 533 535 524
4 526 536 534 523
4 524 535 536 526
4 527 537 538 528
4 528 538 539 529
4 530 540 537 527
4 529 539 541 531
4 532 542 540 530
4 531 541 543 533
4 534 544 542 532
4 533 543 545 535
4 536 546 544 534
4 535 545 546 536
3 537 547 538
3 538 547 539
3 540 547 537
3 539 547 541
3 542 547 540
3 541 547 543
3 544 547 542
3 543 547 545
3 546 547 544
3 545 547 546
4 476 483 479 477
4 99 548 549 100
4 100 549 550 276
4 77 328 330 331
4 98 551 548 99
3 275 276 552
3 275 552 553
3 275 553 554
3 275 554 555
3 275 555 556
3 275 556 557
3 275 557 98
4 276 550 558 552
4 548 559 560 549
4 549 560 561 550
4 551 562 559 548
4 550 561 563 558
4 557 564 551 98
4 564 565 562 551
4 552 558 566 553
4 553 566 567 554
4 554 567 568 555
4 555 568 569 556
4 556 569 564 557
4 558 563 570 566
4 559 571 572 560
4 560 572 573 561
4 562 574 571 559
4 561 573 575 563
4 565 576 574 562
4 563 575 577 570
4 569 578 565 564
4 578 579 576 565
4 566 570 580 567
4 567 580 581 568
4 568 581 578 569
4 570 577 582 580
4 571 583 584 572
4 572 584 585 573
4 574 586 583 571
4 573 585 587 575
4 576 588 586 574
4 575 587 589 577
4 579 590 588 576
4 577 589 591 582
4 581 592 579 578
4 592 593 590 579
4 580 582 592 581
4 582 591 593 592
4 583 594 595 584
4 584 595 596 585
4 586 597 594 583
4 585 596 598 587
4 588 599 597 586
4 587 598 600 589
4 590 601 599 588
4 589 600 602 591
4 593 603 601 590
4 591 602 603 593
4 594 604 605 595
4 595 605 606 596
4 597 607 604 594
4 596 606 608 598
4 599 609 607 597
4 598 608 610 600
4 601 611 609 599
4 600 610 612 602
4 603 613 611 601
4 602 612 613 603
3 604 614 605
3 605 614 606
3 607 614 604
3 606 614 608
3 609 614 607
3 608 614 610
3 611 614 609
3 610 614 612
3 613 614 611
3 612 614 613
4 615 616 617 618
4 9 619 620 10
4 10 620 621 227
4 279 287 289 290
4 8 622 619 9
3 226 227 623
3 226 623 624
3 226 625 626
3 226 626 627
3 226 627 8
4 227 621 628 623
4 619 629 630 620
4 620 630 631 621
4 622 632 629 619
4 621 631 633 628
4 627 634 622 8
4 634 635 632 622
4 623 628 636 624
4 624 636 637 638
4 638 637 639 625
4 625 639 640 626
4 626 640 634 627
4 628 633 641 636
4 629 642 643 630
4 630 643 644 631
4 632 645 642 629
4 631 644 646 633
4 635 647 645 632
4 633 646 648 641
4 640 649 635 634
4 649 650 647 635
4 636 641 651 637
4 637 651 652 639
4 639 652 649 640
4 641 648 653 651
4 642 654 655 643
4 643 655 656 644
4 645 657 654 642
4 644 656 658 646
4 647 659 657 645
4 646 658 660 648
4 650 661 659 647
4 648 660 662 653
4 652 663 650 649
4 663 664 661 650
4 651 653 663 652
4 653 662 664 663
4 654 665 666 655
4 655 666 667 656
4 657 668 665 654
4 656 667 669 658
4 659 670 668 657
4 658 669 671 660
4 661 672 670 659
4 660 671 673 662
4 664 674 672 661
4 662 673 674 664
4 665 675 618 666
4 666 618 617 667
4 668 615 675 665
4 667 617 676 669
4 670 677 615 668
4 669 676 678 671
4 672 679 677 670
4 671 678 680 673
4 674 681 679 672
4 673 680 681 674
3 675 615 618
3 617 616 676
3 677 616 615
3 676 616 678
3 679 616 677
3 678 616 680
3 681 616 679
3 680 616 681
3 682 683 684
3 682 684 685
4 683 686 687 684
4 684 687 688 685
3 682 689 683
4 689 690 686 683
3 682 685 691
3 682 691 692
3 682 692 693
3 682 693 694
4 695 696 697 698
3 682 699 689
4 685 688 700 691
4 686 701 702 687
4 687 702 703 688
4 690 704 701 686
4 688 703 705 700
4 699 706 690 689
4 706 707 704 690
4 691 700 708 692
4 692 708 709 693
4 693 709 710 694
4 694 710 711 712
4 712 711 706 699
4 700 705 713 708
4 701 714 715 702
4 702 715 716 703
4 704 717 714 701
4 703 716 718 705
4 707 719 717 704
4 705 718 720 713
4 711 721 707 706
4 721 722 719 707
4 708 713 723 709
4 709 723 724 710
4 710 724 721 711
4 713 720 725 723
4 714 726 727 715
4 715 727 728 716
4 717 729 726 714
4 716 728 730 718
4 719 731 729 717
4 718 730 732 720
4 722 733 731 719
4 720 732 734 725
4 724 735 722 721
4 735 736 733 722
4 723 725 735 724
4 725 734 736 735
4 726 737 738 727
4 727 738 739 728
4 729 740 737 726
4 728 739 741 730
4 731 742 740 729
4 730 741 743 732
4 733 744 742 731
4 732 743 745 734
4 736 746 744 733
4 734 745 746 736
4 737 747 748 738
4 738 748 749 739
4 740 750 747 737
4 739 749 751 741
4 742 752 750 740
4 741 751 753 743
4 744 754 752 742
4 743 753 755 745
4 746 756 754 744
4 745 755 756 746
3 747 757 748
3 748 757 749
3 750 757 747
4 273 149 272 274
3 752 757 750
4 222 281 280 220
3 753 757 755
3 755 757 756
4 758 759 760 761
3 228 231 762
4 230 763 764 231
4 231 764 765 762
4 229 766 763 230
3 228 762 767
3 228 767 768
3 228 768 769
3 228 769 770
4 771 772 758 773
3 228 774 229
4 762 765 775 767
4 763 776 777 764
4 764 777 778 765
4 766 779 776 763
4 765 778 780 775
4 774 781 766 229
4 781 782 779 766
4 767 775 783 768
4 768 783 784 769
4 769 784 785 770
4 770 785 786 787
4 787 786 781 774
4 775 780 788 783
4 776 789 790 777
4 777 790 791 778
4 779 792 789 776
4 778 791 793 780
4 782 794 792 779
4 780 793 795 788
4 786 796 782 781
4 796 797 794 782
4 783 788 798 784
4 784 798 799 785
4 785 799 796 786
4 788 795 800 798
4 789 801 802 790
4 790 802 803 791
4 792 804 801 789
4 791 803 805 793
4 794 806 804 792
4 793 805 807 795
4 797 808 806 794
4 795 807 809 800
4 799 810 797 796
4 810 811 808 797
4 798 800 810 799
4 800 809 811 810
4 801 812 813 802
4 802 813 814 803
4 804 815 812 801
4 803 814 816 805
4 806 817 815 804
4 805 816 818 807
4 808 819 817 806
4 807 818 820 809
4 811 821 819 808
4 809 820 821 811
4 812 822 823 813
4 813 823 824 814
4 815 825 822 812
4 814 824 826 816
4 817 215 825 815
4 816 826 827 818
4 819 216 215 817
4 818 827 828 820
4 821 213 216 819
4 820 828 213 821
3 822 214 823
3 823 214 824
3 825 214 822
4 757 753 751 749
3 215 214 825
4 829 153 830 831
3 827 214 828
3 828 214 213
4 697 832 833 834
3 758 761 835
4 760 836 837 761
4 761 837 838 835
4 759 839 836 760
3 758 835 840
3 758 840 841
3 758 841 842
3 758 842 773
4 638 625 226 624
3 758 772 759
4 835 838 843 840
4 836 844 845 837
4 837 845 846 838
4 839 847 844 836
4 838 846 848 843
4 772 849 839 759
4 849 850 847 839
4 840 843 851 841
4 841 851 852 842
4 842 852 853 773
4 773 853 854 771
4 771 854 849 772
4 843 848 855 851
4 844 856 857 845
4 845 857 858 846
4 847 859 856 844
4 846 858 860 848
4 850 861 859 847
4 848 860 862 855
4 854 863 850 849
4 863 864 861 850
4 851 855 865 852
4 852 865 866 853
4 853 866 863 854
4 855 862 867 865
4 856 868 869 857
4 857 869 870 858
4 859 871 868 856
4 858 870 872 860
4 861 873 871 859
4 860 872 874 862
4 864 875 873 861
4 862 874 876 867
4 866 877 864 863
4 877 878 875 864
4 865 867 877 866
4 867 876 878 877
4 868 879 880 869
4 869 880 881 870
4 871 882 879 868
4 870 881 883 872
4 873 884 882 871
4 872 883 885 874
4 875 886 884 873
4 874 885 887 876
4 878 888 886 875
4 876 887 888 878
4 879 889 890 880
4 880 890 156 881
4 882 891 889 879
4 881 156 155 883
4 884 830 891 882
4 883 155 154 885
4 886 831 830 884
4 885 154 892 887
4 888 829 831 886
4 887 892 829 888
3 889 153 890
3 890 153 156
3 891 153 889
4 893 894 895 896
3 830 153 891
4 897 893 898 899
3 154 153 892
3 892 153 829
4 712 699 682 694
3 697 834 900
4 833 901 902 834
4 834 902 903 900
4 832 904 901 833
3 697 900 905
3 697 905 906
3 697 906 907
3 697 907 698
4 787 774 228 770
3 697 696 832
4 900 903 908 905
4 901 909 910 902
4 902 910 911 903
4 904 912 909 901
4 903 911 913 908
4 696 914 904 832
4 914 915 912 904
4 905 908 916 906
4 906 916 917 907
4 907 917 918 698
4 698 918 919 695
4 695 919 914 696
4 908 913 920 916
4 909 921 922 910
4 910 922 923 911
4 912 924 921 909
4 911 923 925 913
4 915 926 924 912
4 913 925 927 920
4 919 928 915 914
4 928 929 926 915
4 916 920 930 917
4 917 930 931 918
4 918 931 928 919
4 920 927 932 930
4 921 933 934 922
4 922 934 935 923
4 924 936 933 921
4 923 935 937 925
4 926 938 936 924
4 925 937 939 927
4 929 940 938 926
4 927 939 941 932
4 931 942 929 928
4 942 943 940 929
4 930 932 942 931
4 932 941 943 942
4 933 944 945 934
4 934 945 946 935
4 936 947 944 933
4 935 946 948 937
4 938 949 947 936
4 937 948 950 939
4 940 951 949 938
4 939 950 952 941
4 943 953 951 940
4 941 952 953 943
4 944 954 955 945
4 945 955 896 946
4 947 956 954 944
4 946 896 895 948
4 949 898 956 947
4 948 895 894 950
4 951 899 898 949
4 950 894 957 952
4 953 897 899 951
4 952 957 897 953
3 954 893 955
3 955 893 896
3 956 893 954
4 214 827 826 824
3 898 893 956
4 756 757 752 754
3 894 893 957
3 957 893 897
