ply
format ascii 1.0
comment Created by Blender 3.2.1 - www.blender.org
element vertex 1000
property float x
property float y
property float z
element face 1147
property list uchar uint vertex_indices
end_header
0.010273 -0.003959 0.000194
0.008775 -0.001945 -0.005191
0.017762 -0.001703 -0.005824
0.020286 -0.004153 0.004710
0.183498 0.000285 0.029396
0.183817 0.004485 0.022895
0.182715 0.006735 0.026953
0.183739 -0.000368 0.020450
0.179594 0.000872 0.016570
0.179144 0.008157 0.019625
0.177077 0.012106 0.025361
0.181003 -0.003581 0.023827
0.175515 -0.004121 0.020700
0.083289 0.021699 0.038649
0.089298 0.020536 0.035848
0.088646 0.026495 0.038048
0.082033 0.024845 0.039235
0.181759 0.004159 0.033042
0.181726 0.001131 0.032753
0.180134 -0.000986 0.032952
0.023139 -0.000777 0.026103
0.030491 0.002893 0.021506
0.029824 0.005507 0.021751
0.021396 0.003850 0.023364
0.179261 -0.003580 0.027931
0.176292 0.012766 0.031354
0.182206 0.007163 0.030831
0.173859 0.002874 0.015709
0.174658 0.010010 0.019010
0.173767 0.013619 0.025064
0.170692 -0.002906 0.019888
0.172952 0.014303 0.031270
0.172533 -0.005042 0.026697
0.168581 -0.004572 0.026282
0.177677 0.008137 0.035737
0.179207 0.002287 0.036761
0.175111 -0.001440 0.036083
0.171803 -0.004429 0.032269
0.178835 -0.003223 0.031175
0.174526 0.009871 0.036282
0.171105 0.004099 0.019477
0.172901 0.008947 0.021471
0.173556 0.011673 0.025841
0.169036 -0.000402 0.022002
0.172908 0.012217 0.030777
0.167504 -0.002322 0.026665
0.173105 0.009647 0.035378
0.167775 -0.003896 0.032417
0.166847 -0.001770 0.031671
0.175976 0.003530 0.038094
0.171377 -0.000796 0.036926
0.172820 0.004644 0.037822
0.165392 0.006208 0.020456
0.167422 0.010278 0.022128
0.168473 0.012581 0.025938
0.161294 0.003690 0.023154
0.167901 0.013063 0.030310
0.157964 0.003869 0.026844
0.168868 0.011076 0.035078
0.157529 0.004235 0.030159
0.169032 0.006033 0.038323
0.169296 0.000496 0.035989
0.162606 0.003456 0.034774
0.149399 0.011833 0.018741
0.151926 0.016076 0.020915
0.153325 0.018075 0.025141
0.147607 0.007940 0.021770
0.152743 0.018565 0.029582
0.146614 0.006967 0.026061
0.156123 0.014148 0.032776
0.146107 0.007395 0.029939
0.159708 0.009062 0.033379
0.152642 0.008002 0.032760
0.130372 0.018019 0.008721
0.134343 0.025761 0.014846
0.135809 0.027330 0.023087
0.128458 0.009417 0.014712
0.134977 0.028029 0.029433
0.128067 0.006554 0.023502
0.134032 0.022725 0.032510
0.127002 0.007447 0.031610
0.134074 0.018112 0.031185
0.130544 0.014166 0.034207
0.127054 0.019205 0.008671
0.129658 0.027556 0.014417
0.129806 0.030023 0.022570
0.123837 0.010101 0.013384
0.128928 0.030761 0.029269
0.121560 0.005830 0.022469
0.128765 0.025209 0.032950
0.120257 0.006926 0.032412
0.129418 0.019846 0.032215
0.124820 0.015000 0.035735
0.123850 0.020489 0.010808
0.125867 0.027864 0.015796
0.125749 0.030118 0.022893
0.119887 0.012079 0.013847
0.124981 0.030763 0.028745
0.116250 0.007133 0.022068
0.125743 0.026398 0.032931
0.114900 0.008268 0.032365
0.126683 0.020927 0.033804
0.120642 0.015835 0.036507
0.125562 0.020012 0.012960
0.124746 0.026284 0.018730
0.121871 0.026669 0.024579
0.120385 0.013626 0.015847
0.121501 0.026980 0.027400
0.115655 0.010496 0.022776
0.122756 0.025390 0.030412
0.114556 0.011421 0.031167
0.123546 0.021962 0.032383
0.118922 0.017679 0.034559
0.125108 0.020521 0.018450
0.124446 0.024217 0.021998
0.122545 0.024297 0.025443
0.121540 0.016857 0.020077
0.122350 0.024461 0.026924
0.118206 0.015076 0.024183
0.121725 0.024492 0.028912
0.117540 0.015636 0.029260
0.120587 0.022912 0.030628
0.118921 0.019659 0.031570
0.120891 0.022527 0.026280
0.096924 0.017470 0.029466
0.096132 0.011221 0.030430
0.095178 0.011224 0.035105
0.095975 0.017471 0.032362
0.077030 0.024244 0.013121
0.079132 0.022451 0.012141
0.079728 0.018563 0.019449
0.076144 0.023445 0.021121
0.034800 0.003299 -0.005401
0.033746 0.004822 -0.009023
0.042244 0.008930 -0.006459
0.043345 0.007187 -0.002909
0.177443 -0.000132 -0.000205
0.178637 0.002281 -0.004579
0.180844 0.002691 -0.002012
0.175716 0.000194 -0.005977
0.170143 0.002724 -0.006346
0.174100 0.005030 -0.005034
0.177342 0.005605 -0.002097
0.174315 -0.002680 -0.004366
0.168929 -0.001379 -0.005192
0.181046 0.002814 0.000651
0.179970 0.001442 0.002617
0.178597 -0.000394 0.003111
0.176321 -0.002151 0.003549
0.059865 0.015516 -0.026021
0.060241 0.017546 -0.023888
0.064950 0.016012 -0.023901
0.064585 0.012404 -0.025973
0.173669 -0.004095 -0.001328
0.177601 0.005763 0.001338
0.166678 0.004333 -0.006122
0.170985 0.006352 -0.004541
0.174442 0.006379 -0.001620
0.165174 0.000576 -0.004600
0.174676 0.006521 0.001466
0.168396 -0.004311 -0.001511
0.164457 -0.001741 -0.000936
0.176839 0.003512 0.003602
0.175815 0.000943 0.003841
0.172530 -0.001238 0.005151
0.168763 -0.004088 0.003326
0.173919 -0.003942 0.001967
0.174115 0.004258 0.003281
0.159630 0.007893 -0.002120
0.165900 0.008033 -0.003050
0.172347 0.008286 -0.001725
0.161464 0.004254 -0.002072
0.172624 0.008454 0.001919
0.163569 0.000989 -0.000246
0.171810 0.006226 0.004499
0.164791 -0.001536 0.003481
0.163804 0.001131 0.002839
0.173443 0.001977 0.003158
0.169412 0.000681 0.004793
0.170619 0.003426 0.005035
0.127010 0.023159 0.001413
0.147970 0.015979 -0.000682
0.168980 0.008698 -0.001008
0.143074 0.013695 0.000675
0.169203 0.008834 0.001937
0.159562 0.005053 0.000719
0.167646 0.007118 0.003734
0.159700 0.005138 0.002540
0.165999 0.005436 0.003657
0.167095 0.001929 0.004782
0.162776 0.005068 0.003596
0.118064 0.027078 -0.000912
0.142819 0.019509 -0.001786
0.166930 0.010352 -0.001041
0.132310 0.017954 0.000869
0.167185 0.010508 0.002324
0.147830 0.011631 0.002151
0.163391 0.009186 0.004239
0.147920 0.011686 0.003343
0.159693 0.008345 0.003818
0.153694 0.009740 0.003869
0.114104 0.028938 -0.000411
0.137937 0.021327 -0.000647
0.160873 0.011672 0.000056
0.122862 0.021679 0.001026
0.161061 0.011785 0.002510
0.132634 0.016536 0.003065
0.151357 0.014808 0.005416
0.132820 0.016649 0.005518
0.141242 0.017084 0.007107
0.136920 0.016553 0.006976
0.109512 0.030963 -0.001447
0.117492 0.031605 0.000311
0.124386 0.029762 0.003274
0.115120 0.023513 -0.000204
0.124619 0.029904 0.006359
0.121684 0.017875 0.003149
0.124507 0.027877 0.008627
0.122034 0.018089 0.007777
0.123994 0.025178 0.009250
0.123178 0.021816 0.009975
0.104809 0.033197 -0.000530
0.112518 0.034192 0.000419
0.119516 0.033429 0.003284
0.108105 0.024765 -0.001774
0.119814 0.033611 0.007210
0.111557 0.016027 0.002424
0.119651 0.031360 0.010456
0.112195 0.016415 0.010838
0.118772 0.027785 0.011818
0.115964 0.022809 0.014088
0.102624 0.034346 0.001283
0.108832 0.035187 0.001820
0.114569 0.034812 0.004078
0.105062 0.026997 -0.000575
0.114825 0.034967 0.007444
0.107362 0.018717 0.003025
0.116375 0.033458 0.011409
0.107969 0.019087 0.011017
0.116529 0.029036 0.014551
0.112340 0.023973 0.015198
0.105622 0.033140 0.003390
0.108879 0.034704 0.002477
0.112433 0.036622 0.004015
0.106383 0.028567 0.001733
0.112727 0.036800 0.007872
0.106887 0.022960 0.004121
0.110922 0.035681 0.011580
0.107318 0.023222 0.009799
0.108207 0.032785 0.013650
0.107720 0.027717 0.013379
0.107545 0.032520 0.006631
0.039600 0.034083 0.017361
0.042146 0.025263 0.018182
0.041697 0.029836 0.022703
0.039879 0.035824 0.021628
0.073876 0.030938 0.007006
0.077620 0.034878 0.012847
0.083111 0.035963 0.010287
0.077505 0.030274 0.005314
0.166935 -0.002804 -0.015003
0.166455 -0.002829 -0.018042
0.167125 -0.001462 -0.017381
0.167536 -0.000743 -0.015945
0.164014 -0.001782 -0.018945
0.165155 0.000316 -0.018604
0.166168 0.001933 -0.016581
0.164161 -0.004178 -0.018081
0.160561 -0.003508 -0.018996
0.167658 -0.000668 -0.014333
0.167533 -0.001567 -0.013160
0.167223 -0.002763 -0.012860
0.164932 -0.003756 -0.011692
0.162225 -0.005390 -0.012736
0.161976 -0.005541 -0.016031
0.044280 0.029751 -0.014753
0.044805 0.024469 -0.019921
0.036714 0.021125 -0.019003
0.036278 0.025699 -0.014420
0.023250 0.006813 -0.013518
0.023705 0.004309 -0.014804
0.015774 0.001019 -0.012899
0.014776 0.005701 -0.011327
0.166395 0.002072 -0.013565
0.161073 -0.000371 -0.018200
0.162386 0.001466 -0.018096
0.163651 0.003006 -0.016295
0.157930 -0.001774 -0.018106
0.163876 0.003142 -0.013351
0.157250 -0.005269 -0.016149
0.154943 -0.003117 -0.015601
0.166084 0.000336 -0.011480
0.165483 -0.001821 -0.011090
0.161739 -0.003181 -0.009871
0.157594 -0.005059 -0.011593
0.163017 0.001842 -0.011090
0.158068 0.000866 -0.019964
0.159861 0.003504 -0.019265
0.161370 0.005295 -0.016533
0.155622 -0.000588 -0.017745
0.161656 0.005469 -0.012748
0.153974 -0.000405 -0.014830
0.160573 0.003633 -0.010035
0.155236 -0.002940 -0.011746
0.154155 -0.000296 -0.012446
0.161791 -0.000068 -0.010386
0.158578 -0.001503 -0.009892
0.159117 0.001237 -0.009440
0.155617 0.002039 -0.019382
0.156639 0.004608 -0.018290
0.157245 0.006101 -0.015708
0.150901 0.002303 -0.016423
0.157474 0.006240 -0.012692
0.147091 0.004531 -0.013642
0.156866 0.004534 -0.010714
0.147186 0.004589 -0.012380
0.156040 0.002563 -0.010509
0.156418 -0.000064 -0.010389
0.151395 0.003082 -0.011219
0.152911 0.003460 -0.017174
0.141831 0.011325 -0.016512
0.130970 0.019393 -0.013524
0.139767 0.007974 -0.014746
0.131252 0.019564 -0.009807
0.127093 0.013442 -0.011816
0.136652 0.014085 -0.008601
0.127210 0.013513 -0.010273
0.142099 0.009010 -0.009946
0.134568 0.011028 -0.009715
0.125709 0.016232 -0.013716
0.126775 0.018158 -0.014710
0.128244 0.020666 -0.013256
0.120865 0.016082 -0.013804
0.128526 0.020838 -0.009541
0.116039 0.015702 -0.011604
0.125117 0.020304 -0.006433
0.116299 0.015861 -0.008171
0.121230 0.018972 -0.005279
0.118640 0.017039 -0.005799
0.111839 0.022322 -0.017158
0.113625 0.025674 -0.015689
0.114834 0.027542 -0.012177
0.110299 0.018383 -0.016074
0.115149 0.027732 -0.008040
0.109401 0.015469 -0.011955
0.115178 0.025885 -0.004286
0.109827 0.015727 -0.006346
0.114340 0.022376 -0.002319
0.111998 0.018682 -0.002742
0.105225 0.025495 -0.015484
0.107296 0.028803 -0.015354
0.109316 0.031647 -0.012213
0.104502 0.020441 -0.016322
0.109710 0.031886 -0.007025
0.103922 0.015123 -0.012289
0.111076 0.028199 -0.003387
0.104491 0.015470 -0.004786
0.111826 0.023513 -0.002530
0.108389 0.019710 -0.001305
0.102332 0.026801 -0.015771
0.104605 0.030175 -0.015279
0.106678 0.032778 -0.011916
0.099640 0.022930 -0.015576
0.107065 0.033014 -0.006798
0.097324 0.019389 -0.011290
0.107543 0.029704 -0.003221
0.097835 0.019701 -0.004559
0.107462 0.025523 -0.002447
0.102811 0.022716 -0.001421
0.099098 0.028432 -0.013971
0.101236 0.030661 -0.013156
0.103027 0.031937 -0.010599
0.099050 0.025407 -0.012757
0.103282 0.032093 -0.007235
0.099598 0.023489 -0.009964
0.104034 0.030116 -0.004417
0.099855 0.023644 -0.006601
0.104164 0.026981 -0.003152
0.101823 0.024809 -0.004013
0.095844 0.011219 0.022675
0.097855 0.011216 0.023653
0.093481 0.011224 0.026201
0.093461 0.011223 0.023920
0.101626 0.027703 -0.008618
0.095204 0.037367 0.010007
0.095831 0.037848 0.013666
0.101111 0.036473 0.013948
0.099821 0.037848 0.006425
0.037840 0.034790 0.008469
0.047526 0.034596 0.011141
0.046620 0.033181 0.003812
0.154008 0.000710 -0.029467
0.153474 0.003449 -0.033013
0.155149 0.005023 -0.031165
0.151853 0.001243 -0.033241
0.146917 0.002944 -0.034332
0.149175 0.006080 -0.033750
0.151398 0.008101 -0.031038
0.152337 -0.001098 -0.032113
0.147098 -0.000702 -0.033056
0.098257 0.026198 0.001942
0.096142 0.019948 0.000030
0.097197 0.019948 -0.002630
0.098001 0.026198 -0.003471
0.154959 0.003052 -0.026368
0.153903 0.000952 -0.026218
0.153762 -0.000992 -0.026856
0.153716 -0.002226 -0.028451
0.153386 -0.002226 -0.030320
0.152093 0.008101 -0.027097
0.155661 0.005023 -0.028262
0.145240 0.003673 -0.032306
0.146531 0.006243 -0.032115
0.147941 0.008252 -0.030072
0.144762 0.000355 -0.032410
0.148514 0.008252 -0.026822
0.148072 -0.002959 -0.030203
0.144753 -0.002906 -0.029975
0.150964 0.005607 -0.024355
0.149298 0.002750 -0.023904
0.149044 -0.000421 -0.024344
0.148681 -0.002959 -0.026745
0.148121 0.005965 -0.024693
0.142466 0.004742 -0.031123
0.143029 0.007374 -0.031266
0.143895 0.009860 -0.029395
0.141914 0.002678 -0.030368
0.144480 0.009860 -0.026075
0.141826 0.001341 -0.028495
0.144432 0.006789 -0.024697
0.145485 -0.002906 -0.025824
0.142228 0.001341 -0.026213
0.147299 0.003430 -0.024476
0.146672 0.000390 -0.023832
0.144242 0.004450 -0.025668
0.138280 0.006442 -0.027962
0.139116 0.007810 -0.029129
0.140568 0.009961 -0.028451
0.137660 0.005866 -0.027658
0.141031 0.009961 -0.025824
0.137198 0.005515 -0.026930
0.139376 0.008272 -0.024273
0.137344 0.005515 -0.026100
0.137537 0.006928 -0.024486
0.143391 0.002972 -0.025214
0.137346 0.005889 -0.025128
0.119574 0.013341 -0.024895
0.116152 0.016688 -0.025639
0.113529 0.021082 -0.024040
0.120595 0.011826 -0.025069
0.114115 0.021082 -0.020720
0.121782 0.010391 -0.024462
0.118864 0.016893 -0.019395
0.122014 0.010391 -0.023148
0.123151 0.012369 -0.019986
0.122349 0.010650 -0.021363
0.106605 0.017907 -0.026186
0.106092 0.021678 -0.025686
0.105753 0.024858 -0.022956
0.105667 0.014958 -0.025331
0.106435 0.024858 -0.019081
0.105350 0.012830 -0.022670
0.107843 0.021273 -0.017078
0.105959 0.012830 -0.019211
0.108822 0.017664 -0.017460
0.107525 0.015119 -0.017303
0.099356 0.020579 -0.025023
0.098654 0.024328 -0.024234
0.098008 0.027270 -0.021446
0.099429 0.016223 -0.025491
0.098642 0.027270 -0.017850
0.100037 0.011744 -0.022659
0.101499 0.023811 -0.015727
0.100963 0.011744 -0.017403
0.103742 0.019608 -0.015527
0.102678 0.015769 -0.014814
0.095663 0.021843 -0.025988
0.094165 0.026443 -0.024096
0.092355 0.029358 -0.020450
0.094835 0.016882 -0.025941
0.092990 0.029358 -0.016853
0.094753 0.012173 -0.022191
0.096147 0.025865 -0.014690
0.095838 0.012173 -0.016035
0.098654 0.021503 -0.014399
0.097699 0.017120 -0.013238
0.086585 0.025292 -0.022886
0.088257 0.028041 -0.022214
0.089837 0.029725 -0.019827
0.088064 0.019385 -0.024747
0.090411 0.029725 -0.016577
0.089994 0.012407 -0.021816
0.092289 0.027330 -0.013964
0.091237 0.012407 -0.014762
0.093383 0.023495 -0.012776
0.092839 0.018297 -0.011492
0.084403 0.026215 -0.020656
0.086167 0.027639 -0.020165
0.087786 0.028228 -0.018753
0.086541 0.021371 -0.022753
0.088116 0.028228 -0.016884
0.088915 0.015268 -0.020877
0.089246 0.026838 -0.015387
0.089902 0.015268 -0.015275
0.089925 0.024612 -0.014706
0.090483 0.020570 -0.013083
0.087887 0.025147 -0.017808
0.090017 0.020661 0.010268
0.089890 0.027467 0.009523
0.095495 0.027192 0.011701
0.095448 0.020798 0.011429
0.142331 0.001815 -0.041932
0.140965 0.003790 -0.043950
0.142056 0.003499 -0.042383
0.139450 0.002416 -0.045368
0.137130 0.003016 -0.045631
0.139008 0.004851 -0.044292
0.140540 0.004985 -0.042403
0.016829 -0.001377 -0.010609
0.138980 0.000677 -0.043866
0.135915 0.000622 -0.044366
0.142269 0.003488 -0.041381
0.142692 0.003028 -0.040323
0.142831 0.001792 -0.039591
0.141065 0.000797 -0.039698
0.025890 0.000552 -0.008208
0.026774 0.001478 -0.001763
0.138972 0.000342 -0.041998
0.140897 0.004969 -0.040733
0.135420 0.003510 -0.044704
0.136667 0.005544 -0.043872
0.137820 0.006444 -0.042052
0.132878 0.001424 -0.043762
0.138270 0.006424 -0.039939
0.135270 -0.000668 -0.041871
0.130851 -0.000103 -0.041145
0.141305 0.004182 -0.039033
0.141275 0.002280 -0.037945
0.138644 0.000515 -0.037825
0.135841 -0.000695 -0.039201
0.139281 0.000328 -0.040551
0.139095 0.004817 -0.038529
0.133519 0.004066 -0.043549
0.134212 0.006295 -0.043466
0.135145 0.008158 -0.041798
0.131260 0.002523 -0.042577
0.135729 0.008131 -0.039071
0.129420 0.001576 -0.040425
0.137130 0.005651 -0.037729
0.131505 -0.000133 -0.038086
0.129908 0.001554 -0.038144
0.139542 0.002724 -0.038237
0.135734 0.001311 -0.037208
0.138155 0.003099 -0.038037
0.130932 0.004730 -0.043942
0.130909 0.007042 -0.042540
0.130665 0.007957 -0.040397
0.130080 0.002995 -0.042134
0.131055 0.007939 -0.038560
0.129731 0.002872 -0.040043
0.134621 0.006339 -0.037198
0.130040 0.002858 -0.038595
0.137664 0.003303 -0.036428
0.134124 0.002146 -0.037434
0.133669 0.002245 -0.037300
0.128178 0.005558 -0.041760
0.125263 0.008535 -0.041270
0.122694 0.011478 -0.039135
0.121888 0.005862 -0.039597
0.123264 0.011451 -0.036464
0.115925 0.007019 -0.037001
0.129253 0.008493 -0.035181
0.116186 0.007007 -0.035777
0.134623 0.004170 -0.035032
0.125115 0.004481 -0.035339
0.101253 0.012929 -0.036061
0.101939 0.014630 -0.035918
0.102776 0.015948 -0.034608
0.099401 0.011302 -0.035758
0.103215 0.015927 -0.032549
0.097905 0.009743 -0.033904
0.117388 0.010817 -0.033857
0.098450 0.009718 -0.031344
0.131158 0.005031 -0.036180
0.114907 0.007170 -0.033028
0.077886 0.019018 -0.037702
0.088739 0.020632 -0.036567
0.098898 0.018884 -0.034381
0.077858 0.012493 -0.037250
0.099588 0.018853 -0.031154
0.078988 0.006824 -0.032529
0.109279 0.013365 -0.031721
0.080580 0.006750 -0.025075
0.118643 0.008414 -0.034472
0.100600 0.009039 -0.027051
0.067639 0.021880 -0.034311
0.081676 0.022250 -0.034617
0.095264 0.019968 -0.033640
0.070714 0.014538 -0.035624
0.095964 0.019936 -0.030358
0.074827 0.007043 -0.031946
0.099243 0.016469 -0.029137
0.076537 0.006964 -0.023935
0.102082 0.012994 -0.029934
0.090293 0.011309 -0.024076
0.069754 0.021393 -0.032783
0.078890 0.022751 -0.033650
0.088142 0.022900 -0.032445
0.070537 0.016195 -0.033519
0.088973 0.022862 -0.028550
0.072108 0.010823 -0.030386
0.091416 0.019862 -0.025871
0.073428 0.010763 -0.024210
0.093095 0.015590 -0.025116
0.083673 0.013173 -0.022750
0.073386 0.020420 -0.033081
0.079359 0.022228 -0.033181
0.085354 0.022770 -0.031571
0.073596 0.015894 -0.033476
0.086066 0.022737 -0.028234
0.074530 0.011357 -0.030510
0.087902 0.020408 -0.025663
0.075694 0.011304 -0.025057
0.089025 0.016687 -0.024630
0.082688 0.013889 -0.023184
0.080265 0.018805 -0.028797
0.013754 -0.000202 0.025727
0.011647 0.006712 0.024448
0.026402 0.015307 0.017468
0.036801 0.011301 0.018299
0.034351 0.018162 0.014987
0.014843 -0.009839 0.017031
0.013681 -0.009512 0.010952
0.023393 -0.007910 0.016538
0.024253 -0.008781 0.020068
0.116349 0.036186 0.018171
0.116783 0.033061 0.019936
0.116588 0.033060 0.016669
0.116689 0.033060 0.016524
0.050994 0.010968 -0.005655
0.052469 0.010478 0.001956
0.043857 0.008331 0.001760
0.107866 0.008077 0.027537
0.112909 0.008070 0.029504
0.107057 0.008080 0.033391
0.115930 0.028686 0.015136
0.112561 0.033068 0.021188
0.086454 0.024086 -0.008845
0.086433 0.017636 -0.008966
0.086119 0.017320 -0.014313
0.086047 0.025530 -0.011159
0.111403 0.033069 0.018219
0.001215 -0.002894 0.002425
-0.001094 0.002605 -0.002182
0.007818 0.000287 -0.007181
0.059276 0.015652 -0.020451
0.059094 0.018403 -0.021487
0.119027 0.023682 0.019793
0.116171 0.023686 0.016553
0.116688 0.028687 0.022681
0.118998 0.023683 0.024305
0.115130 0.023690 0.027207
0.035830 0.004822 0.002795
0.030199 0.001370 0.017496
0.105310 0.033998 0.007926
0.105032 0.030973 0.006299
0.099972 0.031179 0.007307
-0.004961 0.019645 0.002182
0.000914 0.029905 -0.000632
0.000774 0.028380 -0.003779
-0.005386 0.018339 -0.002249
0.107732 0.033076 0.022229
0.109401 0.028699 0.024537
0.108715 0.023701 0.027895
0.111926 0.023696 0.028471
0.088960 0.019948 -0.003274
0.089122 0.026198 -0.002351
0.093628 0.026198 -0.007397
0.094652 0.019948 -0.007704
0.040465 0.012958 -0.010334
0.031641 0.010213 -0.012649
0.106135 0.016191 0.012737
0.105717 0.016329 0.010297
0.105914 0.021829 0.011450
0.084746 0.022327 -0.018534
0.084155 0.016418 -0.021884
0.077373 0.018042 -0.024710
0.077857 0.023770 -0.021967
0.053657 0.034838 -0.005679
0.052701 0.034021 -0.012365
0.045452 0.030567 -0.006834
0.046747 0.030350 0.000172
-0.007385 0.004887 0.004639
-0.005792 0.002438 0.009880
0.079619 0.026522 -0.011974
0.078695 0.026116 -0.017214
0.072323 0.029319 -0.017723
0.073623 0.029364 -0.010351
0.116797 0.017439 0.030594
0.108235 0.017451 0.028106
0.087509 0.031823 -0.004667
0.094692 0.031823 -0.008917
0.085014 0.010554 -0.017010
0.083865 0.013802 -0.023529
0.111465 0.011198 0.033884
0.100874 0.028712 0.025850
0.096608 0.023719 0.027618
0.097922 0.023718 0.029671
0.104640 0.028707 0.026328
0.103777 0.023707 0.022927
0.107449 0.023700 0.018916
0.107041 0.017451 0.021336
-0.007966 0.008535 0.006963
-0.005553 0.003581 0.013011
0.000369 0.010554 0.018377
-0.002030 0.016106 0.013341
0.034757 0.035988 -0.007171
0.035031 0.037621 -0.003092
0.082961 0.019948 -0.002024
0.079919 0.019948 0.000161
0.080835 0.026198 -0.002919
0.084279 0.026198 -0.003908
0.120489 0.017433 0.028865
0.118004 0.011186 0.028859
0.085273 0.025710 -0.015546
0.057503 0.032442 0.012428
0.064011 0.030976 0.008106
0.063056 0.032991 0.005801
0.055299 0.034130 0.002536
0.081336 0.023921 0.011113
0.083737 0.022344 0.017580
0.082049 0.018570 0.018366
0.002472 -0.005398 0.005694
0.012405 -0.007715 0.006482
0.094802 0.017471 0.025714
0.101018 0.017464 0.032171
0.020443 0.035342 0.014584
0.030129 0.035148 0.017255
0.027691 0.039122 0.009561
0.019300 0.037247 0.011041
0.040567 0.034572 0.023601
0.051378 0.029751 0.025503
0.047277 0.040313 0.018547
0.096222 0.017470 0.024766
0.099169 0.017465 0.025643
0.118957 0.011184 0.024185
0.111769 0.008070 0.026277
0.106807 0.011201 0.019346
0.102447 0.011209 0.023415
0.114399 0.011189 0.017055
0.120452 0.017430 0.019288
0.103420 0.011211 0.035048
-0.004554 0.001729 0.015819
0.004765 -0.007630 0.015254
0.003472 0.001299 0.021701
0.097395 0.011220 0.035793
0.102459 0.008087 0.035027
0.098458 0.008093 0.033575
0.118009 0.017433 0.016229
0.025198 0.000335 -0.012466
0.098489 0.026198 -0.008254
0.098523 0.019948 -0.008068
0.059485 0.027434 0.015950
0.059073 0.026944 0.012849
0.058934 0.030101 0.016935
0.101225 0.008087 0.027311
0.025655 0.033351 -0.010896
0.034814 0.034083 -0.009781
0.027698 0.023714 -0.014176
0.077204 0.015958 0.028212
0.080614 0.017929 0.034208
0.082470 0.021928 0.033342
0.080640 0.021988 0.026609
0.105722 0.006518 0.030516
0.098963 0.008091 0.029234
0.077629 0.026843 0.005256
0.078643 0.028927 0.004784
0.085398 0.029165 0.009219
0.100657 0.023754 0.011305
0.100588 0.019355 0.010898
0.044293 0.013993 0.012980
0.043691 0.016279 0.013087
0.043857 0.012686 0.008488
0.037155 0.007164 0.013921
0.059527 0.022098 0.007946
0.051332 0.021530 0.012563
0.052417 0.015650 0.009643
0.106320 0.025885 0.013821
0.106797 0.020935 0.016599
0.097424 0.031823 0.005135
0.099361 0.031823 0.001367
0.089155 0.032448 -0.000007
0.092108 0.031823 0.005946
0.106088 0.033242 0.012466
0.105240 0.027948 0.007519
0.051969 0.027138 0.024827
0.051788 0.024905 0.020354
0.083497 0.027774 0.038553
0.082447 0.028790 0.033352
0.101203 0.019767 0.014489
0.099623 0.032898 0.005274
0.089665 0.021275 0.029987
0.091333 0.022005 0.034899
0.057019 0.018069 -0.012491
0.059597 0.011590 -0.007869
0.058739 0.011590 -0.012732
0.079705 0.013659 0.027046
0.084192 0.014565 0.032539
0.102063 0.035785 0.019504
0.102343 0.031729 0.021130
0.106889 0.032485 0.017142
0.060563 0.011321 -0.022060
0.061240 0.012719 -0.018221
0.061380 0.016599 -0.017429
0.101680 0.024510 0.017267
0.075606 0.032500 0.021372
0.076869 0.026935 0.020782
0.081694 0.028797 0.026118
0.079859 0.036047 0.026974
0.094971 0.032073 0.008651
0.081305 0.026198 0.004423
0.081891 0.031823 0.006667
0.077033 0.031823 0.005748
0.078517 0.026198 0.004090
0.080962 0.031823 -0.004718
0.066734 0.025530 -0.013786
0.067808 0.022011 -0.007692
0.074686 0.025349 -0.004318
0.094646 0.037367 0.006754
0.091068 0.033648 0.035021
0.083883 0.031319 0.038372
0.094428 0.028315 0.033456
0.096830 0.032623 0.019495
0.102458 0.028842 0.021807
0.090191 0.017979 0.011285
0.025696 0.038414 -0.002844
0.025247 0.037815 -0.006318
0.089413 0.031867 0.006744
0.094600 0.034135 0.006483
0.096423 0.027055 0.017121
0.090517 0.027948 0.013182
0.096121 0.022310 0.015361
0.049123 0.040803 0.029771
0.047303 0.042109 0.021461
0.089367 0.034892 0.006474
0.090923 0.035442 0.015554
0.096633 0.036061 0.018342
0.083869 0.039717 0.025104
0.085705 0.037407 0.031833
0.089105 0.037192 0.030249
0.088060 0.039955 0.023149
0.107296 0.027055 0.019513
0.090818 0.021279 0.014944
0.065885 0.026116 -0.018600
0.065530 0.019485 -0.020611
0.091400 0.031454 0.018332
0.066465 0.012042 -0.015310
0.078178 0.031823 -0.000357
0.061480 0.028145 -0.010613
0.061771 0.029343 -0.007111
0.084975 0.031823 0.004727
0.097349 0.031823 -0.003927
0.109163 0.028697 0.016711
0.086788 0.012539 -0.006955
0.085950 0.009607 -0.011708
-0.008845 0.009352 0.003246
0.072946 0.010554 -0.014191
0.065788 0.010554 -0.019148
0.071860 0.010374 -0.020345
0.080564 0.033116 0.034230
0.084954 0.026198 0.005683
0.090187 0.026198 0.003683
0.086406 0.038271 0.016335
0.089021 0.035242 0.015116
0.085895 0.033273 0.008988
0.008239 0.033522 -0.005478
0.009770 0.024593 -0.010570
0.001943 0.019506 -0.010841
0.004183 0.027182 0.013706
0.012109 0.031888 0.013958
0.010963 0.033685 0.010226
0.002672 0.029905 0.009340
0.088156 0.013698 -0.002433
0.085097 0.013698 -0.003227
0.086110 0.019948 -0.004675
0.035187 0.005041 -0.000519
0.078115 0.008614 -0.020505
0.079253 0.009607 -0.014046
0.044551 0.011870 0.011157
0.037652 0.007545 0.017324
0.083663 0.019948 0.003753
0.096563 0.026198 0.003129
0.089368 0.020046 0.022539
0.086889 0.016494 0.023695
0.004266 0.011775 -0.009599
0.003186 0.014715 -0.011186
0.011349 0.017787 -0.012118
0.013006 0.012125 -0.011458
0.046958 0.019515 -0.015350
0.055374 0.022697 -0.014677
0.048851 0.015922 -0.010163
0.081700 0.013698 0.001624
0.079727 0.019948 0.003748
0.084361 0.013698 0.003757
0.021741 0.014054 -0.010903
0.087691 0.013698 0.002852
0.089600 0.013698 0.000358
0.089741 0.019948 0.001158
0.088540 0.012135 -0.000977
0.092194 0.027808 0.028807
0.090874 0.032529 0.029422
0.060595 0.020748 -0.021877
0.080028 0.026198 0.000778
0.105765 0.028703 0.020482
0.029073 0.017726 -0.015624
0.037966 0.017695 -0.017193
-0.008750 0.008045 0.001771
0.077460 0.009968 -0.024221
0.071119 0.012810 -0.024549
0.071603 0.028958 -0.021807
0.071259 0.025168 -0.023758
0.053537 0.027434 -0.017781
0.053027 0.030482 -0.015977
0.071044 0.018223 -0.024975
0.068270 0.009968 -0.005073
0.068506 0.016102 -0.003732
0.067411 0.009878 -0.009948
0.052520 0.012384 0.005183
0.074547 0.014253 -0.005112
0.074826 0.022327 -0.003527
0.057997 0.013333 -0.014252
0.091574 0.039122 0.021511
0.060414 0.030051 -0.013725
0.060959 0.028309 -0.013313
0.065112 0.009968 -0.022987
0.060028 0.032991 -0.011372
0.052572 0.033313 -0.014184
0.016899 0.035777 -0.004846
0.017396 0.031422 -0.008743
0.077373 0.013306 -0.024710
0.074439 0.008118 -0.005721
0.074901 0.009878 -0.003100
0.014986 -0.006517 0.022971
0.024313 -0.005678 0.025198
0.006332 0.006168 -0.006536
0.018936 0.024399 -0.010853
0.085251 0.025755 -0.015669
0.093626 0.013698 -0.000922
0.073887 0.027675 0.007001
0.105586 0.023706 0.029589
0.062657 0.033337 -0.008916
0.064369 0.033881 0.001634
0.062797 0.030268 0.000134
0.080790 0.023500 -0.005332
0.080919 0.021335 -0.004601
0.089438 0.028549 0.014921
0.091952 0.027086 0.021334
0.080479 0.007938 -0.007100
0.080951 0.006855 -0.004418
0.083833 0.010193 -0.023713
0.081059 0.008028 -0.003809
0.086551 0.009607 -0.008296
0.082764 0.013107 0.025619
0.086966 0.015192 0.031245
0.073661 0.033234 0.014692
0.079051 0.035491 0.019766
0.093283 0.013698 -0.003591
0.045631 0.021421 -0.019941
0.075197 0.028525 0.004493
0.060071 0.015673 0.001123
0.083841 0.035713 0.032703
0.097298 0.031823 -0.008170
0.008739 0.014443 0.019884
0.005860 0.022718 0.016330
0.080192 0.038243 0.026818
0.092048 0.032599 0.021289
0.080790 0.014253 -0.005332
0.063076 0.036114 -0.002263
0.060658 0.037020 -0.001583
-0.004306 0.012187 -0.005613
0.082448 0.035952 0.018182
0.065459 0.025695 0.008168
0.071004 0.031538 0.015931
0.071635 0.028784 0.015638
0.069802 0.029969 0.008906
0.006055 -0.008774 0.020801
0.053788 0.037178 -0.001324
-0.009800 0.006447 0.006334
0.017004 0.037356 -0.001818
-0.005200 0.015944 -0.004885
0.031377 0.031118 0.018114
0.005396 -0.005126 0.022695
0.016285 0.018822 0.017475
0.027299 0.038306 0.006077
0.021798 0.030986 0.015550
0.043874 0.033181 -0.011761
0.048252 0.043035 0.028275
0.060101 0.036748 -0.005165
0.065738 0.024062 0.007231
0.064097 0.028635 0.004982
4 0 1 2 3
3 4 5 6
4 7 8 9 5
4 5 9 10 6
4 11 12 8 7
4 13 14 15 16
3 4 17 18
3 4 18 19
4 20 21 22 23
3 4 24 11
4 6 10 25 26
4 8 27 28 9
4 9 28 29 10
4 12 30 27 8
4 10 29 31 25
4 24 32 12 11
4 32 33 30 12
4 26 25 34 17
4 17 34 35 18
4 18 35 36 19
4 19 36 37 38
4 38 37 32 24
4 25 31 39 34
4 27 40 41 28
4 28 41 42 29
4 30 43 40 27
4 29 42 44 31
4 33 45 43 30
4 31 44 46 39
4 37 47 33 32
4 47 48 45 33
4 34 39 49 35
4 35 49 50 36
4 36 50 47 37
4 39 46 51 49
4 40 52 53 41
4 41 53 54 42
4 43 55 52 40
4 42 54 56 44
4 45 57 55 43
4 44 56 58 46
4 48 59 57 45
4 46 58 60 51
4 50 61 48 47
4 61 62 59 48
4 49 51 61 50
4 51 60 62 61
4 52 63 64 53
4 53 64 65 54
4 55 66 63 52
4 54 65 67 56
4 57 68 66 55
4 56 67 69 58
4 59 70 68 57
4 58 69 71 60
4 62 72 70 59
4 60 71 72 62
4 63 73 74 64
4 64 74 75 65
4 66 76 73 63
4 65 75 77 67
4 68 78 76 66
4 67 77 79 69
4 70 80 78 68
4 69 79 81 71
4 72 82 80 70
4 71 81 82 72
4 73 83 84 74
4 74 84 85 75
4 76 86 83 73
4 75 85 87 77
4 78 88 86 76
4 77 87 89 79
4 80 90 88 78
4 79 89 91 81
4 82 92 90 80
4 81 91 92 82
4 83 93 94 84
4 84 94 95 85
4 86 96 93 83
4 85 95 97 87
4 88 98 96 86
4 87 97 99 89
4 90 100 98 88
4 89 99 101 91
4 92 102 100 90
4 91 101 102 92
4 93 103 104 94
4 94 104 105 95
4 96 106 103 93
4 95 105 107 97
4 98 108 106 96
4 97 107 109 99
4 100 110 108 98
4 99 109 111 101
4 102 112 110 100
4 101 111 112 102
4 103 113 114 104
4 104 114 115 105
4 106 116 113 103
4 105 115 117 107
4 108 118 116 106
4 107 117 119 109
4 110 120 118 108
4 109 119 121 111
4 112 122 120 110
4 111 121 122 112
3 113 116 114
3 114 123 115
4 124 125 126 127
3 115 123 117
4 128 129 130 131
3 117 123 119
4 132 133 134 135
3 119 123 121
3 121 123 122
4 26 17 4 6
3 136 137 138
4 139 140 141 137
4 137 141 142 138
4 143 144 140 139
3 136 138 145
3 136 145 146
3 136 146 147
3 136 147 148
4 149 150 151 152
3 136 153 143
4 138 142 154 145
4 140 155 156 141
4 141 156 157 142
4 144 158 155 140
4 142 157 159 154
4 153 160 144 143
4 160 161 158 144
4 145 154 162 146
4 146 162 163 147
4 147 163 164 148
4 148 164 165 166
4 166 165 160 153
4 154 159 167 162
4 155 168 169 156
4 156 169 170 157
4 158 171 168 155
4 157 170 172 159
4 161 173 171 158
4 159 172 174 167
4 165 175 161 160
4 175 176 173 161
4 162 167 177 163
4 163 177 178 164
4 164 178 175 165
4 167 174 179 177
4 168 180 181 169
4 169 181 182 170
4 171 183 180 168
4 170 182 184 172
4 173 185 183 171
4 172 184 186 174
4 176 187 185 173
4 174 186 188 179
4 178 189 176 175
4 189 190 187 176
4 177 179 189 178
4 179 188 190 189
4 180 191 192 181
4 181 192 193 182
4 183 194 191 180
4 182 193 195 184
4 185 196 194 183
4 184 195 197 186
4 187 198 196 185
4 186 197 199 188
4 190 200 198 187
4 188 199 200 190
4 191 201 202 192
4 192 202 203 193
4 194 204 201 191
4 193 203 205 195
4 196 206 204 194
4 195 205 207 197
4 198 208 206 196
4 197 207 209 199
4 200 210 208 198
4 199 209 210 200
4 201 211 212 202
4 202 212 213 203
4 204 214 211 201
4 203 213 215 205
4 206 216 214 204
4 205 215 217 207
4 208 218 216 206
4 207 217 219 209
4 210 220 218 208
4 209 219 220 210
4 211 221 222 212
4 212 222 223 213
4 214 224 221 211
4 213 223 225 215
4 216 226 224 214
4 215 225 227 217
4 218 228 226 216
4 217 227 229 219
4 220 230 228 218
4 219 229 230 220
4 221 231 232 222
4 222 232 233 223
4 224 234 231 221
4 223 233 235 225
4 226 236 234 224
4 225 235 237 227
4 228 238 236 226
4 227 237 239 229
4 230 240 238 228
4 229 239 240 230
4 231 241 242 232
4 232 242 243 233
4 234 244 241 231
4 233 243 245 235
4 236 246 244 234
4 235 245 247 237
4 238 248 246 236
4 237 247 249 239
4 240 250 248 238
4 239 249 250 240
3 241 251 242
4 252 253 254 255
3 244 251 241
4 256 257 258 259
3 245 251 247
3 247 251 249
3 250 251 248
3 249 251 250
3 260 261 262
3 260 262 263
4 261 264 265 262
4 262 265 266 263
3 260 267 261
4 267 268 264 261
3 260 263 269
3 260 269 270
3 260 270 271
3 260 271 272
3 273 274 272
4 275 276 277 278
4 279 280 281 282
4 263 266 283 269
4 264 284 285 265
4 265 285 286 266
4 268 287 284 264
4 266 286 288 283
4 274 289 268 267
4 289 290 287 268
4 269 283 291 270
4 270 291 292 271
4 271 292 293 272
4 272 293 294 273
4 273 294 289 274
4 283 288 295 291
4 284 296 297 285
4 285 297 298 286
4 287 299 296 284
4 286 298 300 288
4 290 301 299 287
4 288 300 302 295
4 294 303 290 289
4 303 304 301 290
4 291 295 305 292
4 292 305 306 293
4 293 306 303 294
4 295 302 307 305
4 296 308 309 297
4 297 309 310 298
4 299 311 308 296
4 298 310 312 300
4 301 313 311 299
4 300 312 314 302
4 304 315 313 301
4 302 314 316 307
4 306 317 304 303
4 317 318 315 304
4 305 307 317 306
4 307 316 318 317
4 308 319 320 309
4 309 320 321 310
4 311 322 319 308
4 310 321 323 312
4 313 324 322 311
4 312 323 325 314
4 315 326 324 313
4 314 325 327 316
4 318 328 326 315
4 316 327 328 318
4 319 329 330 320
4 320 330 331 321
4 322 332 329 319
4 321 331 333 323
4 324 334 332 322
4 323 333 335 325
4 326 336 334 324
4 325 335 337 327
4 328 338 336 326
4 327 337 338 328
4 329 339 340 330
4 330 340 341 331
4 332 342 339 329
4 331 341 343 333
4 334 344 342 332
4 333 343 345 335
4 336 346 344 334
4 335 345 347 337
4 338 348 346 336
4 337 347 348 338
4 339 349 350 340
4 340 350 351 341
4 342 352 349 339
4 341 351 353 343
4 344 354 352 342
4 343 353 355 345
4 346 356 354 344
4 345 355 357 347
4 348 358 356 346
4 347 357 358 348
4 349 359 360 350
4 350 360 361 351
4 352 362 359 349
4 351 361 363 353
4 354 364 362 352
4 353 363 365 355
4 356 366 364 354
4 355 365 367 357
4 358 368 366 356
4 357 367 368 358
4 359 369 370 360
4 360 370 371 361
4 362 372 369 359
4 361 371 373 363
4 364 374 372 362
4 363 373 375 365
4 366 376 374 364
4 365 375 377 367
4 368 378 376 366
4 367 377 378 368
4 379 380 381 382
3 370 383 371
3 371 383 373
3 374 383 372
3 373 383 375
3 376 383 374
4 384 385 386 387
3 378 383 376
4 388 252 389 390
3 391 392 393
4 394 395 396 392
4 392 396 397 393
4 398 399 395 394
4 400 401 402 403
3 391 404 405
3 391 405 406
3 391 406 407
3 391 407 408
3 391 408 398
4 393 397 409 410
4 395 411 412 396
4 396 412 413 397
4 399 414 411 395
4 397 413 415 409
4 408 416 399 398
4 416 417 414 399
4 410 409 418 404
4 404 418 419 405
4 405 419 420 406
4 406 420 421 407
4 407 421 416 408
4 409 415 422 418
4 411 423 424 412
4 412 424 425 413
4 414 426 423 411
4 413 425 427 415
4 417 428 426 414
4 415 427 429 422
4 421 430 417 416
4 430 431 428 417
4 418 422 432 419
4 419 432 433 420
4 420 433 430 421
4 422 429 434 432
4 423 435 436 424
4 424 436 437 425
4 426 438 435 423
4 425 437 439 427
4 428 440 438 426
4 427 439 441 429
4 431 442 440 428
4 429 441 443 434
4 433 444 431 430
4 444 445 442 431
4 432 434 444 433
4 434 443 445 444
4 435 446 447 436
4 436 447 448 437
4 438 449 446 435
4 437 448 450 439
4 440 451 449 438
4 439 450 452 441
4 442 453 451 440
4 441 452 454 443
4 445 455 453 442
4 443 454 455 445
4 446 456 457 447
4 447 457 458 448
4 449 459 456 446
4 448 458 460 450
4 451 461 459 449
4 450 460 462 452
4 453 463 461 451
4 452 462 464 454
4 455 465 463 453
4 454 464 465 455
4 456 466 467 457
4 457 467 468 458
4 459 469 466 456
4 458 468 470 460
4 461 471 469 459
4 460 470 472 462
4 463 473 471 461
4 462 472 474 464
4 465 475 473 463
4 464 474 475 465
4 466 476 477 467
4 467 477 478 468
4 469 479 476 466
4 468 478 480 470
4 471 481 479 469
4 470 480 482 472
4 473 483 481 471
4 472 482 484 474
4 475 485 483 473
4 474 484 485 475
4 476 486 487 477
4 477 487 488 478
4 479 489 486 476
4 478 488 490 480
4 481 491 489 479
4 480 490 492 482
4 483 493 491 481
4 482 492 494 484
4 485 495 493 483
4 484 494 495 485
4 486 496 497 487
4 487 497 498 488
4 489 499 496 486
4 488 498 500 490
4 491 501 499 489
4 490 500 502 492
4 493 503 501 491
4 492 502 504 494
4 495 505 503 493
4 494 504 505 495
3 496 506 497
3 497 506 498
3 499 506 496
3 498 506 500
3 500 506 502
3 503 505 501
3 502 506 504
4 507 508 509 510
3 504 506 505
3 511 512 513
4 514 515 516 512
4 512 516 517 513
3 518 2 1
4 519 520 515 514
3 511 513 521
3 511 521 522
3 511 522 523
3 511 523 524
4 525 133 132 526
3 511 527 519
4 513 517 528 521
4 515 529 530 516
4 516 530 531 517
4 520 532 529 515
4 517 531 533 528
4 527 534 520 519
4 534 535 532 520
4 521 528 536 522
4 522 536 537 523
4 523 537 538 524
4 524 538 539 540
4 540 539 534 527
4 528 533 541 536
4 529 542 543 530
4 530 543 544 531
4 532 545 542 529
4 531 544 546 533
4 535 547 545 532
4 533 546 548 541
4 539 549 535 534
4 549 550 547 535
4 536 541 551 537
4 537 551 552 538
4 538 552 549 539
4 541 548 553 551
4 542 554 555 543
4 543 555 556 544
4 545 557 554 542
4 544 556 558 546
4 547 559 557 545
4 546 558 560 548
4 550 561 559 547
4 548 560 562 553
4 552 563 550 549
4 563 564 561 550
4 551 553 563 552
4 553 562 564 563
4 554 565 566 555
4 555 566 567 556
4 557 568 565 554
4 556 567 569 558
4 559 570 568 557
4 558 569 571 560
4 561 572 570 559
4 560 571 573 562
4 564 574 572 561
4 562 573 574 564
4 565 575 576 566
4 566 576 577 567
4 568 578 575 565
4 567 577 579 569
4 570 580 578 568
4 569 579 581 571
4 572 582 580 570
4 571 581 583 573
4 574 584 582 572
4 573 583 584 574
4 575 585 586 576
4 576 586 587 577
4 578 588 585 575
4 577 587 589 579
4 580 590 588 578
4 579 589 591 581
4 582 592 590 580
4 581 591 593 583
4 584 594 592 582
4 583 593 594 584
4 585 595 596 586
4 586 596 597 587
4 588 598 595 585
4 587 597 599 589
4 590 600 598 588
4 589 599 601 591
4 592 602 600 590
4 591 601 603 593
4 594 604 602 592
4 593 603 604 594
4 595 605 606 596
4 596 606 607 597
4 598 608 605 595
4 597 607 609 599
4 600 610 608 598
4 599 609 611 601
4 602 612 610 600
4 601 611 613 603
4 604 614 612 602
4 603 613 614 604
4 605 615 616 606
4 606 616 617 607
4 608 618 615 605
4 607 617 619 609
4 610 620 618 608
4 609 619 621 611
4 612 622 620 610
4 611 621 623 613
4 614 624 622 612
4 613 623 624 614
3 615 625 616
4 626 20 23 627
3 618 625 615
3 620 625 618
4 628 22 629 630
4 631 632 633 634
3 635 636 637
3 635 637 638
4 135 639 640 641
3 642 643 644
3 638 637 645
3 635 646 636
4 647 648 649 650
3 635 651 646
4 652 653 654 1
3 635 638 651
3 655 656 150
3 657 658 659
3 659 660 657
3 659 661 660
4 3 526 662 663
3 664 665 666
4 667 668 669 670
3 646 671 672
3 672 673 674
4 675 676 677 678
4 679 134 133 680
3 681 682 683
4 684 685 686 687
4 688 689 690 691
4 692 653 652 693
4 694 695 696 697
3 661 674 698
3 645 637 636
4 260 272 274 267
3 673 699 674
4 677 676 700 701
4 649 702 703 685
4 698 674 699 704
3 705 706 707
3 705 708 709
3 709 710 711
4 712 713 714 715
4 716 717 691 690
4 718 719 720 721
3 722 698 723
4 684 687 695 724
4 725 726 727 728
4 129 729 730 731
4 732 652 0 733
4 124 707 706 734
3 124 127 735
4 736 737 738 739
3 740 741 742
3 743 706 744
4 745 723 643 746
3 711 747 748
3 749 745 746
4 660 722 750 657
3 704 751 644
3 747 642 748
3 752 753 754
3 127 126 755
3 751 756 644
3 751 755 756
3 755 757 756
3 755 126 757
4 758 711 710 658
4 711 748 744 709
4 2 518 759 525
4 678 677 760 761
4 762 763 725 764
3 744 748 380
3 380 748 765
4 766 767 278 768
4 769 770 771 772
4 410 404 391 393
3 773 642 644
3 644 756 773
3 380 765 774
4 775 776 777 729
4 510 509 778 779
3 757 774 756
3 381 380 125
4 722 723 745 750
4 625 624 621 619
4 630 629 780 781
4 782 783 662 641
4 784 763 785 786
3 683 787 788
3 683 778 787
4 789 790 791 792
3 793 787 794
4 795 254 253 796
3 16 797 798
3 693 713 712
4 738 737 252 388
4 402 761 760 403
3 681 683 799
3 800 664 666
4 661 698 722 660
3 387 664 800
3 801 802 14
3 803 804 805
4 806 807 770 769
3 808 809 810
4 749 746 642 747
4 811 812 813 655
3 814 799 788
4 780 786 785 781
4 815 816 817 818
3 509 819 666
4 386 808 810 793
4 820 821 822 823
4 721 720 824 700
4 697 825 826 827
3 828 384 387
4 829 830 15 831
3 717 390 691
3 832 833 809
4 136 143 139 137
3 834 507 510
4 835 717 716 836
4 735 127 755 751
3 837 838 819
3 839 840 841
3 842 740 843
4 655 150 149 811
3 844 384 828
3 844 845 384
3 845 385 384
3 845 846 385
4 847 848 849 850
4 814 787 851 833
3 834 852 507
4 734 381 125 124
4 743 744 380 379
3 840 837 508
3 853 854 825
3 840 855 845
3 729 129 128
3 813 812 856
3 700 824 791
3 822 821 857
3 693 752 713
3 803 858 859
3 860 792 791
4 385 846 808 386
3 790 861 791
4 658 710 862 645
4 763 762 796 785
3 380 774 125
4 863 864 649 648
3 676 721 700
4 682 779 778 683
4 712 715 667 865
4 866 856 867 868
4 818 817 798 869
3 820 870 821
3 870 860 821
3 870 871 860
3 871 792 860
4 258 872 873 874
4 669 875 876 877
4 878 879 880 881
4 882 883 884 675
4 885 135 641 662
4 886 887 866 868
3 884 718 721
3 782 888 783
4 21 663 783 889
3 840 852 841
4 715 878 881 667
3 890 870 820
4 852 840 508 507
3 401 400 891
4 730 892 893 731
3 761 402 678
3 826 813 856
4 894 895 896 897
4 518 1 654 281
4 758 749 747 711
3 743 734 706
4 898 899 803 900
3 883 718 884
4 765 748 642 773
3 901 902 719
3 903 890 901
4 817 772 771 798
4 904 279 282 897
3 905 906 907
4 799 779 682 681
3 908 883 882
3 908 906 905
3 906 908 882
4 909 910 829 831
3 883 908 905
3 911 150 656
3 813 911 656
3 719 912 720
3 813 656 655
3 911 813 854
3 671 913 672
3 826 825 813
4 22 21 889 629
4 632 733 3 633
4 710 709 913 862
4 914 277 915 680
3 653 692 916
4 917 886 868 918
4 400 790 789 891
3 696 919 853
3 919 920 853
4 921 276 275 922
4 839 814 833 832
3 923 151 854
4 704 643 723 698
4 846 832 809 808
3 857 821 860
3 924 925 926
3 927 786 782
3 928 925 924
3 928 929 925
4 900 930 805 639
3 856 812 867
4 793 794 665 664
4 872 850 931 873
4 899 921 932 933
3 868 867 934
4 636 646 672 659
3 687 920 919
4 935 932 922 936
4 937 836 766 938
4 819 838 800 666
4 879 736 739 880
4 836 716 767 766
4 685 703 939 686
3 866 926 856
4 511 519 514 512
3 940 941 924
3 941 928 924
3 708 913 709
4 942 631 634 943
3 939 917 918
4 654 944 282 281
4 686 923 920 687
4 876 938 945 896
3 724 695 694
3 650 946 694
3 946 724 694
4 906 947 401 907
4 729 128 948 775
4 707 124 735 949
4 859 950 951 952
3 647 953 954
4 892 730 955 956
3 854 813 825
3 957 958 940
4 702 887 886 959
3 958 957 960
3 961 863 960
4 806 962 963 807
3 959 886 917
4 964 815 965 257
3 649 684 724
3 649 685 684
3 649 724 946
4 402 401 947 966
3 649 946 650
4 668 881 880 875
3 961 864 863
3 702 864 887
4 251 245 243 242
4 957 940 866 887
4 875 937 938 876
4 967 921 899 898
3 649 864 702
4 776 775 968 259
3 802 831 15
3 830 797 15
3 797 16 15
4 540 527 511 524
3 14 802 15
4 640 639 804 969
3 910 849 829
3 849 848 829
3 848 970 829
4 760 677 701 971
3 963 801 14
3 130 806 769
4 855 832 846 845
4 795 741 740 254
4 625 619 617 616
4 810 851 787 793
3 785 796 253
3 14 13 771
3 14 771 963
4 826 856 926 925
4 838 828 387 800
3 931 850 849
4 714 972 973 715
4 902 890 820 823
4 801 892 956 909
4 934 811 149 152
3 962 893 963
4 791 861 701 700
3 974 818 970
3 818 869 970
4 259 258 874 776
4 709 744 706 705
4 939 918 923 686
4 920 923 854 853
3 873 931 975
4 798 797 830 869
4 809 833 851 810
4 387 386 793 664
3 731 893 962
4 953 694 697 827
3 913 708 672
4 732 733 632 753
3 965 818 974
3 965 815 818
4 960 976 928 941
4 931 849 910 975
3 131 130 772
3 951 977 978
3 130 769 772
4 894 944 653 979
4 780 629 783 888
3 258 980 872
4 726 725 763 981
4 672 674 661 659
4 803 859 952 969
4 918 152 151 923
4 403 760 971 861
4 945 904 897 896
3 964 982 815
4 518 281 280 759
3 983 128 816
4 969 784 786 927
3 776 874 777
4 976 954 929 928
4 382 734 743 379
4 122 123 118 120
4 893 892 801 963
3 984 982 964
4 753 632 631 985
4 638 645 862 651
4 730 729 777 955
3 984 983 982
4 2 525 526 3
3 968 256 259
3 968 775 948
3 968 948 256
4 951 978 986 728
3 987 712 865
3 916 692 865
4 880 739 988 875
3 865 667 670
3 865 670 989
3 987 693 712
4 980 847 850 872
4 252 990 630 253
4 988 835 836 937
3 987 692 693
4 877 895 979 989
3 979 653 916
3 767 716 690
4 766 768 945 938
3 667 881 668
4 130 731 962 806
4 400 403 861 790
3 713 752 714
4 830 829 970 869
3 753 985 991
3 715 973 878
4 868 934 152 918
4 697 696 853 825
3 702 959 703
4 956 975 910 909
3 693 652 732
4 750 745 749 758
3 948 984 256
3 979 895 894
3 683 788 799
3 669 668 875
4 807 963 771 770
4 390 986 688 691
4 23 628 992 627
4 719 902 823 912
4 988 739 993 835
4 992 994 879 973
3 878 973 879
4 256 984 964 257
3 973 972 992
3 972 627 992
3 985 631 942
4 508 837 819 509
4 695 687 919 696
4 958 960 941 940
3 652 1 0
4 669 877 989 670
3 653 944 654
4 995 275 278 767
4 993 388 717 835
4 255 740 842 996
3 875 988 937
4 773 756 774 765
4 997 935 689 688
4 383 378 377 375
4 906 882 966 947
4 750 758 658 657
4 950 858 932 935
4 672 708 949 673
4 123 114 116 118
3 879 994 736
4 248 251 244 246
4 863 648 976 960
4 864 961 957 887
3 733 0 3
4 981 763 784 998
3 129 731 130
4 754 627 972 714
4 986 978 997 688
4 991 985 942 626
3 932 921 922
4 994 990 737 736
4 995 936 922 275
4 854 151 150 911
4 965 974 847 980
4 628 990 994 992
3 739 738 993
4 501 505 506 499
3 23 22 628
3 943 21 20
4 841 510 779 799
3 634 633 663
4 883 905 903 901
3 628 630 990
4 877 876 896 895
3 633 3 663
4 907 871 870 890
4 882 675 678 966
4 401 891 871 907
3 128 131 816
4 943 634 663 21
3 279 904 680
3 904 914 680
4 857 860 791 824
4 720 912 857 824
4 725 728 390 389
4 989 979 916 865
3 993 738 388
4 257 965 980 258
4 708 705 707 949
3 814 788 787
3 663 662 783
4 912 823 822 857
3 737 990 252
4 900 639 134 679
3 740 255 254
4 929 827 826 925
3 630 781 253
4 693 732 753 752
3 889 783 629
3 526 885 662
3 526 132 885
4 38 24 4 19
3 525 759 133
3 778 794 787
3 280 279 680
4 927 782 641 640
3 680 915 679
4 839 841 799 814
3 995 767 690
4 837 844 828 838
4 648 647 954 976
4 901 719 718 883
3 717 388 390
4 841 852 834 510
3 651 671 646
3 753 991 754
3 642 746 643
3 382 381 734
4 812 811 934 867
4 953 647 650 694
4 954 953 827 929
3 255 996 843
4 897 282 944 894
4 742 741 764 725
4 940 924 926 866
4 891 789 792 871
3 890 902 901
3 781 785 253
3 402 966 678
4 801 909 831 802
3 780 888 786
3 885 132 135
4 905 907 890 903
4 703 959 917 939
4 754 991 626 627
3 915 967 898
4 768 914 904 945
3 995 689 936
4 847 974 970 848
4 699 735 751 704
4 372 383 370 369
4 984 948 128 983
3 390 728 986
4 166 153 136 148
4 983 816 815 982
4 658 645 636 659
3 742 725 389
3 704 644 643
4 252 255 843 742
3 276 921 967
3 996 842 843
3 888 782 786
3 950 935 997
4 816 131 772 817
3 861 971 701
3 843 740 742
3 741 795 764
3 764 795 796
3 762 764 796
4 679 915 898 900
3 252 742 389
4 391 398 394 392
4 942 943 20 626
4 651 862 913 671
3 135 134 639
4 884 721 676 675
3 900 803 930
3 692 987 865
4 276 967 915 277
3 936 689 935
3 665 794 666
4 759 280 680 133
4 4 11 7 5
3 727 951 728
4 855 840 839 832
3 803 899 858
3 899 933 858
4 874 873 955 777
3 999 951 727
3 927 640 969
4 774 757 126 125
4 666 794 778 509
3 957 961 960
3 969 998 784
3 752 754 714
3 969 999 998
3 969 952 999
4 768 278 277 914
3 804 803 969
3 639 805 804
3 930 803 805
4 955 873 975 956
3 977 950 997
3 997 978 977
4 840 845 844 837
3 689 995 690
3 726 999 727
4 16 798 771 13
3 859 858 950
3 933 932 858
4 624 625 620 622
3 981 999 726
3 998 999 981
4 949 735 699 673
3 999 952 951
3 624 623 621
