ply
format ascii 1.0
comment Created by Blender 3.2.1 - www.blender.org
element vertex 192
property float x
property float y
property float z
element face 196
property list uchar uint vertex_indices
end_header
-0.084864 0.058293 0.014170
-0.099401 0.059860 -0.000038
-0.104037 0.060791 0.000000
-0.084106 0.051937 0.015582
-0.099026 0.051022 -0.000055
-0.117604 0.061820 -0.041630
-0.124143 0.061804 -0.014642
-0.085085 0.058316 -0.014482
-0.091273 0.058984 -0.041845
-0.090631 0.058914 0.041630
-0.090466 0.055146 0.044285
-0.084349 0.051964 -0.015926
-0.123915 0.061779 0.014964
-0.110675 0.059631 0.000051
-0.128050 -0.066414 0.000000
-0.123910 -0.056117 0.001584
-0.127417 -0.053504 0.005757
-0.132750 -0.058049 0.004682
-0.082724 0.042920 0.017809
-0.094548 0.049241 -0.000094
-0.092648 0.038941 0.046938
-0.083001 0.042948 -0.018202
-0.116961 0.061751 0.041845
-0.118475 0.058164 0.044514
-0.122334 0.042139 0.047182
-0.091148 0.055219 -0.044514
-0.093371 0.039019 -0.047182
-0.127296 0.056302 0.016714
-0.115144 0.052181 0.000075
-0.127551 0.056329 -0.016353
-0.119158 0.058237 -0.044285
-0.082748 0.037441 0.018536
-0.090878 0.052451 -0.000118
-0.095522 0.024685 0.046380
-0.083036 0.037472 -0.018945
-0.124857 0.027846 0.046620
-0.096239 0.024762 -0.046620
-0.129273 0.044905 0.016582
-0.135979 0.034236 0.020083
-0.123060 0.042218 -0.046938
-0.125574 0.027922 -0.046380
-0.113253 0.045199 0.000050
-0.129524 0.044933 -0.016225
-0.083073 0.031636 0.019093
-0.085102 0.047501 -0.000171
-0.098377 0.017638 0.041770
-0.083370 0.031669 -0.019514
-0.124793 0.020483 0.041986
-0.099020 0.017707 -0.041986
-0.134895 0.026619 0.018202
-0.125440 0.020554 -0.041770
-0.126783 0.038437 0.000148
-0.126767 0.030791 0.000137
-0.136284 0.034268 -0.019649
-0.135170 0.026651 -0.017809
-0.079888 0.025236 0.022260
-0.069262 0.037142 -0.000314
-0.101189 0.014479 0.035065
-0.080234 0.025274 -0.022751
-0.123367 0.016869 0.035246
-0.101730 0.014539 -0.035246
-0.136254 0.019411 0.018202
-0.123908 0.016928 -0.035065
-0.135711 0.020506 0.000192
-0.136532 0.019441 -0.017809
-0.078858 0.020006 0.023715
-0.063874 0.035553 -0.000359
-0.103124 0.005458 0.034366
-0.079228 0.020046 -0.024239
-0.124858 0.007801 0.034543
-0.103655 0.005516 -0.034542
-0.140663 0.012531 0.020521
-0.125390 0.007857 -0.034366
-0.145017 0.016029 0.000261
-0.140974 0.012566 -0.020078
-0.081184 0.014921 0.022731
-0.064593 0.031738 -0.000359
-0.105417 -0.001072 0.031153
-0.081536 0.014958 -0.023234
-0.125122 0.001050 0.031314
-0.105899 -0.001021 -0.031314
-0.140908 0.006573 0.019864
-0.125602 0.001101 -0.031153
-0.147122 0.011065 0.000270
-0.141209 0.006605 -0.019436
-0.089455 0.010403 0.017380
-0.077713 0.026372 -0.000262
-0.108066 -0.004825 0.025286
-0.089726 0.010432 -0.017765
-0.124058 -0.003103 0.025417
-0.108454 -0.004782 -0.025417
-0.138019 0.002295 0.017108
-0.124449 -0.003061 -0.025286
-0.144839 0.006923 0.000246
-0.138279 0.002323 -0.016738
-0.095341 0.002168 0.014255
-0.092083 0.018258 -0.000160
-0.108882 -0.012813 0.027381
-0.095562 0.002193 -0.014570
-0.126199 -0.010948 0.027522
-0.109304 -0.012768 -0.027522
-0.142392 -0.005958 0.019207
-0.126622 -0.010902 -0.027381
-0.151291 -0.001755 0.000284
-0.142685 -0.005925 -0.018794
-0.101827 -0.005786 0.010659
-0.100269 0.011208 -0.000105
-0.112290 -0.021819 0.022212
-0.101992 -0.005769 -0.010894
-0.126339 -0.020307 0.022327
-0.112633 -0.021783 -0.022327
-0.141453 -0.013414 0.017458
-0.126682 -0.020270 -0.022211
-0.151850 -0.007030 0.000281
-0.141719 -0.013386 -0.017081
-0.108410 -0.012359 0.006807
-0.111435 0.006930 -0.000022
-0.114830 -0.030633 0.019558
-0.108517 -0.012348 -0.006957
-0.127201 -0.029299 0.019659
-0.115133 -0.030600 -0.019659
-0.139953 -0.020066 0.015401
-0.127502 -0.029267 -0.019558
-0.148566 -0.011279 0.000248
-0.140186 -0.020040 -0.015069
-0.115246 -0.020276 0.002954
-0.121152 -0.005147 0.000038
-0.117370 -0.034540 0.014110
-0.115292 -0.020271 -0.003019
-0.126293 -0.033580 0.014182
-0.117586 -0.034518 -0.014182
-0.139056 -0.025571 0.013957
-0.126512 -0.033555 -0.014110
-0.150654 -0.017686 0.000254
-0.139267 -0.025547 -0.013656
-0.121757 -0.025848 -0.000985
-0.129480 -0.014489 0.000090
-0.119925 -0.036573 0.007543
-0.121742 -0.025849 0.001006
-0.124695 -0.036059 0.007583
-0.120041 -0.036560 -0.007583
-0.139096 -0.031694 0.013126
-0.124811 -0.036046 -0.007543
-0.156497 -0.027010 0.000287
-0.139296 -0.031673 -0.012842
-0.124933 -0.038268 -0.001584
-0.135352 -0.032459 0.000110
-0.121068 -0.043372 0.007962
-0.124909 -0.038272 0.001619
-0.126106 -0.042829 0.008004
-0.121192 -0.043359 -0.008004
-0.137404 -0.037645 0.011026
-0.126227 -0.042815 -0.007962
-0.150058 -0.032317 0.000227
-0.137571 -0.037628 -0.010788
-0.121373 -0.041104 0.001370
-0.132776 -0.037352 0.000082
-0.119086 -0.043873 0.014250
-0.121393 -0.041101 -0.001400
-0.128098 -0.042901 0.014323
-0.119306 -0.043850 -0.014323
-0.139377 -0.042193 0.011857
-0.128318 -0.042879 -0.014250
-0.148050 -0.041762 0.000198
-0.139557 -0.042173 -0.011602
-0.122003 -0.046949 0.001712
-0.133053 -0.046551 0.000070
-0.119656 -0.046408 0.013970
-0.122029 -0.046945 -0.001750
-0.128492 -0.045456 0.014042
-0.119872 -0.046386 -0.014042
-0.139512 -0.048813 0.011026
-0.128707 -0.045435 -0.013970
-0.147593 -0.052483 0.000178
-0.139680 -0.048795 -0.010788
-0.123518 -0.050895 0.001156
-0.129912 -0.053091 0.000035
-0.121975 -0.048177 0.007962
-0.123537 -0.050892 -0.001182
-0.127012 -0.047634 0.008004
-0.122098 -0.048163 -0.008004
-0.133495 -0.051118 0.006213
-0.127134 -0.047622 -0.007962
-0.138255 -0.054788 0.000100
-0.133589 -0.051108 -0.006079
-0.127048 -0.058014 0.000004
-0.123794 -0.053894 0.005727
-0.123935 -0.056114 -0.001619
-0.123882 -0.053884 -0.005757
-0.127504 -0.053494 -0.005727
-0.136980 -0.062712 0.000077
-0.132820 -0.058041 -0.004580
3 0 1 2
4 0 3 4 1
4 5 6 7 8
4 9 10 3 0
3 1 7 2
4 1 4 11 7
3 0 2 12
3 13 12 2
3 6 13 2
3 2 7 6
4 14 15 16 17
4 3 18 19 4
4 10 20 18 3
4 4 19 21 11
4 22 23 10 9
4 23 24 20 10
4 7 11 25 8
4 11 21 26 25
4 12 27 23 22
4 13 28 27 12
4 6 29 28 13
4 5 30 29 6
4 8 25 30 5
4 18 31 32 19
4 20 33 31 18
4 19 32 34 21
4 24 35 33 20
4 21 34 36 26
4 27 37 24 23
4 37 38 35 24
4 25 26 39 30
4 26 36 40 39
4 28 41 37 27
4 29 42 41 28
4 30 39 42 29
4 31 43 44 32
4 33 45 43 31
4 32 44 46 34
4 35 47 45 33
4 34 46 48 36
4 38 49 47 35
4 36 48 50 40
4 41 51 38 37
4 51 52 49 38
4 39 40 53 42
4 40 50 54 53
4 42 53 51 41
4 43 55 56 44
4 45 57 55 43
4 44 56 58 46
4 47 59 57 45
4 46 58 60 48
4 49 61 59 47
4 48 60 62 50
4 52 63 61 49
4 50 62 64 54
4 53 54 52 51
4 54 64 63 52
4 55 65 66 56
4 57 67 65 55
4 56 66 68 58
4 59 69 67 57
4 58 68 70 60
4 61 71 69 59
4 60 70 72 62
4 63 73 71 61
4 62 72 74 64
4 64 74 73 63
4 65 75 76 66
4 67 77 75 65
4 66 76 78 68
4 69 79 77 67
4 68 78 80 70
4 71 81 79 69
4 70 80 82 72
4 73 83 81 71
4 72 82 84 74
4 74 84 83 73
4 75 85 86 76
4 77 87 85 75
4 76 86 88 78
4 79 89 87 77
4 78 88 90 80
4 81 91 89 79
4 80 90 92 82
4 83 93 91 81
4 82 92 94 84
4 84 94 93 83
4 85 95 96 86
4 87 97 95 85
4 86 96 98 88
4 89 99 97 87
4 88 98 100 90
4 91 101 99 89
4 90 100 102 92
4 93 103 101 91
4 92 102 104 94
4 94 104 103 93
4 95 105 106 96
4 97 107 105 95
4 96 106 108 98
4 99 109 107 97
4 98 108 110 100
4 101 111 109 99
4 100 110 112 102
4 103 113 111 101
4 102 112 114 104
4 104 114 113 103
4 105 115 116 106
4 107 117 115 105
4 106 116 118 108
4 109 119 117 107
4 108 118 120 110
4 111 121 119 109
4 110 120 122 112
4 113 123 121 111
4 112 122 124 114
4 114 124 123 113
4 115 125 126 116
4 117 127 125 115
4 116 126 128 118
4 119 129 127 117
4 118 128 130 120
4 121 131 129 119
4 120 130 132 122
4 123 133 131 121
4 122 132 134 124
4 124 134 133 123
4 125 135 136 126
4 127 137 135 125
4 126 136 138 128
4 129 139 137 127
4 128 138 140 130
4 131 141 139 129
4 130 140 142 132
4 133 143 141 131
4 132 142 144 134
4 134 144 143 133
4 135 145 146 136
4 137 147 145 135
4 136 146 148 138
4 139 149 147 137
4 138 148 150 140
4 141 151 149 139
4 140 150 152 142
4 143 153 151 141
4 142 152 154 144
4 144 154 153 143
4 145 155 156 146
4 147 157 155 145
4 146 156 158 148
4 149 159 157 147
4 148 158 160 150
4 151 161 159 149
4 150 160 162 152
4 153 163 161 151
4 152 162 164 154
4 154 164 163 153
4 155 165 166 156
4 157 167 165 155
4 156 166 168 158
4 159 169 167 157
4 158 168 170 160
4 161 171 169 159
4 160 170 172 162
4 163 173 171 161
4 162 172 174 164
4 164 174 173 163
4 165 175 176 166
4 167 177 175 165
4 166 176 178 168
4 169 179 177 167
4 168 178 180 170
4 171 181 179 169
4 170 180 182 172
4 173 183 181 171
4 172 182 184 174
4 174 184 183 173
4 175 15 185 176
4 177 186 15 175
4 176 185 187 178
4 179 16 186 177
4 178 187 188 180
4 181 17 16 179
4 180 188 189 182
4 183 190 17 181
4 182 189 191 184
4 184 191 190 183
3 15 14 185
3 186 16 15
3 185 14 187
4 189 187 14 191
4 0 12 22 9
3 190 14 17
3 191 14 190
3 189 188 187
