ply
format ascii 1.0
comment Created by Blender 3.2.1 - www.blender.org
element vertex 122
property float x
property float y
property float z
element face 125
property list uchar uint vertex_indices
end_header
-0.020033 -0.050450 -0.019235
-0.024375 -0.051895 -0.023737
-0.028018 -0.053229 -0.016781
-0.023236 -0.053107 -0.015947
-0.016014 -0.400747 -0.020869
-0.010007 -0.401116 -0.023805
-0.004985 -0.397859 -0.018958
-0.009856 -0.395169 -0.014426
-0.015249 -0.392526 -0.014196
-0.019393 -0.392631 -0.014918
-0.021445 -0.399877 -0.018225
-0.014948 -0.404321 -0.022692
-0.016224 -0.404354 -0.022915
-0.018448 -0.405716 -0.023461
-0.024712 -0.391143 -0.016799
-0.021767 -0.397634 -0.021885
-0.021024 -0.407066 -0.021717
-0.021048 -0.396184 -0.025984
-0.022529 -0.384512 -0.009429
-0.014559 -0.384309 -0.008040
-0.017344 -0.394655 -0.029216
-0.007083 -0.385299 -0.011405
-0.002937 -0.386399 -0.018647
-0.006381 -0.390453 -0.025794
-0.012243 -0.394525 -0.028327
-0.024268 -0.380218 -0.017235
-0.025901 -0.386656 -0.022650
-0.024630 -0.387497 -0.029535
-0.020215 -0.373741 -0.014378
-0.018312 -0.388206 -0.034973
-0.015591 -0.373623 -0.013572
-0.012445 -0.370804 -0.016695
-0.009705 -0.387987 -0.033474
-0.012152 -0.368056 -0.020328
-0.008093 -0.377941 -0.025205
-0.023001 -0.364387 -0.018172
-0.024001 -0.369007 -0.022390
-0.024380 -0.375103 -0.029073
-0.019938 -0.359729 -0.015651
-0.018595 -0.381049 -0.035811
-0.016112 -0.359632 -0.014985
-0.009508 -0.380818 -0.034228
-0.013294 -0.346871 -0.017175
-0.012448 -0.334167 -0.020516
-0.007996 -0.357408 -0.025663
-0.022110 -0.342698 -0.019041
-0.022430 -0.359191 -0.022156
-0.021893 -0.368502 -0.026399
-0.020130 -0.326175 -0.017084
-0.017861 -0.377726 -0.030133
-0.017099 -0.326098 -0.016556
-0.012281 -0.377584 -0.029161
-0.015421 -0.280931 -0.018281
-0.011918 -0.306649 -0.024754
-0.015063 -0.235804 -0.021370
-0.026074 -0.280371 -0.018344
-0.026907 -0.301616 -0.023169
-0.022541 -0.330059 -0.026434
-0.022839 -0.259085 -0.015552
-0.017768 -0.358463 -0.026402
-0.018376 -0.258971 -0.014774
-0.014579 -0.358382 -0.025846
-0.017273 -0.199821 -0.018853
-0.015992 -0.249537 -0.023898
-0.019406 -0.140746 -0.022511
-0.028865 -0.208081 -0.018419
-0.029507 -0.236171 -0.023887
-0.023829 -0.264904 -0.026687
-0.025349 -0.179939 -0.015045
-0.019062 -0.293623 -0.025120
-0.020089 -0.179805 -0.014129
-0.016991 -0.293570 -0.024759
-0.017154 -0.143912 -0.017809
-0.016689 -0.200832 -0.024529
-0.017350 -0.108102 -0.022285
-0.029561 -0.159376 -0.019050
-0.030671 -0.187638 -0.024286
-0.025748 -0.192436 -0.027471
-0.026030 -0.131076 -0.016373
-0.021447 -0.197214 -0.026432
-0.021406 -0.130959 -0.015567
-0.019055 -0.197153 -0.026015
-0.016689 -0.106247 -0.016707
-0.015692 -0.139383 -0.026244
-0.013081 -0.081593 -0.021648
-0.029556 -0.110493 -0.020028
-0.030310 -0.138090 -0.024423
-0.026575 -0.135090 -0.027378
-0.026695 -0.082864 -0.017695
-0.023009 -0.132069 -0.026967
-0.022710 -0.082763 -0.017000
-0.020616 -0.132008 -0.026550
-0.015113 -0.076857 -0.014599
-0.013188 -0.101532 -0.028227
-0.005851 -0.070981 -0.020430
-0.029656 -0.086707 -0.020454
-0.028519 -0.105125 -0.024244
-0.027165 -0.102838 -0.027455
-0.027782 -0.068213 -0.016427
-0.024061 -0.100497 -0.029301
-0.022839 -0.068088 -0.015566
-0.020394 -0.100404 -0.028662
-0.015073 -0.063328 -0.014333
-0.013009 -0.079532 -0.028754
-0.006664 -0.058616 -0.020622
-0.031653 -0.067194 -0.019865
-0.027306 -0.069569 -0.024176
-0.030927 -0.063842 -0.030691
-0.030440 -0.064653 -0.011596
-0.026523 -0.057945 -0.039763
-0.022150 -0.064442 -0.010151
-0.016640 -0.057694 -0.038041
-0.016014 -0.058306 -0.015222
-0.012541 -0.054917 -0.029474
-0.014558 -0.052297 -0.022023
-0.029595 -0.054932 -0.021118
-0.028134 -0.056553 -0.024373
-0.027706 -0.049884 -0.027138
-0.025361 -0.043164 -0.029254
-0.022013 -0.043079 -0.028671
-0.019942 -0.045453 -0.026037
-0.019826 -0.047868 -0.022960
4 0 1 2 3
4 4 5 6 7
3 7 8 4
4 8 9 10 4
3 11 5 4
3 12 11 4
3 13 12 4
4 10 14 15 16
4 16 15 17 13
4 9 18 14 10
4 8 19 18 9
4 13 17 20 12
4 7 21 19 8
4 6 22 21 7
4 5 23 22 6
4 11 24 23 5
4 12 20 24 11
4 14 25 26 15
4 15 26 27 17
4 18 28 25 14
4 17 27 29 20
4 19 30 28 18
4 21 31 30 19
4 20 29 32 24
4 22 33 31 21
4 23 34 33 22
4 24 32 34 23
4 25 35 36 26
4 26 36 37 27
4 28 38 35 25
4 27 37 39 29
4 30 40 38 28
4 29 39 41 32
4 31 42 40 30
4 33 43 42 31
4 32 41 44 34
4 34 44 43 33
4 35 45 46 36
4 36 46 47 37
4 38 48 45 35
4 37 47 49 39
4 40 50 48 38
4 39 49 51 41
4 42 52 50 40
4 41 51 53 44
4 43 54 52 42
4 44 53 54 43
4 45 55 56 46
4 46 56 57 47
4 48 58 55 45
4 47 57 59 49
4 50 60 58 48
4 49 59 61 51
4 52 62 60 50
4 51 61 63 53
4 54 64 62 52
4 53 63 64 54
4 55 65 66 56
4 56 66 67 57
4 58 68 65 55
4 57 67 69 59
4 60 70 68 58
4 59 69 71 61
4 62 72 70 60
4 61 71 73 63
4 64 74 72 62
4 63 73 74 64
4 65 75 76 66
4 66 76 77 67
4 68 78 75 65
4 67 77 79 69
4 70 80 78 68
4 69 79 81 71
4 72 82 80 70
4 71 81 83 73
4 74 84 82 72
4 73 83 84 74
4 75 85 86 76
4 76 86 87 77
4 78 88 85 75
4 77 87 89 79
4 80 90 88 78
4 79 89 91 81
4 82 92 90 80
4 81 91 93 83
4 84 94 92 82
4 83 93 94 84
4 85 95 96 86
4 86 96 97 87
4 88 98 95 85
4 87 97 99 89
4 90 100 98 88
4 89 99 101 91
4 92 102 100 90
4 91 101 103 93
4 94 104 102 92
4 93 103 104 94
4 95 105 106 96
4 96 106 107 97
4 98 108 105 95
4 97 107 109 99
4 100 110 108 98
4 99 109 111 101
4 102 112 110 100
4 101 111 113 103
4 104 114 112 102
4 103 113 114 104
4 105 115 116 106
4 106 116 117 107
4 108 2 115 105
4 107 117 118 109
4 110 3 2 108
4 109 118 119 111
4 112 0 3 110
4 111 119 120 113
4 114 121 0 112
4 113 120 121 114
3 115 1 116
3 116 1 117
3 2 1 115
4 1 120 118 117
4 16 13 4 10
3 121 1 0
3 120 1 121
3 120 119 118
