ply
format ascii 1.0
comment Created by Blender 3.2.1 - www.blender.org
element vertex 1000
property float x
property float y
property float z
element face 1147
property list uchar uint vertex_indices
end_header
0.017762 -0.001703 0.005824
0.008775 -0.001945 0.005191
0.010273 -0.003959 -0.000194
0.020286 -0.004153 -0.004710
0.183817 0.004485 -0.022895
0.179144 0.008157 -0.019625
0.179594 0.000872 -0.016570
0.183739 -0.000368 -0.020450
0.174658 0.010010 -0.019010
0.173859 0.002874 -0.015709
0.172901 0.008947 -0.021471
0.171105 0.004099 -0.019477
0.167422 0.010278 -0.022128
0.165392 0.006208 -0.020456
0.151926 0.016076 -0.020915
0.149399 0.011833 -0.018741
0.134343 0.025761 -0.014846
0.130372 0.018019 -0.008721
0.129658 0.027556 -0.014417
0.127054 0.019205 -0.008671
0.125867 0.027864 -0.015796
0.123850 0.020489 -0.010808
0.124746 0.026284 -0.018730
0.125562 0.020012 -0.012960
0.124446 0.024217 -0.021998
0.125108 0.020521 -0.018450
0.182715 0.006735 -0.026953
0.183498 0.000285 -0.029396
0.177077 0.012106 -0.025361
0.173767 0.013619 -0.025064
0.173556 0.011673 -0.025841
0.168473 0.012581 -0.025938
0.153325 0.018075 -0.025141
0.135809 0.027330 -0.023087
0.129806 0.030023 -0.022570
0.125749 0.030118 -0.022893
0.121871 0.026669 -0.024579
0.122545 0.024297 -0.025443
0.120891 0.022527 -0.026280
0.088646 0.026495 -0.038048
0.089298 0.020536 -0.035848
0.083289 0.021699 -0.038649
0.082033 0.024845 -0.039235
0.182206 0.007163 -0.030831
0.176292 0.012766 -0.031354
0.172952 0.014303 -0.031270
0.172908 0.012217 -0.030777
0.167901 0.013063 -0.030310
0.152743 0.018565 -0.029582
0.134977 0.028029 -0.029433
0.128928 0.030761 -0.029269
0.124981 0.030763 -0.028745
0.121501 0.026980 -0.027400
0.122350 0.024461 -0.026924
0.181759 0.004159 -0.033042
0.177677 0.008137 -0.035737
0.174526 0.009871 -0.036282
0.173105 0.009647 -0.035378
0.168868 0.011076 -0.035078
0.156123 0.014148 -0.032776
0.134032 0.022725 -0.032510
0.128765 0.025209 -0.032950
0.125743 0.026398 -0.032931
0.122756 0.025390 -0.030412
0.121725 0.024492 -0.028912
0.181726 0.001131 -0.032753
0.179207 0.002287 -0.036761
0.175976 0.003530 -0.038094
0.172820 0.004644 -0.037822
0.169032 0.006033 -0.038323
0.159708 0.009062 -0.033379
0.134074 0.018112 -0.031185
0.129418 0.019846 -0.032215
0.126683 0.020927 -0.033804
0.123546 0.021962 -0.032383
0.120587 0.022912 -0.030628
0.180134 -0.000986 -0.032952
0.175111 -0.001440 -0.036083
0.171377 -0.000796 -0.036926
0.169296 0.000496 -0.035989
0.162606 0.003456 -0.034774
0.152642 0.008002 -0.032760
0.130544 0.014166 -0.034207
0.124820 0.015000 -0.035735
0.120642 0.015835 -0.036507
0.118922 0.017679 -0.034559
0.118921 0.019659 -0.031570
0.029824 0.005507 -0.021751
0.030491 0.002893 -0.021506
0.023139 -0.000777 -0.026103
0.021396 0.003850 -0.023364
0.178835 -0.003223 -0.031175
0.171803 -0.004429 -0.032269
0.167775 -0.003896 -0.032417
0.166847 -0.001770 -0.031671
0.157529 0.004235 -0.030159
0.146107 0.007395 -0.029939
0.127002 0.007447 -0.031610
0.120257 0.006926 -0.032412
0.114900 0.008268 -0.032365
0.114556 0.011421 -0.031167
0.117540 0.015636 -0.029260
0.042244 0.008930 0.006459
0.033746 0.004822 0.009023
0.034800 0.003299 0.005401
0.043345 0.007187 0.002909
0.179261 -0.003580 -0.027931
0.172533 -0.005042 -0.026697
0.168581 -0.004572 -0.026282
0.167504 -0.002322 -0.026665
0.157964 0.003869 -0.026844
0.146614 0.006967 -0.026061
0.128067 0.006554 -0.023502
0.121560 0.005830 -0.022469
0.116250 0.007133 -0.022068
0.115655 0.010496 -0.022776
0.118206 0.015076 -0.024183
0.181003 -0.003581 -0.023827
0.175515 -0.004121 -0.020700
0.170692 -0.002906 -0.019888
0.169036 -0.000402 -0.022002
0.161294 0.003690 -0.023154
0.147607 0.007940 -0.021770
0.128458 0.009417 -0.014712
0.123837 0.010101 -0.013384
0.119887 0.012079 -0.013847
0.120385 0.013626 -0.015847
0.121540 0.016857 -0.020077
0.079132 0.022451 -0.012141
0.077030 0.024244 -0.013121
0.076144 0.023445 -0.021121
0.079728 0.018563 -0.019449
0.095178 0.011224 -0.035105
0.096132 0.011221 -0.030430
0.096924 0.017470 -0.029466
0.095975 0.017471 -0.032362
0.178637 0.002281 0.004579
0.174100 0.005030 0.005034
0.170143 0.002724 0.006346
0.175716 0.000194 0.005977
0.170985 0.006352 0.004541
0.166678 0.004333 0.006122
0.165900 0.008033 0.003050
0.159630 0.007893 0.002120
0.147970 0.015979 0.000682
0.127010 0.023159 -0.001413
0.142819 0.019509 0.001786
0.118064 0.027078 0.000912
0.137937 0.021327 0.000647
0.114104 0.028938 0.000411
0.117492 0.031605 -0.000311
0.109512 0.030963 0.001447
0.112518 0.034192 -0.000419
0.104809 0.033197 0.000530
0.108832 0.035187 -0.001820
0.102624 0.034346 -0.001283
0.108879 0.034704 -0.002477
0.105622 0.033140 -0.003390
0.107545 0.032520 -0.006631
0.180844 0.002691 0.002012
0.177443 -0.000132 0.000205
0.177342 0.005605 0.002097
0.174442 0.006379 0.001620
0.172347 0.008286 0.001725
0.168980 0.008698 0.001008
0.166930 0.010352 0.001041
0.160873 0.011672 -0.000056
0.124386 0.029762 -0.003274
0.119516 0.033429 -0.003284
0.114569 0.034812 -0.004078
0.112433 0.036622 -0.004015
0.041697 0.029836 -0.022703
0.042146 0.025263 -0.018182
0.039600 0.034083 -0.017361
0.039879 0.035824 -0.021628
0.181046 0.002814 -0.000651
0.177601 0.005763 -0.001338
0.174676 0.006521 -0.001466
0.172624 0.008454 -0.001919
0.169203 0.008834 -0.001937
0.167185 0.010508 -0.002324
0.161061 0.011785 -0.002510
0.124619 0.029904 -0.006359
0.119814 0.033611 -0.007210
0.114825 0.034967 -0.007444
0.112727 0.036800 -0.007872
0.179970 0.001442 -0.002617
0.176839 0.003512 -0.003602
0.174115 0.004258 -0.003281
0.171810 0.006226 -0.004499
0.167646 0.007118 -0.003734
0.163391 0.009186 -0.004239
0.151357 0.014808 -0.005416
0.124507 0.027877 -0.008627
0.119651 0.031360 -0.010456
0.116375 0.033458 -0.011409
0.110922 0.035681 -0.011580
0.178597 -0.000394 -0.003111
0.175815 0.000943 -0.003841
0.173443 0.001977 -0.003158
0.170619 0.003426 -0.005035
0.165999 0.005436 -0.003657
0.159693 0.008345 -0.003818
0.141242 0.017084 -0.007107
0.123994 0.025178 -0.009250
0.118772 0.027785 -0.011818
0.116529 0.029036 -0.014551
0.108207 0.032785 -0.013650
0.176321 -0.002151 -0.003549
0.172530 -0.001238 -0.005151
0.169412 0.000681 -0.004793
0.167095 0.001929 -0.004782
0.162776 0.005068 -0.003596
0.153694 0.009740 -0.003869
0.136920 0.016553 -0.006976
0.123178 0.021816 -0.009975
0.115964 0.022809 -0.014088
0.112340 0.023973 -0.015198
0.107720 0.027717 -0.013379
0.064950 0.016012 0.023901
0.060241 0.017546 0.023888
0.059865 0.015516 0.026021
0.064585 0.012404 0.025973
0.173919 -0.003942 -0.001967
0.168763 -0.004088 -0.003326
0.164791 -0.001536 -0.003481
0.163804 0.001131 -0.002839
0.159700 0.005138 -0.002540
0.147920 0.011686 -0.003343
0.132820 0.016649 -0.005518
0.122034 0.018089 -0.007777
0.112195 0.016415 -0.010838
0.107969 0.019087 -0.011017
0.107318 0.023222 -0.009799
0.173669 -0.004095 0.001328
0.168396 -0.004311 0.001511
0.164457 -0.001741 0.000936
0.163569 0.000989 0.000246
0.159562 0.005053 -0.000719
0.147830 0.011631 -0.002151
0.132634 0.016536 -0.003065
0.121684 0.017875 -0.003149
0.111557 0.016027 -0.002424
0.107362 0.018717 -0.003025
0.106887 0.022960 -0.004121
0.083111 0.035963 -0.010287
0.077620 0.034878 -0.012847
0.073876 0.030938 -0.007006
0.077505 0.030274 -0.005314
0.174315 -0.002680 0.004366
0.168929 -0.001379 0.005192
0.165174 0.000576 0.004600
0.161464 0.004254 0.002072
0.143074 0.013695 -0.000675
0.132310 0.017954 -0.000869
0.122862 0.021679 -0.001026
0.115120 0.023513 0.000204
0.108105 0.024765 0.001774
0.105062 0.026997 0.000575
0.106383 0.028567 -0.001733
0.167125 -0.001462 0.017381
0.166455 -0.002829 0.018042
0.166935 -0.002804 0.015003
0.165155 0.000316 0.018604
0.164014 -0.001782 0.018945
0.162386 0.001466 0.018096
0.161073 -0.000371 0.018200
0.159861 0.003504 0.019265
0.158068 0.000866 0.019964
0.156639 0.004608 0.018290
0.155617 0.002039 0.019382
0.141831 0.011325 0.016512
0.152911 0.003460 0.017174
0.126775 0.018158 0.014710
0.125709 0.016232 0.013716
0.113625 0.025674 0.015689
0.111839 0.022322 0.017158
0.107296 0.028803 0.015354
0.105225 0.025495 0.015484
0.104605 0.030175 0.015279
0.102332 0.026801 0.015771
0.101236 0.030661 0.013156
0.099098 0.028432 0.013971
0.093481 0.011224 -0.026201
0.097855 0.011216 -0.023653
0.095844 0.011219 -0.022675
0.093461 0.011223 -0.023920
0.167536 -0.000743 0.015945
0.166168 0.001933 0.016581
0.163651 0.003006 0.016295
0.161370 0.005295 0.016533
0.157245 0.006101 0.015708
0.130970 0.019393 0.013524
0.128244 0.020666 0.013256
0.114834 0.027542 0.012177
0.109316 0.031647 0.012213
0.106678 0.032778 0.011916
0.103027 0.031937 0.010599
0.101626 0.027703 0.008618
0.167658 -0.000668 0.014333
0.166395 0.002072 0.013565
0.163876 0.003142 0.013351
0.161656 0.005469 0.012748
0.157474 0.006240 0.012692
0.131252 0.019564 0.009807
0.128526 0.020838 0.009541
0.115149 0.027732 0.008040
0.109710 0.031886 0.007025
0.107065 0.033014 0.006798
0.103282 0.032093 0.007235
0.167533 -0.001567 0.013160
0.166084 0.000336 0.011480
0.163017 0.001842 0.011090
0.160573 0.003633 0.010035
0.156866 0.004534 0.010714
0.136652 0.014085 0.008601
0.125117 0.020304 0.006433
0.115178 0.025885 0.004286
0.111076 0.028199 0.003387
0.107543 0.029704 0.003221
0.104034 0.030116 0.004417
0.167223 -0.002763 0.012860
0.165483 -0.001821 0.011090
0.161791 -0.000068 0.010386
0.159117 0.001237 0.009440
0.156040 0.002563 0.010509
0.142099 0.009010 0.009946
0.121230 0.018972 0.005279
0.114340 0.022376 0.002319
0.111826 0.023513 0.002530
0.107462 0.025523 0.002447
0.104164 0.026981 0.003152
0.101111 0.036473 -0.013948
0.095831 0.037848 -0.013666
0.095204 0.037367 -0.010007
0.099821 0.037848 -0.006425
0.164932 -0.003756 0.011692
0.161739 -0.003181 0.009871
0.158578 -0.001503 0.009892
0.156418 -0.000064 0.010389
0.151395 0.003082 0.011219
0.134568 0.011028 0.009715
0.118640 0.017039 0.005799
0.111998 0.018682 0.002742
0.108389 0.019710 0.001305
0.102811 0.022716 0.001421
0.101823 0.024809 0.004013
0.162225 -0.005390 0.012736
0.157594 -0.005059 0.011593
0.155236 -0.002940 0.011746
0.154155 -0.000296 0.012446
0.147186 0.004589 0.012380
0.127210 0.013513 0.010273
0.116299 0.015861 0.008171
0.109827 0.015727 0.006346
0.104491 0.015470 0.004786
0.097835 0.019701 0.004559
0.099855 0.023644 0.006601
0.044280 0.029751 0.014753
0.036278 0.025699 0.014420
0.036714 0.021125 0.019003
0.044805 0.024469 0.019921
0.161976 -0.005541 0.016031
0.157250 -0.005269 0.016149
0.154943 -0.003117 0.015601
0.153974 -0.000405 0.014830
0.147091 0.004531 0.013642
0.127093 0.013442 0.011816
0.116039 0.015702 0.011604
0.109401 0.015469 0.011955
0.103922 0.015123 0.012289
0.097324 0.019389 0.011290
0.099598 0.023489 0.009964
0.015774 0.001019 0.012899
0.023705 0.004309 0.014804
0.023250 0.006813 0.013518
0.014776 0.005701 0.011327
0.164161 -0.004178 0.018081
0.160561 -0.003508 0.018996
0.157930 -0.001774 0.018106
0.155622 -0.000588 0.017745
0.150901 0.002303 0.016423
0.139767 0.007974 0.014746
0.120865 0.016082 0.013804
0.110299 0.018383 0.016074
0.104502 0.020441 0.016322
0.099640 0.022930 0.015576
0.099050 0.025407 0.012757
0.037840 0.034790 -0.008469
0.046620 0.033181 -0.003812
0.047526 0.034596 -0.011141
0.153474 0.003449 0.033013
0.149175 0.006080 0.033750
0.146917 0.002944 0.034332
0.151853 0.001243 0.033241
0.146531 0.006243 0.032115
0.145240 0.003673 0.032306
0.143029 0.007374 0.031266
0.142466 0.004742 0.031123
0.139116 0.007810 0.029129
0.138280 0.006442 0.027962
0.116152 0.016688 0.025639
0.119574 0.013341 0.024895
0.106092 0.021678 0.025686
0.106605 0.017907 0.026186
0.098654 0.024328 0.024234
0.099356 0.020579 0.025023
0.094165 0.026443 0.024096
0.095663 0.021843 0.025988
0.088257 0.028041 0.022214
0.086585 0.025292 0.022886
0.086167 0.027639 0.020165
0.084403 0.026215 0.020656
0.087887 0.025147 0.017808
0.155149 0.005023 0.031165
0.154008 0.000710 0.029467
0.151398 0.008101 0.031038
0.147941 0.008252 0.030072
0.143895 0.009860 0.029395
0.140568 0.009961 0.028451
0.113529 0.021082 0.024040
0.105753 0.024858 0.022956
0.098008 0.027270 0.021446
0.092355 0.029358 0.020450
0.089837 0.029725 0.019827
0.087786 0.028228 0.018753
0.098257 0.026198 -0.001942
0.098001 0.026198 0.003471
0.097197 0.019948 0.002630
0.096142 0.019948 -0.000030
0.155661 0.005023 0.028262
0.152093 0.008101 0.027097
0.148514 0.008252 0.026822
0.144480 0.009860 0.026075
0.141031 0.009961 0.025824
0.114115 0.021082 0.020720
0.106435 0.024858 0.019081
0.098642 0.027270 0.017850
0.092990 0.029358 0.016853
0.090411 0.029725 0.016577
0.088116 0.028228 0.016884
0.154959 0.003052 0.026368
0.150964 0.005607 0.024355
0.148121 0.005965 0.024693
0.144432 0.006789 0.024697
0.139376 0.008272 0.024273
0.118864 0.016893 0.019395
0.107843 0.021273 0.017078
0.101499 0.023811 0.015727
0.096147 0.025865 0.014690
0.092289 0.027330 0.013964
0.089246 0.026838 0.015387
0.153903 0.000952 0.026218
0.149298 0.002750 0.023904
0.147299 0.003430 0.024476
0.144242 0.004450 0.025668
0.137537 0.006928 0.024486
0.123151 0.012369 0.019986
0.108822 0.017664 0.017460
0.103742 0.019608 0.015527
0.098654 0.021503 0.014399
0.093383 0.023495 0.012776
0.089925 0.024612 0.014706
0.153762 -0.000992 0.026856
0.149044 -0.000421 0.024344
0.146672 0.000390 0.023832
0.143391 0.002972 0.025214
0.137346 0.005889 0.025128
0.122349 0.010650 0.021363
0.107525 0.015119 0.017303
0.102678 0.015769 0.014814
0.097699 0.017120 0.013238
0.092839 0.018297 0.011492
0.090483 0.020570 0.013083
0.153716 -0.002226 0.028451
0.148681 -0.002959 0.026745
0.145485 -0.002906 0.025824
0.142228 0.001341 0.026213
0.137344 0.005515 0.026100
0.122014 0.010391 0.023148
0.105959 0.012830 0.019211
0.100963 0.011744 0.017403
0.095838 0.012173 0.016035
0.091237 0.012407 0.014762
0.089902 0.015268 0.015275
0.088915 0.015268 0.020877
0.153386 -0.002226 0.030320
0.148072 -0.002959 0.030203
0.144753 -0.002906 0.029975
0.141826 0.001341 0.028495
0.137198 0.005515 0.026930
0.121782 0.010391 0.024462
0.105350 0.012830 0.022670
0.100037 0.011744 0.022659
0.094753 0.012173 0.022191
0.089994 0.012407 0.021816
0.095495 0.027192 -0.011701
0.089890 0.027467 -0.009523
0.090017 0.020661 -0.010268
0.095448 0.020798 -0.011429
0.152337 -0.001098 0.032113
0.147098 -0.000702 0.033056
0.144762 0.000355 0.032410
0.141914 0.002678 0.030368
0.137660 0.005866 0.027658
0.120595 0.011826 0.025069
0.105667 0.014958 0.025331
0.099429 0.016223 0.025491
0.094835 0.016882 0.025941
0.088064 0.019385 0.024747
0.086541 0.021371 0.022753
0.140965 0.003790 0.043950
0.139008 0.004851 0.044292
0.137130 0.003016 0.045631
0.139450 0.002416 0.045368
0.136667 0.005544 0.043872
0.135420 0.003510 0.044704
0.134212 0.006295 0.043466
0.133519 0.004066 0.043549
0.130909 0.007042 0.042540
0.130932 0.004730 0.043942
0.125263 0.008535 0.041270
0.128178 0.005558 0.041760
0.101939 0.014630 0.035918
0.101253 0.012929 0.036061
0.088739 0.020632 0.036567
0.077886 0.019018 0.037702
0.081676 0.022250 0.034617
0.067639 0.021880 0.034311
0.078890 0.022751 0.033650
0.069754 0.021393 0.032783
0.079359 0.022228 0.033181
0.073386 0.020420 0.033081
0.080265 0.018805 0.028797
0.142056 0.003499 0.042383
0.142331 0.001815 0.041932
0.140540 0.004985 0.042403
0.137820 0.006444 0.042052
0.135145 0.008158 0.041798
0.130665 0.007957 0.040397
0.122694 0.011478 0.039135
0.102776 0.015948 0.034608
0.098898 0.018884 0.034381
0.095264 0.019968 0.033640
0.088142 0.022900 0.032445
0.085354 0.022770 0.031571
0.013754 -0.000202 -0.025727
0.011647 0.006712 -0.024448
0.142269 0.003488 0.041381
0.140897 0.004969 0.040733
0.138270 0.006424 0.039939
0.135729 0.008131 0.039071
0.131055 0.007939 0.038560
0.123264 0.011451 0.036464
0.103215 0.015927 0.032549
0.099588 0.018853 0.031154
0.095964 0.019936 0.030358
0.088973 0.022862 0.028550
0.086066 0.022737 0.028234
0.142692 0.003028 0.040323
0.141305 0.004182 0.039033
0.139095 0.004817 0.038529
0.137130 0.005651 0.037729
0.134621 0.006339 0.037198
0.129253 0.008493 0.035181
0.117388 0.010817 0.033857
0.109279 0.013365 0.031721
0.099243 0.016469 0.029137
0.091416 0.019862 0.025871
0.087902 0.020408 0.025663
0.036801 0.011301 -0.018299
0.026402 0.015307 -0.017468
0.034351 0.018162 -0.014987
0.142831 0.001792 0.039591
0.141275 0.002280 0.037945
0.139542 0.002724 0.038237
0.138155 0.003099 0.038037
0.137664 0.003303 0.036428
0.134623 0.004170 0.035032
0.131158 0.005031 0.036180
0.118643 0.008414 0.034472
0.102082 0.012994 0.029934
0.093095 0.015590 0.025116
0.089025 0.016687 0.024630
0.082688 0.013889 0.023184
0.141065 0.000797 0.039698
0.138644 0.000515 0.037825
0.135734 0.001311 0.037208
0.134124 0.002146 0.037434
0.133669 0.002245 0.037300
0.125115 0.004481 0.035339
0.114907 0.007170 0.033028
0.100600 0.009039 0.027051
0.090293 0.011309 0.024076
0.083673 0.013173 0.022750
0.040567 0.034572 -0.023601
0.025890 0.000552 0.008208
0.026774 0.001478 0.001763
0.139281 0.000328 0.040551
0.135841 -0.000695 0.039201
0.131505 -0.000133 0.038086
0.129908 0.001554 0.038144
0.130040 0.002858 0.038595
0.116186 0.007007 0.035777
0.098450 0.009718 0.031344
0.080580 0.006750 0.025075
0.076537 0.006964 0.023935
0.073428 0.010763 0.024210
0.075694 0.011304 0.025057
0.023393 -0.007910 -0.016538
0.013681 -0.009512 -0.010952
0.014843 -0.009839 -0.017031
0.024253 -0.008781 -0.020068
0.138972 0.000342 0.041998
0.135270 -0.000668 0.041871
0.130851 -0.000103 0.041145
0.129420 0.001576 0.040425
0.129731 0.002872 0.040043
0.115925 0.007019 0.037001
0.097905 0.009743 0.033904
0.078988 0.006824 0.032529
0.074827 0.007043 0.031946
0.072108 0.010823 0.030386
0.074530 0.011357 0.030510
0.138980 0.000677 0.043866
0.135915 0.000622 0.044366
0.132878 0.001424 0.043762
0.131260 0.002523 0.042577
0.130080 0.002995 0.042134
0.121888 0.005862 0.039597
0.099401 0.011302 0.035758
0.077858 0.012493 0.037250
0.070714 0.014538 0.035624
0.070537 0.016195 0.033519
0.073596 0.015894 0.033476
0.116588 0.033060 -0.016669
0.116783 0.033061 -0.019936
0.116349 0.036186 -0.018171
0.112561 0.033068 -0.021188
0.107732 0.033076 -0.022229
0.111403 0.033069 -0.018219
-0.005792 0.002438 -0.009880
-0.009800 0.006447 -0.006334
-0.007966 0.008535 -0.006963
0.116689 0.033060 -0.016524
0.052469 0.010478 -0.001956
0.050994 0.010968 0.005655
0.043857 0.008331 -0.001760
0.049123 0.040803 -0.029771
0.047303 0.042109 -0.021461
0.086454 0.024086 0.008845
0.086047 0.025530 0.011159
0.086119 0.017320 0.014313
0.086433 0.017636 0.008966
0.104640 0.028707 -0.026328
0.105765 0.028703 -0.020482
0.109401 0.028699 -0.024537
0.030199 0.001370 -0.017496
0.011349 0.017787 0.012118
0.003186 0.014715 0.011186
0.004266 0.011775 0.009599
0.013006 0.012125 0.011458
0.051332 0.021530 -0.012563
0.059073 0.026944 -0.012849
0.059527 0.022098 -0.007946
0.052417 0.015650 -0.009643
0.077373 0.018042 0.024710
0.084155 0.016418 0.021884
0.084746 0.022327 0.018534
0.077857 0.023770 0.021967
0.115930 0.028686 -0.015136
0.119027 0.023682 -0.019793
0.116688 0.028687 -0.022681
0.116171 0.023686 -0.016553
0.105310 0.033998 -0.007926
0.099623 0.032898 -0.005274
0.099972 0.031179 -0.007307
0.118998 0.023683 -0.024305
0.115130 0.023690 -0.027207
0.035830 0.004822 -0.002795
0.111926 0.023696 -0.028471
0.108715 0.023701 -0.027895
0.093628 0.026198 0.007397
0.089122 0.026198 0.002351
0.088960 0.019948 0.003274
0.094652 0.019948 0.007704
0.097922 0.023718 -0.029671
0.096608 0.023719 -0.027618
0.100874 0.028712 -0.025850
0.120452 0.017430 -0.019288
0.120489 0.017433 -0.028865
0.045452 0.030567 0.006834
0.052701 0.034021 0.012365
0.053657 0.034838 0.005679
0.046747 0.030350 -0.000172
0.000774 0.028380 0.003779
0.000914 0.029905 0.000632
-0.004961 0.019645 -0.002182
-0.005386 0.018339 0.002249
0.001215 -0.002894 -0.002425
-0.001094 0.002605 0.002182
-0.007385 0.004887 -0.004639
0.072323 0.029319 0.017723
0.078695 0.026116 0.017214
0.079619 0.026522 0.011974
0.073623 0.029364 0.010351
0.116797 0.017439 -0.030594
0.087509 0.031823 0.004667
0.094692 0.031823 0.008917
0.083865 0.013802 0.023529
0.085014 0.010554 0.017010
0.108235 0.017451 -0.028106
0.111465 0.011198 -0.033884
0.101018 0.017464 -0.032171
0.103420 0.011211 -0.035048
0.027691 0.039122 -0.009561
0.030129 0.035148 -0.017255
0.020443 0.035342 -0.014584
0.019300 0.037247 -0.011041
0.094802 0.017471 -0.025714
0.096222 0.017470 -0.024766
0.099169 0.017465 -0.025643
0.112909 0.008070 -0.029504
0.118004 0.011186 -0.028859
0.118957 0.011184 -0.024185
0.111769 0.008070 -0.026277
0.107041 0.017451 -0.021336
0.107449 0.023700 -0.018916
0.103777 0.023707 -0.022927
0.000369 0.010554 -0.018377
-0.005553 0.003581 -0.013011
-0.002030 0.016106 -0.013341
0.035031 0.037621 0.003092
0.034757 0.035988 0.007171
0.079919 0.019948 -0.000161
0.082961 0.019948 0.002024
0.084279 0.026198 0.003908
0.080835 0.026198 0.002919
0.085273 0.025710 0.015546
0.063056 0.032991 -0.005801
0.064011 0.030976 -0.008106
0.057503 0.032442 -0.012428
0.055299 0.034130 -0.002536
0.002472 -0.005398 -0.005694
0.012405 -0.007715 -0.006482
0.097395 0.011220 -0.035793
0.118009 0.017433 -0.016229
0.102447 0.011209 -0.023415
0.025198 0.000335 0.012466
0.016829 -0.001377 0.010609
0.098489 0.026198 0.008254
0.098523 0.019948 0.008068
0.059485 0.027434 -0.015950
0.058934 0.030101 -0.016935
0.106807 0.011201 -0.019346
0.083737 0.022344 -0.017580
0.081336 0.023921 -0.011113
0.082049 0.018570 -0.018366
0.114399 0.011189 -0.017055
0.092108 0.031823 -0.005946
0.097424 0.031823 -0.005135
0.096563 0.026198 -0.003129
0.090187 0.026198 -0.003683
0.107057 0.008080 -0.033391
0.102459 0.008087 -0.035027
0.098458 0.008093 -0.033575
0.100657 0.023754 -0.011305
0.100588 0.019355 -0.010898
0.068506 0.016102 0.003732
0.068270 0.009968 0.005073
0.067411 0.009878 0.009948
0.088060 0.039955 -0.023149
0.083869 0.039717 -0.025104
0.082448 0.035952 -0.018182
0.086406 0.038271 -0.016335
0.037155 0.007164 -0.013921
0.043857 0.012686 -0.008488
0.098963 0.008091 -0.029234
0.101225 0.008087 -0.027311
0.082470 0.021928 -0.033342
0.107866 0.008077 -0.027537
0.105722 0.006518 -0.030516
0.085398 0.029165 -0.009219
0.078643 0.028927 -0.004784
0.077629 0.026843 -0.005256
0.080614 0.017929 -0.034208
0.077204 0.015958 -0.028212
0.080640 0.021988 -0.026609
0.105717 0.016329 -0.010297
0.106135 0.016191 -0.012737
0.105914 0.021829 -0.011450
0.105240 0.027948 -0.007519
0.106320 0.025885 -0.013821
0.106088 0.033242 -0.012466
0.071635 0.028784 -0.015638
0.073887 0.027675 -0.007001
0.069802 0.029969 -0.008906
0.051969 0.027138 -0.024827
0.051788 0.024905 -0.020354
0.106797 0.020935 -0.016599
0.101680 0.024510 -0.017267
0.065738 0.024062 -0.007231
0.060071 0.015673 -0.001123
0.084954 0.026198 -0.005683
0.089741 0.019948 -0.001158
0.083663 0.019948 -0.003753
0.066734 0.025530 0.013786
0.067808 0.022011 0.007692
0.061380 0.016599 0.017429
0.105032 0.030973 -0.006299
0.059276 0.015652 0.020451
0.060563 0.011321 0.022060
0.089665 0.021275 -0.029987
0.086966 0.015192 -0.031245
0.084192 0.014565 -0.032539
0.079705 0.013659 -0.027046
0.106889 0.032485 -0.017142
0.102343 0.031729 -0.021130
0.102063 0.035785 -0.019504
0.025247 0.037815 0.006318
0.025696 0.038414 0.002844
0.017004 0.037356 0.001818
0.016899 0.035777 0.004846
0.090818 0.021279 -0.014944
0.090191 0.017979 -0.011285
0.101203 0.019767 -0.014489
0.044293 0.013993 -0.012980
0.043691 0.016279 -0.013087
0.081694 0.028797 -0.026118
0.076869 0.026935 -0.020782
0.075606 0.032500 -0.021372
0.079859 0.036047 -0.026974
0.094971 0.032073 -0.008651
0.074686 0.025349 0.004318
0.094646 0.037367 -0.006754
0.083883 0.031319 -0.038372
0.091068 0.033648 -0.035021
0.094428 0.028315 -0.033456
0.031377 0.031118 -0.018114
0.102458 0.028842 -0.021807
0.096830 0.032623 -0.019495
0.080962 0.031823 0.004718
0.077033 0.031823 -0.005748
0.081891 0.031823 -0.006667
0.081305 0.026198 -0.004423
0.078517 0.026198 -0.004090
0.094600 0.034135 -0.006483
0.089413 0.031867 -0.006744
0.089367 0.034892 -0.006474
0.090923 0.035442 -0.015554
0.096633 0.036061 -0.018342
0.089105 0.037192 -0.030249
0.085705 0.037407 -0.031833
0.107296 0.027055 -0.019513
0.071004 0.031538 -0.015931
0.090517 0.027948 -0.013182
0.096121 0.022310 -0.015361
0.048252 0.043035 -0.028275
0.051378 0.029751 -0.025503
0.091400 0.031454 -0.018332
0.061240 0.012719 0.018221
0.066465 0.012042 0.015310
0.097298 0.031823 0.008170
0.097349 0.031823 0.003927
0.089155 0.032448 0.000007
0.060101 0.036748 0.005165
0.060028 0.032991 0.011372
0.062657 0.033337 0.008916
0.078178 0.031823 0.000357
0.084975 0.031823 -0.004727
0.099361 0.031823 -0.001367
0.109163 0.028697 -0.016711
-0.008845 0.009352 -0.003246
0.065788 0.010554 0.019148
0.072946 0.010554 0.014191
0.071860 0.010374 0.020345
0.082447 0.028790 -0.033352
0.080564 0.033116 -0.034230
0.089021 0.035242 -0.015116
0.085895 0.033273 -0.008988
0.009770 0.024593 0.010570
0.008239 0.033522 0.005478
0.001943 0.019506 0.010841
0.085950 0.009607 0.011708
0.086788 0.012539 0.006955
0.010963 0.033685 -0.010226
0.012109 0.031888 -0.013958
0.004183 0.027182 -0.013706
0.002672 0.029905 -0.009340
0.035187 0.005041 0.000519
0.079253 0.009607 0.014046
0.078115 0.008614 0.020505
0.017396 0.031422 0.008743
0.080028 0.026198 -0.000778
0.037652 0.007545 -0.017324
0.096423 0.027055 -0.017121
0.086889 0.016494 -0.023695
0.089368 0.020046 -0.022539
0.086110 0.019948 0.004675
0.085097 0.013698 0.003227
0.088156 0.013698 0.002433
0.093283 0.013698 0.003591
0.007818 0.000287 0.007181
0.079727 0.019948 -0.003748
0.081700 0.013698 -0.001624
0.021741 0.014054 0.010903
0.089600 0.013698 -0.000358
0.087691 0.013698 -0.002852
0.047277 0.040313 -0.018547
0.057019 0.018069 0.012491
0.055374 0.022697 0.014677
0.046958 0.019515 0.015350
0.048851 0.015922 0.010163
0.040465 0.012958 0.010334
0.031641 0.010213 0.012649
0.088540 0.012135 0.000977
0.092048 0.032599 -0.021289
0.089438 0.028549 -0.014921
0.091952 0.027086 -0.021334
0.059094 0.018403 0.021487
0.060595 0.020748 0.021877
0.037966 0.017695 0.017193
0.029073 0.017726 0.015624
-0.008750 0.008045 -0.001771
0.077460 0.009968 0.024221
0.071119 0.012810 0.024549
0.058739 0.011590 0.012732
0.057997 0.013333 0.014252
0.065530 0.019485 0.020611
0.065885 0.026116 0.018600
0.071603 0.028958 0.021807
0.071259 0.025168 0.023758
0.053537 0.027434 0.017781
0.053027 0.030482 0.015977
0.071044 0.018223 0.024975
0.091574 0.039122 -0.021511
0.065112 0.009968 0.022987
0.014986 -0.006517 -0.022971
0.024313 -0.005678 -0.025198
0.074901 0.009878 0.003100
0.074439 0.008118 0.005721
0.074547 0.014253 0.005112
0.074826 0.022327 0.003527
0.025655 0.033351 0.010896
0.077373 0.013306 0.024710
0.006332 0.006168 0.006536
0.080951 0.006855 0.004418
0.080479 0.007938 0.007100
0.083833 0.010193 0.023713
0.034814 0.034083 0.009781
0.060414 0.030051 0.013725
0.052572 0.033313 0.014184
0.018936 0.024399 0.010853
0.093626 0.013698 0.000922
0.082764 0.013107 -0.025619
0.079051 0.035491 -0.019766
0.073661 0.033234 -0.014692
0.081059 0.008028 0.003809
0.086551 0.009607 0.008296
0.105586 0.023706 -0.029589
0.064369 0.033881 -0.001634
0.061771 0.029343 0.007111
0.062797 0.030268 -0.000134
0.080919 0.021335 0.004601
0.080790 0.023500 0.005332
0.085251 0.025755 0.015669
0.045631 0.021421 0.019941
0.075197 0.028525 -0.004493
0.083497 0.027774 -0.038553
0.091333 0.022005 -0.034899
0.059597 0.011590 0.007869
0.090874 0.032529 -0.029422
0.083841 0.035713 -0.032703
0.005860 0.022718 -0.016330
0.008739 0.014443 -0.019884
0.080192 0.038243 -0.026818
0.092194 0.027808 -0.028807
0.080790 0.014253 0.005332
0.004765 -0.007630 -0.015254
-0.004306 0.012187 0.005613
0.044551 0.011870 -0.011157
0.065459 0.025695 -0.008168
0.052520 0.012384 -0.005183
0.006055 -0.008774 -0.020801
0.060658 0.037020 0.001583
0.053788 0.037178 0.001324
-0.004554 0.001729 -0.015819
-0.005200 0.015944 0.004885
0.003472 0.001299 -0.021701
0.005396 -0.005126 -0.022695
0.043874 0.033181 0.011761
0.027698 0.023714 0.014176
0.027299 0.038306 -0.006077
0.021798 0.030986 -0.015550
0.016285 0.018822 -0.017475
0.061480 0.028145 0.010613
0.060959 0.028309 0.013313
0.084361 0.013698 -0.003757
0.064097 0.028635 -0.004982
0.063076 0.036114 0.002263
4 0 1 2 3
4 4 5 6 7
4 5 8 9 6
4 8 10 11 9
4 10 12 13 11
4 12 14 15 13
4 14 16 17 15
4 16 18 19 17
4 18 20 21 19
4 20 22 23 21
4 22 24 25 23
3 26 4 27
4 26 28 5 4
4 28 29 8 5
4 29 30 10 8
4 30 31 12 10
4 31 32 14 12
4 32 33 16 14
4 33 34 18 16
4 34 35 20 18
4 35 36 22 20
4 36 37 24 22
3 37 38 24
4 39 40 41 42
4 43 44 28 26
4 44 45 29 28
4 45 46 30 29
4 46 47 31 30
4 47 48 32 31
4 48 49 33 32
4 49 50 34 33
4 50 51 35 34
4 51 52 36 35
4 52 53 37 36
3 53 38 37
4 54 55 44 43
4 55 56 45 44
4 56 57 46 45
4 57 58 47 46
4 58 59 48 47
4 59 60 49 48
4 60 61 50 49
4 61 62 51 50
4 62 63 52 51
4 63 64 53 52
3 64 38 53
3 65 54 27
4 65 66 55 54
4 66 67 56 55
4 67 68 57 56
4 68 69 58 57
4 69 70 59 58
4 70 71 60 59
4 71 72 61 60
4 72 73 62 61
4 73 74 63 62
4 74 75 64 63
3 75 38 64
3 76 65 27
4 76 77 66 65
4 77 78 67 66
4 78 79 68 67
4 79 80 69 68
4 80 81 70 69
4 81 82 71 70
4 82 83 72 71
4 83 84 73 72
4 84 85 74 73
4 85 86 75 74
3 86 38 75
4 87 88 89 90
4 91 92 77 76
4 92 93 78 77
4 93 94 79 78
4 94 95 80 79
4 95 96 81 80
4 96 97 82 81
4 97 98 83 82
4 98 99 84 83
4 99 100 85 84
4 100 101 86 85
4 102 103 104 105
4 106 107 92 91
4 107 108 93 92
4 108 109 94 93
4 109 110 95 94
4 110 111 96 95
4 111 112 97 96
4 112 113 98 97
4 113 114 99 98
4 114 115 100 99
4 115 116 101 100
3 117 106 27
4 117 118 107 106
4 118 119 108 107
4 119 120 109 108
4 120 121 110 109
4 121 122 111 110
4 122 123 112 111
4 123 124 113 112
4 124 125 114 113
4 125 126 115 114
4 126 127 116 115
4 128 129 130 131
4 7 6 118 117
4 6 9 119 118
4 9 11 120 119
4 11 13 121 120
4 13 15 122 121
4 15 17 123 122
4 17 19 124 123
4 19 21 125 124
4 21 23 126 125
4 23 25 127 126
4 132 133 134 135
4 54 43 26 27
4 136 137 138 139
4 137 140 141 138
4 140 142 143 141
4 142 144 145 143
4 144 146 147 145
4 146 148 149 147
4 148 150 151 149
4 150 152 153 151
4 152 154 155 153
4 154 156 157 155
3 156 158 157
3 159 136 160
4 159 161 137 136
4 161 162 140 137
4 162 163 142 140
4 163 164 144 142
4 164 165 146 144
4 165 166 148 146
4 166 167 150 148
4 167 168 152 150
4 168 169 154 152
4 169 170 156 154
4 171 172 173 174
3 175 159 160
4 175 176 161 159
4 176 177 162 161
4 177 178 163 162
4 178 179 164 163
4 179 180 165 164
4 180 181 166 165
4 181 182 167 166
4 182 183 168 167
4 183 184 169 168
4 184 185 170 169
3 186 175 160
4 186 187 176 175
4 187 188 177 176
4 188 189 178 177
4 189 190 179 178
4 190 191 180 179
4 191 192 181 180
4 192 193 182 181
4 193 194 183 182
4 194 195 184 183
4 195 196 185 184
3 196 158 185
3 197 186 160
4 197 198 187 186
4 198 199 188 187
4 199 200 189 188
4 200 201 190 189
4 201 202 191 190
4 202 203 192 191
4 203 204 193 192
4 204 205 194 193
4 205 206 195 194
4 206 207 196 195
3 207 158 196
3 208 197 160
4 208 209 198 197
4 209 210 199 198
4 210 211 200 199
4 211 212 201 200
4 212 213 202 201
4 213 214 203 202
4 214 215 204 203
4 215 216 205 204
4 216 217 206 205
4 217 218 207 206
3 218 158 207
4 219 220 221 222
4 223 224 209 208
4 224 225 210 209
4 225 226 211 210
4 226 227 212 211
4 227 228 213 212
4 228 229 214 213
4 229 230 215 214
4 230 231 216 215
4 231 232 217 216
4 232 233 218 217
3 233 158 218
4 234 235 224 223
4 235 236 225 224
4 236 237 226 225
4 237 238 227 226
4 238 239 228 227
4 239 240 229 228
4 240 241 230 229
4 241 242 231 230
4 242 243 232 231
4 243 244 233 232
4 245 246 247 248
3 249 234 160
4 249 250 235 234
4 250 251 236 235
4 251 252 237 236
4 252 253 238 237
4 253 254 239 238
4 254 255 240 239
4 255 256 241 240
4 256 257 242 241
4 257 258 243 242
4 258 259 244 243
4 139 138 250 249
4 138 141 251 250
4 141 143 252 251
4 143 145 253 252
4 145 147 254 253
4 147 149 255 254
4 149 151 256 255
4 151 153 257 256
4 153 155 258 257
4 155 157 259 258
3 157 158 259
3 260 261 262
4 260 263 264 261
4 263 265 266 264
4 265 267 268 266
4 267 269 270 268
4 269 271 272 270
4 271 273 274 272
4 273 275 276 274
4 275 277 278 276
4 277 279 280 278
4 279 281 282 280
4 283 284 285 286
3 287 260 262
4 287 288 263 260
4 288 289 265 263
4 289 290 267 265
4 290 291 269 267
4 291 292 271 269
4 292 293 273 271
4 293 294 275 273
4 294 295 277 275
4 295 296 279 277
4 296 297 281 279
3 297 298 281
3 299 287 262
4 299 300 288 287
4 300 301 289 288
4 301 302 290 289
4 302 303 291 290
4 303 304 292 291
4 304 305 293 292
4 305 306 294 293
4 306 307 295 294
4 307 308 296 295
4 308 309 297 296
3 309 298 297
3 310 299 262
4 310 311 300 299
4 311 312 301 300
4 312 313 302 301
4 313 314 303 302
4 314 315 304 303
4 315 316 305 304
4 316 317 306 305
4 317 318 307 306
4 318 319 308 307
4 319 320 309 308
3 320 298 309
3 321 310 262
4 321 322 311 310
4 322 323 312 311
4 323 324 313 312
4 324 325 314 313
4 325 326 315 314
4 326 327 316 315
4 327 328 317 316
4 328 329 318 317
4 329 330 319 318
4 330 331 320 319
4 332 333 334 335
3 336 321 262
4 336 337 322 321
4 337 338 323 322
4 338 339 324 323
4 339 340 325 324
4 340 341 326 325
4 341 342 327 326
4 342 343 328 327
4 343 344 329 328
4 344 345 330 329
4 345 346 331 330
4 347 348 337 336
4 348 349 338 337
4 349 350 339 338
4 350 351 340 339
4 351 352 341 340
4 352 353 342 341
4 353 354 343 342
4 354 355 344 343
4 355 356 345 344
4 356 357 346 345
3 357 298 346
4 358 359 360 361
4 362 363 348 347
4 363 364 349 348
4 364 365 350 349
4 365 366 351 350
4 366 367 352 351
4 367 368 353 352
4 368 369 354 353
4 369 370 355 354
4 370 371 356 355
4 371 372 357 356
3 372 298 357
4 373 374 375 376
4 377 378 363 362
4 378 379 364 363
4 379 380 365 364
4 380 381 366 365
4 381 382 367 366
4 382 383 368 367
4 383 384 369 368
4 384 385 370 369
4 385 386 371 370
4 386 387 372 371
3 387 298 372
3 261 377 262
4 261 264 378 377
4 264 266 379 378
4 266 268 380 379
4 268 270 381 380
4 270 272 382 381
4 272 274 383 382
4 274 276 384 383
4 276 278 385 384
4 278 280 386 385
4 280 282 387 386
4 173 388 389 390
4 391 392 393 394
4 392 395 396 393
4 395 397 398 396
4 397 399 400 398
4 399 401 402 400
4 401 403 404 402
4 403 405 406 404
4 405 407 408 406
4 407 409 410 408
4 409 411 412 410
3 411 413 412
3 414 391 415
4 414 416 392 391
4 416 417 395 392
4 417 418 397 395
4 418 419 399 397
4 419 420 401 399
4 420 421 403 401
4 421 422 405 403
4 422 423 407 405
4 423 424 409 407
4 424 425 411 409
3 425 413 411
4 426 427 428 429
4 430 431 416 414
4 431 432 417 416
4 432 433 418 417
4 433 434 419 418
4 434 435 420 419
4 435 436 421 420
4 436 437 422 421
4 437 438 423 422
4 438 439 424 423
4 439 440 425 424
3 440 413 425
4 441 442 431 430
4 442 443 432 431
4 443 444 433 432
4 444 445 434 433
4 445 446 435 434
4 446 447 436 435
4 447 448 437 436
4 448 449 438 437
4 449 450 439 438
4 450 451 440 439
3 451 413 440
3 452 441 415
4 452 453 442 441
4 453 454 443 442
4 454 455 444 443
4 455 456 445 444
4 456 457 446 445
4 457 458 447 446
4 458 459 448 447
4 459 460 449 448
4 460 461 450 449
4 461 462 451 450
3 462 413 451
3 463 452 415
4 463 464 453 452
4 464 465 454 453
4 465 466 455 454
4 466 467 456 455
4 467 468 457 456
4 468 469 458 457
4 469 470 459 458
4 470 471 460 459
4 471 472 461 460
4 472 473 462 461
3 473 413 462
3 474 463 415
4 474 475 464 463
4 475 476 465 464
4 476 477 466 465
4 477 478 467 466
4 478 479 468 467
4 479 480 469 468
4 480 481 470 469
4 481 482 471 470
4 482 483 472 471
4 483 484 473 472
3 484 485 473
3 486 474 415
4 486 487 475 474
4 487 488 476 475
4 488 489 477 476
4 489 490 478 477
4 490 491 479 478
4 491 492 480 479
4 492 493 481 480
4 493 494 482 481
4 494 495 483 482
4 495 485 484 483
4 496 497 498 499
3 500 486 415
4 500 501 487 486
4 501 502 488 487
4 502 503 489 488
4 503 504 490 489
4 504 505 491 490
4 505 506 492 491
4 506 507 493 492
4 507 508 494 493
4 508 509 495 494
4 509 510 485 495
4 394 393 501 500
4 393 396 502 501
4 396 398 503 502
4 398 400 504 503
4 400 402 505 504
4 402 404 506 505
4 404 406 507 506
4 406 408 508 507
4 408 410 509 508
4 410 412 510 509
3 412 413 510
4 511 512 513 514
4 512 515 516 513
4 515 517 518 516
4 517 519 520 518
4 519 521 522 520
4 521 523 524 522
4 523 525 526 524
4 525 527 528 526
4 527 529 530 528
4 529 531 532 530
3 531 533 532
3 534 511 535
4 534 536 512 511
4 536 537 515 512
4 537 538 517 515
4 538 539 519 517
4 539 540 521 519
4 540 541 523 521
4 541 542 525 523
4 542 543 527 525
4 543 544 529 527
4 544 545 531 529
4 90 89 546 547
3 548 534 535
4 548 549 536 534
4 549 550 537 536
4 550 551 538 537
4 551 552 539 538
4 552 553 540 539
4 553 554 541 540
4 554 555 542 541
4 555 556 543 542
4 556 557 544 543
4 557 558 545 544
3 559 548 535
4 559 560 549 548
4 560 561 550 549
4 561 562 551 550
4 562 563 552 551
4 563 564 553 552
4 564 565 554 553
4 565 566 555 554
4 566 567 556 555
4 567 568 557 556
4 568 569 558 557
4 570 87 571 572
3 573 559 535
4 573 574 560 559
4 574 575 561 560
4 575 576 562 561
4 576 577 563 562
4 577 578 564 563
4 578 579 565 564
4 579 580 566 565
4 580 581 567 566
4 581 582 568 567
4 582 583 569 568
3 583 584 569
3 585 573 535
4 585 586 574 573
4 586 587 575 574
4 587 588 576 575
4 588 589 577 576
4 589 590 578 577
4 590 591 579 578
4 591 592 580 579
4 592 593 581 580
4 593 594 582 581
4 594 584 583 582
3 174 595 171
4 104 103 596 597
4 598 599 586 585
4 599 600 587 586
4 600 601 588 587
4 601 602 589 588
4 602 603 590 589
4 603 604 591 590
4 604 605 592 591
4 605 606 593 592
4 606 607 594 593
4 607 608 584 594
4 609 610 611 612
4 613 614 599 598
4 614 615 600 599
4 615 616 601 600
4 616 617 602 601
4 617 618 603 602
4 618 619 604 603
4 619 620 605 604
4 620 621 606 605
4 621 622 607 606
4 622 623 608 607
3 624 613 535
4 624 625 614 613
4 625 626 615 614
4 626 627 616 615
4 627 628 617 616
4 628 629 618 617
4 629 630 619 618
4 630 631 620 619
4 631 632 621 620
4 632 633 622 621
4 633 634 623 622
3 634 533 623
4 514 513 625 624
4 513 516 626 625
4 516 518 627 626
4 518 520 628 627
4 520 522 629 628
4 522 524 630 629
4 524 526 631 630
4 526 528 632 631
4 528 530 633 632
4 530 532 634 633
3 532 533 634
3 635 636 637
3 636 638 637
3 639 640 638
3 641 642 643
3 640 644 637
3 644 635 637
4 645 646 105 647
3 595 648 649
4 650 651 652 653
3 654 655 656
3 3 609 657
4 658 659 660 661
4 662 663 664 665
4 666 667 668 669
3 670 635 644
3 671 672 673
3 674 675 676
3 671 677 672
3 677 678 672
4 597 3 657 679
3 680 681 656
4 682 683 684 685
4 362 336 262 377
3 686 687 688
4 689 690 677 671
4 394 500 415 391
4 691 692 693 694
4 695 696 697 698
3 636 635 670
4 699 700 701 641
4 702 703 704 705
3 706 680 678
4 707 683 682 708
4 709 710 652 667
4 711 680 706 712
3 135 134 713
4 714 713 711 712
4 715 716 717 718
3 719 720 687
3 687 720 721
4 722 723 724 725
3 726 727 728
4 729 730 643 731
4 694 732 733 691
4 734 735 736 737
3 723 706 690
4 703 669 668 738
4 739 740 741 742
4 2 699 743 744
4 687 686 134 719
3 745 132 135
4 746 673 727 726
4 747 726 728 721
3 283 286 719
4 748 749 0 596
4 750 682 685 751
4 741 663 752 753
3 284 747 721
3 747 754 726
4 755 756 128 757
3 725 724 758
4 759 760 761 762
3 763 712 722
3 655 654 728
3 763 714 712
3 763 764 714
3 764 745 714
3 764 765 745
3 765 132 745
4 766 496 499 767
3 768 769 770
4 771 772 773 774
4 679 775 776 647
3 777 778 284
3 778 747 284
3 41 40 779
3 725 780 722
3 722 780 763
3 781 764 763
4 584 533 558 569
4 782 783 784 756
4 441 430 414 415
4 779 785 786 787
3 788 789 790
3 791 766 792
3 792 793 791
4 794 129 795 796
4 172 171 797 798
3 799 800 792
3 792 790 799
3 801 802 664
4 803 762 804 805
3 806 807 808
3 791 809 676
4 690 706 678 677
4 221 220 810 811
3 812 813 40
4 785 814 815 786
3 816 817 818
4 780 725 758 754
4 819 820 821 822
3 823 824 498
3 799 825 800
3 799 790 825
4 427 750 751 428
4 662 665 826 827
4 828 829 830 831
3 676 832 496
4 816 818 332 793
4 807 806 705 833
3 335 334 834
4 39 835 836 837
3 711 681 680
3 838 716 173
3 817 839 840
4 139 249 160 136
4 841 737 736 707
4 842 843 844 845
3 499 498 824
4 733 732 820 819
4 745 135 713 714
3 832 846 847
3 674 335 675
3 834 334 848
3 334 849 848
3 334 333 849
3 333 850 849
4 851 852 772 771
4 853 792 800 839
4 830 829 794 854
3 823 855 856
3 648 857 649
4 133 283 719 134
3 497 847 855
3 797 858 753
3 849 859 855
3 860 808 861
3 862 863 708
3 864 841 707
3 865 866 867
4 838 173 172 572
3 843 868 869
3 864 759 869
4 818 850 333 332
3 864 863 870
3 808 807 861
4 673 670 871 727
4 798 752 663 662
3 707 736 683
4 788 790 766 767
4 697 731 643 872
4 873 861 874 875
4 876 828 831 877
3 843 803 844
3 843 869 803
3 869 762 803
3 869 759 762
4 878 774 245 879
4 880 881 695 882
4 652 883 884 653
3 284 283 133
4 885 886 887 888
4 647 105 889 679
4 874 890 891 875
4 892 822 881 880
3 893 734 737
4 775 657 88 894
3 855 895 856
4 888 887 731 697
3 844 803 805
4 855 823 498 497
3 761 426 429
4 896 897 755 757
4 898 899 900 684
3 901 428 685
4 3 744 610 609
4 902 1 749 373
3 898 735 899
4 780 747 778 781
3 734 903 904
3 903 805 904
4 779 787 828 876
4 905 661 376 375
3 804 906 907
4 753 858 908 741
4 909 910 911 912
4 913 914 103 102
3 915 906 900
3 900 899 915
4 916 878 917 918
3 915 899 907
3 907 906 915
4 789 788 767 825
3 919 220 920
3 919 810 220
4 921 360 922 914
3 810 919 808
3 919 920 808
4 902 700 699 1
3 639 638 656
3 923 701 700
4 875 891 924 925
4 760 870 426 761
4 926 927 912 646
4 779 876 42 41
4 809 791 793 674
4 724 723 690 689
4 791 676 496 766
3 808 920 928
3 777 284 133
3 808 928 806
3 929 930 702
3 929 931 930
4 358 361 932 933
3 928 219 934
4 935 771 774 878
3 936 873 875
4 612 611 937 938
3 861 770 874
4 514 624 535 511
3 769 939 940
3 769 941 939
3 769 768 941
3 768 942 941
4 723 722 712 706
4 817 840 850 818
4 839 800 895 840
4 656 638 636 672
3 930 931 669
4 943 819 822 892
4 675 846 832 676
3 925 924 944
4 376 945 902 373
4 931 934 666 669
3 928 929 806
3 940 946 947
4 891 890 710 948
3 654 688 728
4 718 717 886 885
4 949 733 819 943
4 944 709 667 666
4 933 950 866 951
4 952 892 880 658
4 429 953 906 804
4 795 129 756 784
4 814 813 954 815
3 924 891 948
4 955 830 956 246
3 890 883 710
4 185 158 156 170
3 946 957 947
4 874 940 947 890
3 957 884 958
4 134 686 959 713
4 960 867 961 962
3 963 964 650
4 897 918 917 755
3 704 965 651
3 704 738 965
3 704 703 738
3 738 668 652
3 668 667 652
3 948 710 709
4 910 932 966 911
3 710 883 652
3 958 884 883
3 735 898 736
4 953 429 428 901
3 651 965 652
3 965 738 652
4 784 783 248 967
3 39 968 835
3 39 42 968
4 613 598 585 535
3 39 969 40
3 39 837 969
4 970 646 645 802
3 836 851 971
3 836 852 851
4 850 840 859 849
4 858 797 171 595
4 558 533 531 545
3 968 42 876
3 779 40 813
4 972 836 835 877
3 662 827 172
3 775 894 570
4 792 853 816 793
3 969 812 40
4 848 849 855 847
4 708 682 750 862
4 770 861 807 768
4 335 834 846 675
3 851 771 935
4 973 974 729 731
4 708 863 864 707
3 972 831 975
3 972 877 831
4 879 245 248 783
4 687 721 728 688
3 777 765 764
4 934 925 944 666
4 221 811 936 222
3 813 896 954
4 844 805 903 845
4 812 976 918 897
4 928 934 931 929
3 916 935 878
4 835 968 876 877
4 853 839 817 816
4 793 332 335 674
3 975 831 955
3 831 830 955
4 941 977 957 939
4 971 851 935 916
3 786 131 787
3 815 131 786
3 131 130 787
4 610 744 743 978
3 954 896 757
4 705 704 964 833
3 655 639 656
4 660 979 700 945
4 775 570 826 980
3 774 773 245
4 741 740 981 663
4 678 680 656 672
3 830 854 956
4 374 373 749 748
3 130 129 829
4 665 664 802 982
4 952 658 661 905
3 757 128 131
4 961 909 802 962
4 219 222 925 934
4 862 750 427 863
3 782 879 783
4 942 963 977 941
4 116 38 86 101
4 812 897 896 813
3 956 854 796
3 854 794 796
4 611 610 978 983
3 128 756 129
4 755 917 782 756
4 720 719 286 285
4 597 596 0 3
3 248 247 967
3 796 795 247
4 984 960 742 985
3 795 784 967
3 872 643 642
3 730 641 643
3 986 641 730
4 810 808 860 811
3 641 701 642
3 923 872 701
4 882 987 979 659
3 698 697 872
4 821 718 885 881
4 826 570 572 827
3 988 986 729
3 989 978 988
4 806 929 702 705
3 983 978 989
4 885 888 696 881
3 932 361 966
3 743 699 641
4 758 724 689 746
3 979 923 700
3 795 967 247
3 949 990 691
3 987 698 872
4 943 892 952 991
3 696 888 697
4 954 757 131 815
3 887 973 731
4 222 936 875 925
3 127 25 24
4 992 718 821 820
4 993 994 973 886
3 937 611 983
4 832 847 497 496
3 970 909 926
4 939 957 946 940
3 2 1 699
4 695 698 987 882
3 902 945 700
4 990 949 359 358
3 660 659 979
3 790 789 825
4 870 863 427 426
3 881 696 695
4 693 985 389 694
4 571 90 547 994
3 886 973 887
4 956 796 247 246
3 994 974 973
3 994 547 974
4 689 671 673 746
4 950 995 867 866
4 959 654 656 681
4 127 24 38 116
4 977 653 884 957
4 947 958 883 890
3 3 2 744
4 664 663 981 801
3 0 749 1
4 974 547 988 729
4 865 984 985 693
4 732 388 992 820
4 648 595 174 857
4 845 903 734 893
4 779 813 814 785
3 822 821 881
4 777 764 781 778
4 901 900 906 953
3 717 993 886
4 259 158 233 244
3 571 87 90
3 957 958 947
3 950 996 995
4 825 767 499 856
3 657 609 612
4 685 684 900 901
3 960 739 742
3 129 794 829
4 657 612 938 88
4 937 983 989 546
3 933 932 950
4 346 298 320 331
4 865 693 692 866
4 933 951 990 358
4 219 928 920 220
3 992 715 718
4 413 473 485 510
4 997 907 899 904
3 838 572 571
4 658 880 882 659
4 686 688 654 959
3 775 679 657
4 842 845 893 868
3 679 889 597
3 889 104 597
4 106 91 76 27
3 103 748 596
3 766 790 792
3 914 375 374
3 914 905 375
3 914 922 905
4 838 571 994 993
4 772 975 955 773
4 716 838 993 717
4 864 869 868 841
4 987 872 923 979
3 388 715 992
3 860 861 873
4 754 758 746 726
4 649 174 173 908
4 912 913 102 646
4 807 833 942 768
3 172 827 572
4 978 743 641 986
4 811 860 873 936
3 980 776 775
3 972 852 836
4 964 704 651 650
4 833 964 963 942
3 105 104 889
4 805 804 907 997
4 647 776 982 645
3 913 921 914
4 800 825 856 895
4 773 955 246 245
4 742 741 390 389
4 868 893 737 841
3 733 949 691
3 389 732 694
4 963 650 653 977
3 389 388 732
4 856 499 824 823
3 908 173 390
3 640 637 638
4 359 949 943 991
3 649 857 174
4 661 660 945 376
3 595 649 908
4 770 769 940 874
3 805 997 904
3 798 662 172
3 428 751 685
4 837 976 812 969
3 665 980 826
3 665 776 980
3 665 982 776
3 843 842 868
4 787 130 829 828
4 655 871 640 639
3 646 102 105
4 924 948 709 944
4 546 989 988 547
3 911 966 921
4 991 952 905 922
3 978 986 988
4 735 734 904 899
3 362 347 336
3 951 692 990
4 972 975 772 852
4 298 387 282 281
4 864 870 760 759
3 985 742 389
4 234 223 208 160
4 834 848 847 846
3 858 595 908
4 871 670 644 640
4 950 932 910 996
3 780 781 763
4 894 88 87 570
4 762 761 429 804
4 911 921 913 912
3 797 753 798
4 89 938 937 546
3 802 645 982
4 765 777 133 132
3 970 926 646
4 683 736 898 684
3 927 909 912
3 872 642 701
4 976 971 916 918
4 284 721 720 285
4 670 673 672 636
3 866 692 951
3 809 674 676
4 361 360 921 966
4 7 117 27 4
4 855 859 840 895
4 727 871 655 728
3 909 927 926
4 711 713 959 681
3 88 938 89
4 173 716 715 388
3 986 730 729
3 801 998 802
3 998 962 802
4 360 359 991 922
3 995 909 961
4 930 669 703 702
3 909 970 802
4 837 836 971 976
3 995 910 909
3 995 996 910
4 917 878 879 782
4 914 374 748 103
3 998 801 981
3 999 865 867
3 780 754 747
3 999 984 865
3 999 960 984
3 691 990 692
3 960 998 739
3 998 740 739
3 998 981 740
3 960 962 998
3 867 995 961
3 753 752 798
4 623 533 584 608
3 741 908 390
